%TF.GenerationSoftware,KiCad,Pcbnew,8.0.7-8.0.7-0~ubuntu24.04.1*%
%TF.CreationDate,2024-12-30T21:09:26+02:00*%
%TF.ProjectId,LRL5,4c524c35-2e6b-4696-9361-645f70636258,rev?*%
%TF.SameCoordinates,Original*%
%TF.FileFunction,Legend,Bot*%
%TF.FilePolarity,Positive*%
%FSLAX46Y46*%
G04 Gerber Fmt 4.6, Leading zero omitted, Abs format (unit mm)*
G04 Created by KiCad (PCBNEW 8.0.7-8.0.7-0~ubuntu24.04.1) date 2024-12-30 21:09:26*
%MOMM*%
%LPD*%
G01*
G04 APERTURE LIST*
%ADD10C,0.100000*%
%ADD11C,0.150000*%
%ADD12C,0.120000*%
G04 APERTURE END LIST*
D10*
X160622419Y-53053884D02*
X159622419Y-53053884D01*
X159622419Y-53053884D02*
X159622419Y-53434836D01*
X159622419Y-53434836D02*
X159670038Y-53530074D01*
X159670038Y-53530074D02*
X159717657Y-53577693D01*
X159717657Y-53577693D02*
X159812895Y-53625312D01*
X159812895Y-53625312D02*
X159955752Y-53625312D01*
X159955752Y-53625312D02*
X160050990Y-53577693D01*
X160050990Y-53577693D02*
X160098609Y-53530074D01*
X160098609Y-53530074D02*
X160146228Y-53434836D01*
X160146228Y-53434836D02*
X160146228Y-53053884D01*
X160098609Y-54387217D02*
X160146228Y-54530074D01*
X160146228Y-54530074D02*
X160193847Y-54577693D01*
X160193847Y-54577693D02*
X160289085Y-54625312D01*
X160289085Y-54625312D02*
X160431942Y-54625312D01*
X160431942Y-54625312D02*
X160527180Y-54577693D01*
X160527180Y-54577693D02*
X160574800Y-54530074D01*
X160574800Y-54530074D02*
X160622419Y-54434836D01*
X160622419Y-54434836D02*
X160622419Y-54053884D01*
X160622419Y-54053884D02*
X159622419Y-54053884D01*
X159622419Y-54053884D02*
X159622419Y-54387217D01*
X159622419Y-54387217D02*
X159670038Y-54482455D01*
X159670038Y-54482455D02*
X159717657Y-54530074D01*
X159717657Y-54530074D02*
X159812895Y-54577693D01*
X159812895Y-54577693D02*
X159908133Y-54577693D01*
X159908133Y-54577693D02*
X160003371Y-54530074D01*
X160003371Y-54530074D02*
X160050990Y-54482455D01*
X160050990Y-54482455D02*
X160098609Y-54387217D01*
X160098609Y-54387217D02*
X160098609Y-54053884D01*
X159622419Y-54958646D02*
X159622419Y-55577693D01*
X159622419Y-55577693D02*
X160003371Y-55244360D01*
X160003371Y-55244360D02*
X160003371Y-55387217D01*
X160003371Y-55387217D02*
X160050990Y-55482455D01*
X160050990Y-55482455D02*
X160098609Y-55530074D01*
X160098609Y-55530074D02*
X160193847Y-55577693D01*
X160193847Y-55577693D02*
X160431942Y-55577693D01*
X160431942Y-55577693D02*
X160527180Y-55530074D01*
X160527180Y-55530074D02*
X160574800Y-55482455D01*
X160574800Y-55482455D02*
X160622419Y-55387217D01*
X160622419Y-55387217D02*
X160622419Y-55101503D01*
X160622419Y-55101503D02*
X160574800Y-55006265D01*
X160574800Y-55006265D02*
X160527180Y-54958646D01*
X140027180Y-32125312D02*
X140074800Y-32077693D01*
X140074800Y-32077693D02*
X140122419Y-31934836D01*
X140122419Y-31934836D02*
X140122419Y-31839598D01*
X140122419Y-31839598D02*
X140074800Y-31696741D01*
X140074800Y-31696741D02*
X139979561Y-31601503D01*
X139979561Y-31601503D02*
X139884323Y-31553884D01*
X139884323Y-31553884D02*
X139693847Y-31506265D01*
X139693847Y-31506265D02*
X139550990Y-31506265D01*
X139550990Y-31506265D02*
X139360514Y-31553884D01*
X139360514Y-31553884D02*
X139265276Y-31601503D01*
X139265276Y-31601503D02*
X139170038Y-31696741D01*
X139170038Y-31696741D02*
X139122419Y-31839598D01*
X139122419Y-31839598D02*
X139122419Y-31934836D01*
X139122419Y-31934836D02*
X139170038Y-32077693D01*
X139170038Y-32077693D02*
X139217657Y-32125312D01*
X140122419Y-33077693D02*
X140122419Y-32506265D01*
X140122419Y-32791979D02*
X139122419Y-32791979D01*
X139122419Y-32791979D02*
X139265276Y-32696741D01*
X139265276Y-32696741D02*
X139360514Y-32601503D01*
X139360514Y-32601503D02*
X139408133Y-32506265D01*
X139122419Y-33411027D02*
X139122419Y-34030074D01*
X139122419Y-34030074D02*
X139503371Y-33696741D01*
X139503371Y-33696741D02*
X139503371Y-33839598D01*
X139503371Y-33839598D02*
X139550990Y-33934836D01*
X139550990Y-33934836D02*
X139598609Y-33982455D01*
X139598609Y-33982455D02*
X139693847Y-34030074D01*
X139693847Y-34030074D02*
X139931942Y-34030074D01*
X139931942Y-34030074D02*
X140027180Y-33982455D01*
X140027180Y-33982455D02*
X140074800Y-33934836D01*
X140074800Y-33934836D02*
X140122419Y-33839598D01*
X140122419Y-33839598D02*
X140122419Y-33553884D01*
X140122419Y-33553884D02*
X140074800Y-33458646D01*
X140074800Y-33458646D02*
X140027180Y-33411027D01*
X152872419Y-53103884D02*
X151872419Y-53103884D01*
X151872419Y-53103884D02*
X152586704Y-53437217D01*
X152586704Y-53437217D02*
X151872419Y-53770550D01*
X151872419Y-53770550D02*
X152872419Y-53770550D01*
X151872419Y-54437217D02*
X151872419Y-54627693D01*
X151872419Y-54627693D02*
X151920038Y-54722931D01*
X151920038Y-54722931D02*
X152015276Y-54818169D01*
X152015276Y-54818169D02*
X152205752Y-54865788D01*
X152205752Y-54865788D02*
X152539085Y-54865788D01*
X152539085Y-54865788D02*
X152729561Y-54818169D01*
X152729561Y-54818169D02*
X152824800Y-54722931D01*
X152824800Y-54722931D02*
X152872419Y-54627693D01*
X152872419Y-54627693D02*
X152872419Y-54437217D01*
X152872419Y-54437217D02*
X152824800Y-54341979D01*
X152824800Y-54341979D02*
X152729561Y-54246741D01*
X152729561Y-54246741D02*
X152539085Y-54199122D01*
X152539085Y-54199122D02*
X152205752Y-54199122D01*
X152205752Y-54199122D02*
X152015276Y-54246741D01*
X152015276Y-54246741D02*
X151920038Y-54341979D01*
X151920038Y-54341979D02*
X151872419Y-54437217D01*
X152872419Y-55294360D02*
X151872419Y-55294360D01*
X151872419Y-55294360D02*
X151872419Y-55532455D01*
X151872419Y-55532455D02*
X151920038Y-55675312D01*
X151920038Y-55675312D02*
X152015276Y-55770550D01*
X152015276Y-55770550D02*
X152110514Y-55818169D01*
X152110514Y-55818169D02*
X152300990Y-55865788D01*
X152300990Y-55865788D02*
X152443847Y-55865788D01*
X152443847Y-55865788D02*
X152634323Y-55818169D01*
X152634323Y-55818169D02*
X152729561Y-55770550D01*
X152729561Y-55770550D02*
X152824800Y-55675312D01*
X152824800Y-55675312D02*
X152872419Y-55532455D01*
X152872419Y-55532455D02*
X152872419Y-55294360D01*
X152348609Y-56294360D02*
X152348609Y-56627693D01*
X152872419Y-56770550D02*
X152872419Y-56294360D01*
X152872419Y-56294360D02*
X151872419Y-56294360D01*
X151872419Y-56294360D02*
X151872419Y-56770550D01*
X152967657Y-56961027D02*
X152967657Y-57722931D01*
X152348609Y-58294360D02*
X152396228Y-58437217D01*
X152396228Y-58437217D02*
X152443847Y-58484836D01*
X152443847Y-58484836D02*
X152539085Y-58532455D01*
X152539085Y-58532455D02*
X152681942Y-58532455D01*
X152681942Y-58532455D02*
X152777180Y-58484836D01*
X152777180Y-58484836D02*
X152824800Y-58437217D01*
X152824800Y-58437217D02*
X152872419Y-58341979D01*
X152872419Y-58341979D02*
X152872419Y-57961027D01*
X152872419Y-57961027D02*
X151872419Y-57961027D01*
X151872419Y-57961027D02*
X151872419Y-58294360D01*
X151872419Y-58294360D02*
X151920038Y-58389598D01*
X151920038Y-58389598D02*
X151967657Y-58437217D01*
X151967657Y-58437217D02*
X152062895Y-58484836D01*
X152062895Y-58484836D02*
X152158133Y-58484836D01*
X152158133Y-58484836D02*
X152253371Y-58437217D01*
X152253371Y-58437217D02*
X152300990Y-58389598D01*
X152300990Y-58389598D02*
X152348609Y-58294360D01*
X152348609Y-58294360D02*
X152348609Y-57961027D01*
X175336704Y-47756265D02*
X175336704Y-48232455D01*
X175622419Y-47661027D02*
X174622419Y-47994360D01*
X174622419Y-47994360D02*
X175622419Y-48327693D01*
X175050990Y-48803884D02*
X175003371Y-48708646D01*
X175003371Y-48708646D02*
X174955752Y-48661027D01*
X174955752Y-48661027D02*
X174860514Y-48613408D01*
X174860514Y-48613408D02*
X174812895Y-48613408D01*
X174812895Y-48613408D02*
X174717657Y-48661027D01*
X174717657Y-48661027D02*
X174670038Y-48708646D01*
X174670038Y-48708646D02*
X174622419Y-48803884D01*
X174622419Y-48803884D02*
X174622419Y-48994360D01*
X174622419Y-48994360D02*
X174670038Y-49089598D01*
X174670038Y-49089598D02*
X174717657Y-49137217D01*
X174717657Y-49137217D02*
X174812895Y-49184836D01*
X174812895Y-49184836D02*
X174860514Y-49184836D01*
X174860514Y-49184836D02*
X174955752Y-49137217D01*
X174955752Y-49137217D02*
X175003371Y-49089598D01*
X175003371Y-49089598D02*
X175050990Y-48994360D01*
X175050990Y-48994360D02*
X175050990Y-48803884D01*
X175050990Y-48803884D02*
X175098609Y-48708646D01*
X175098609Y-48708646D02*
X175146228Y-48661027D01*
X175146228Y-48661027D02*
X175241466Y-48613408D01*
X175241466Y-48613408D02*
X175431942Y-48613408D01*
X175431942Y-48613408D02*
X175527180Y-48661027D01*
X175527180Y-48661027D02*
X175574800Y-48708646D01*
X175574800Y-48708646D02*
X175622419Y-48803884D01*
X175622419Y-48803884D02*
X175622419Y-48994360D01*
X175622419Y-48994360D02*
X175574800Y-49089598D01*
X175574800Y-49089598D02*
X175527180Y-49137217D01*
X175527180Y-49137217D02*
X175431942Y-49184836D01*
X175431942Y-49184836D02*
X175241466Y-49184836D01*
X175241466Y-49184836D02*
X175146228Y-49137217D01*
X175146228Y-49137217D02*
X175098609Y-49089598D01*
X175098609Y-49089598D02*
X175050990Y-48994360D01*
X137241466Y-53053884D02*
X137241466Y-53815789D01*
X137622419Y-53434836D02*
X136860514Y-53434836D01*
X136622419Y-54196741D02*
X136622419Y-54815788D01*
X136622419Y-54815788D02*
X137003371Y-54482455D01*
X137003371Y-54482455D02*
X137003371Y-54625312D01*
X137003371Y-54625312D02*
X137050990Y-54720550D01*
X137050990Y-54720550D02*
X137098609Y-54768169D01*
X137098609Y-54768169D02*
X137193847Y-54815788D01*
X137193847Y-54815788D02*
X137431942Y-54815788D01*
X137431942Y-54815788D02*
X137527180Y-54768169D01*
X137527180Y-54768169D02*
X137574800Y-54720550D01*
X137574800Y-54720550D02*
X137622419Y-54625312D01*
X137622419Y-54625312D02*
X137622419Y-54339598D01*
X137622419Y-54339598D02*
X137574800Y-54244360D01*
X137574800Y-54244360D02*
X137527180Y-54196741D01*
X137527180Y-55244360D02*
X137574800Y-55291979D01*
X137574800Y-55291979D02*
X137622419Y-55244360D01*
X137622419Y-55244360D02*
X137574800Y-55196741D01*
X137574800Y-55196741D02*
X137527180Y-55244360D01*
X137527180Y-55244360D02*
X137622419Y-55244360D01*
X136622419Y-55625312D02*
X136622419Y-56244359D01*
X136622419Y-56244359D02*
X137003371Y-55911026D01*
X137003371Y-55911026D02*
X137003371Y-56053883D01*
X137003371Y-56053883D02*
X137050990Y-56149121D01*
X137050990Y-56149121D02*
X137098609Y-56196740D01*
X137098609Y-56196740D02*
X137193847Y-56244359D01*
X137193847Y-56244359D02*
X137431942Y-56244359D01*
X137431942Y-56244359D02*
X137527180Y-56196740D01*
X137527180Y-56196740D02*
X137574800Y-56149121D01*
X137574800Y-56149121D02*
X137622419Y-56053883D01*
X137622419Y-56053883D02*
X137622419Y-55768169D01*
X137622419Y-55768169D02*
X137574800Y-55672931D01*
X137574800Y-55672931D02*
X137527180Y-55625312D01*
X136622419Y-56530074D02*
X137622419Y-56863407D01*
X137622419Y-56863407D02*
X136622419Y-57196740D01*
X155472419Y-53103884D02*
X154472419Y-53103884D01*
X154472419Y-53103884D02*
X155186704Y-53437217D01*
X155186704Y-53437217D02*
X154472419Y-53770550D01*
X154472419Y-53770550D02*
X155472419Y-53770550D01*
X154472419Y-54437217D02*
X154472419Y-54627693D01*
X154472419Y-54627693D02*
X154520038Y-54722931D01*
X154520038Y-54722931D02*
X154615276Y-54818169D01*
X154615276Y-54818169D02*
X154805752Y-54865788D01*
X154805752Y-54865788D02*
X155139085Y-54865788D01*
X155139085Y-54865788D02*
X155329561Y-54818169D01*
X155329561Y-54818169D02*
X155424800Y-54722931D01*
X155424800Y-54722931D02*
X155472419Y-54627693D01*
X155472419Y-54627693D02*
X155472419Y-54437217D01*
X155472419Y-54437217D02*
X155424800Y-54341979D01*
X155424800Y-54341979D02*
X155329561Y-54246741D01*
X155329561Y-54246741D02*
X155139085Y-54199122D01*
X155139085Y-54199122D02*
X154805752Y-54199122D01*
X154805752Y-54199122D02*
X154615276Y-54246741D01*
X154615276Y-54246741D02*
X154520038Y-54341979D01*
X154520038Y-54341979D02*
X154472419Y-54437217D01*
X155472419Y-55294360D02*
X154472419Y-55294360D01*
X154472419Y-55294360D02*
X154472419Y-55532455D01*
X154472419Y-55532455D02*
X154520038Y-55675312D01*
X154520038Y-55675312D02*
X154615276Y-55770550D01*
X154615276Y-55770550D02*
X154710514Y-55818169D01*
X154710514Y-55818169D02*
X154900990Y-55865788D01*
X154900990Y-55865788D02*
X155043847Y-55865788D01*
X155043847Y-55865788D02*
X155234323Y-55818169D01*
X155234323Y-55818169D02*
X155329561Y-55770550D01*
X155329561Y-55770550D02*
X155424800Y-55675312D01*
X155424800Y-55675312D02*
X155472419Y-55532455D01*
X155472419Y-55532455D02*
X155472419Y-55294360D01*
X154948609Y-56294360D02*
X154948609Y-56627693D01*
X155472419Y-56770550D02*
X155472419Y-56294360D01*
X155472419Y-56294360D02*
X154472419Y-56294360D01*
X154472419Y-56294360D02*
X154472419Y-56770550D01*
X155567657Y-56961027D02*
X155567657Y-57722931D01*
X155186704Y-57913408D02*
X155186704Y-58389598D01*
X155472419Y-57818170D02*
X154472419Y-58151503D01*
X154472419Y-58151503D02*
X155472419Y-58484836D01*
X152586704Y-32506265D02*
X152586704Y-32982455D01*
X152872419Y-32411027D02*
X151872419Y-32744360D01*
X151872419Y-32744360D02*
X152872419Y-33077693D01*
X151967657Y-33363408D02*
X151920038Y-33411027D01*
X151920038Y-33411027D02*
X151872419Y-33506265D01*
X151872419Y-33506265D02*
X151872419Y-33744360D01*
X151872419Y-33744360D02*
X151920038Y-33839598D01*
X151920038Y-33839598D02*
X151967657Y-33887217D01*
X151967657Y-33887217D02*
X152062895Y-33934836D01*
X152062895Y-33934836D02*
X152158133Y-33934836D01*
X152158133Y-33934836D02*
X152300990Y-33887217D01*
X152300990Y-33887217D02*
X152872419Y-33315789D01*
X152872419Y-33315789D02*
X152872419Y-33934836D01*
X169622419Y-53053884D02*
X170431942Y-53053884D01*
X170431942Y-53053884D02*
X170527180Y-53101503D01*
X170527180Y-53101503D02*
X170574800Y-53149122D01*
X170574800Y-53149122D02*
X170622419Y-53244360D01*
X170622419Y-53244360D02*
X170622419Y-53434836D01*
X170622419Y-53434836D02*
X170574800Y-53530074D01*
X170574800Y-53530074D02*
X170527180Y-53577693D01*
X170527180Y-53577693D02*
X170431942Y-53625312D01*
X170431942Y-53625312D02*
X169622419Y-53625312D01*
X170574800Y-54053884D02*
X170622419Y-54196741D01*
X170622419Y-54196741D02*
X170622419Y-54434836D01*
X170622419Y-54434836D02*
X170574800Y-54530074D01*
X170574800Y-54530074D02*
X170527180Y-54577693D01*
X170527180Y-54577693D02*
X170431942Y-54625312D01*
X170431942Y-54625312D02*
X170336704Y-54625312D01*
X170336704Y-54625312D02*
X170241466Y-54577693D01*
X170241466Y-54577693D02*
X170193847Y-54530074D01*
X170193847Y-54530074D02*
X170146228Y-54434836D01*
X170146228Y-54434836D02*
X170098609Y-54244360D01*
X170098609Y-54244360D02*
X170050990Y-54149122D01*
X170050990Y-54149122D02*
X170003371Y-54101503D01*
X170003371Y-54101503D02*
X169908133Y-54053884D01*
X169908133Y-54053884D02*
X169812895Y-54053884D01*
X169812895Y-54053884D02*
X169717657Y-54101503D01*
X169717657Y-54101503D02*
X169670038Y-54149122D01*
X169670038Y-54149122D02*
X169622419Y-54244360D01*
X169622419Y-54244360D02*
X169622419Y-54482455D01*
X169622419Y-54482455D02*
X169670038Y-54625312D01*
X170336704Y-55006265D02*
X170336704Y-55482455D01*
X170622419Y-54911027D02*
X169622419Y-55244360D01*
X169622419Y-55244360D02*
X170622419Y-55577693D01*
X170622419Y-56482455D02*
X170146228Y-56149122D01*
X170622419Y-55911027D02*
X169622419Y-55911027D01*
X169622419Y-55911027D02*
X169622419Y-56291979D01*
X169622419Y-56291979D02*
X169670038Y-56387217D01*
X169670038Y-56387217D02*
X169717657Y-56434836D01*
X169717657Y-56434836D02*
X169812895Y-56482455D01*
X169812895Y-56482455D02*
X169955752Y-56482455D01*
X169955752Y-56482455D02*
X170050990Y-56434836D01*
X170050990Y-56434836D02*
X170098609Y-56387217D01*
X170098609Y-56387217D02*
X170146228Y-56291979D01*
X170146228Y-56291979D02*
X170146228Y-55911027D01*
X169622419Y-56768170D02*
X169622419Y-57339598D01*
X170622419Y-57053884D02*
X169622419Y-57053884D01*
X170622419Y-58196741D02*
X170622419Y-57625313D01*
X170622419Y-57911027D02*
X169622419Y-57911027D01*
X169622419Y-57911027D02*
X169765276Y-57815789D01*
X169765276Y-57815789D02*
X169860514Y-57720551D01*
X169860514Y-57720551D02*
X169908133Y-57625313D01*
X170717657Y-58387218D02*
X170717657Y-59149122D01*
X170622419Y-59958646D02*
X170146228Y-59625313D01*
X170622419Y-59387218D02*
X169622419Y-59387218D01*
X169622419Y-59387218D02*
X169622419Y-59768170D01*
X169622419Y-59768170D02*
X169670038Y-59863408D01*
X169670038Y-59863408D02*
X169717657Y-59911027D01*
X169717657Y-59911027D02*
X169812895Y-59958646D01*
X169812895Y-59958646D02*
X169955752Y-59958646D01*
X169955752Y-59958646D02*
X170050990Y-59911027D01*
X170050990Y-59911027D02*
X170098609Y-59863408D01*
X170098609Y-59863408D02*
X170146228Y-59768170D01*
X170146228Y-59768170D02*
X170146228Y-59387218D01*
X169622419Y-60291980D02*
X170622419Y-60958646D01*
X169622419Y-60958646D02*
X170622419Y-60291980D01*
X142777180Y-32125312D02*
X142824800Y-32077693D01*
X142824800Y-32077693D02*
X142872419Y-31934836D01*
X142872419Y-31934836D02*
X142872419Y-31839598D01*
X142872419Y-31839598D02*
X142824800Y-31696741D01*
X142824800Y-31696741D02*
X142729561Y-31601503D01*
X142729561Y-31601503D02*
X142634323Y-31553884D01*
X142634323Y-31553884D02*
X142443847Y-31506265D01*
X142443847Y-31506265D02*
X142300990Y-31506265D01*
X142300990Y-31506265D02*
X142110514Y-31553884D01*
X142110514Y-31553884D02*
X142015276Y-31601503D01*
X142015276Y-31601503D02*
X141920038Y-31696741D01*
X141920038Y-31696741D02*
X141872419Y-31839598D01*
X141872419Y-31839598D02*
X141872419Y-31934836D01*
X141872419Y-31934836D02*
X141920038Y-32077693D01*
X141920038Y-32077693D02*
X141967657Y-32125312D01*
X142872419Y-33077693D02*
X142872419Y-32506265D01*
X142872419Y-32791979D02*
X141872419Y-32791979D01*
X141872419Y-32791979D02*
X142015276Y-32696741D01*
X142015276Y-32696741D02*
X142110514Y-32601503D01*
X142110514Y-32601503D02*
X142158133Y-32506265D01*
X142205752Y-33934836D02*
X142872419Y-33934836D01*
X141824800Y-33696741D02*
X142539085Y-33458646D01*
X142539085Y-33458646D02*
X142539085Y-34077693D01*
X150272419Y-53103884D02*
X149272419Y-53103884D01*
X149272419Y-53103884D02*
X149986704Y-53437217D01*
X149986704Y-53437217D02*
X149272419Y-53770550D01*
X149272419Y-53770550D02*
X150272419Y-53770550D01*
X149272419Y-54437217D02*
X149272419Y-54627693D01*
X149272419Y-54627693D02*
X149320038Y-54722931D01*
X149320038Y-54722931D02*
X149415276Y-54818169D01*
X149415276Y-54818169D02*
X149605752Y-54865788D01*
X149605752Y-54865788D02*
X149939085Y-54865788D01*
X149939085Y-54865788D02*
X150129561Y-54818169D01*
X150129561Y-54818169D02*
X150224800Y-54722931D01*
X150224800Y-54722931D02*
X150272419Y-54627693D01*
X150272419Y-54627693D02*
X150272419Y-54437217D01*
X150272419Y-54437217D02*
X150224800Y-54341979D01*
X150224800Y-54341979D02*
X150129561Y-54246741D01*
X150129561Y-54246741D02*
X149939085Y-54199122D01*
X149939085Y-54199122D02*
X149605752Y-54199122D01*
X149605752Y-54199122D02*
X149415276Y-54246741D01*
X149415276Y-54246741D02*
X149320038Y-54341979D01*
X149320038Y-54341979D02*
X149272419Y-54437217D01*
X150272419Y-55294360D02*
X149272419Y-55294360D01*
X149272419Y-55294360D02*
X149272419Y-55532455D01*
X149272419Y-55532455D02*
X149320038Y-55675312D01*
X149320038Y-55675312D02*
X149415276Y-55770550D01*
X149415276Y-55770550D02*
X149510514Y-55818169D01*
X149510514Y-55818169D02*
X149700990Y-55865788D01*
X149700990Y-55865788D02*
X149843847Y-55865788D01*
X149843847Y-55865788D02*
X150034323Y-55818169D01*
X150034323Y-55818169D02*
X150129561Y-55770550D01*
X150129561Y-55770550D02*
X150224800Y-55675312D01*
X150224800Y-55675312D02*
X150272419Y-55532455D01*
X150272419Y-55532455D02*
X150272419Y-55294360D01*
X149748609Y-56294360D02*
X149748609Y-56627693D01*
X150272419Y-56770550D02*
X150272419Y-56294360D01*
X150272419Y-56294360D02*
X149272419Y-56294360D01*
X149272419Y-56294360D02*
X149272419Y-56770550D01*
X150367657Y-56961027D02*
X150367657Y-57722931D01*
X150224800Y-57913408D02*
X150272419Y-58056265D01*
X150272419Y-58056265D02*
X150272419Y-58294360D01*
X150272419Y-58294360D02*
X150224800Y-58389598D01*
X150224800Y-58389598D02*
X150177180Y-58437217D01*
X150177180Y-58437217D02*
X150081942Y-58484836D01*
X150081942Y-58484836D02*
X149986704Y-58484836D01*
X149986704Y-58484836D02*
X149891466Y-58437217D01*
X149891466Y-58437217D02*
X149843847Y-58389598D01*
X149843847Y-58389598D02*
X149796228Y-58294360D01*
X149796228Y-58294360D02*
X149748609Y-58103884D01*
X149748609Y-58103884D02*
X149700990Y-58008646D01*
X149700990Y-58008646D02*
X149653371Y-57961027D01*
X149653371Y-57961027D02*
X149558133Y-57913408D01*
X149558133Y-57913408D02*
X149462895Y-57913408D01*
X149462895Y-57913408D02*
X149367657Y-57961027D01*
X149367657Y-57961027D02*
X149320038Y-58008646D01*
X149320038Y-58008646D02*
X149272419Y-58103884D01*
X149272419Y-58103884D02*
X149272419Y-58341979D01*
X149272419Y-58341979D02*
X149320038Y-58484836D01*
X149272419Y-58818170D02*
X150272419Y-59056265D01*
X150272419Y-59056265D02*
X149558133Y-59246741D01*
X149558133Y-59246741D02*
X150272419Y-59437217D01*
X150272419Y-59437217D02*
X149272419Y-59675313D01*
X150272419Y-60580074D02*
X150272419Y-60008646D01*
X150272419Y-60294360D02*
X149272419Y-60294360D01*
X149272419Y-60294360D02*
X149415276Y-60199122D01*
X149415276Y-60199122D02*
X149510514Y-60103884D01*
X149510514Y-60103884D02*
X149558133Y-60008646D01*
X165336704Y-32506265D02*
X165336704Y-32982455D01*
X165622419Y-32411027D02*
X164622419Y-32744360D01*
X164622419Y-32744360D02*
X165622419Y-33077693D01*
X164622419Y-33315789D02*
X164622419Y-33982455D01*
X164622419Y-33982455D02*
X165622419Y-33553884D01*
X147872419Y-46503884D02*
X146872419Y-46503884D01*
X146872419Y-46503884D02*
X146872419Y-46884836D01*
X146872419Y-46884836D02*
X146920038Y-46980074D01*
X146920038Y-46980074D02*
X146967657Y-47027693D01*
X146967657Y-47027693D02*
X147062895Y-47075312D01*
X147062895Y-47075312D02*
X147205752Y-47075312D01*
X147205752Y-47075312D02*
X147300990Y-47027693D01*
X147300990Y-47027693D02*
X147348609Y-46980074D01*
X147348609Y-46980074D02*
X147396228Y-46884836D01*
X147396228Y-46884836D02*
X147396228Y-46503884D01*
X147348609Y-47837217D02*
X147396228Y-47980074D01*
X147396228Y-47980074D02*
X147443847Y-48027693D01*
X147443847Y-48027693D02*
X147539085Y-48075312D01*
X147539085Y-48075312D02*
X147681942Y-48075312D01*
X147681942Y-48075312D02*
X147777180Y-48027693D01*
X147777180Y-48027693D02*
X147824800Y-47980074D01*
X147824800Y-47980074D02*
X147872419Y-47884836D01*
X147872419Y-47884836D02*
X147872419Y-47503884D01*
X147872419Y-47503884D02*
X146872419Y-47503884D01*
X146872419Y-47503884D02*
X146872419Y-47837217D01*
X146872419Y-47837217D02*
X146920038Y-47932455D01*
X146920038Y-47932455D02*
X146967657Y-47980074D01*
X146967657Y-47980074D02*
X147062895Y-48027693D01*
X147062895Y-48027693D02*
X147158133Y-48027693D01*
X147158133Y-48027693D02*
X147253371Y-47980074D01*
X147253371Y-47980074D02*
X147300990Y-47932455D01*
X147300990Y-47932455D02*
X147348609Y-47837217D01*
X147348609Y-47837217D02*
X147348609Y-47503884D01*
X147300990Y-48646741D02*
X147253371Y-48551503D01*
X147253371Y-48551503D02*
X147205752Y-48503884D01*
X147205752Y-48503884D02*
X147110514Y-48456265D01*
X147110514Y-48456265D02*
X147062895Y-48456265D01*
X147062895Y-48456265D02*
X146967657Y-48503884D01*
X146967657Y-48503884D02*
X146920038Y-48551503D01*
X146920038Y-48551503D02*
X146872419Y-48646741D01*
X146872419Y-48646741D02*
X146872419Y-48837217D01*
X146872419Y-48837217D02*
X146920038Y-48932455D01*
X146920038Y-48932455D02*
X146967657Y-48980074D01*
X146967657Y-48980074D02*
X147062895Y-49027693D01*
X147062895Y-49027693D02*
X147110514Y-49027693D01*
X147110514Y-49027693D02*
X147205752Y-48980074D01*
X147205752Y-48980074D02*
X147253371Y-48932455D01*
X147253371Y-48932455D02*
X147300990Y-48837217D01*
X147300990Y-48837217D02*
X147300990Y-48646741D01*
X147300990Y-48646741D02*
X147348609Y-48551503D01*
X147348609Y-48551503D02*
X147396228Y-48503884D01*
X147396228Y-48503884D02*
X147491466Y-48456265D01*
X147491466Y-48456265D02*
X147681942Y-48456265D01*
X147681942Y-48456265D02*
X147777180Y-48503884D01*
X147777180Y-48503884D02*
X147824800Y-48551503D01*
X147824800Y-48551503D02*
X147872419Y-48646741D01*
X147872419Y-48646741D02*
X147872419Y-48837217D01*
X147872419Y-48837217D02*
X147824800Y-48932455D01*
X147824800Y-48932455D02*
X147777180Y-48980074D01*
X147777180Y-48980074D02*
X147681942Y-49027693D01*
X147681942Y-49027693D02*
X147491466Y-49027693D01*
X147491466Y-49027693D02*
X147396228Y-48980074D01*
X147396228Y-48980074D02*
X147348609Y-48932455D01*
X147348609Y-48932455D02*
X147300990Y-48837217D01*
X177598609Y-46887217D02*
X177646228Y-47030074D01*
X177646228Y-47030074D02*
X177693847Y-47077693D01*
X177693847Y-47077693D02*
X177789085Y-47125312D01*
X177789085Y-47125312D02*
X177931942Y-47125312D01*
X177931942Y-47125312D02*
X178027180Y-47077693D01*
X178027180Y-47077693D02*
X178074800Y-47030074D01*
X178074800Y-47030074D02*
X178122419Y-46934836D01*
X178122419Y-46934836D02*
X178122419Y-46553884D01*
X178122419Y-46553884D02*
X177122419Y-46553884D01*
X177122419Y-46553884D02*
X177122419Y-46887217D01*
X177122419Y-46887217D02*
X177170038Y-46982455D01*
X177170038Y-46982455D02*
X177217657Y-47030074D01*
X177217657Y-47030074D02*
X177312895Y-47077693D01*
X177312895Y-47077693D02*
X177408133Y-47077693D01*
X177408133Y-47077693D02*
X177503371Y-47030074D01*
X177503371Y-47030074D02*
X177550990Y-46982455D01*
X177550990Y-46982455D02*
X177598609Y-46887217D01*
X177598609Y-46887217D02*
X177598609Y-46553884D01*
X178122419Y-48077693D02*
X178122419Y-47506265D01*
X178122419Y-47791979D02*
X177122419Y-47791979D01*
X177122419Y-47791979D02*
X177265276Y-47696741D01*
X177265276Y-47696741D02*
X177360514Y-47601503D01*
X177360514Y-47601503D02*
X177408133Y-47506265D01*
X177122419Y-48982455D02*
X177122419Y-48506265D01*
X177122419Y-48506265D02*
X177598609Y-48458646D01*
X177598609Y-48458646D02*
X177550990Y-48506265D01*
X177550990Y-48506265D02*
X177503371Y-48601503D01*
X177503371Y-48601503D02*
X177503371Y-48839598D01*
X177503371Y-48839598D02*
X177550990Y-48934836D01*
X177550990Y-48934836D02*
X177598609Y-48982455D01*
X177598609Y-48982455D02*
X177693847Y-49030074D01*
X177693847Y-49030074D02*
X177931942Y-49030074D01*
X177931942Y-49030074D02*
X178027180Y-48982455D01*
X178027180Y-48982455D02*
X178074800Y-48934836D01*
X178074800Y-48934836D02*
X178122419Y-48839598D01*
X178122419Y-48839598D02*
X178122419Y-48601503D01*
X178122419Y-48601503D02*
X178074800Y-48506265D01*
X178074800Y-48506265D02*
X178027180Y-48458646D01*
X145272419Y-53103884D02*
X144272419Y-53103884D01*
X144367657Y-53532455D02*
X144320038Y-53580074D01*
X144320038Y-53580074D02*
X144272419Y-53675312D01*
X144272419Y-53675312D02*
X144272419Y-53913407D01*
X144272419Y-53913407D02*
X144320038Y-54008645D01*
X144320038Y-54008645D02*
X144367657Y-54056264D01*
X144367657Y-54056264D02*
X144462895Y-54103883D01*
X144462895Y-54103883D02*
X144558133Y-54103883D01*
X144558133Y-54103883D02*
X144700990Y-54056264D01*
X144700990Y-54056264D02*
X145272419Y-53484836D01*
X145272419Y-53484836D02*
X145272419Y-54103883D01*
X145177180Y-55103883D02*
X145224800Y-55056264D01*
X145224800Y-55056264D02*
X145272419Y-54913407D01*
X145272419Y-54913407D02*
X145272419Y-54818169D01*
X145272419Y-54818169D02*
X145224800Y-54675312D01*
X145224800Y-54675312D02*
X145129561Y-54580074D01*
X145129561Y-54580074D02*
X145034323Y-54532455D01*
X145034323Y-54532455D02*
X144843847Y-54484836D01*
X144843847Y-54484836D02*
X144700990Y-54484836D01*
X144700990Y-54484836D02*
X144510514Y-54532455D01*
X144510514Y-54532455D02*
X144415276Y-54580074D01*
X144415276Y-54580074D02*
X144320038Y-54675312D01*
X144320038Y-54675312D02*
X144272419Y-54818169D01*
X144272419Y-54818169D02*
X144272419Y-54913407D01*
X144272419Y-54913407D02*
X144320038Y-55056264D01*
X144320038Y-55056264D02*
X144367657Y-55103883D01*
X145272419Y-56056264D02*
X145272419Y-55484836D01*
X145272419Y-55770550D02*
X144272419Y-55770550D01*
X144272419Y-55770550D02*
X144415276Y-55675312D01*
X144415276Y-55675312D02*
X144510514Y-55580074D01*
X144510514Y-55580074D02*
X144558133Y-55484836D01*
X145367657Y-56246741D02*
X145367657Y-57008645D01*
X145224800Y-57199122D02*
X145272419Y-57341979D01*
X145272419Y-57341979D02*
X145272419Y-57580074D01*
X145272419Y-57580074D02*
X145224800Y-57675312D01*
X145224800Y-57675312D02*
X145177180Y-57722931D01*
X145177180Y-57722931D02*
X145081942Y-57770550D01*
X145081942Y-57770550D02*
X144986704Y-57770550D01*
X144986704Y-57770550D02*
X144891466Y-57722931D01*
X144891466Y-57722931D02*
X144843847Y-57675312D01*
X144843847Y-57675312D02*
X144796228Y-57580074D01*
X144796228Y-57580074D02*
X144748609Y-57389598D01*
X144748609Y-57389598D02*
X144700990Y-57294360D01*
X144700990Y-57294360D02*
X144653371Y-57246741D01*
X144653371Y-57246741D02*
X144558133Y-57199122D01*
X144558133Y-57199122D02*
X144462895Y-57199122D01*
X144462895Y-57199122D02*
X144367657Y-57246741D01*
X144367657Y-57246741D02*
X144320038Y-57294360D01*
X144320038Y-57294360D02*
X144272419Y-57389598D01*
X144272419Y-57389598D02*
X144272419Y-57627693D01*
X144272419Y-57627693D02*
X144320038Y-57770550D01*
X145272419Y-58199122D02*
X144272419Y-58199122D01*
X144272419Y-58199122D02*
X144272419Y-58437217D01*
X144272419Y-58437217D02*
X144320038Y-58580074D01*
X144320038Y-58580074D02*
X144415276Y-58675312D01*
X144415276Y-58675312D02*
X144510514Y-58722931D01*
X144510514Y-58722931D02*
X144700990Y-58770550D01*
X144700990Y-58770550D02*
X144843847Y-58770550D01*
X144843847Y-58770550D02*
X145034323Y-58722931D01*
X145034323Y-58722931D02*
X145129561Y-58675312D01*
X145129561Y-58675312D02*
X145224800Y-58580074D01*
X145224800Y-58580074D02*
X145272419Y-58437217D01*
X145272419Y-58437217D02*
X145272419Y-58199122D01*
X144986704Y-59151503D02*
X144986704Y-59627693D01*
X145272419Y-59056265D02*
X144272419Y-59389598D01*
X144272419Y-59389598D02*
X145272419Y-59722931D01*
X182848609Y-46887217D02*
X182896228Y-47030074D01*
X182896228Y-47030074D02*
X182943847Y-47077693D01*
X182943847Y-47077693D02*
X183039085Y-47125312D01*
X183039085Y-47125312D02*
X183181942Y-47125312D01*
X183181942Y-47125312D02*
X183277180Y-47077693D01*
X183277180Y-47077693D02*
X183324800Y-47030074D01*
X183324800Y-47030074D02*
X183372419Y-46934836D01*
X183372419Y-46934836D02*
X183372419Y-46553884D01*
X183372419Y-46553884D02*
X182372419Y-46553884D01*
X182372419Y-46553884D02*
X182372419Y-46887217D01*
X182372419Y-46887217D02*
X182420038Y-46982455D01*
X182420038Y-46982455D02*
X182467657Y-47030074D01*
X182467657Y-47030074D02*
X182562895Y-47077693D01*
X182562895Y-47077693D02*
X182658133Y-47077693D01*
X182658133Y-47077693D02*
X182753371Y-47030074D01*
X182753371Y-47030074D02*
X182800990Y-46982455D01*
X182800990Y-46982455D02*
X182848609Y-46887217D01*
X182848609Y-46887217D02*
X182848609Y-46553884D01*
X183372419Y-48077693D02*
X183372419Y-47506265D01*
X183372419Y-47791979D02*
X182372419Y-47791979D01*
X182372419Y-47791979D02*
X182515276Y-47696741D01*
X182515276Y-47696741D02*
X182610514Y-47601503D01*
X182610514Y-47601503D02*
X182658133Y-47506265D01*
X182372419Y-48411027D02*
X182372419Y-49030074D01*
X182372419Y-49030074D02*
X182753371Y-48696741D01*
X182753371Y-48696741D02*
X182753371Y-48839598D01*
X182753371Y-48839598D02*
X182800990Y-48934836D01*
X182800990Y-48934836D02*
X182848609Y-48982455D01*
X182848609Y-48982455D02*
X182943847Y-49030074D01*
X182943847Y-49030074D02*
X183181942Y-49030074D01*
X183181942Y-49030074D02*
X183277180Y-48982455D01*
X183277180Y-48982455D02*
X183324800Y-48934836D01*
X183324800Y-48934836D02*
X183372419Y-48839598D01*
X183372419Y-48839598D02*
X183372419Y-48553884D01*
X183372419Y-48553884D02*
X183324800Y-48458646D01*
X183324800Y-48458646D02*
X183277180Y-48411027D01*
X185872419Y-53530074D02*
X185872419Y-53053884D01*
X185872419Y-53053884D02*
X184872419Y-53053884D01*
X185777180Y-54434836D02*
X185824800Y-54387217D01*
X185824800Y-54387217D02*
X185872419Y-54244360D01*
X185872419Y-54244360D02*
X185872419Y-54149122D01*
X185872419Y-54149122D02*
X185824800Y-54006265D01*
X185824800Y-54006265D02*
X185729561Y-53911027D01*
X185729561Y-53911027D02*
X185634323Y-53863408D01*
X185634323Y-53863408D02*
X185443847Y-53815789D01*
X185443847Y-53815789D02*
X185300990Y-53815789D01*
X185300990Y-53815789D02*
X185110514Y-53863408D01*
X185110514Y-53863408D02*
X185015276Y-53911027D01*
X185015276Y-53911027D02*
X184920038Y-54006265D01*
X184920038Y-54006265D02*
X184872419Y-54149122D01*
X184872419Y-54149122D02*
X184872419Y-54244360D01*
X184872419Y-54244360D02*
X184920038Y-54387217D01*
X184920038Y-54387217D02*
X184967657Y-54434836D01*
X185872419Y-54863408D02*
X184872419Y-54863408D01*
X184872419Y-54863408D02*
X184872419Y-55101503D01*
X184872419Y-55101503D02*
X184920038Y-55244360D01*
X184920038Y-55244360D02*
X185015276Y-55339598D01*
X185015276Y-55339598D02*
X185110514Y-55387217D01*
X185110514Y-55387217D02*
X185300990Y-55434836D01*
X185300990Y-55434836D02*
X185443847Y-55434836D01*
X185443847Y-55434836D02*
X185634323Y-55387217D01*
X185634323Y-55387217D02*
X185729561Y-55339598D01*
X185729561Y-55339598D02*
X185824800Y-55244360D01*
X185824800Y-55244360D02*
X185872419Y-55101503D01*
X185872419Y-55101503D02*
X185872419Y-54863408D01*
X185967657Y-55625313D02*
X185967657Y-56387217D01*
X185872419Y-57196741D02*
X185396228Y-56863408D01*
X185872419Y-56625313D02*
X184872419Y-56625313D01*
X184872419Y-56625313D02*
X184872419Y-57006265D01*
X184872419Y-57006265D02*
X184920038Y-57101503D01*
X184920038Y-57101503D02*
X184967657Y-57149122D01*
X184967657Y-57149122D02*
X185062895Y-57196741D01*
X185062895Y-57196741D02*
X185205752Y-57196741D01*
X185205752Y-57196741D02*
X185300990Y-57149122D01*
X185300990Y-57149122D02*
X185348609Y-57101503D01*
X185348609Y-57101503D02*
X185396228Y-57006265D01*
X185396228Y-57006265D02*
X185396228Y-56625313D01*
X185348609Y-57625313D02*
X185348609Y-57958646D01*
X185872419Y-58101503D02*
X185872419Y-57625313D01*
X185872419Y-57625313D02*
X184872419Y-57625313D01*
X184872419Y-57625313D02*
X184872419Y-58101503D01*
X185824800Y-58482456D02*
X185872419Y-58625313D01*
X185872419Y-58625313D02*
X185872419Y-58863408D01*
X185872419Y-58863408D02*
X185824800Y-58958646D01*
X185824800Y-58958646D02*
X185777180Y-59006265D01*
X185777180Y-59006265D02*
X185681942Y-59053884D01*
X185681942Y-59053884D02*
X185586704Y-59053884D01*
X185586704Y-59053884D02*
X185491466Y-59006265D01*
X185491466Y-59006265D02*
X185443847Y-58958646D01*
X185443847Y-58958646D02*
X185396228Y-58863408D01*
X185396228Y-58863408D02*
X185348609Y-58672932D01*
X185348609Y-58672932D02*
X185300990Y-58577694D01*
X185300990Y-58577694D02*
X185253371Y-58530075D01*
X185253371Y-58530075D02*
X185158133Y-58482456D01*
X185158133Y-58482456D02*
X185062895Y-58482456D01*
X185062895Y-58482456D02*
X184967657Y-58530075D01*
X184967657Y-58530075D02*
X184920038Y-58577694D01*
X184920038Y-58577694D02*
X184872419Y-58672932D01*
X184872419Y-58672932D02*
X184872419Y-58911027D01*
X184872419Y-58911027D02*
X184920038Y-59053884D01*
X185348609Y-59482456D02*
X185348609Y-59815789D01*
X185872419Y-59958646D02*
X185872419Y-59482456D01*
X185872419Y-59482456D02*
X184872419Y-59482456D01*
X184872419Y-59482456D02*
X184872419Y-59958646D01*
X184872419Y-60244361D02*
X184872419Y-60815789D01*
X185872419Y-60530075D02*
X184872419Y-60530075D01*
X136622419Y-32411027D02*
X137622419Y-32744360D01*
X137622419Y-32744360D02*
X136622419Y-33077693D01*
X137098609Y-33744360D02*
X137146228Y-33887217D01*
X137146228Y-33887217D02*
X137193847Y-33934836D01*
X137193847Y-33934836D02*
X137289085Y-33982455D01*
X137289085Y-33982455D02*
X137431942Y-33982455D01*
X137431942Y-33982455D02*
X137527180Y-33934836D01*
X137527180Y-33934836D02*
X137574800Y-33887217D01*
X137574800Y-33887217D02*
X137622419Y-33791979D01*
X137622419Y-33791979D02*
X137622419Y-33411027D01*
X137622419Y-33411027D02*
X136622419Y-33411027D01*
X136622419Y-33411027D02*
X136622419Y-33744360D01*
X136622419Y-33744360D02*
X136670038Y-33839598D01*
X136670038Y-33839598D02*
X136717657Y-33887217D01*
X136717657Y-33887217D02*
X136812895Y-33934836D01*
X136812895Y-33934836D02*
X136908133Y-33934836D01*
X136908133Y-33934836D02*
X137003371Y-33887217D01*
X137003371Y-33887217D02*
X137050990Y-33839598D01*
X137050990Y-33839598D02*
X137098609Y-33744360D01*
X137098609Y-33744360D02*
X137098609Y-33411027D01*
X170336704Y-46756265D02*
X170336704Y-47232455D01*
X170622419Y-46661027D02*
X169622419Y-46994360D01*
X169622419Y-46994360D02*
X170622419Y-47327693D01*
X170622419Y-48184836D02*
X170622419Y-47613408D01*
X170622419Y-47899122D02*
X169622419Y-47899122D01*
X169622419Y-47899122D02*
X169765276Y-47803884D01*
X169765276Y-47803884D02*
X169860514Y-47708646D01*
X169860514Y-47708646D02*
X169908133Y-47613408D01*
X169622419Y-48803884D02*
X169622419Y-48899122D01*
X169622419Y-48899122D02*
X169670038Y-48994360D01*
X169670038Y-48994360D02*
X169717657Y-49041979D01*
X169717657Y-49041979D02*
X169812895Y-49089598D01*
X169812895Y-49089598D02*
X170003371Y-49137217D01*
X170003371Y-49137217D02*
X170241466Y-49137217D01*
X170241466Y-49137217D02*
X170431942Y-49089598D01*
X170431942Y-49089598D02*
X170527180Y-49041979D01*
X170527180Y-49041979D02*
X170574800Y-48994360D01*
X170574800Y-48994360D02*
X170622419Y-48899122D01*
X170622419Y-48899122D02*
X170622419Y-48803884D01*
X170622419Y-48803884D02*
X170574800Y-48708646D01*
X170574800Y-48708646D02*
X170527180Y-48661027D01*
X170527180Y-48661027D02*
X170431942Y-48613408D01*
X170431942Y-48613408D02*
X170241466Y-48565789D01*
X170241466Y-48565789D02*
X170003371Y-48565789D01*
X170003371Y-48565789D02*
X169812895Y-48613408D01*
X169812895Y-48613408D02*
X169717657Y-48661027D01*
X169717657Y-48661027D02*
X169670038Y-48708646D01*
X169670038Y-48708646D02*
X169622419Y-48803884D01*
X157872419Y-53053884D02*
X156872419Y-53053884D01*
X156872419Y-53053884D02*
X156872419Y-53434836D01*
X156872419Y-53434836D02*
X156920038Y-53530074D01*
X156920038Y-53530074D02*
X156967657Y-53577693D01*
X156967657Y-53577693D02*
X157062895Y-53625312D01*
X157062895Y-53625312D02*
X157205752Y-53625312D01*
X157205752Y-53625312D02*
X157300990Y-53577693D01*
X157300990Y-53577693D02*
X157348609Y-53530074D01*
X157348609Y-53530074D02*
X157396228Y-53434836D01*
X157396228Y-53434836D02*
X157396228Y-53053884D01*
X157348609Y-54387217D02*
X157396228Y-54530074D01*
X157396228Y-54530074D02*
X157443847Y-54577693D01*
X157443847Y-54577693D02*
X157539085Y-54625312D01*
X157539085Y-54625312D02*
X157681942Y-54625312D01*
X157681942Y-54625312D02*
X157777180Y-54577693D01*
X157777180Y-54577693D02*
X157824800Y-54530074D01*
X157824800Y-54530074D02*
X157872419Y-54434836D01*
X157872419Y-54434836D02*
X157872419Y-54053884D01*
X157872419Y-54053884D02*
X156872419Y-54053884D01*
X156872419Y-54053884D02*
X156872419Y-54387217D01*
X156872419Y-54387217D02*
X156920038Y-54482455D01*
X156920038Y-54482455D02*
X156967657Y-54530074D01*
X156967657Y-54530074D02*
X157062895Y-54577693D01*
X157062895Y-54577693D02*
X157158133Y-54577693D01*
X157158133Y-54577693D02*
X157253371Y-54530074D01*
X157253371Y-54530074D02*
X157300990Y-54482455D01*
X157300990Y-54482455D02*
X157348609Y-54387217D01*
X157348609Y-54387217D02*
X157348609Y-54053884D01*
X157205752Y-55482455D02*
X157872419Y-55482455D01*
X156824800Y-55244360D02*
X157539085Y-55006265D01*
X157539085Y-55006265D02*
X157539085Y-55625312D01*
X175098609Y-31887217D02*
X175146228Y-32030074D01*
X175146228Y-32030074D02*
X175193847Y-32077693D01*
X175193847Y-32077693D02*
X175289085Y-32125312D01*
X175289085Y-32125312D02*
X175431942Y-32125312D01*
X175431942Y-32125312D02*
X175527180Y-32077693D01*
X175527180Y-32077693D02*
X175574800Y-32030074D01*
X175574800Y-32030074D02*
X175622419Y-31934836D01*
X175622419Y-31934836D02*
X175622419Y-31553884D01*
X175622419Y-31553884D02*
X174622419Y-31553884D01*
X174622419Y-31553884D02*
X174622419Y-31887217D01*
X174622419Y-31887217D02*
X174670038Y-31982455D01*
X174670038Y-31982455D02*
X174717657Y-32030074D01*
X174717657Y-32030074D02*
X174812895Y-32077693D01*
X174812895Y-32077693D02*
X174908133Y-32077693D01*
X174908133Y-32077693D02*
X175003371Y-32030074D01*
X175003371Y-32030074D02*
X175050990Y-31982455D01*
X175050990Y-31982455D02*
X175098609Y-31887217D01*
X175098609Y-31887217D02*
X175098609Y-31553884D01*
X175622419Y-33077693D02*
X175622419Y-32506265D01*
X175622419Y-32791979D02*
X174622419Y-32791979D01*
X174622419Y-32791979D02*
X174765276Y-32696741D01*
X174765276Y-32696741D02*
X174860514Y-32601503D01*
X174860514Y-32601503D02*
X174908133Y-32506265D01*
X175622419Y-34030074D02*
X175622419Y-33458646D01*
X175622419Y-33744360D02*
X174622419Y-33744360D01*
X174622419Y-33744360D02*
X174765276Y-33649122D01*
X174765276Y-33649122D02*
X174860514Y-33553884D01*
X174860514Y-33553884D02*
X174908133Y-33458646D01*
X175348609Y-38387217D02*
X175348609Y-38053884D01*
X175872419Y-38053884D02*
X174872419Y-38053884D01*
X174872419Y-38053884D02*
X174872419Y-38530074D01*
X174872419Y-39101503D02*
X174872419Y-39291979D01*
X174872419Y-39291979D02*
X174920038Y-39387217D01*
X174920038Y-39387217D02*
X175015276Y-39482455D01*
X175015276Y-39482455D02*
X175205752Y-39530074D01*
X175205752Y-39530074D02*
X175539085Y-39530074D01*
X175539085Y-39530074D02*
X175729561Y-39482455D01*
X175729561Y-39482455D02*
X175824800Y-39387217D01*
X175824800Y-39387217D02*
X175872419Y-39291979D01*
X175872419Y-39291979D02*
X175872419Y-39101503D01*
X175872419Y-39101503D02*
X175824800Y-39006265D01*
X175824800Y-39006265D02*
X175729561Y-38911027D01*
X175729561Y-38911027D02*
X175539085Y-38863408D01*
X175539085Y-38863408D02*
X175205752Y-38863408D01*
X175205752Y-38863408D02*
X175015276Y-38911027D01*
X175015276Y-38911027D02*
X174920038Y-39006265D01*
X174920038Y-39006265D02*
X174872419Y-39101503D01*
X174872419Y-39958646D02*
X175681942Y-39958646D01*
X175681942Y-39958646D02*
X175777180Y-40006265D01*
X175777180Y-40006265D02*
X175824800Y-40053884D01*
X175824800Y-40053884D02*
X175872419Y-40149122D01*
X175872419Y-40149122D02*
X175872419Y-40339598D01*
X175872419Y-40339598D02*
X175824800Y-40434836D01*
X175824800Y-40434836D02*
X175777180Y-40482455D01*
X175777180Y-40482455D02*
X175681942Y-40530074D01*
X175681942Y-40530074D02*
X174872419Y-40530074D01*
X174872419Y-40863408D02*
X174872419Y-41434836D01*
X175872419Y-41149122D02*
X174872419Y-41149122D01*
X180491466Y-38053884D02*
X180491466Y-38815789D01*
X180872419Y-38434836D02*
X180110514Y-38434836D01*
X179872419Y-39196741D02*
X179872419Y-39815788D01*
X179872419Y-39815788D02*
X180253371Y-39482455D01*
X180253371Y-39482455D02*
X180253371Y-39625312D01*
X180253371Y-39625312D02*
X180300990Y-39720550D01*
X180300990Y-39720550D02*
X180348609Y-39768169D01*
X180348609Y-39768169D02*
X180443847Y-39815788D01*
X180443847Y-39815788D02*
X180681942Y-39815788D01*
X180681942Y-39815788D02*
X180777180Y-39768169D01*
X180777180Y-39768169D02*
X180824800Y-39720550D01*
X180824800Y-39720550D02*
X180872419Y-39625312D01*
X180872419Y-39625312D02*
X180872419Y-39339598D01*
X180872419Y-39339598D02*
X180824800Y-39244360D01*
X180824800Y-39244360D02*
X180777180Y-39196741D01*
X180777180Y-40244360D02*
X180824800Y-40291979D01*
X180824800Y-40291979D02*
X180872419Y-40244360D01*
X180872419Y-40244360D02*
X180824800Y-40196741D01*
X180824800Y-40196741D02*
X180777180Y-40244360D01*
X180777180Y-40244360D02*
X180872419Y-40244360D01*
X179872419Y-40625312D02*
X179872419Y-41244359D01*
X179872419Y-41244359D02*
X180253371Y-40911026D01*
X180253371Y-40911026D02*
X180253371Y-41053883D01*
X180253371Y-41053883D02*
X180300990Y-41149121D01*
X180300990Y-41149121D02*
X180348609Y-41196740D01*
X180348609Y-41196740D02*
X180443847Y-41244359D01*
X180443847Y-41244359D02*
X180681942Y-41244359D01*
X180681942Y-41244359D02*
X180777180Y-41196740D01*
X180777180Y-41196740D02*
X180824800Y-41149121D01*
X180824800Y-41149121D02*
X180872419Y-41053883D01*
X180872419Y-41053883D02*
X180872419Y-40768169D01*
X180872419Y-40768169D02*
X180824800Y-40672931D01*
X180824800Y-40672931D02*
X180777180Y-40625312D01*
X179872419Y-41530074D02*
X180872419Y-41863407D01*
X180872419Y-41863407D02*
X179872419Y-42196740D01*
X182420038Y-31827693D02*
X182372419Y-31732455D01*
X182372419Y-31732455D02*
X182372419Y-31589598D01*
X182372419Y-31589598D02*
X182420038Y-31446741D01*
X182420038Y-31446741D02*
X182515276Y-31351503D01*
X182515276Y-31351503D02*
X182610514Y-31303884D01*
X182610514Y-31303884D02*
X182800990Y-31256265D01*
X182800990Y-31256265D02*
X182943847Y-31256265D01*
X182943847Y-31256265D02*
X183134323Y-31303884D01*
X183134323Y-31303884D02*
X183229561Y-31351503D01*
X183229561Y-31351503D02*
X183324800Y-31446741D01*
X183324800Y-31446741D02*
X183372419Y-31589598D01*
X183372419Y-31589598D02*
X183372419Y-31684836D01*
X183372419Y-31684836D02*
X183324800Y-31827693D01*
X183324800Y-31827693D02*
X183277180Y-31875312D01*
X183277180Y-31875312D02*
X182943847Y-31875312D01*
X182943847Y-31875312D02*
X182943847Y-31684836D01*
X183372419Y-32303884D02*
X182372419Y-32303884D01*
X182372419Y-32303884D02*
X183372419Y-32875312D01*
X183372419Y-32875312D02*
X182372419Y-32875312D01*
X183372419Y-33351503D02*
X182372419Y-33351503D01*
X182372419Y-33351503D02*
X182372419Y-33589598D01*
X182372419Y-33589598D02*
X182420038Y-33732455D01*
X182420038Y-33732455D02*
X182515276Y-33827693D01*
X182515276Y-33827693D02*
X182610514Y-33875312D01*
X182610514Y-33875312D02*
X182800990Y-33922931D01*
X182800990Y-33922931D02*
X182943847Y-33922931D01*
X182943847Y-33922931D02*
X183134323Y-33875312D01*
X183134323Y-33875312D02*
X183229561Y-33827693D01*
X183229561Y-33827693D02*
X183324800Y-33732455D01*
X183324800Y-33732455D02*
X183372419Y-33589598D01*
X183372419Y-33589598D02*
X183372419Y-33351503D01*
X178372419Y-33875312D02*
X177896228Y-33541979D01*
X178372419Y-33303884D02*
X177372419Y-33303884D01*
X177372419Y-33303884D02*
X177372419Y-33684836D01*
X177372419Y-33684836D02*
X177420038Y-33780074D01*
X177420038Y-33780074D02*
X177467657Y-33827693D01*
X177467657Y-33827693D02*
X177562895Y-33875312D01*
X177562895Y-33875312D02*
X177705752Y-33875312D01*
X177705752Y-33875312D02*
X177800990Y-33827693D01*
X177800990Y-33827693D02*
X177848609Y-33780074D01*
X177848609Y-33780074D02*
X177896228Y-33684836D01*
X177896228Y-33684836D02*
X177896228Y-33303884D01*
X155086704Y-32506265D02*
X155086704Y-32982455D01*
X155372419Y-32411027D02*
X154372419Y-32744360D01*
X154372419Y-32744360D02*
X155372419Y-33077693D01*
X154372419Y-33315789D02*
X154372419Y-33934836D01*
X154372419Y-33934836D02*
X154753371Y-33601503D01*
X154753371Y-33601503D02*
X154753371Y-33744360D01*
X154753371Y-33744360D02*
X154800990Y-33839598D01*
X154800990Y-33839598D02*
X154848609Y-33887217D01*
X154848609Y-33887217D02*
X154943847Y-33934836D01*
X154943847Y-33934836D02*
X155181942Y-33934836D01*
X155181942Y-33934836D02*
X155277180Y-33887217D01*
X155277180Y-33887217D02*
X155324800Y-33839598D01*
X155324800Y-33839598D02*
X155372419Y-33744360D01*
X155372419Y-33744360D02*
X155372419Y-33458646D01*
X155372419Y-33458646D02*
X155324800Y-33363408D01*
X155324800Y-33363408D02*
X155277180Y-33315789D01*
X146872419Y-30911027D02*
X147872419Y-31244360D01*
X147872419Y-31244360D02*
X146872419Y-31577693D01*
X147348609Y-32244360D02*
X147396228Y-32387217D01*
X147396228Y-32387217D02*
X147443847Y-32434836D01*
X147443847Y-32434836D02*
X147539085Y-32482455D01*
X147539085Y-32482455D02*
X147681942Y-32482455D01*
X147681942Y-32482455D02*
X147777180Y-32434836D01*
X147777180Y-32434836D02*
X147824800Y-32387217D01*
X147824800Y-32387217D02*
X147872419Y-32291979D01*
X147872419Y-32291979D02*
X147872419Y-31911027D01*
X147872419Y-31911027D02*
X146872419Y-31911027D01*
X146872419Y-31911027D02*
X146872419Y-32244360D01*
X146872419Y-32244360D02*
X146920038Y-32339598D01*
X146920038Y-32339598D02*
X146967657Y-32387217D01*
X146967657Y-32387217D02*
X147062895Y-32434836D01*
X147062895Y-32434836D02*
X147158133Y-32434836D01*
X147158133Y-32434836D02*
X147253371Y-32387217D01*
X147253371Y-32387217D02*
X147300990Y-32339598D01*
X147300990Y-32339598D02*
X147348609Y-32244360D01*
X147348609Y-32244360D02*
X147348609Y-31911027D01*
X147586704Y-32863408D02*
X147586704Y-33339598D01*
X147872419Y-32768170D02*
X146872419Y-33101503D01*
X146872419Y-33101503D02*
X147872419Y-33434836D01*
X146872419Y-33625313D02*
X146872419Y-34196741D01*
X147872419Y-33911027D02*
X146872419Y-33911027D01*
X172598609Y-31887217D02*
X172646228Y-32030074D01*
X172646228Y-32030074D02*
X172693847Y-32077693D01*
X172693847Y-32077693D02*
X172789085Y-32125312D01*
X172789085Y-32125312D02*
X172931942Y-32125312D01*
X172931942Y-32125312D02*
X173027180Y-32077693D01*
X173027180Y-32077693D02*
X173074800Y-32030074D01*
X173074800Y-32030074D02*
X173122419Y-31934836D01*
X173122419Y-31934836D02*
X173122419Y-31553884D01*
X173122419Y-31553884D02*
X172122419Y-31553884D01*
X172122419Y-31553884D02*
X172122419Y-31887217D01*
X172122419Y-31887217D02*
X172170038Y-31982455D01*
X172170038Y-31982455D02*
X172217657Y-32030074D01*
X172217657Y-32030074D02*
X172312895Y-32077693D01*
X172312895Y-32077693D02*
X172408133Y-32077693D01*
X172408133Y-32077693D02*
X172503371Y-32030074D01*
X172503371Y-32030074D02*
X172550990Y-31982455D01*
X172550990Y-31982455D02*
X172598609Y-31887217D01*
X172598609Y-31887217D02*
X172598609Y-31553884D01*
X173122419Y-33077693D02*
X173122419Y-32506265D01*
X173122419Y-32791979D02*
X172122419Y-32791979D01*
X172122419Y-32791979D02*
X172265276Y-32696741D01*
X172265276Y-32696741D02*
X172360514Y-32601503D01*
X172360514Y-32601503D02*
X172408133Y-32506265D01*
X172122419Y-33696741D02*
X172122419Y-33791979D01*
X172122419Y-33791979D02*
X172170038Y-33887217D01*
X172170038Y-33887217D02*
X172217657Y-33934836D01*
X172217657Y-33934836D02*
X172312895Y-33982455D01*
X172312895Y-33982455D02*
X172503371Y-34030074D01*
X172503371Y-34030074D02*
X172741466Y-34030074D01*
X172741466Y-34030074D02*
X172931942Y-33982455D01*
X172931942Y-33982455D02*
X173027180Y-33934836D01*
X173027180Y-33934836D02*
X173074800Y-33887217D01*
X173074800Y-33887217D02*
X173122419Y-33791979D01*
X173122419Y-33791979D02*
X173122419Y-33696741D01*
X173122419Y-33696741D02*
X173074800Y-33601503D01*
X173074800Y-33601503D02*
X173027180Y-33553884D01*
X173027180Y-33553884D02*
X172931942Y-33506265D01*
X172931942Y-33506265D02*
X172741466Y-33458646D01*
X172741466Y-33458646D02*
X172503371Y-33458646D01*
X172503371Y-33458646D02*
X172312895Y-33506265D01*
X172312895Y-33506265D02*
X172217657Y-33553884D01*
X172217657Y-33553884D02*
X172170038Y-33601503D01*
X172170038Y-33601503D02*
X172122419Y-33696741D01*
X180348609Y-46887217D02*
X180396228Y-47030074D01*
X180396228Y-47030074D02*
X180443847Y-47077693D01*
X180443847Y-47077693D02*
X180539085Y-47125312D01*
X180539085Y-47125312D02*
X180681942Y-47125312D01*
X180681942Y-47125312D02*
X180777180Y-47077693D01*
X180777180Y-47077693D02*
X180824800Y-47030074D01*
X180824800Y-47030074D02*
X180872419Y-46934836D01*
X180872419Y-46934836D02*
X180872419Y-46553884D01*
X180872419Y-46553884D02*
X179872419Y-46553884D01*
X179872419Y-46553884D02*
X179872419Y-46887217D01*
X179872419Y-46887217D02*
X179920038Y-46982455D01*
X179920038Y-46982455D02*
X179967657Y-47030074D01*
X179967657Y-47030074D02*
X180062895Y-47077693D01*
X180062895Y-47077693D02*
X180158133Y-47077693D01*
X180158133Y-47077693D02*
X180253371Y-47030074D01*
X180253371Y-47030074D02*
X180300990Y-46982455D01*
X180300990Y-46982455D02*
X180348609Y-46887217D01*
X180348609Y-46887217D02*
X180348609Y-46553884D01*
X180872419Y-48077693D02*
X180872419Y-47506265D01*
X180872419Y-47791979D02*
X179872419Y-47791979D01*
X179872419Y-47791979D02*
X180015276Y-47696741D01*
X180015276Y-47696741D02*
X180110514Y-47601503D01*
X180110514Y-47601503D02*
X180158133Y-47506265D01*
X180205752Y-48934836D02*
X180872419Y-48934836D01*
X179824800Y-48696741D02*
X180539085Y-48458646D01*
X180539085Y-48458646D02*
X180539085Y-49077693D01*
X175098609Y-58137217D02*
X175098609Y-57803884D01*
X175622419Y-57803884D02*
X174622419Y-57803884D01*
X174622419Y-57803884D02*
X174622419Y-58280074D01*
X175622419Y-58661027D02*
X174622419Y-58661027D01*
X175622419Y-59137217D02*
X174622419Y-59137217D01*
X174622419Y-59137217D02*
X175622419Y-59708645D01*
X175622419Y-59708645D02*
X174622419Y-59708645D01*
X142291466Y-53103884D02*
X142291466Y-53865789D01*
X142672419Y-53484836D02*
X141910514Y-53484836D01*
X141672419Y-54818169D02*
X141672419Y-54341979D01*
X141672419Y-54341979D02*
X142148609Y-54294360D01*
X142148609Y-54294360D02*
X142100990Y-54341979D01*
X142100990Y-54341979D02*
X142053371Y-54437217D01*
X142053371Y-54437217D02*
X142053371Y-54675312D01*
X142053371Y-54675312D02*
X142100990Y-54770550D01*
X142100990Y-54770550D02*
X142148609Y-54818169D01*
X142148609Y-54818169D02*
X142243847Y-54865788D01*
X142243847Y-54865788D02*
X142481942Y-54865788D01*
X142481942Y-54865788D02*
X142577180Y-54818169D01*
X142577180Y-54818169D02*
X142624800Y-54770550D01*
X142624800Y-54770550D02*
X142672419Y-54675312D01*
X142672419Y-54675312D02*
X142672419Y-54437217D01*
X142672419Y-54437217D02*
X142624800Y-54341979D01*
X142624800Y-54341979D02*
X142577180Y-54294360D01*
X141672419Y-55151503D02*
X142672419Y-55484836D01*
X142672419Y-55484836D02*
X141672419Y-55818169D01*
X184920038Y-31827693D02*
X184872419Y-31732455D01*
X184872419Y-31732455D02*
X184872419Y-31589598D01*
X184872419Y-31589598D02*
X184920038Y-31446741D01*
X184920038Y-31446741D02*
X185015276Y-31351503D01*
X185015276Y-31351503D02*
X185110514Y-31303884D01*
X185110514Y-31303884D02*
X185300990Y-31256265D01*
X185300990Y-31256265D02*
X185443847Y-31256265D01*
X185443847Y-31256265D02*
X185634323Y-31303884D01*
X185634323Y-31303884D02*
X185729561Y-31351503D01*
X185729561Y-31351503D02*
X185824800Y-31446741D01*
X185824800Y-31446741D02*
X185872419Y-31589598D01*
X185872419Y-31589598D02*
X185872419Y-31684836D01*
X185872419Y-31684836D02*
X185824800Y-31827693D01*
X185824800Y-31827693D02*
X185777180Y-31875312D01*
X185777180Y-31875312D02*
X185443847Y-31875312D01*
X185443847Y-31875312D02*
X185443847Y-31684836D01*
X185872419Y-32303884D02*
X184872419Y-32303884D01*
X184872419Y-32303884D02*
X185872419Y-32875312D01*
X185872419Y-32875312D02*
X184872419Y-32875312D01*
X185872419Y-33351503D02*
X184872419Y-33351503D01*
X184872419Y-33351503D02*
X184872419Y-33589598D01*
X184872419Y-33589598D02*
X184920038Y-33732455D01*
X184920038Y-33732455D02*
X185015276Y-33827693D01*
X185015276Y-33827693D02*
X185110514Y-33875312D01*
X185110514Y-33875312D02*
X185300990Y-33922931D01*
X185300990Y-33922931D02*
X185443847Y-33922931D01*
X185443847Y-33922931D02*
X185634323Y-33875312D01*
X185634323Y-33875312D02*
X185729561Y-33827693D01*
X185729561Y-33827693D02*
X185824800Y-33732455D01*
X185824800Y-33732455D02*
X185872419Y-33589598D01*
X185872419Y-33589598D02*
X185872419Y-33351503D01*
X172122419Y-53053884D02*
X172931942Y-53053884D01*
X172931942Y-53053884D02*
X173027180Y-53101503D01*
X173027180Y-53101503D02*
X173074800Y-53149122D01*
X173074800Y-53149122D02*
X173122419Y-53244360D01*
X173122419Y-53244360D02*
X173122419Y-53434836D01*
X173122419Y-53434836D02*
X173074800Y-53530074D01*
X173074800Y-53530074D02*
X173027180Y-53577693D01*
X173027180Y-53577693D02*
X172931942Y-53625312D01*
X172931942Y-53625312D02*
X172122419Y-53625312D01*
X173074800Y-54053884D02*
X173122419Y-54196741D01*
X173122419Y-54196741D02*
X173122419Y-54434836D01*
X173122419Y-54434836D02*
X173074800Y-54530074D01*
X173074800Y-54530074D02*
X173027180Y-54577693D01*
X173027180Y-54577693D02*
X172931942Y-54625312D01*
X172931942Y-54625312D02*
X172836704Y-54625312D01*
X172836704Y-54625312D02*
X172741466Y-54577693D01*
X172741466Y-54577693D02*
X172693847Y-54530074D01*
X172693847Y-54530074D02*
X172646228Y-54434836D01*
X172646228Y-54434836D02*
X172598609Y-54244360D01*
X172598609Y-54244360D02*
X172550990Y-54149122D01*
X172550990Y-54149122D02*
X172503371Y-54101503D01*
X172503371Y-54101503D02*
X172408133Y-54053884D01*
X172408133Y-54053884D02*
X172312895Y-54053884D01*
X172312895Y-54053884D02*
X172217657Y-54101503D01*
X172217657Y-54101503D02*
X172170038Y-54149122D01*
X172170038Y-54149122D02*
X172122419Y-54244360D01*
X172122419Y-54244360D02*
X172122419Y-54482455D01*
X172122419Y-54482455D02*
X172170038Y-54625312D01*
X172836704Y-55006265D02*
X172836704Y-55482455D01*
X173122419Y-54911027D02*
X172122419Y-55244360D01*
X172122419Y-55244360D02*
X173122419Y-55577693D01*
X173122419Y-56482455D02*
X172646228Y-56149122D01*
X173122419Y-55911027D02*
X172122419Y-55911027D01*
X172122419Y-55911027D02*
X172122419Y-56291979D01*
X172122419Y-56291979D02*
X172170038Y-56387217D01*
X172170038Y-56387217D02*
X172217657Y-56434836D01*
X172217657Y-56434836D02*
X172312895Y-56482455D01*
X172312895Y-56482455D02*
X172455752Y-56482455D01*
X172455752Y-56482455D02*
X172550990Y-56434836D01*
X172550990Y-56434836D02*
X172598609Y-56387217D01*
X172598609Y-56387217D02*
X172646228Y-56291979D01*
X172646228Y-56291979D02*
X172646228Y-55911027D01*
X172122419Y-56768170D02*
X172122419Y-57339598D01*
X173122419Y-57053884D02*
X172122419Y-57053884D01*
X173122419Y-58196741D02*
X173122419Y-57625313D01*
X173122419Y-57911027D02*
X172122419Y-57911027D01*
X172122419Y-57911027D02*
X172265276Y-57815789D01*
X172265276Y-57815789D02*
X172360514Y-57720551D01*
X172360514Y-57720551D02*
X172408133Y-57625313D01*
X173217657Y-58387218D02*
X173217657Y-59149122D01*
X172122419Y-59244361D02*
X172122419Y-59815789D01*
X173122419Y-59530075D02*
X172122419Y-59530075D01*
X172122419Y-60053885D02*
X173122419Y-60720551D01*
X172122419Y-60720551D02*
X173122419Y-60053885D01*
X147586704Y-37506265D02*
X147586704Y-37982455D01*
X147872419Y-37411027D02*
X146872419Y-37744360D01*
X146872419Y-37744360D02*
X147872419Y-38077693D01*
X146872419Y-38601503D02*
X146872419Y-38696741D01*
X146872419Y-38696741D02*
X146920038Y-38791979D01*
X146920038Y-38791979D02*
X146967657Y-38839598D01*
X146967657Y-38839598D02*
X147062895Y-38887217D01*
X147062895Y-38887217D02*
X147253371Y-38934836D01*
X147253371Y-38934836D02*
X147491466Y-38934836D01*
X147491466Y-38934836D02*
X147681942Y-38887217D01*
X147681942Y-38887217D02*
X147777180Y-38839598D01*
X147777180Y-38839598D02*
X147824800Y-38791979D01*
X147824800Y-38791979D02*
X147872419Y-38696741D01*
X147872419Y-38696741D02*
X147872419Y-38601503D01*
X147872419Y-38601503D02*
X147824800Y-38506265D01*
X147824800Y-38506265D02*
X147777180Y-38458646D01*
X147777180Y-38458646D02*
X147681942Y-38411027D01*
X147681942Y-38411027D02*
X147491466Y-38363408D01*
X147491466Y-38363408D02*
X147253371Y-38363408D01*
X147253371Y-38363408D02*
X147062895Y-38411027D01*
X147062895Y-38411027D02*
X146967657Y-38458646D01*
X146967657Y-38458646D02*
X146920038Y-38506265D01*
X146920038Y-38506265D02*
X146872419Y-38601503D01*
X145272419Y-46503884D02*
X144272419Y-46503884D01*
X144272419Y-46503884D02*
X144272419Y-46884836D01*
X144272419Y-46884836D02*
X144320038Y-46980074D01*
X144320038Y-46980074D02*
X144367657Y-47027693D01*
X144367657Y-47027693D02*
X144462895Y-47075312D01*
X144462895Y-47075312D02*
X144605752Y-47075312D01*
X144605752Y-47075312D02*
X144700990Y-47027693D01*
X144700990Y-47027693D02*
X144748609Y-46980074D01*
X144748609Y-46980074D02*
X144796228Y-46884836D01*
X144796228Y-46884836D02*
X144796228Y-46503884D01*
X144748609Y-47837217D02*
X144796228Y-47980074D01*
X144796228Y-47980074D02*
X144843847Y-48027693D01*
X144843847Y-48027693D02*
X144939085Y-48075312D01*
X144939085Y-48075312D02*
X145081942Y-48075312D01*
X145081942Y-48075312D02*
X145177180Y-48027693D01*
X145177180Y-48027693D02*
X145224800Y-47980074D01*
X145224800Y-47980074D02*
X145272419Y-47884836D01*
X145272419Y-47884836D02*
X145272419Y-47503884D01*
X145272419Y-47503884D02*
X144272419Y-47503884D01*
X144272419Y-47503884D02*
X144272419Y-47837217D01*
X144272419Y-47837217D02*
X144320038Y-47932455D01*
X144320038Y-47932455D02*
X144367657Y-47980074D01*
X144367657Y-47980074D02*
X144462895Y-48027693D01*
X144462895Y-48027693D02*
X144558133Y-48027693D01*
X144558133Y-48027693D02*
X144653371Y-47980074D01*
X144653371Y-47980074D02*
X144700990Y-47932455D01*
X144700990Y-47932455D02*
X144748609Y-47837217D01*
X144748609Y-47837217D02*
X144748609Y-47503884D01*
X145272419Y-48551503D02*
X145272419Y-48741979D01*
X145272419Y-48741979D02*
X145224800Y-48837217D01*
X145224800Y-48837217D02*
X145177180Y-48884836D01*
X145177180Y-48884836D02*
X145034323Y-48980074D01*
X145034323Y-48980074D02*
X144843847Y-49027693D01*
X144843847Y-49027693D02*
X144462895Y-49027693D01*
X144462895Y-49027693D02*
X144367657Y-48980074D01*
X144367657Y-48980074D02*
X144320038Y-48932455D01*
X144320038Y-48932455D02*
X144272419Y-48837217D01*
X144272419Y-48837217D02*
X144272419Y-48646741D01*
X144272419Y-48646741D02*
X144320038Y-48551503D01*
X144320038Y-48551503D02*
X144367657Y-48503884D01*
X144367657Y-48503884D02*
X144462895Y-48456265D01*
X144462895Y-48456265D02*
X144700990Y-48456265D01*
X144700990Y-48456265D02*
X144796228Y-48503884D01*
X144796228Y-48503884D02*
X144843847Y-48551503D01*
X144843847Y-48551503D02*
X144891466Y-48646741D01*
X144891466Y-48646741D02*
X144891466Y-48837217D01*
X144891466Y-48837217D02*
X144843847Y-48932455D01*
X144843847Y-48932455D02*
X144796228Y-48980074D01*
X144796228Y-48980074D02*
X144700990Y-49027693D01*
X155472419Y-46503884D02*
X154472419Y-46503884D01*
X154472419Y-46503884D02*
X154472419Y-46884836D01*
X154472419Y-46884836D02*
X154520038Y-46980074D01*
X154520038Y-46980074D02*
X154567657Y-47027693D01*
X154567657Y-47027693D02*
X154662895Y-47075312D01*
X154662895Y-47075312D02*
X154805752Y-47075312D01*
X154805752Y-47075312D02*
X154900990Y-47027693D01*
X154900990Y-47027693D02*
X154948609Y-46980074D01*
X154948609Y-46980074D02*
X154996228Y-46884836D01*
X154996228Y-46884836D02*
X154996228Y-46503884D01*
X154948609Y-47837217D02*
X154996228Y-47980074D01*
X154996228Y-47980074D02*
X155043847Y-48027693D01*
X155043847Y-48027693D02*
X155139085Y-48075312D01*
X155139085Y-48075312D02*
X155281942Y-48075312D01*
X155281942Y-48075312D02*
X155377180Y-48027693D01*
X155377180Y-48027693D02*
X155424800Y-47980074D01*
X155424800Y-47980074D02*
X155472419Y-47884836D01*
X155472419Y-47884836D02*
X155472419Y-47503884D01*
X155472419Y-47503884D02*
X154472419Y-47503884D01*
X154472419Y-47503884D02*
X154472419Y-47837217D01*
X154472419Y-47837217D02*
X154520038Y-47932455D01*
X154520038Y-47932455D02*
X154567657Y-47980074D01*
X154567657Y-47980074D02*
X154662895Y-48027693D01*
X154662895Y-48027693D02*
X154758133Y-48027693D01*
X154758133Y-48027693D02*
X154853371Y-47980074D01*
X154853371Y-47980074D02*
X154900990Y-47932455D01*
X154900990Y-47932455D02*
X154948609Y-47837217D01*
X154948609Y-47837217D02*
X154948609Y-47503884D01*
X154472419Y-48980074D02*
X154472419Y-48503884D01*
X154472419Y-48503884D02*
X154948609Y-48456265D01*
X154948609Y-48456265D02*
X154900990Y-48503884D01*
X154900990Y-48503884D02*
X154853371Y-48599122D01*
X154853371Y-48599122D02*
X154853371Y-48837217D01*
X154853371Y-48837217D02*
X154900990Y-48932455D01*
X154900990Y-48932455D02*
X154948609Y-48980074D01*
X154948609Y-48980074D02*
X155043847Y-49027693D01*
X155043847Y-49027693D02*
X155281942Y-49027693D01*
X155281942Y-49027693D02*
X155377180Y-48980074D01*
X155377180Y-48980074D02*
X155424800Y-48932455D01*
X155424800Y-48932455D02*
X155472419Y-48837217D01*
X155472419Y-48837217D02*
X155472419Y-48599122D01*
X155472419Y-48599122D02*
X155424800Y-48503884D01*
X155424800Y-48503884D02*
X155377180Y-48456265D01*
X157836704Y-32506265D02*
X157836704Y-32982455D01*
X158122419Y-32411027D02*
X157122419Y-32744360D01*
X157122419Y-32744360D02*
X158122419Y-33077693D01*
X157455752Y-33839598D02*
X158122419Y-33839598D01*
X157074800Y-33601503D02*
X157789085Y-33363408D01*
X157789085Y-33363408D02*
X157789085Y-33982455D01*
X160336704Y-32506265D02*
X160336704Y-32982455D01*
X160622419Y-32411027D02*
X159622419Y-32744360D01*
X159622419Y-32744360D02*
X160622419Y-33077693D01*
X159622419Y-33887217D02*
X159622419Y-33411027D01*
X159622419Y-33411027D02*
X160098609Y-33363408D01*
X160098609Y-33363408D02*
X160050990Y-33411027D01*
X160050990Y-33411027D02*
X160003371Y-33506265D01*
X160003371Y-33506265D02*
X160003371Y-33744360D01*
X160003371Y-33744360D02*
X160050990Y-33839598D01*
X160050990Y-33839598D02*
X160098609Y-33887217D01*
X160098609Y-33887217D02*
X160193847Y-33934836D01*
X160193847Y-33934836D02*
X160431942Y-33934836D01*
X160431942Y-33934836D02*
X160527180Y-33887217D01*
X160527180Y-33887217D02*
X160574800Y-33839598D01*
X160574800Y-33839598D02*
X160622419Y-33744360D01*
X160622419Y-33744360D02*
X160622419Y-33506265D01*
X160622419Y-33506265D02*
X160574800Y-33411027D01*
X160574800Y-33411027D02*
X160527180Y-33363408D01*
X172836704Y-47756265D02*
X172836704Y-48232455D01*
X173122419Y-47661027D02*
X172122419Y-47994360D01*
X172122419Y-47994360D02*
X173122419Y-48327693D01*
X173122419Y-48708646D02*
X173122419Y-48899122D01*
X173122419Y-48899122D02*
X173074800Y-48994360D01*
X173074800Y-48994360D02*
X173027180Y-49041979D01*
X173027180Y-49041979D02*
X172884323Y-49137217D01*
X172884323Y-49137217D02*
X172693847Y-49184836D01*
X172693847Y-49184836D02*
X172312895Y-49184836D01*
X172312895Y-49184836D02*
X172217657Y-49137217D01*
X172217657Y-49137217D02*
X172170038Y-49089598D01*
X172170038Y-49089598D02*
X172122419Y-48994360D01*
X172122419Y-48994360D02*
X172122419Y-48803884D01*
X172122419Y-48803884D02*
X172170038Y-48708646D01*
X172170038Y-48708646D02*
X172217657Y-48661027D01*
X172217657Y-48661027D02*
X172312895Y-48613408D01*
X172312895Y-48613408D02*
X172550990Y-48613408D01*
X172550990Y-48613408D02*
X172646228Y-48661027D01*
X172646228Y-48661027D02*
X172693847Y-48708646D01*
X172693847Y-48708646D02*
X172741466Y-48803884D01*
X172741466Y-48803884D02*
X172741466Y-48994360D01*
X172741466Y-48994360D02*
X172693847Y-49089598D01*
X172693847Y-49089598D02*
X172646228Y-49137217D01*
X172646228Y-49137217D02*
X172550990Y-49184836D01*
X170098609Y-32637217D02*
X170146228Y-32780074D01*
X170146228Y-32780074D02*
X170193847Y-32827693D01*
X170193847Y-32827693D02*
X170289085Y-32875312D01*
X170289085Y-32875312D02*
X170431942Y-32875312D01*
X170431942Y-32875312D02*
X170527180Y-32827693D01*
X170527180Y-32827693D02*
X170574800Y-32780074D01*
X170574800Y-32780074D02*
X170622419Y-32684836D01*
X170622419Y-32684836D02*
X170622419Y-32303884D01*
X170622419Y-32303884D02*
X169622419Y-32303884D01*
X169622419Y-32303884D02*
X169622419Y-32637217D01*
X169622419Y-32637217D02*
X169670038Y-32732455D01*
X169670038Y-32732455D02*
X169717657Y-32780074D01*
X169717657Y-32780074D02*
X169812895Y-32827693D01*
X169812895Y-32827693D02*
X169908133Y-32827693D01*
X169908133Y-32827693D02*
X170003371Y-32780074D01*
X170003371Y-32780074D02*
X170050990Y-32732455D01*
X170050990Y-32732455D02*
X170098609Y-32637217D01*
X170098609Y-32637217D02*
X170098609Y-32303884D01*
X170622419Y-33827693D02*
X170622419Y-33256265D01*
X170622419Y-33541979D02*
X169622419Y-33541979D01*
X169622419Y-33541979D02*
X169765276Y-33446741D01*
X169765276Y-33446741D02*
X169860514Y-33351503D01*
X169860514Y-33351503D02*
X169908133Y-33256265D01*
X162586704Y-32506265D02*
X162586704Y-32982455D01*
X162872419Y-32411027D02*
X161872419Y-32744360D01*
X161872419Y-32744360D02*
X162872419Y-33077693D01*
X161872419Y-33839598D02*
X161872419Y-33649122D01*
X161872419Y-33649122D02*
X161920038Y-33553884D01*
X161920038Y-33553884D02*
X161967657Y-33506265D01*
X161967657Y-33506265D02*
X162110514Y-33411027D01*
X162110514Y-33411027D02*
X162300990Y-33363408D01*
X162300990Y-33363408D02*
X162681942Y-33363408D01*
X162681942Y-33363408D02*
X162777180Y-33411027D01*
X162777180Y-33411027D02*
X162824800Y-33458646D01*
X162824800Y-33458646D02*
X162872419Y-33553884D01*
X162872419Y-33553884D02*
X162872419Y-33744360D01*
X162872419Y-33744360D02*
X162824800Y-33839598D01*
X162824800Y-33839598D02*
X162777180Y-33887217D01*
X162777180Y-33887217D02*
X162681942Y-33934836D01*
X162681942Y-33934836D02*
X162443847Y-33934836D01*
X162443847Y-33934836D02*
X162348609Y-33887217D01*
X162348609Y-33887217D02*
X162300990Y-33839598D01*
X162300990Y-33839598D02*
X162253371Y-33744360D01*
X162253371Y-33744360D02*
X162253371Y-33553884D01*
X162253371Y-33553884D02*
X162300990Y-33458646D01*
X162300990Y-33458646D02*
X162348609Y-33411027D01*
X162348609Y-33411027D02*
X162443847Y-33363408D01*
X139170038Y-53577693D02*
X139122419Y-53482455D01*
X139122419Y-53482455D02*
X139122419Y-53339598D01*
X139122419Y-53339598D02*
X139170038Y-53196741D01*
X139170038Y-53196741D02*
X139265276Y-53101503D01*
X139265276Y-53101503D02*
X139360514Y-53053884D01*
X139360514Y-53053884D02*
X139550990Y-53006265D01*
X139550990Y-53006265D02*
X139693847Y-53006265D01*
X139693847Y-53006265D02*
X139884323Y-53053884D01*
X139884323Y-53053884D02*
X139979561Y-53101503D01*
X139979561Y-53101503D02*
X140074800Y-53196741D01*
X140074800Y-53196741D02*
X140122419Y-53339598D01*
X140122419Y-53339598D02*
X140122419Y-53434836D01*
X140122419Y-53434836D02*
X140074800Y-53577693D01*
X140074800Y-53577693D02*
X140027180Y-53625312D01*
X140027180Y-53625312D02*
X139693847Y-53625312D01*
X139693847Y-53625312D02*
X139693847Y-53434836D01*
X140122419Y-54053884D02*
X139122419Y-54053884D01*
X139122419Y-54053884D02*
X140122419Y-54625312D01*
X140122419Y-54625312D02*
X139122419Y-54625312D01*
X140122419Y-55101503D02*
X139122419Y-55101503D01*
X139122419Y-55101503D02*
X139122419Y-55339598D01*
X139122419Y-55339598D02*
X139170038Y-55482455D01*
X139170038Y-55482455D02*
X139265276Y-55577693D01*
X139265276Y-55577693D02*
X139360514Y-55625312D01*
X139360514Y-55625312D02*
X139550990Y-55672931D01*
X139550990Y-55672931D02*
X139693847Y-55672931D01*
X139693847Y-55672931D02*
X139884323Y-55625312D01*
X139884323Y-55625312D02*
X139979561Y-55577693D01*
X139979561Y-55577693D02*
X140074800Y-55482455D01*
X140074800Y-55482455D02*
X140122419Y-55339598D01*
X140122419Y-55339598D02*
X140122419Y-55101503D01*
X152872419Y-46503884D02*
X151872419Y-46503884D01*
X151872419Y-46503884D02*
X151872419Y-46884836D01*
X151872419Y-46884836D02*
X151920038Y-46980074D01*
X151920038Y-46980074D02*
X151967657Y-47027693D01*
X151967657Y-47027693D02*
X152062895Y-47075312D01*
X152062895Y-47075312D02*
X152205752Y-47075312D01*
X152205752Y-47075312D02*
X152300990Y-47027693D01*
X152300990Y-47027693D02*
X152348609Y-46980074D01*
X152348609Y-46980074D02*
X152396228Y-46884836D01*
X152396228Y-46884836D02*
X152396228Y-46503884D01*
X152348609Y-47837217D02*
X152396228Y-47980074D01*
X152396228Y-47980074D02*
X152443847Y-48027693D01*
X152443847Y-48027693D02*
X152539085Y-48075312D01*
X152539085Y-48075312D02*
X152681942Y-48075312D01*
X152681942Y-48075312D02*
X152777180Y-48027693D01*
X152777180Y-48027693D02*
X152824800Y-47980074D01*
X152824800Y-47980074D02*
X152872419Y-47884836D01*
X152872419Y-47884836D02*
X152872419Y-47503884D01*
X152872419Y-47503884D02*
X151872419Y-47503884D01*
X151872419Y-47503884D02*
X151872419Y-47837217D01*
X151872419Y-47837217D02*
X151920038Y-47932455D01*
X151920038Y-47932455D02*
X151967657Y-47980074D01*
X151967657Y-47980074D02*
X152062895Y-48027693D01*
X152062895Y-48027693D02*
X152158133Y-48027693D01*
X152158133Y-48027693D02*
X152253371Y-47980074D01*
X152253371Y-47980074D02*
X152300990Y-47932455D01*
X152300990Y-47932455D02*
X152348609Y-47837217D01*
X152348609Y-47837217D02*
X152348609Y-47503884D01*
X151872419Y-48932455D02*
X151872419Y-48741979D01*
X151872419Y-48741979D02*
X151920038Y-48646741D01*
X151920038Y-48646741D02*
X151967657Y-48599122D01*
X151967657Y-48599122D02*
X152110514Y-48503884D01*
X152110514Y-48503884D02*
X152300990Y-48456265D01*
X152300990Y-48456265D02*
X152681942Y-48456265D01*
X152681942Y-48456265D02*
X152777180Y-48503884D01*
X152777180Y-48503884D02*
X152824800Y-48551503D01*
X152824800Y-48551503D02*
X152872419Y-48646741D01*
X152872419Y-48646741D02*
X152872419Y-48837217D01*
X152872419Y-48837217D02*
X152824800Y-48932455D01*
X152824800Y-48932455D02*
X152777180Y-48980074D01*
X152777180Y-48980074D02*
X152681942Y-49027693D01*
X152681942Y-49027693D02*
X152443847Y-49027693D01*
X152443847Y-49027693D02*
X152348609Y-48980074D01*
X152348609Y-48980074D02*
X152300990Y-48932455D01*
X152300990Y-48932455D02*
X152253371Y-48837217D01*
X152253371Y-48837217D02*
X152253371Y-48646741D01*
X152253371Y-48646741D02*
X152300990Y-48551503D01*
X152300990Y-48551503D02*
X152348609Y-48503884D01*
X152348609Y-48503884D02*
X152443847Y-48456265D01*
X147872419Y-53053884D02*
X146872419Y-53053884D01*
X146967657Y-53482455D02*
X146920038Y-53530074D01*
X146920038Y-53530074D02*
X146872419Y-53625312D01*
X146872419Y-53625312D02*
X146872419Y-53863407D01*
X146872419Y-53863407D02*
X146920038Y-53958645D01*
X146920038Y-53958645D02*
X146967657Y-54006264D01*
X146967657Y-54006264D02*
X147062895Y-54053883D01*
X147062895Y-54053883D02*
X147158133Y-54053883D01*
X147158133Y-54053883D02*
X147300990Y-54006264D01*
X147300990Y-54006264D02*
X147872419Y-53434836D01*
X147872419Y-53434836D02*
X147872419Y-54053883D01*
X147777180Y-55053883D02*
X147824800Y-55006264D01*
X147824800Y-55006264D02*
X147872419Y-54863407D01*
X147872419Y-54863407D02*
X147872419Y-54768169D01*
X147872419Y-54768169D02*
X147824800Y-54625312D01*
X147824800Y-54625312D02*
X147729561Y-54530074D01*
X147729561Y-54530074D02*
X147634323Y-54482455D01*
X147634323Y-54482455D02*
X147443847Y-54434836D01*
X147443847Y-54434836D02*
X147300990Y-54434836D01*
X147300990Y-54434836D02*
X147110514Y-54482455D01*
X147110514Y-54482455D02*
X147015276Y-54530074D01*
X147015276Y-54530074D02*
X146920038Y-54625312D01*
X146920038Y-54625312D02*
X146872419Y-54768169D01*
X146872419Y-54768169D02*
X146872419Y-54863407D01*
X146872419Y-54863407D02*
X146920038Y-55006264D01*
X146920038Y-55006264D02*
X146967657Y-55053883D01*
X147872419Y-56006264D02*
X147872419Y-55434836D01*
X147872419Y-55720550D02*
X146872419Y-55720550D01*
X146872419Y-55720550D02*
X147015276Y-55625312D01*
X147015276Y-55625312D02*
X147110514Y-55530074D01*
X147110514Y-55530074D02*
X147158133Y-55434836D01*
X147967657Y-56196741D02*
X147967657Y-56958645D01*
X147824800Y-57149122D02*
X147872419Y-57291979D01*
X147872419Y-57291979D02*
X147872419Y-57530074D01*
X147872419Y-57530074D02*
X147824800Y-57625312D01*
X147824800Y-57625312D02*
X147777180Y-57672931D01*
X147777180Y-57672931D02*
X147681942Y-57720550D01*
X147681942Y-57720550D02*
X147586704Y-57720550D01*
X147586704Y-57720550D02*
X147491466Y-57672931D01*
X147491466Y-57672931D02*
X147443847Y-57625312D01*
X147443847Y-57625312D02*
X147396228Y-57530074D01*
X147396228Y-57530074D02*
X147348609Y-57339598D01*
X147348609Y-57339598D02*
X147300990Y-57244360D01*
X147300990Y-57244360D02*
X147253371Y-57196741D01*
X147253371Y-57196741D02*
X147158133Y-57149122D01*
X147158133Y-57149122D02*
X147062895Y-57149122D01*
X147062895Y-57149122D02*
X146967657Y-57196741D01*
X146967657Y-57196741D02*
X146920038Y-57244360D01*
X146920038Y-57244360D02*
X146872419Y-57339598D01*
X146872419Y-57339598D02*
X146872419Y-57577693D01*
X146872419Y-57577693D02*
X146920038Y-57720550D01*
X147777180Y-58720550D02*
X147824800Y-58672931D01*
X147824800Y-58672931D02*
X147872419Y-58530074D01*
X147872419Y-58530074D02*
X147872419Y-58434836D01*
X147872419Y-58434836D02*
X147824800Y-58291979D01*
X147824800Y-58291979D02*
X147729561Y-58196741D01*
X147729561Y-58196741D02*
X147634323Y-58149122D01*
X147634323Y-58149122D02*
X147443847Y-58101503D01*
X147443847Y-58101503D02*
X147300990Y-58101503D01*
X147300990Y-58101503D02*
X147110514Y-58149122D01*
X147110514Y-58149122D02*
X147015276Y-58196741D01*
X147015276Y-58196741D02*
X146920038Y-58291979D01*
X146920038Y-58291979D02*
X146872419Y-58434836D01*
X146872419Y-58434836D02*
X146872419Y-58530074D01*
X146872419Y-58530074D02*
X146920038Y-58672931D01*
X146920038Y-58672931D02*
X146967657Y-58720550D01*
X147872419Y-59625312D02*
X147872419Y-59149122D01*
X147872419Y-59149122D02*
X146872419Y-59149122D01*
X150472419Y-46503884D02*
X149472419Y-46503884D01*
X149472419Y-46503884D02*
X149472419Y-46884836D01*
X149472419Y-46884836D02*
X149520038Y-46980074D01*
X149520038Y-46980074D02*
X149567657Y-47027693D01*
X149567657Y-47027693D02*
X149662895Y-47075312D01*
X149662895Y-47075312D02*
X149805752Y-47075312D01*
X149805752Y-47075312D02*
X149900990Y-47027693D01*
X149900990Y-47027693D02*
X149948609Y-46980074D01*
X149948609Y-46980074D02*
X149996228Y-46884836D01*
X149996228Y-46884836D02*
X149996228Y-46503884D01*
X149948609Y-47837217D02*
X149996228Y-47980074D01*
X149996228Y-47980074D02*
X150043847Y-48027693D01*
X150043847Y-48027693D02*
X150139085Y-48075312D01*
X150139085Y-48075312D02*
X150281942Y-48075312D01*
X150281942Y-48075312D02*
X150377180Y-48027693D01*
X150377180Y-48027693D02*
X150424800Y-47980074D01*
X150424800Y-47980074D02*
X150472419Y-47884836D01*
X150472419Y-47884836D02*
X150472419Y-47503884D01*
X150472419Y-47503884D02*
X149472419Y-47503884D01*
X149472419Y-47503884D02*
X149472419Y-47837217D01*
X149472419Y-47837217D02*
X149520038Y-47932455D01*
X149520038Y-47932455D02*
X149567657Y-47980074D01*
X149567657Y-47980074D02*
X149662895Y-48027693D01*
X149662895Y-48027693D02*
X149758133Y-48027693D01*
X149758133Y-48027693D02*
X149853371Y-47980074D01*
X149853371Y-47980074D02*
X149900990Y-47932455D01*
X149900990Y-47932455D02*
X149948609Y-47837217D01*
X149948609Y-47837217D02*
X149948609Y-47503884D01*
X149472419Y-48408646D02*
X149472419Y-49075312D01*
X149472419Y-49075312D02*
X150472419Y-48646741D01*
X167836704Y-53256265D02*
X167836704Y-53732455D01*
X168122419Y-53161027D02*
X167122419Y-53494360D01*
X167122419Y-53494360D02*
X168122419Y-53827693D01*
X168122419Y-54684836D02*
X168122419Y-54113408D01*
X168122419Y-54399122D02*
X167122419Y-54399122D01*
X167122419Y-54399122D02*
X167265276Y-54303884D01*
X167265276Y-54303884D02*
X167360514Y-54208646D01*
X167360514Y-54208646D02*
X167408133Y-54113408D01*
X168122419Y-55637217D02*
X168122419Y-55065789D01*
X168122419Y-55351503D02*
X167122419Y-55351503D01*
X167122419Y-55351503D02*
X167265276Y-55256265D01*
X167265276Y-55256265D02*
X167360514Y-55161027D01*
X167360514Y-55161027D02*
X167408133Y-55065789D01*
X185348609Y-46887217D02*
X185396228Y-47030074D01*
X185396228Y-47030074D02*
X185443847Y-47077693D01*
X185443847Y-47077693D02*
X185539085Y-47125312D01*
X185539085Y-47125312D02*
X185681942Y-47125312D01*
X185681942Y-47125312D02*
X185777180Y-47077693D01*
X185777180Y-47077693D02*
X185824800Y-47030074D01*
X185824800Y-47030074D02*
X185872419Y-46934836D01*
X185872419Y-46934836D02*
X185872419Y-46553884D01*
X185872419Y-46553884D02*
X184872419Y-46553884D01*
X184872419Y-46553884D02*
X184872419Y-46887217D01*
X184872419Y-46887217D02*
X184920038Y-46982455D01*
X184920038Y-46982455D02*
X184967657Y-47030074D01*
X184967657Y-47030074D02*
X185062895Y-47077693D01*
X185062895Y-47077693D02*
X185158133Y-47077693D01*
X185158133Y-47077693D02*
X185253371Y-47030074D01*
X185253371Y-47030074D02*
X185300990Y-46982455D01*
X185300990Y-46982455D02*
X185348609Y-46887217D01*
X185348609Y-46887217D02*
X185348609Y-46553884D01*
X185872419Y-48077693D02*
X185872419Y-47506265D01*
X185872419Y-47791979D02*
X184872419Y-47791979D01*
X184872419Y-47791979D02*
X185015276Y-47696741D01*
X185015276Y-47696741D02*
X185110514Y-47601503D01*
X185110514Y-47601503D02*
X185158133Y-47506265D01*
X184967657Y-48458646D02*
X184920038Y-48506265D01*
X184920038Y-48506265D02*
X184872419Y-48601503D01*
X184872419Y-48601503D02*
X184872419Y-48839598D01*
X184872419Y-48839598D02*
X184920038Y-48934836D01*
X184920038Y-48934836D02*
X184967657Y-48982455D01*
X184967657Y-48982455D02*
X185062895Y-49030074D01*
X185062895Y-49030074D02*
X185158133Y-49030074D01*
X185158133Y-49030074D02*
X185300990Y-48982455D01*
X185300990Y-48982455D02*
X185872419Y-48411027D01*
X185872419Y-48411027D02*
X185872419Y-49030074D01*
X150086704Y-32506265D02*
X150086704Y-32982455D01*
X150372419Y-32411027D02*
X149372419Y-32744360D01*
X149372419Y-32744360D02*
X150372419Y-33077693D01*
X150372419Y-33934836D02*
X150372419Y-33363408D01*
X150372419Y-33649122D02*
X149372419Y-33649122D01*
X149372419Y-33649122D02*
X149515276Y-33553884D01*
X149515276Y-33553884D02*
X149610514Y-33458646D01*
X149610514Y-33458646D02*
X149658133Y-33363408D01*
X165336704Y-53256265D02*
X165336704Y-53732455D01*
X165622419Y-53161027D02*
X164622419Y-53494360D01*
X164622419Y-53494360D02*
X165622419Y-53827693D01*
X165622419Y-54684836D02*
X165622419Y-54113408D01*
X165622419Y-54399122D02*
X164622419Y-54399122D01*
X164622419Y-54399122D02*
X164765276Y-54303884D01*
X164765276Y-54303884D02*
X164860514Y-54208646D01*
X164860514Y-54208646D02*
X164908133Y-54113408D01*
X164717657Y-55065789D02*
X164670038Y-55113408D01*
X164670038Y-55113408D02*
X164622419Y-55208646D01*
X164622419Y-55208646D02*
X164622419Y-55446741D01*
X164622419Y-55446741D02*
X164670038Y-55541979D01*
X164670038Y-55541979D02*
X164717657Y-55589598D01*
X164717657Y-55589598D02*
X164812895Y-55637217D01*
X164812895Y-55637217D02*
X164908133Y-55637217D01*
X164908133Y-55637217D02*
X165050990Y-55589598D01*
X165050990Y-55589598D02*
X165622419Y-55018170D01*
X165622419Y-55018170D02*
X165622419Y-55637217D01*
X145277180Y-32125312D02*
X145324800Y-32077693D01*
X145324800Y-32077693D02*
X145372419Y-31934836D01*
X145372419Y-31934836D02*
X145372419Y-31839598D01*
X145372419Y-31839598D02*
X145324800Y-31696741D01*
X145324800Y-31696741D02*
X145229561Y-31601503D01*
X145229561Y-31601503D02*
X145134323Y-31553884D01*
X145134323Y-31553884D02*
X144943847Y-31506265D01*
X144943847Y-31506265D02*
X144800990Y-31506265D01*
X144800990Y-31506265D02*
X144610514Y-31553884D01*
X144610514Y-31553884D02*
X144515276Y-31601503D01*
X144515276Y-31601503D02*
X144420038Y-31696741D01*
X144420038Y-31696741D02*
X144372419Y-31839598D01*
X144372419Y-31839598D02*
X144372419Y-31934836D01*
X144372419Y-31934836D02*
X144420038Y-32077693D01*
X144420038Y-32077693D02*
X144467657Y-32125312D01*
X145372419Y-33077693D02*
X145372419Y-32506265D01*
X145372419Y-32791979D02*
X144372419Y-32791979D01*
X144372419Y-32791979D02*
X144515276Y-32696741D01*
X144515276Y-32696741D02*
X144610514Y-32601503D01*
X144610514Y-32601503D02*
X144658133Y-32506265D01*
X144372419Y-33982455D02*
X144372419Y-33506265D01*
X144372419Y-33506265D02*
X144848609Y-33458646D01*
X144848609Y-33458646D02*
X144800990Y-33506265D01*
X144800990Y-33506265D02*
X144753371Y-33601503D01*
X144753371Y-33601503D02*
X144753371Y-33839598D01*
X144753371Y-33839598D02*
X144800990Y-33934836D01*
X144800990Y-33934836D02*
X144848609Y-33982455D01*
X144848609Y-33982455D02*
X144943847Y-34030074D01*
X144943847Y-34030074D02*
X145181942Y-34030074D01*
X145181942Y-34030074D02*
X145277180Y-33982455D01*
X145277180Y-33982455D02*
X145324800Y-33934836D01*
X145324800Y-33934836D02*
X145372419Y-33839598D01*
X145372419Y-33839598D02*
X145372419Y-33601503D01*
X145372419Y-33601503D02*
X145324800Y-33506265D01*
X145324800Y-33506265D02*
X145277180Y-33458646D01*
X167598609Y-32637217D02*
X167646228Y-32780074D01*
X167646228Y-32780074D02*
X167693847Y-32827693D01*
X167693847Y-32827693D02*
X167789085Y-32875312D01*
X167789085Y-32875312D02*
X167931942Y-32875312D01*
X167931942Y-32875312D02*
X168027180Y-32827693D01*
X168027180Y-32827693D02*
X168074800Y-32780074D01*
X168074800Y-32780074D02*
X168122419Y-32684836D01*
X168122419Y-32684836D02*
X168122419Y-32303884D01*
X168122419Y-32303884D02*
X167122419Y-32303884D01*
X167122419Y-32303884D02*
X167122419Y-32637217D01*
X167122419Y-32637217D02*
X167170038Y-32732455D01*
X167170038Y-32732455D02*
X167217657Y-32780074D01*
X167217657Y-32780074D02*
X167312895Y-32827693D01*
X167312895Y-32827693D02*
X167408133Y-32827693D01*
X167408133Y-32827693D02*
X167503371Y-32780074D01*
X167503371Y-32780074D02*
X167550990Y-32732455D01*
X167550990Y-32732455D02*
X167598609Y-32637217D01*
X167598609Y-32637217D02*
X167598609Y-32303884D01*
X167122419Y-33494360D02*
X167122419Y-33589598D01*
X167122419Y-33589598D02*
X167170038Y-33684836D01*
X167170038Y-33684836D02*
X167217657Y-33732455D01*
X167217657Y-33732455D02*
X167312895Y-33780074D01*
X167312895Y-33780074D02*
X167503371Y-33827693D01*
X167503371Y-33827693D02*
X167741466Y-33827693D01*
X167741466Y-33827693D02*
X167931942Y-33780074D01*
X167931942Y-33780074D02*
X168027180Y-33732455D01*
X168027180Y-33732455D02*
X168074800Y-33684836D01*
X168074800Y-33684836D02*
X168122419Y-33589598D01*
X168122419Y-33589598D02*
X168122419Y-33494360D01*
X168122419Y-33494360D02*
X168074800Y-33399122D01*
X168074800Y-33399122D02*
X168027180Y-33351503D01*
X168027180Y-33351503D02*
X167931942Y-33303884D01*
X167931942Y-33303884D02*
X167741466Y-33256265D01*
X167741466Y-33256265D02*
X167503371Y-33256265D01*
X167503371Y-33256265D02*
X167312895Y-33303884D01*
X167312895Y-33303884D02*
X167217657Y-33351503D01*
X167217657Y-33351503D02*
X167170038Y-33399122D01*
X167170038Y-33399122D02*
X167122419Y-33494360D01*
X162836704Y-53256265D02*
X162836704Y-53732455D01*
X163122419Y-53161027D02*
X162122419Y-53494360D01*
X162122419Y-53494360D02*
X163122419Y-53827693D01*
X163122419Y-54684836D02*
X163122419Y-54113408D01*
X163122419Y-54399122D02*
X162122419Y-54399122D01*
X162122419Y-54399122D02*
X162265276Y-54303884D01*
X162265276Y-54303884D02*
X162360514Y-54208646D01*
X162360514Y-54208646D02*
X162408133Y-54113408D01*
X162122419Y-55589598D02*
X162122419Y-55113408D01*
X162122419Y-55113408D02*
X162598609Y-55065789D01*
X162598609Y-55065789D02*
X162550990Y-55113408D01*
X162550990Y-55113408D02*
X162503371Y-55208646D01*
X162503371Y-55208646D02*
X162503371Y-55446741D01*
X162503371Y-55446741D02*
X162550990Y-55541979D01*
X162550990Y-55541979D02*
X162598609Y-55589598D01*
X162598609Y-55589598D02*
X162693847Y-55637217D01*
X162693847Y-55637217D02*
X162931942Y-55637217D01*
X162931942Y-55637217D02*
X163027180Y-55589598D01*
X163027180Y-55589598D02*
X163074800Y-55541979D01*
X163074800Y-55541979D02*
X163122419Y-55446741D01*
X163122419Y-55446741D02*
X163122419Y-55208646D01*
X163122419Y-55208646D02*
X163074800Y-55113408D01*
X163074800Y-55113408D02*
X163027180Y-55065789D01*
D11*
X150704819Y-40833333D02*
X150228628Y-40500000D01*
X150704819Y-40261905D02*
X149704819Y-40261905D01*
X149704819Y-40261905D02*
X149704819Y-40642857D01*
X149704819Y-40642857D02*
X149752438Y-40738095D01*
X149752438Y-40738095D02*
X149800057Y-40785714D01*
X149800057Y-40785714D02*
X149895295Y-40833333D01*
X149895295Y-40833333D02*
X150038152Y-40833333D01*
X150038152Y-40833333D02*
X150133390Y-40785714D01*
X150133390Y-40785714D02*
X150181009Y-40738095D01*
X150181009Y-40738095D02*
X150228628Y-40642857D01*
X150228628Y-40642857D02*
X150228628Y-40261905D01*
X149800057Y-41214286D02*
X149752438Y-41261905D01*
X149752438Y-41261905D02*
X149704819Y-41357143D01*
X149704819Y-41357143D02*
X149704819Y-41595238D01*
X149704819Y-41595238D02*
X149752438Y-41690476D01*
X149752438Y-41690476D02*
X149800057Y-41738095D01*
X149800057Y-41738095D02*
X149895295Y-41785714D01*
X149895295Y-41785714D02*
X149990533Y-41785714D01*
X149990533Y-41785714D02*
X150133390Y-41738095D01*
X150133390Y-41738095D02*
X150704819Y-41166667D01*
X150704819Y-41166667D02*
X150704819Y-41785714D01*
X141109580Y-40795833D02*
X141157200Y-40748214D01*
X141157200Y-40748214D02*
X141204819Y-40605357D01*
X141204819Y-40605357D02*
X141204819Y-40510119D01*
X141204819Y-40510119D02*
X141157200Y-40367262D01*
X141157200Y-40367262D02*
X141061961Y-40272024D01*
X141061961Y-40272024D02*
X140966723Y-40224405D01*
X140966723Y-40224405D02*
X140776247Y-40176786D01*
X140776247Y-40176786D02*
X140633390Y-40176786D01*
X140633390Y-40176786D02*
X140442914Y-40224405D01*
X140442914Y-40224405D02*
X140347676Y-40272024D01*
X140347676Y-40272024D02*
X140252438Y-40367262D01*
X140252438Y-40367262D02*
X140204819Y-40510119D01*
X140204819Y-40510119D02*
X140204819Y-40605357D01*
X140204819Y-40605357D02*
X140252438Y-40748214D01*
X140252438Y-40748214D02*
X140300057Y-40795833D01*
X141204819Y-41748214D02*
X141204819Y-41176786D01*
X141204819Y-41462500D02*
X140204819Y-41462500D01*
X140204819Y-41462500D02*
X140347676Y-41367262D01*
X140347676Y-41367262D02*
X140442914Y-41272024D01*
X140442914Y-41272024D02*
X140490533Y-41176786D01*
X145954819Y-40833333D02*
X145478628Y-40500000D01*
X145954819Y-40261905D02*
X144954819Y-40261905D01*
X144954819Y-40261905D02*
X144954819Y-40642857D01*
X144954819Y-40642857D02*
X145002438Y-40738095D01*
X145002438Y-40738095D02*
X145050057Y-40785714D01*
X145050057Y-40785714D02*
X145145295Y-40833333D01*
X145145295Y-40833333D02*
X145288152Y-40833333D01*
X145288152Y-40833333D02*
X145383390Y-40785714D01*
X145383390Y-40785714D02*
X145431009Y-40738095D01*
X145431009Y-40738095D02*
X145478628Y-40642857D01*
X145478628Y-40642857D02*
X145478628Y-40261905D01*
X145954819Y-41785714D02*
X145954819Y-41214286D01*
X145954819Y-41500000D02*
X144954819Y-41500000D01*
X144954819Y-41500000D02*
X145097676Y-41404762D01*
X145097676Y-41404762D02*
X145192914Y-41309524D01*
X145192914Y-41309524D02*
X145240533Y-41214286D01*
X226761904Y-36024819D02*
X226761904Y-36834342D01*
X226761904Y-36834342D02*
X226714285Y-36929580D01*
X226714285Y-36929580D02*
X226666666Y-36977200D01*
X226666666Y-36977200D02*
X226571428Y-37024819D01*
X226571428Y-37024819D02*
X226380952Y-37024819D01*
X226380952Y-37024819D02*
X226285714Y-36977200D01*
X226285714Y-36977200D02*
X226238095Y-36929580D01*
X226238095Y-36929580D02*
X226190476Y-36834342D01*
X226190476Y-36834342D02*
X226190476Y-36024819D01*
X225761904Y-36120057D02*
X225714285Y-36072438D01*
X225714285Y-36072438D02*
X225619047Y-36024819D01*
X225619047Y-36024819D02*
X225380952Y-36024819D01*
X225380952Y-36024819D02*
X225285714Y-36072438D01*
X225285714Y-36072438D02*
X225238095Y-36120057D01*
X225238095Y-36120057D02*
X225190476Y-36215295D01*
X225190476Y-36215295D02*
X225190476Y-36310533D01*
X225190476Y-36310533D02*
X225238095Y-36453390D01*
X225238095Y-36453390D02*
X225809523Y-37024819D01*
X225809523Y-37024819D02*
X225190476Y-37024819D01*
X176416666Y-55054819D02*
X176749999Y-54578628D01*
X176988094Y-55054819D02*
X176988094Y-54054819D01*
X176988094Y-54054819D02*
X176607142Y-54054819D01*
X176607142Y-54054819D02*
X176511904Y-54102438D01*
X176511904Y-54102438D02*
X176464285Y-54150057D01*
X176464285Y-54150057D02*
X176416666Y-54245295D01*
X176416666Y-54245295D02*
X176416666Y-54388152D01*
X176416666Y-54388152D02*
X176464285Y-54483390D01*
X176464285Y-54483390D02*
X176511904Y-54531009D01*
X176511904Y-54531009D02*
X176607142Y-54578628D01*
X176607142Y-54578628D02*
X176988094Y-54578628D01*
X175845237Y-54483390D02*
X175940475Y-54435771D01*
X175940475Y-54435771D02*
X175988094Y-54388152D01*
X175988094Y-54388152D02*
X176035713Y-54292914D01*
X176035713Y-54292914D02*
X176035713Y-54245295D01*
X176035713Y-54245295D02*
X175988094Y-54150057D01*
X175988094Y-54150057D02*
X175940475Y-54102438D01*
X175940475Y-54102438D02*
X175845237Y-54054819D01*
X175845237Y-54054819D02*
X175654761Y-54054819D01*
X175654761Y-54054819D02*
X175559523Y-54102438D01*
X175559523Y-54102438D02*
X175511904Y-54150057D01*
X175511904Y-54150057D02*
X175464285Y-54245295D01*
X175464285Y-54245295D02*
X175464285Y-54292914D01*
X175464285Y-54292914D02*
X175511904Y-54388152D01*
X175511904Y-54388152D02*
X175559523Y-54435771D01*
X175559523Y-54435771D02*
X175654761Y-54483390D01*
X175654761Y-54483390D02*
X175845237Y-54483390D01*
X175845237Y-54483390D02*
X175940475Y-54531009D01*
X175940475Y-54531009D02*
X175988094Y-54578628D01*
X175988094Y-54578628D02*
X176035713Y-54673866D01*
X176035713Y-54673866D02*
X176035713Y-54864342D01*
X176035713Y-54864342D02*
X175988094Y-54959580D01*
X175988094Y-54959580D02*
X175940475Y-55007200D01*
X175940475Y-55007200D02*
X175845237Y-55054819D01*
X175845237Y-55054819D02*
X175654761Y-55054819D01*
X175654761Y-55054819D02*
X175559523Y-55007200D01*
X175559523Y-55007200D02*
X175511904Y-54959580D01*
X175511904Y-54959580D02*
X175464285Y-54864342D01*
X175464285Y-54864342D02*
X175464285Y-54673866D01*
X175464285Y-54673866D02*
X175511904Y-54578628D01*
X175511904Y-54578628D02*
X175559523Y-54531009D01*
X175559523Y-54531009D02*
X175654761Y-54483390D01*
D12*
%TO.C,R2*%
X151265000Y-41227064D02*
X151265000Y-40772936D01*
X152735000Y-41227064D02*
X152735000Y-40772936D01*
%TO.C,C1*%
X141765000Y-40701248D02*
X141765000Y-41223752D01*
X143235000Y-40701248D02*
X143235000Y-41223752D01*
%TO.C,R1*%
X146515000Y-40772936D02*
X146515000Y-41227064D01*
X147985000Y-40772936D02*
X147985000Y-41227064D01*
%TO.C,U2*%
X190050000Y-37550000D02*
X190050000Y-64950000D01*
X190050000Y-64950000D02*
X191100000Y-64950000D01*
X191100000Y-34700000D02*
X191100000Y-37550000D01*
X191100000Y-37550000D02*
X190050000Y-37550000D01*
X191100000Y-64950000D02*
X191100000Y-67800000D01*
X195900000Y-37550000D02*
X195900000Y-34700000D01*
X195900000Y-64950000D02*
X256100000Y-64950000D01*
X195900000Y-67800000D02*
X195900000Y-64950000D01*
X218200000Y-66800000D02*
X219000000Y-65400000D01*
X218200000Y-66800000D02*
X219800000Y-66800000D01*
X219000000Y-65400000D02*
X219800000Y-66800000D01*
X256100000Y-34700000D02*
X256100000Y-37550000D01*
X256100000Y-37550000D02*
X195900000Y-37550000D01*
X256100000Y-64950000D02*
X256100000Y-67800000D01*
X260900000Y-37550000D02*
X260900000Y-34700000D01*
X260900000Y-64950000D02*
X261950000Y-64950000D01*
X260900000Y-67800000D02*
X260900000Y-64950000D01*
X261950000Y-37550000D02*
X260900000Y-37550000D01*
X261950000Y-38800000D02*
X261950000Y-37550000D01*
X261950000Y-57300000D02*
X266050000Y-55900000D01*
X261950000Y-64950000D02*
X261950000Y-57300000D01*
X266050000Y-40300000D02*
X261950000Y-38800000D01*
X266050000Y-55900000D02*
X266050000Y-40300000D01*
X191100000Y-34700000D02*
G75*
G02*
X195900000Y-34700000I2400000J0D01*
G01*
X195900000Y-67800000D02*
G75*
G02*
X191100000Y-67800000I-2400000J0D01*
G01*
X256100000Y-34700000D02*
G75*
G02*
X260900000Y-34700000I2400000J0D01*
G01*
X260900000Y-67800000D02*
G75*
G02*
X256100000Y-67800000I-2400000J0D01*
G01*
%TO.C,R8*%
X176022936Y-55515000D02*
X176477064Y-55515000D01*
X176022936Y-56985000D02*
X176477064Y-56985000D01*
%TD*%
M02*
