%TF.GenerationSoftware,KiCad,Pcbnew,8.0.9-8.0.9-0~ubuntu24.04.1*%
%TF.CreationDate,2025-02-24T19:57:28+02:00*%
%TF.ProjectId,LRL5,4c524c35-2e6b-4696-9361-645f70636258,rev?*%
%TF.SameCoordinates,Original*%
%TF.FileFunction,Paste,Top*%
%TF.FilePolarity,Positive*%
%FSLAX46Y46*%
G04 Gerber Fmt 4.6, Leading zero omitted, Abs format (unit mm)*
G04 Created by KiCad (PCBNEW 8.0.9-8.0.9-0~ubuntu24.04.1) date 2025-02-24 19:57:28*
%MOMM*%
%LPD*%
G01*
G04 APERTURE LIST*
G04 Aperture macros list*
%AMRoundRect*
0 Rectangle with rounded corners*
0 $1 Rounding radius*
0 $2 $3 $4 $5 $6 $7 $8 $9 X,Y pos of 4 corners*
0 Add a 4 corners polygon primitive as box body*
4,1,4,$2,$3,$4,$5,$6,$7,$8,$9,$2,$3,0*
0 Add four circle primitives for the rounded corners*
1,1,$1+$1,$2,$3*
1,1,$1+$1,$4,$5*
1,1,$1+$1,$6,$7*
1,1,$1+$1,$8,$9*
0 Add four rect primitives between the rounded corners*
20,1,$1+$1,$2,$3,$4,$5,0*
20,1,$1+$1,$4,$5,$6,$7,0*
20,1,$1+$1,$6,$7,$8,$9,0*
20,1,$1+$1,$8,$9,$2,$3,0*%
G04 Aperture macros list end*
%ADD10RoundRect,0.250000X-1.500000X-0.650000X1.500000X-0.650000X1.500000X0.650000X-1.500000X0.650000X0*%
%ADD11RoundRect,0.250000X1.500000X0.650000X-1.500000X0.650000X-1.500000X-0.650000X1.500000X-0.650000X0*%
%ADD12RoundRect,0.250000X-0.450000X0.350000X-0.450000X-0.350000X0.450000X-0.350000X0.450000X0.350000X0*%
%ADD13R,2.510000X1.000000*%
%ADD14RoundRect,0.250000X0.475000X-0.337500X0.475000X0.337500X-0.475000X0.337500X-0.475000X-0.337500X0*%
%ADD15R,1.000000X2.510000*%
%ADD16RoundRect,0.250000X0.337500X0.475000X-0.337500X0.475000X-0.337500X-0.475000X0.337500X-0.475000X0*%
%ADD17RoundRect,0.250000X-0.337500X-0.475000X0.337500X-0.475000X0.337500X0.475000X-0.337500X0.475000X0*%
%ADD18RoundRect,0.250000X-0.350000X-0.450000X0.350000X-0.450000X0.350000X0.450000X-0.350000X0.450000X0*%
%ADD19RoundRect,0.250000X0.450000X-0.350000X0.450000X0.350000X-0.450000X0.350000X-0.450000X-0.350000X0*%
G04 APERTURE END LIST*
D10*
%TO.C,D1*%
X237400000Y-64600000D03*
X242400000Y-64600000D03*
%TD*%
D11*
%TO.C,D2*%
X185200000Y-55000000D03*
X180200000Y-55000000D03*
%TD*%
D12*
%TO.C,R6*%
X215500000Y-58750000D03*
X215500000Y-60750000D03*
%TD*%
D13*
%TO.C,J5*%
X250095000Y-71710000D03*
X253405000Y-74250000D03*
X250095000Y-76790000D03*
%TD*%
D14*
%TO.C,C3*%
X204500000Y-76000000D03*
X204500000Y-73925000D03*
%TD*%
D12*
%TO.C,R2*%
X197800000Y-66000000D03*
X197800000Y-68000000D03*
%TD*%
%TO.C,R3*%
X190400000Y-42800000D03*
X190400000Y-44800000D03*
%TD*%
D15*
%TO.C,J3*%
X251020000Y-49690000D03*
X248480000Y-53000000D03*
X245940000Y-49690000D03*
X243400000Y-53000000D03*
X240860000Y-49690000D03*
X238320000Y-53000000D03*
X235780000Y-49690000D03*
X233240000Y-53000000D03*
X230700000Y-49690000D03*
X228160000Y-53000000D03*
X225620000Y-49690000D03*
X223080000Y-53000000D03*
X220540000Y-49690000D03*
X218000000Y-53000000D03*
X215460000Y-49690000D03*
X212920000Y-53000000D03*
X210380000Y-49690000D03*
X207840000Y-53000000D03*
X205300000Y-49690000D03*
X202760000Y-53000000D03*
%TD*%
D16*
%TO.C,C1*%
X206437500Y-69400000D03*
X204362500Y-69400000D03*
%TD*%
D15*
%TO.C,J4*%
X251020000Y-34690000D03*
X248480000Y-38000000D03*
X245940000Y-34690000D03*
X243400000Y-38000000D03*
X240860000Y-34690000D03*
X238320000Y-38000000D03*
X235780000Y-34690000D03*
X233240000Y-38000000D03*
X230700000Y-34690000D03*
X228160000Y-38000000D03*
X225620000Y-34690000D03*
X223080000Y-38000000D03*
X220540000Y-34690000D03*
X218000000Y-38000000D03*
X215460000Y-34690000D03*
X212920000Y-38000000D03*
X210380000Y-34690000D03*
X207840000Y-38000000D03*
X205300000Y-34690000D03*
X202760000Y-38000000D03*
%TD*%
D17*
%TO.C,C4*%
X229462500Y-60000000D03*
X231537500Y-60000000D03*
%TD*%
D13*
%TO.C,J2*%
X261095000Y-58980000D03*
X264405000Y-61520000D03*
%TD*%
D18*
%TO.C,R4*%
X178200000Y-67200000D03*
X180200000Y-67200000D03*
%TD*%
%TO.C,R1*%
X192800000Y-63200000D03*
X194800000Y-63200000D03*
%TD*%
D17*
%TO.C,C5*%
X223462500Y-60000000D03*
X225537500Y-60000000D03*
%TD*%
D19*
%TO.C,R5*%
X188400000Y-63200000D03*
X188400000Y-61200000D03*
%TD*%
D13*
%TO.C,J7*%
X192945000Y-51060000D03*
X196255000Y-53600000D03*
X192945000Y-56140000D03*
%TD*%
%TO.C,J8*%
X185255000Y-39470000D03*
X181945000Y-36930000D03*
%TD*%
D12*
%TO.C,R7*%
X220000000Y-58750000D03*
X220000000Y-60750000D03*
%TD*%
%TO.C,R8*%
X196750000Y-41400000D03*
X196750000Y-43400000D03*
%TD*%
M02*
