%TF.GenerationSoftware,KiCad,Pcbnew,8.0.7-8.0.7-0~ubuntu24.04.1*%
%TF.CreationDate,2024-12-30T21:09:26+02:00*%
%TF.ProjectId,LRL5,4c524c35-2e6b-4696-9361-645f70636258,rev?*%
%TF.SameCoordinates,Original*%
%TF.FileFunction,Soldermask,Top*%
%TF.FilePolarity,Negative*%
%FSLAX46Y46*%
G04 Gerber Fmt 4.6, Leading zero omitted, Abs format (unit mm)*
G04 Created by KiCad (PCBNEW 8.0.7-8.0.7-0~ubuntu24.04.1) date 2024-12-30 21:09:26*
%MOMM*%
%LPD*%
G01*
G04 APERTURE LIST*
G04 Aperture macros list*
%AMRoundRect*
0 Rectangle with rounded corners*
0 $1 Rounding radius*
0 $2 $3 $4 $5 $6 $7 $8 $9 X,Y pos of 4 corners*
0 Add a 4 corners polygon primitive as box body*
4,1,4,$2,$3,$4,$5,$6,$7,$8,$9,$2,$3,0*
0 Add four circle primitives for the rounded corners*
1,1,$1+$1,$2,$3*
1,1,$1+$1,$4,$5*
1,1,$1+$1,$6,$7*
1,1,$1+$1,$8,$9*
0 Add four rect primitives between the rounded corners*
20,1,$1+$1,$2,$3,$4,$5,0*
20,1,$1+$1,$4,$5,$6,$7,0*
20,1,$1+$1,$6,$7,$8,$9,0*
20,1,$1+$1,$8,$9,$2,$3,0*%
G04 Aperture macros list end*
%ADD10C,2.500000*%
%ADD11RoundRect,0.250000X-0.650000X1.500000X-0.650000X-1.500000X0.650000X-1.500000X0.650000X1.500000X0*%
%ADD12RoundRect,0.250000X-0.450000X0.350000X-0.450000X-0.350000X0.450000X-0.350000X0.450000X0.350000X0*%
%ADD13R,1.700000X1.700000*%
%ADD14O,1.700000X1.700000*%
%ADD15RoundRect,0.250000X-0.475000X0.337500X-0.475000X-0.337500X0.475000X-0.337500X0.475000X0.337500X0*%
%ADD16R,2.000000X2.000000*%
%ADD17C,3.500000*%
%ADD18R,2.000000X1.905000*%
%ADD19O,2.000000X1.905000*%
%ADD20R,1.600000X1.600000*%
%ADD21C,1.600000*%
%ADD22RoundRect,0.250000X-0.337500X-0.475000X0.337500X-0.475000X0.337500X0.475000X-0.337500X0.475000X0*%
%ADD23RoundRect,0.250000X0.450000X-0.350000X0.450000X0.350000X-0.450000X0.350000X-0.450000X-0.350000X0*%
%ADD24R,1.800000X1.100000*%
%ADD25RoundRect,0.275000X-0.625000X0.275000X-0.625000X-0.275000X0.625000X-0.275000X0.625000X0.275000X0*%
%ADD26O,1.800000X3.400000*%
G04 APERTURE END LIST*
D10*
%TO.C,H1*%
X131000000Y-34000000D03*
%TD*%
D11*
%TO.C,D1*%
X131250000Y-41000000D03*
X131250000Y-46000000D03*
%TD*%
D10*
%TO.C,H3*%
X131000000Y-76000000D03*
%TD*%
D11*
%TO.C,D2*%
X176250000Y-67500000D03*
X176250000Y-72500000D03*
%TD*%
D12*
%TO.C,R6*%
X221000000Y-54000000D03*
X221000000Y-56000000D03*
%TD*%
D13*
%TO.C,J1*%
X130000000Y-62250000D03*
D14*
X130000000Y-64790000D03*
X130000000Y-67330000D03*
%TD*%
D13*
%TO.C,J5*%
X143250000Y-76500000D03*
D14*
X140710000Y-76500000D03*
X138170000Y-76500000D03*
%TD*%
D15*
%TO.C,C3*%
X145000000Y-68212500D03*
X145000000Y-70287500D03*
%TD*%
D12*
%TO.C,R3*%
X182500000Y-69750000D03*
X182500000Y-71750000D03*
%TD*%
D16*
%TO.C,TP1*%
X155000000Y-76750000D03*
%TD*%
D17*
%TO.C,U1*%
X165800000Y-65790000D03*
D18*
X150000000Y-63250000D03*
D19*
X150000000Y-65790000D03*
X150000000Y-68330000D03*
%TD*%
D13*
%TO.C,J3*%
X137185000Y-51000000D03*
D14*
X139725000Y-51000000D03*
X142265000Y-51000000D03*
X144805000Y-51000000D03*
X147345000Y-51000000D03*
X149885000Y-51000000D03*
X152425000Y-51000000D03*
X154965000Y-51000000D03*
X157505000Y-51000000D03*
X160045000Y-51000000D03*
X162585000Y-51000000D03*
X165125000Y-51000000D03*
X167665000Y-51000000D03*
X170205000Y-51000000D03*
X172745000Y-51000000D03*
X175285000Y-51000000D03*
X177825000Y-51000000D03*
X180365000Y-51000000D03*
X182905000Y-51000000D03*
X185445000Y-51000000D03*
%TD*%
D13*
%TO.C,J4*%
X137185000Y-36000000D03*
D14*
X139725000Y-36000000D03*
X142265000Y-36000000D03*
X144805000Y-36000000D03*
X147345000Y-36000000D03*
X149885000Y-36000000D03*
X152425000Y-36000000D03*
X154965000Y-36000000D03*
X157505000Y-36000000D03*
X160045000Y-36000000D03*
X162585000Y-36000000D03*
X165125000Y-36000000D03*
X167665000Y-36000000D03*
X170205000Y-36000000D03*
X172745000Y-36000000D03*
X175285000Y-36000000D03*
X177825000Y-36000000D03*
X180365000Y-36000000D03*
X182905000Y-36000000D03*
X185445000Y-36000000D03*
%TD*%
D20*
%TO.C,C2*%
X141500000Y-62000000D03*
D21*
X139000000Y-62000000D03*
%TD*%
D22*
%TO.C,C4*%
X232462500Y-57500000D03*
X234537500Y-57500000D03*
%TD*%
D13*
%TO.C,J2*%
X130000000Y-52500000D03*
D14*
X130000000Y-55040000D03*
%TD*%
D23*
%TO.C,R4*%
X182500000Y-77750000D03*
X182500000Y-75750000D03*
%TD*%
D16*
%TO.C,TP2*%
X149500000Y-76750000D03*
%TD*%
D15*
%TO.C,C5*%
X229000000Y-57212500D03*
X229000000Y-59287500D03*
%TD*%
D24*
%TO.C,Q1*%
X169350000Y-74480000D03*
D25*
X171420000Y-75750000D03*
X169350000Y-77020000D03*
%TD*%
D13*
%TO.C,J6*%
X201000000Y-76250000D03*
D14*
X198460000Y-76250000D03*
X195920000Y-76250000D03*
X193380000Y-76250000D03*
%TD*%
D12*
%TO.C,R5*%
X159750000Y-75000000D03*
X159750000Y-77000000D03*
%TD*%
%TO.C,R7*%
X225000000Y-54000000D03*
X225000000Y-56000000D03*
%TD*%
D10*
%TO.C,H4*%
X264000000Y-76000000D03*
%TD*%
%TO.C,H2*%
X264000000Y-33500000D03*
%TD*%
%TO.C,U2*%
X258500000Y-67800000D03*
X258500000Y-34700000D03*
X193500000Y-67800000D03*
X193500000Y-34700000D03*
D20*
X219000000Y-63900000D03*
D21*
X221000000Y-63900000D03*
X223000000Y-63900000D03*
X225000000Y-63900000D03*
X227000000Y-63900000D03*
X229000000Y-63900000D03*
X231000000Y-63900000D03*
X233000000Y-63900000D03*
D26*
X264550000Y-52250000D03*
X264550000Y-43750000D03*
%TD*%
M02*
