M48
; DRILL file {KiCad 8.0.9-8.0.9-0~ubuntu24.04.1} date 2025-02-24T19:57:10+0200
; FORMAT={-:-/ absolute / metric / decimal}
; #@! TF.CreationDate,2025-02-24T19:57:10+02:00
; #@! TF.GenerationSoftware,Kicad,Pcbnew,8.0.9-8.0.9-0~ubuntu24.04.1
; #@! TF.FileFunction,MixedPlating,1,2
FMAT,2
METRIC
; #@! TA.AperFunction,Plated,PTH,ViaDrill
T1C0.300
; #@! TA.AperFunction,Plated,PTH,ComponentDrill
T2C0.800
; #@! TA.AperFunction,Plated,PTH,ComponentDrill
T3C1.000
; #@! TA.AperFunction,Plated,PTH,ComponentDrill
T4C1.200
; #@! TA.AperFunction,NonPlated,NPTH,ComponentDrill
T5C2.500
; #@! TA.AperFunction,NonPlated,NPTH,ComponentDrill
T6C3.200
; #@! TA.AperFunction,NonPlated,NPTH,ComponentDrill
T7C3.500
%
G90
G05
T1
X181.8Y-39.4
X188.6Y-40.0
X190.8Y-61.2
X190.8Y-63.2
X191.2Y-59.2
X198.0Y-46.2
X199.2Y-53.0
X200.4Y-45.0
X200.5Y-68.0
X214.4Y-46.2
X215.4Y-40.0
X215.6Y-53.0
X223.4Y-45.0
X228.6Y-57.2
X230.95Y-43.8
X232.6Y-42.6
X232.68Y-70.92
X234.2Y-41.55
X240.8Y-52.0
X240.8Y-54.2
X246.2Y-69.8
X248.4Y-49.4
X250.0Y-55.6
T2
X199.25Y-73.5
X199.25Y-76.0
T3
X175.0Y-43.58
X175.0Y-46.12
X175.0Y-48.66
X175.0Y-51.2
X177.915Y-61.2
X180.195Y-61.2
X182.475Y-61.2
X185.0Y-76.4
X191.4Y-76.4
X217.5Y-63.9
X219.5Y-63.9
X221.5Y-63.9
X223.5Y-63.9
X225.5Y-63.9
X227.5Y-63.9
X229.5Y-63.9
X231.5Y-63.9
X237.0Y-77.3
X239.54Y-77.3
X242.08Y-77.3
T4
X211.25Y-70.92
X211.25Y-73.46
X211.25Y-76.0
T5
X192.0Y-34.7
X192.0Y-67.8
X257.0Y-34.7
X257.0Y-67.8
T6
X174.75Y-33.5
X174.75Y-76.5
X264.0Y-33.5
X264.0Y-76.5
T7
X227.05Y-73.46
T3
G00X263.05Y-44.55
M15
G01X263.05Y-42.95
M16
G05
G00X263.05Y-53.05
M15
G01X263.05Y-51.45
M16
G05
M30
