%TF.GenerationSoftware,KiCad,Pcbnew,8.0.7-8.0.7-0~ubuntu24.04.1*%
%TF.CreationDate,2024-12-30T21:09:26+02:00*%
%TF.ProjectId,LRL5,4c524c35-2e6b-4696-9361-645f70636258,rev?*%
%TF.SameCoordinates,Original*%
%TF.FileFunction,Copper,L1,Top*%
%TF.FilePolarity,Positive*%
%FSLAX46Y46*%
G04 Gerber Fmt 4.6, Leading zero omitted, Abs format (unit mm)*
G04 Created by KiCad (PCBNEW 8.0.7-8.0.7-0~ubuntu24.04.1) date 2024-12-30 21:09:26*
%MOMM*%
%LPD*%
G01*
G04 APERTURE LIST*
G04 Aperture macros list*
%AMRoundRect*
0 Rectangle with rounded corners*
0 $1 Rounding radius*
0 $2 $3 $4 $5 $6 $7 $8 $9 X,Y pos of 4 corners*
0 Add a 4 corners polygon primitive as box body*
4,1,4,$2,$3,$4,$5,$6,$7,$8,$9,$2,$3,0*
0 Add four circle primitives for the rounded corners*
1,1,$1+$1,$2,$3*
1,1,$1+$1,$4,$5*
1,1,$1+$1,$6,$7*
1,1,$1+$1,$8,$9*
0 Add four rect primitives between the rounded corners*
20,1,$1+$1,$2,$3,$4,$5,0*
20,1,$1+$1,$4,$5,$6,$7,0*
20,1,$1+$1,$6,$7,$8,$9,0*
20,1,$1+$1,$8,$9,$2,$3,0*%
G04 Aperture macros list end*
%TA.AperFunction,SMDPad,CuDef*%
%ADD10RoundRect,0.250000X-0.650000X1.500000X-0.650000X-1.500000X0.650000X-1.500000X0.650000X1.500000X0*%
%TD*%
%TA.AperFunction,SMDPad,CuDef*%
%ADD11RoundRect,0.250000X-0.450000X0.350000X-0.450000X-0.350000X0.450000X-0.350000X0.450000X0.350000X0*%
%TD*%
%TA.AperFunction,ComponentPad*%
%ADD12R,1.700000X1.700000*%
%TD*%
%TA.AperFunction,ComponentPad*%
%ADD13O,1.700000X1.700000*%
%TD*%
%TA.AperFunction,SMDPad,CuDef*%
%ADD14RoundRect,0.250000X-0.475000X0.337500X-0.475000X-0.337500X0.475000X-0.337500X0.475000X0.337500X0*%
%TD*%
%TA.AperFunction,ComponentPad*%
%ADD15R,2.000000X2.000000*%
%TD*%
%TA.AperFunction,ComponentPad*%
%ADD16R,2.000000X1.905000*%
%TD*%
%TA.AperFunction,ComponentPad*%
%ADD17O,2.000000X1.905000*%
%TD*%
%TA.AperFunction,ComponentPad*%
%ADD18R,1.600000X1.600000*%
%TD*%
%TA.AperFunction,ComponentPad*%
%ADD19C,1.600000*%
%TD*%
%TA.AperFunction,SMDPad,CuDef*%
%ADD20RoundRect,0.250000X-0.337500X-0.475000X0.337500X-0.475000X0.337500X0.475000X-0.337500X0.475000X0*%
%TD*%
%TA.AperFunction,SMDPad,CuDef*%
%ADD21RoundRect,0.250000X0.450000X-0.350000X0.450000X0.350000X-0.450000X0.350000X-0.450000X-0.350000X0*%
%TD*%
%TA.AperFunction,ComponentPad*%
%ADD22R,1.800000X1.100000*%
%TD*%
%TA.AperFunction,ComponentPad*%
%ADD23RoundRect,0.275000X-0.625000X0.275000X-0.625000X-0.275000X0.625000X-0.275000X0.625000X0.275000X0*%
%TD*%
%TA.AperFunction,ComponentPad*%
%ADD24O,1.800000X3.400000*%
%TD*%
%TA.AperFunction,ViaPad*%
%ADD25C,0.600000*%
%TD*%
%TA.AperFunction,Conductor*%
%ADD26C,0.500000*%
%TD*%
G04 APERTURE END LIST*
D10*
%TO.P,D1,1,K*%
%TO.N,+BATT*%
X131250000Y-41000000D03*
%TO.P,D1,2,A*%
%TO.N,Net-(D1-A)*%
X131250000Y-46000000D03*
%TD*%
%TO.P,D2,1,K*%
%TO.N,Net-(D2-K)*%
X176250000Y-67500000D03*
%TO.P,D2,2,A*%
%TO.N,Net-(D2-A)*%
X176250000Y-72500000D03*
%TD*%
D11*
%TO.P,R6,1*%
%TO.N,+3.3V*%
X221000000Y-54000000D03*
%TO.P,R6,2*%
%TO.N,I2C1_SCL*%
X221000000Y-56000000D03*
%TD*%
D12*
%TO.P,J1,1,Pin_1*%
%TO.N,Net-(J1-Pin_1)*%
X130000000Y-62250000D03*
D13*
%TO.P,J1,2,Pin_2*%
%TO.N,BATT{slash}2*%
X130000000Y-64790000D03*
%TO.P,J1,3,Pin_3*%
%TO.N,GND*%
X130000000Y-67330000D03*
%TD*%
D12*
%TO.P,J5,1,Pin_1*%
%TO.N,Net-(D2-K)*%
X143250000Y-76500000D03*
D13*
%TO.P,J5,2,Pin_2*%
%TO.N,BATT{slash}2*%
X140710000Y-76500000D03*
%TO.P,J5,3,Pin_3*%
%TO.N,GND*%
X138170000Y-76500000D03*
%TD*%
D14*
%TO.P,C3,1*%
%TO.N,+3.3V*%
X145000000Y-68212500D03*
%TO.P,C3,2*%
%TO.N,GND*%
X145000000Y-70287500D03*
%TD*%
D11*
%TO.P,R3,1*%
%TO.N,FOUT*%
X182500000Y-69750000D03*
%TO.P,R3,2*%
%TO.N,Net-(D2-A)*%
X182500000Y-71750000D03*
%TD*%
D15*
%TO.P,TP1,1,1*%
%TO.N,+3.3V*%
X155000000Y-76750000D03*
%TD*%
D16*
%TO.P,U1,1,IN*%
%TO.N,+BATT*%
X150000000Y-63250000D03*
D17*
%TO.P,U1,2,GND*%
%TO.N,GND*%
X150000000Y-65790000D03*
%TO.P,U1,3,OUT*%
%TO.N,+3.3V*%
X150000000Y-68330000D03*
%TD*%
D12*
%TO.P,J3,1,Pin_1*%
%TO.N,+3.3V*%
X137185000Y-51000000D03*
D13*
%TO.P,J3,2,Pin_2*%
%TO.N,GND*%
X139725000Y-51000000D03*
%TO.P,J3,3,Pin_3*%
%TO.N,unconnected-(J3-Pin_3-Pad3)*%
X142265000Y-51000000D03*
%TO.P,J3,4,Pin_4*%
%TO.N,I2C1_SDA*%
X144805000Y-51000000D03*
%TO.P,J3,5,Pin_5*%
%TO.N,I2C1_SCL*%
X147345000Y-51000000D03*
%TO.P,J3,6,Pin_6*%
%TO.N,MODE_SW1*%
X149885000Y-51000000D03*
%TO.P,J3,7,Pin_7*%
%TO.N,MODE_B*%
X152425000Y-51000000D03*
%TO.P,J3,8,Pin_8*%
%TO.N,MODE_A*%
X154965000Y-51000000D03*
%TO.P,J3,9,Pin_9*%
%TO.N,unconnected-(J3-Pin_9-Pad9)*%
X157505000Y-51000000D03*
%TO.P,J3,10,Pin_10*%
%TO.N,unconnected-(J3-Pin_10-Pad10)*%
X160045000Y-51000000D03*
%TO.P,J3,11,Pin_11*%
%TO.N,unconnected-(J3-Pin_11-Pad11)*%
X162585000Y-51000000D03*
%TO.P,J3,12,Pin_12*%
%TO.N,unconnected-(J3-Pin_12-Pad12)*%
X165125000Y-51000000D03*
%TO.P,J3,13,Pin_13*%
%TO.N,unconnected-(J3-Pin_13-Pad13)*%
X167665000Y-51000000D03*
%TO.P,J3,14,Pin_14*%
%TO.N,unconnected-(J3-Pin_14-Pad14)*%
X170205000Y-51000000D03*
%TO.P,J3,15,Pin_15*%
%TO.N,unconnected-(J3-Pin_15-Pad15)*%
X172745000Y-51000000D03*
%TO.P,J3,16,Pin_16*%
%TO.N,FIN*%
X175285000Y-51000000D03*
%TO.P,J3,17,Pin_17*%
%TO.N,unconnected-(J3-Pin_17-Pad17)*%
X177825000Y-51000000D03*
%TO.P,J3,18,Pin_18*%
%TO.N,unconnected-(J3-Pin_18-Pad18)*%
X180365000Y-51000000D03*
%TO.P,J3,19,Pin_19*%
%TO.N,unconnected-(J3-Pin_19-Pad19)*%
X182905000Y-51000000D03*
%TO.P,J3,20,Pin_20*%
%TO.N,LCD_RESET*%
X185445000Y-51000000D03*
%TD*%
D12*
%TO.P,J4,1,Pin_1*%
%TO.N,unconnected-(J4-Pin_1-Pad1)*%
X137185000Y-36000000D03*
D13*
%TO.P,J4,2,Pin_2*%
%TO.N,unconnected-(J4-Pin_2-Pad2)*%
X139725000Y-36000000D03*
%TO.P,J4,3,Pin_3*%
%TO.N,unconnected-(J4-Pin_3-Pad3)*%
X142265000Y-36000000D03*
%TO.P,J4,4,Pin_4*%
%TO.N,unconnected-(J4-Pin_4-Pad4)*%
X144805000Y-36000000D03*
%TO.P,J4,5,Pin_5*%
%TO.N,VBAT*%
X147345000Y-36000000D03*
%TO.P,J4,6,Pin_6*%
%TO.N,unconnected-(J4-Pin_6-Pad6)*%
X149885000Y-36000000D03*
%TO.P,J4,7,Pin_7*%
%TO.N,unconnected-(J4-Pin_7-Pad7)*%
X152425000Y-36000000D03*
%TO.P,J4,8,Pin_8*%
%TO.N,unconnected-(J4-Pin_8-Pad8)*%
X154965000Y-36000000D03*
%TO.P,J4,9,Pin_9*%
%TO.N,unconnected-(J4-Pin_9-Pad9)*%
X157505000Y-36000000D03*
%TO.P,J4,10,Pin_10*%
%TO.N,unconnected-(J4-Pin_10-Pad10)*%
X160045000Y-36000000D03*
%TO.P,J4,11,Pin_11*%
%TO.N,unconnected-(J4-Pin_11-Pad11)*%
X162585000Y-36000000D03*
%TO.P,J4,12,Pin_12*%
%TO.N,unconnected-(J4-Pin_12-Pad12)*%
X165125000Y-36000000D03*
%TO.P,J4,13,Pin_13*%
%TO.N,unconnected-(J4-Pin_13-Pad13)*%
X167665000Y-36000000D03*
%TO.P,J4,14,Pin_14*%
%TO.N,unconnected-(J4-Pin_14-Pad14)*%
X170205000Y-36000000D03*
%TO.P,J4,15,Pin_15*%
%TO.N,unconnected-(J4-Pin_15-Pad15)*%
X172745000Y-36000000D03*
%TO.P,J4,16,Pin_16*%
%TO.N,FOUT*%
X175285000Y-36000000D03*
%TO.P,J4,17,Pin_17*%
%TO.N,unconnected-(J4-Pin_17-Pad17)*%
X177825000Y-36000000D03*
%TO.P,J4,18,Pin_18*%
%TO.N,unconnected-(J4-Pin_18-Pad18)*%
X180365000Y-36000000D03*
%TO.P,J4,19,Pin_19*%
%TO.N,unconnected-(J4-Pin_19-Pad19)*%
X182905000Y-36000000D03*
%TO.P,J4,20,Pin_20*%
%TO.N,unconnected-(J4-Pin_20-Pad20)*%
X185445000Y-36000000D03*
%TD*%
D18*
%TO.P,C2,1*%
%TO.N,+3.3V*%
X141500000Y-62000000D03*
D19*
%TO.P,C2,2*%
%TO.N,GND*%
X139000000Y-62000000D03*
%TD*%
D20*
%TO.P,C4,1*%
%TO.N,Net-(U2-C1+)*%
X232462500Y-57500000D03*
%TO.P,C4,2*%
%TO.N,Net-(U2-C1-)*%
X234537500Y-57500000D03*
%TD*%
D12*
%TO.P,J2,1,Pin_1*%
%TO.N,Net-(D1-A)*%
X130000000Y-52500000D03*
D13*
%TO.P,J2,2,Pin_2*%
%TO.N,Net-(J1-Pin_1)*%
X130000000Y-55040000D03*
%TD*%
D21*
%TO.P,R4,1*%
%TO.N,GND*%
X182500000Y-77750000D03*
%TO.P,R4,2*%
%TO.N,Net-(D2-A)*%
X182500000Y-75750000D03*
%TD*%
D15*
%TO.P,TP2,1,1*%
%TO.N,GND*%
X149500000Y-76750000D03*
%TD*%
D14*
%TO.P,C5,1*%
%TO.N,GND*%
X229000000Y-57212500D03*
%TO.P,C5,2*%
%TO.N,Net-(U2-VOUT)*%
X229000000Y-59287500D03*
%TD*%
D22*
%TO.P,Q1,1,C*%
%TO.N,Net-(D2-K)*%
X169350000Y-74480000D03*
D23*
%TO.P,Q1,2,B*%
%TO.N,Net-(D2-A)*%
X171420000Y-75750000D03*
%TO.P,Q1,3,E*%
%TO.N,GND*%
X169350000Y-77020000D03*
%TD*%
D12*
%TO.P,J6,1,Pin_1*%
%TO.N,MODE_A*%
X201000000Y-76250000D03*
D13*
%TO.P,J6,2,Pin_2*%
%TO.N,MODE_B*%
X198460000Y-76250000D03*
%TO.P,J6,3,Pin_3*%
%TO.N,MODE_SW1*%
X195920000Y-76250000D03*
%TO.P,J6,4,Pin_4*%
%TO.N,GND*%
X193380000Y-76250000D03*
%TD*%
D11*
%TO.P,R5,1*%
%TO.N,+BATT*%
X159750000Y-75000000D03*
%TO.P,R5,2*%
%TO.N,Net-(D2-K)*%
X159750000Y-77000000D03*
%TD*%
%TO.P,R7,1*%
%TO.N,+3.3V*%
X225000000Y-54000000D03*
%TO.P,R7,2*%
%TO.N,I2C1_SDA*%
X225000000Y-56000000D03*
%TD*%
D18*
%TO.P,U2,1,~{RST}*%
%TO.N,LCD_RESET*%
X219000000Y-63900000D03*
D19*
%TO.P,U2,2,SCL*%
%TO.N,I2C1_SCL*%
X221000000Y-63900000D03*
%TO.P,U2,3,SDA*%
%TO.N,I2C1_SDA*%
X223000000Y-63900000D03*
%TO.P,U2,4,VSS*%
%TO.N,GND*%
X225000000Y-63900000D03*
%TO.P,U2,5,VDD*%
%TO.N,+3.3V*%
X227000000Y-63900000D03*
%TO.P,U2,6,VOUT*%
%TO.N,Net-(U2-VOUT)*%
X229000000Y-63900000D03*
%TO.P,U2,7,C1+*%
%TO.N,Net-(U2-C1+)*%
X231000000Y-63900000D03*
%TO.P,U2,8,C1-*%
%TO.N,Net-(U2-C1-)*%
X233000000Y-63900000D03*
D24*
%TO.P,U2,9,A*%
%TO.N,GND*%
X264550000Y-52250000D03*
%TO.P,U2,10,K*%
X264550000Y-43750000D03*
%TD*%
D25*
%TO.N,+BATT*%
X134000000Y-42000000D03*
X137750000Y-58750000D03*
%TO.N,GND*%
X230500000Y-54000000D03*
X225000000Y-61200000D03*
%TO.N,Net-(D2-K)*%
X169750000Y-72500000D03*
%TO.N,I2C1_SDA*%
X218950000Y-58450000D03*
X225000000Y-58400000D03*
%TO.N,FOUT*%
X180750000Y-68000000D03*
X192250000Y-39750000D03*
%TD*%
D26*
%TO.N,+BATT*%
X137750000Y-58750000D02*
X134000000Y-55000000D01*
X150000000Y-63250000D02*
X150080000Y-63170000D01*
X159750000Y-68500000D02*
X159750000Y-75000000D01*
X150080000Y-63170000D02*
X154420000Y-63170000D01*
X134000000Y-55000000D02*
X134000000Y-42000000D01*
X154420000Y-63170000D02*
X159750000Y-68500000D01*
X134000000Y-42000000D02*
X133000000Y-41000000D01*
X133000000Y-41000000D02*
X131250000Y-41000000D01*
%TO.N,GND*%
X130000000Y-67330000D02*
X131580000Y-67330000D01*
X170480000Y-77750000D02*
X169750000Y-77020000D01*
X182500000Y-77750000D02*
X170480000Y-77750000D01*
X230500000Y-54000000D02*
X229000000Y-55500000D01*
X146787500Y-70287500D02*
X149500000Y-73000000D01*
X131580000Y-67330000D02*
X138170000Y-73920000D01*
X229000000Y-55500000D02*
X229000000Y-57212500D01*
X149500000Y-73000000D02*
X149500000Y-76750000D01*
X145000000Y-70287500D02*
X146787500Y-70287500D01*
X138170000Y-73920000D02*
X138170000Y-76500000D01*
X225000000Y-63900000D02*
X225000000Y-61200000D01*
%TO.N,+3.3V*%
X138425000Y-50461522D02*
X144136522Y-44750000D01*
X150000000Y-68330000D02*
X150080000Y-68250000D01*
X145000000Y-68212500D02*
X149882500Y-68212500D01*
X155000000Y-69500000D02*
X155000000Y-76750000D01*
X221000000Y-54000000D02*
X225000000Y-54000000D01*
X137185000Y-55185000D02*
X141500000Y-59500000D01*
X149882500Y-68212500D02*
X150000000Y-68330000D01*
X217250000Y-54000000D02*
X221000000Y-54000000D01*
X208000000Y-44750000D02*
X217250000Y-54000000D01*
X145000000Y-68212500D02*
X144000000Y-68212500D01*
X227000000Y-63900000D02*
X227000000Y-54500000D01*
X137185000Y-51000000D02*
X138425000Y-52240000D01*
X153750000Y-68250000D02*
X155000000Y-69500000D01*
X144000000Y-68212500D02*
X141500000Y-65712500D01*
X225000000Y-54000000D02*
X226500000Y-54000000D01*
X138425000Y-52240000D02*
X138425000Y-50461522D01*
X227000000Y-54500000D02*
X226500000Y-54000000D01*
X137185000Y-51000000D02*
X137185000Y-55185000D01*
X144136522Y-44750000D02*
X208000000Y-44750000D01*
X141500000Y-59500000D02*
X141500000Y-62000000D01*
X141500000Y-65712500D02*
X141500000Y-62000000D01*
X150080000Y-68250000D02*
X153750000Y-68250000D01*
%TO.N,Net-(U2-C1-)*%
X233000000Y-62500000D02*
X233000000Y-63900000D01*
X234537500Y-60962500D02*
X233000000Y-62500000D01*
X234537500Y-57500000D02*
X234537500Y-60962500D01*
%TO.N,Net-(U2-C1+)*%
X232462500Y-60787500D02*
X232462500Y-57500000D01*
X231000000Y-62250000D02*
X231000000Y-63900000D01*
X231000000Y-62250000D02*
X232462500Y-60787500D01*
%TO.N,Net-(U2-VOUT)*%
X229000000Y-59287500D02*
X229000000Y-63900000D01*
%TO.N,Net-(D1-A)*%
X130000000Y-50250000D02*
X131250000Y-49000000D01*
X130000000Y-52500000D02*
X130000000Y-50250000D01*
X131250000Y-49000000D02*
X131250000Y-46000000D01*
%TO.N,Net-(D2-K)*%
X169750000Y-72250000D02*
X174500000Y-67500000D01*
X165520000Y-74480000D02*
X163000000Y-77000000D01*
X169750000Y-74480000D02*
X169750000Y-72500000D01*
X163000000Y-77000000D02*
X159750000Y-77000000D01*
X174500000Y-67500000D02*
X176250000Y-67500000D01*
X169750000Y-72500000D02*
X169750000Y-72250000D01*
X169750000Y-74480000D02*
X165520000Y-74480000D01*
%TO.N,Net-(D2-A)*%
X176250000Y-75750000D02*
X182500000Y-75750000D01*
X182500000Y-75750000D02*
X182500000Y-71750000D01*
X171020000Y-75750000D02*
X176250000Y-75750000D01*
X176250000Y-72500000D02*
X176250000Y-75750000D01*
%TO.N,Net-(J1-Pin_1)*%
X130000000Y-55040000D02*
X130000000Y-62250000D01*
%TO.N,BATT{slash}2*%
X130000000Y-64790000D02*
X131790000Y-64790000D01*
X140710000Y-73710000D02*
X140710000Y-76500000D01*
X131790000Y-64790000D02*
X140710000Y-73710000D01*
%TO.N,I2C1_SDA*%
X218950000Y-58450000D02*
X206500000Y-46000000D01*
X144805000Y-49797919D02*
X144805000Y-51000000D01*
X148602919Y-46000000D02*
X144805000Y-49797919D01*
X206500000Y-46000000D02*
X148602919Y-46000000D01*
X225000000Y-58400000D02*
X223000000Y-60400000D01*
X223000000Y-60400000D02*
X223000000Y-63900000D01*
X225000000Y-58400000D02*
X225000000Y-56000000D01*
%TO.N,FOUT*%
X192250000Y-39750000D02*
X176250000Y-39750000D01*
X180750000Y-68000000D02*
X182500000Y-69750000D01*
X175285000Y-38785000D02*
X175285000Y-36000000D01*
X176250000Y-39750000D02*
X175285000Y-38785000D01*
%TO.N,I2C1_SCL*%
X205500000Y-47250000D02*
X219000000Y-60750000D01*
X221000000Y-63900000D02*
X221000000Y-56000000D01*
X147345000Y-48655000D02*
X148750000Y-47250000D01*
X219000000Y-60750000D02*
X221000000Y-60750000D01*
X148750000Y-47250000D02*
X205500000Y-47250000D01*
X147345000Y-51000000D02*
X147345000Y-48655000D01*
%TO.N,MODE_A*%
X154965000Y-53215000D02*
X156750000Y-55000000D01*
X201000000Y-63750000D02*
X201000000Y-76250000D01*
X154965000Y-51000000D02*
X154965000Y-53215000D01*
X192250000Y-55000000D02*
X201000000Y-63750000D01*
X156750000Y-55000000D02*
X192250000Y-55000000D01*
%TO.N,LCD_RESET*%
X219000000Y-63900000D02*
X219000000Y-62750000D01*
X207250000Y-51000000D02*
X185445000Y-51000000D01*
X219000000Y-62750000D02*
X207250000Y-51000000D01*
%TO.N,MODE_B*%
X152425000Y-51000000D02*
X152425000Y-53425000D01*
X198460000Y-63210000D02*
X198460000Y-76250000D01*
X152425000Y-53425000D02*
X155250000Y-56250000D01*
X155250000Y-56250000D02*
X191500000Y-56250000D01*
X191500000Y-56250000D02*
X198460000Y-63210000D01*
%TO.N,MODE_SW1*%
X191000000Y-57750000D02*
X197000000Y-63750000D01*
X149885000Y-53385000D02*
X154250000Y-57750000D01*
X195920000Y-74080000D02*
X195920000Y-76250000D01*
X197000000Y-63750000D02*
X197000000Y-73000000D01*
X197000000Y-73000000D02*
X195920000Y-74080000D01*
X154250000Y-57750000D02*
X191000000Y-57750000D01*
X149885000Y-51000000D02*
X149885000Y-53385000D01*
%TD*%
M02*
