M48
; DRILL file {KiCad 8.0.7-8.0.7-0~ubuntu24.04.1} date 2024-12-30T21:07:32+0200
; FORMAT={-:-/ absolute / metric / decimal}
; #@! TF.CreationDate,2024-12-30T21:07:32+02:00
; #@! TF.GenerationSoftware,Kicad,Pcbnew,8.0.7-8.0.7-0~ubuntu24.04.1
; #@! TF.FileFunction,MixedPlating,1,2
FMAT,2
METRIC
; #@! TA.AperFunction,Plated,PTH,ViaDrill
T1C0.300
; #@! TA.AperFunction,Plated,PTH,ComponentDrill
T2C0.750
; #@! TA.AperFunction,Plated,PTH,ComponentDrill
T3C0.800
; #@! TA.AperFunction,Plated,PTH,ComponentDrill
T4C1.000
; #@! TA.AperFunction,Plated,PTH,ComponentDrill
T5C1.200
; #@! TA.AperFunction,NonPlated,NPTH,ComponentDrill
T6C2.500
; #@! TA.AperFunction,NonPlated,NPTH,ComponentDrill
T7C3.500
%
G90
G05
T1
X134.0Y-42.0
X137.75Y-58.75
X169.75Y-72.5
X180.75Y-68.0
X192.25Y-39.75
X218.95Y-58.45
X225.0Y-58.4
X225.0Y-61.2
X230.5Y-54.0
T2
X169.75Y-74.48
X169.75Y-77.02
X171.02Y-75.75
T3
X139.0Y-62.0
X141.5Y-62.0
T4
X130.0Y-52.5
X130.0Y-55.04
X130.0Y-62.25
X130.0Y-64.79
X130.0Y-67.33
X137.185Y-36.0
X137.185Y-51.0
X138.17Y-76.5
X139.725Y-36.0
X139.725Y-51.0
X140.71Y-76.5
X142.265Y-36.0
X142.265Y-51.0
X143.25Y-76.5
X144.805Y-36.0
X144.805Y-51.0
X147.345Y-36.0
X147.345Y-51.0
X149.5Y-76.75
X149.885Y-36.0
X149.885Y-51.0
X152.425Y-36.0
X152.425Y-51.0
X154.965Y-36.0
X154.965Y-51.0
X155.0Y-76.75
X157.505Y-36.0
X157.505Y-51.0
X160.045Y-36.0
X160.045Y-51.0
X162.585Y-36.0
X162.585Y-51.0
X165.125Y-36.0
X165.125Y-51.0
X167.665Y-36.0
X167.665Y-51.0
X170.205Y-36.0
X170.205Y-51.0
X172.745Y-36.0
X172.745Y-51.0
X175.285Y-36.0
X175.285Y-51.0
X177.825Y-36.0
X177.825Y-51.0
X180.365Y-36.0
X180.365Y-51.0
X182.905Y-36.0
X182.905Y-51.0
X185.445Y-36.0
X185.445Y-51.0
X193.38Y-76.25
X195.92Y-76.25
X198.46Y-76.25
X201.0Y-76.25
X219.0Y-63.9
X221.0Y-63.9
X223.0Y-63.9
X225.0Y-63.9
X227.0Y-63.9
X229.0Y-63.9
X231.0Y-63.9
X233.0Y-63.9
T5
X150.0Y-63.25
X150.0Y-65.79
X150.0Y-68.33
T6
X131.0Y-34.0
X131.0Y-76.0
X193.5Y-34.7
X193.5Y-67.8
X258.5Y-34.7
X258.5Y-67.8
X264.0Y-33.5
X264.0Y-76.0
T7
X165.8Y-65.79
T4
G00X264.55Y-44.55
M15
G01X264.55Y-42.95
M16
G05
G00X264.55Y-53.05
M15
G01X264.55Y-51.45
M16
G05
M30
