%TF.GenerationSoftware,KiCad,Pcbnew,8.0.7-8.0.7-0~ubuntu24.04.1*%
%TF.CreationDate,2024-12-31T11:00:58+02:00*%
%TF.ProjectId,LRL5,4c524c35-2e6b-4696-9361-645f70636258,rev?*%
%TF.SameCoordinates,Original*%
%TF.FileFunction,Legend,Top*%
%TF.FilePolarity,Positive*%
%FSLAX46Y46*%
G04 Gerber Fmt 4.6, Leading zero omitted, Abs format (unit mm)*
G04 Created by KiCad (PCBNEW 8.0.7-8.0.7-0~ubuntu24.04.1) date 2024-12-31 11:00:58*
%MOMM*%
%LPD*%
G01*
G04 APERTURE LIST*
%ADD10C,0.100000*%
%ADD11C,0.300000*%
%ADD12C,0.150000*%
%ADD13C,0.120000*%
%ADD14C,0.000000*%
G04 APERTURE END LIST*
D10*
X219500000Y-66500000D02*
X218500000Y-66500000D01*
X219000000Y-65500000D01*
X219500000Y-66500000D01*
G36*
X219500000Y-66500000D02*
G01*
X218500000Y-66500000D01*
X219000000Y-65500000D01*
X219500000Y-66500000D01*
G37*
X135000000Y-33500000D02*
X187500000Y-33500000D01*
X187500000Y-53500000D01*
X135000000Y-53500000D01*
X135000000Y-33500000D01*
X143574800Y-74993734D02*
X143622419Y-74850877D01*
X143622419Y-74850877D02*
X143622419Y-74612782D01*
X143622419Y-74612782D02*
X143574800Y-74517544D01*
X143574800Y-74517544D02*
X143527180Y-74469925D01*
X143527180Y-74469925D02*
X143431942Y-74422306D01*
X143431942Y-74422306D02*
X143336704Y-74422306D01*
X143336704Y-74422306D02*
X143241466Y-74469925D01*
X143241466Y-74469925D02*
X143193847Y-74517544D01*
X143193847Y-74517544D02*
X143146228Y-74612782D01*
X143146228Y-74612782D02*
X143098609Y-74803258D01*
X143098609Y-74803258D02*
X143050990Y-74898496D01*
X143050990Y-74898496D02*
X143003371Y-74946115D01*
X143003371Y-74946115D02*
X142908133Y-74993734D01*
X142908133Y-74993734D02*
X142812895Y-74993734D01*
X142812895Y-74993734D02*
X142717657Y-74946115D01*
X142717657Y-74946115D02*
X142670038Y-74898496D01*
X142670038Y-74898496D02*
X142622419Y-74803258D01*
X142622419Y-74803258D02*
X142622419Y-74565163D01*
X142622419Y-74565163D02*
X142670038Y-74422306D01*
X143622419Y-73993734D02*
X142622419Y-73993734D01*
X142670038Y-72993735D02*
X142622419Y-73088973D01*
X142622419Y-73088973D02*
X142622419Y-73231830D01*
X142622419Y-73231830D02*
X142670038Y-73374687D01*
X142670038Y-73374687D02*
X142765276Y-73469925D01*
X142765276Y-73469925D02*
X142860514Y-73517544D01*
X142860514Y-73517544D02*
X143050990Y-73565163D01*
X143050990Y-73565163D02*
X143193847Y-73565163D01*
X143193847Y-73565163D02*
X143384323Y-73517544D01*
X143384323Y-73517544D02*
X143479561Y-73469925D01*
X143479561Y-73469925D02*
X143574800Y-73374687D01*
X143574800Y-73374687D02*
X143622419Y-73231830D01*
X143622419Y-73231830D02*
X143622419Y-73136592D01*
X143622419Y-73136592D02*
X143574800Y-72993735D01*
X143574800Y-72993735D02*
X143527180Y-72946116D01*
X143527180Y-72946116D02*
X143193847Y-72946116D01*
X143193847Y-72946116D02*
X143193847Y-73136592D01*
X132577693Y-66920038D02*
X132482455Y-66872419D01*
X132482455Y-66872419D02*
X132339598Y-66872419D01*
X132339598Y-66872419D02*
X132196741Y-66920038D01*
X132196741Y-66920038D02*
X132101503Y-67015276D01*
X132101503Y-67015276D02*
X132053884Y-67110514D01*
X132053884Y-67110514D02*
X132006265Y-67300990D01*
X132006265Y-67300990D02*
X132006265Y-67443847D01*
X132006265Y-67443847D02*
X132053884Y-67634323D01*
X132053884Y-67634323D02*
X132101503Y-67729561D01*
X132101503Y-67729561D02*
X132196741Y-67824800D01*
X132196741Y-67824800D02*
X132339598Y-67872419D01*
X132339598Y-67872419D02*
X132434836Y-67872419D01*
X132434836Y-67872419D02*
X132577693Y-67824800D01*
X132577693Y-67824800D02*
X132625312Y-67777180D01*
X132625312Y-67777180D02*
X132625312Y-67443847D01*
X132625312Y-67443847D02*
X132434836Y-67443847D01*
X133053884Y-67872419D02*
X133053884Y-66872419D01*
X133053884Y-66872419D02*
X133625312Y-67872419D01*
X133625312Y-67872419D02*
X133625312Y-66872419D01*
X134101503Y-67872419D02*
X134101503Y-66872419D01*
X134101503Y-66872419D02*
X134339598Y-66872419D01*
X134339598Y-66872419D02*
X134482455Y-66920038D01*
X134482455Y-66920038D02*
X134577693Y-67015276D01*
X134577693Y-67015276D02*
X134625312Y-67110514D01*
X134625312Y-67110514D02*
X134672931Y-67300990D01*
X134672931Y-67300990D02*
X134672931Y-67443847D01*
X134672931Y-67443847D02*
X134625312Y-67634323D01*
X134625312Y-67634323D02*
X134577693Y-67729561D01*
X134577693Y-67729561D02*
X134482455Y-67824800D01*
X134482455Y-67824800D02*
X134339598Y-67872419D01*
X134339598Y-67872419D02*
X134101503Y-67872419D01*
X132387217Y-64848609D02*
X132530074Y-64896228D01*
X132530074Y-64896228D02*
X132577693Y-64943847D01*
X132577693Y-64943847D02*
X132625312Y-65039085D01*
X132625312Y-65039085D02*
X132625312Y-65181942D01*
X132625312Y-65181942D02*
X132577693Y-65277180D01*
X132577693Y-65277180D02*
X132530074Y-65324800D01*
X132530074Y-65324800D02*
X132434836Y-65372419D01*
X132434836Y-65372419D02*
X132053884Y-65372419D01*
X132053884Y-65372419D02*
X132053884Y-64372419D01*
X132053884Y-64372419D02*
X132387217Y-64372419D01*
X132387217Y-64372419D02*
X132482455Y-64420038D01*
X132482455Y-64420038D02*
X132530074Y-64467657D01*
X132530074Y-64467657D02*
X132577693Y-64562895D01*
X132577693Y-64562895D02*
X132577693Y-64658133D01*
X132577693Y-64658133D02*
X132530074Y-64753371D01*
X132530074Y-64753371D02*
X132482455Y-64800990D01*
X132482455Y-64800990D02*
X132387217Y-64848609D01*
X132387217Y-64848609D02*
X132053884Y-64848609D01*
X133006265Y-65086704D02*
X133482455Y-65086704D01*
X132911027Y-65372419D02*
X133244360Y-64372419D01*
X133244360Y-64372419D02*
X133577693Y-65372419D01*
X133768170Y-64372419D02*
X134339598Y-64372419D01*
X134053884Y-65372419D02*
X134053884Y-64372419D01*
X134530075Y-64372419D02*
X135101503Y-64372419D01*
X134815789Y-65372419D02*
X134815789Y-64372419D01*
X136149122Y-64324800D02*
X135291980Y-65610514D01*
X136434837Y-64467657D02*
X136482456Y-64420038D01*
X136482456Y-64420038D02*
X136577694Y-64372419D01*
X136577694Y-64372419D02*
X136815789Y-64372419D01*
X136815789Y-64372419D02*
X136911027Y-64420038D01*
X136911027Y-64420038D02*
X136958646Y-64467657D01*
X136958646Y-64467657D02*
X137006265Y-64562895D01*
X137006265Y-64562895D02*
X137006265Y-64658133D01*
X137006265Y-64658133D02*
X136958646Y-64800990D01*
X136958646Y-64800990D02*
X136387218Y-65372419D01*
X136387218Y-65372419D02*
X137006265Y-65372419D01*
X140598609Y-74612782D02*
X140646228Y-74469925D01*
X140646228Y-74469925D02*
X140693847Y-74422306D01*
X140693847Y-74422306D02*
X140789085Y-74374687D01*
X140789085Y-74374687D02*
X140931942Y-74374687D01*
X140931942Y-74374687D02*
X141027180Y-74422306D01*
X141027180Y-74422306D02*
X141074800Y-74469925D01*
X141074800Y-74469925D02*
X141122419Y-74565163D01*
X141122419Y-74565163D02*
X141122419Y-74946115D01*
X141122419Y-74946115D02*
X140122419Y-74946115D01*
X140122419Y-74946115D02*
X140122419Y-74612782D01*
X140122419Y-74612782D02*
X140170038Y-74517544D01*
X140170038Y-74517544D02*
X140217657Y-74469925D01*
X140217657Y-74469925D02*
X140312895Y-74422306D01*
X140312895Y-74422306D02*
X140408133Y-74422306D01*
X140408133Y-74422306D02*
X140503371Y-74469925D01*
X140503371Y-74469925D02*
X140550990Y-74517544D01*
X140550990Y-74517544D02*
X140598609Y-74612782D01*
X140598609Y-74612782D02*
X140598609Y-74946115D01*
X140836704Y-73993734D02*
X140836704Y-73517544D01*
X141122419Y-74088972D02*
X140122419Y-73755639D01*
X140122419Y-73755639D02*
X141122419Y-73422306D01*
X140122419Y-73231829D02*
X140122419Y-72660401D01*
X141122419Y-72946115D02*
X140122419Y-72946115D01*
X140122419Y-72469924D02*
X140122419Y-71898496D01*
X141122419Y-72184210D02*
X140122419Y-72184210D01*
X140074800Y-70850877D02*
X141360514Y-71708019D01*
X140217657Y-70565162D02*
X140170038Y-70517543D01*
X140170038Y-70517543D02*
X140122419Y-70422305D01*
X140122419Y-70422305D02*
X140122419Y-70184210D01*
X140122419Y-70184210D02*
X140170038Y-70088972D01*
X140170038Y-70088972D02*
X140217657Y-70041353D01*
X140217657Y-70041353D02*
X140312895Y-69993734D01*
X140312895Y-69993734D02*
X140408133Y-69993734D01*
X140408133Y-69993734D02*
X140550990Y-70041353D01*
X140550990Y-70041353D02*
X141122419Y-70612781D01*
X141122419Y-70612781D02*
X141122419Y-69993734D01*
X137670038Y-74422306D02*
X137622419Y-74517544D01*
X137622419Y-74517544D02*
X137622419Y-74660401D01*
X137622419Y-74660401D02*
X137670038Y-74803258D01*
X137670038Y-74803258D02*
X137765276Y-74898496D01*
X137765276Y-74898496D02*
X137860514Y-74946115D01*
X137860514Y-74946115D02*
X138050990Y-74993734D01*
X138050990Y-74993734D02*
X138193847Y-74993734D01*
X138193847Y-74993734D02*
X138384323Y-74946115D01*
X138384323Y-74946115D02*
X138479561Y-74898496D01*
X138479561Y-74898496D02*
X138574800Y-74803258D01*
X138574800Y-74803258D02*
X138622419Y-74660401D01*
X138622419Y-74660401D02*
X138622419Y-74565163D01*
X138622419Y-74565163D02*
X138574800Y-74422306D01*
X138574800Y-74422306D02*
X138527180Y-74374687D01*
X138527180Y-74374687D02*
X138193847Y-74374687D01*
X138193847Y-74374687D02*
X138193847Y-74565163D01*
X138622419Y-73946115D02*
X137622419Y-73946115D01*
X137622419Y-73946115D02*
X138622419Y-73374687D01*
X138622419Y-73374687D02*
X137622419Y-73374687D01*
X138622419Y-72898496D02*
X137622419Y-72898496D01*
X137622419Y-72898496D02*
X137622419Y-72660401D01*
X137622419Y-72660401D02*
X137670038Y-72517544D01*
X137670038Y-72517544D02*
X137765276Y-72422306D01*
X137765276Y-72422306D02*
X137860514Y-72374687D01*
X137860514Y-72374687D02*
X138050990Y-72327068D01*
X138050990Y-72327068D02*
X138193847Y-72327068D01*
X138193847Y-72327068D02*
X138384323Y-72374687D01*
X138384323Y-72374687D02*
X138479561Y-72422306D01*
X138479561Y-72422306D02*
X138574800Y-72517544D01*
X138574800Y-72517544D02*
X138622419Y-72660401D01*
X138622419Y-72660401D02*
X138622419Y-72898496D01*
X132387217Y-62098609D02*
X132530074Y-62146228D01*
X132530074Y-62146228D02*
X132577693Y-62193847D01*
X132577693Y-62193847D02*
X132625312Y-62289085D01*
X132625312Y-62289085D02*
X132625312Y-62431942D01*
X132625312Y-62431942D02*
X132577693Y-62527180D01*
X132577693Y-62527180D02*
X132530074Y-62574800D01*
X132530074Y-62574800D02*
X132434836Y-62622419D01*
X132434836Y-62622419D02*
X132053884Y-62622419D01*
X132053884Y-62622419D02*
X132053884Y-61622419D01*
X132053884Y-61622419D02*
X132387217Y-61622419D01*
X132387217Y-61622419D02*
X132482455Y-61670038D01*
X132482455Y-61670038D02*
X132530074Y-61717657D01*
X132530074Y-61717657D02*
X132577693Y-61812895D01*
X132577693Y-61812895D02*
X132577693Y-61908133D01*
X132577693Y-61908133D02*
X132530074Y-62003371D01*
X132530074Y-62003371D02*
X132482455Y-62050990D01*
X132482455Y-62050990D02*
X132387217Y-62098609D01*
X132387217Y-62098609D02*
X132053884Y-62098609D01*
X133006265Y-62336704D02*
X133482455Y-62336704D01*
X132911027Y-62622419D02*
X133244360Y-61622419D01*
X133244360Y-61622419D02*
X133577693Y-62622419D01*
X133768170Y-61622419D02*
X134339598Y-61622419D01*
X134053884Y-62622419D02*
X134053884Y-61622419D01*
X134530075Y-61622419D02*
X135101503Y-61622419D01*
X134815789Y-62622419D02*
X134815789Y-61622419D01*
X135434837Y-62241466D02*
X136196742Y-62241466D01*
X135815789Y-62622419D02*
X135815789Y-61860514D01*
D11*
X218340225Y-45617257D02*
X216911653Y-45617257D01*
X216911653Y-45617257D02*
X216911653Y-42617257D01*
X221054510Y-45617257D02*
X220054510Y-44188685D01*
X219340224Y-45617257D02*
X219340224Y-42617257D01*
X219340224Y-42617257D02*
X220483081Y-42617257D01*
X220483081Y-42617257D02*
X220768796Y-42760114D01*
X220768796Y-42760114D02*
X220911653Y-42902971D01*
X220911653Y-42902971D02*
X221054510Y-43188685D01*
X221054510Y-43188685D02*
X221054510Y-43617257D01*
X221054510Y-43617257D02*
X220911653Y-43902971D01*
X220911653Y-43902971D02*
X220768796Y-44045828D01*
X220768796Y-44045828D02*
X220483081Y-44188685D01*
X220483081Y-44188685D02*
X219340224Y-44188685D01*
X223768796Y-45617257D02*
X222340224Y-45617257D01*
X222340224Y-45617257D02*
X222340224Y-42617257D01*
X226768795Y-43617257D02*
X227483081Y-45617257D01*
X227483081Y-45617257D02*
X228197366Y-43617257D01*
X230768795Y-42617257D02*
X229340223Y-42617257D01*
X229340223Y-42617257D02*
X229197366Y-44045828D01*
X229197366Y-44045828D02*
X229340223Y-43902971D01*
X229340223Y-43902971D02*
X229625938Y-43760114D01*
X229625938Y-43760114D02*
X230340223Y-43760114D01*
X230340223Y-43760114D02*
X230625938Y-43902971D01*
X230625938Y-43902971D02*
X230768795Y-44045828D01*
X230768795Y-44045828D02*
X230911652Y-44331542D01*
X230911652Y-44331542D02*
X230911652Y-45045828D01*
X230911652Y-45045828D02*
X230768795Y-45331542D01*
X230768795Y-45331542D02*
X230625938Y-45474400D01*
X230625938Y-45474400D02*
X230340223Y-45617257D01*
X230340223Y-45617257D02*
X229625938Y-45617257D01*
X229625938Y-45617257D02*
X229340223Y-45474400D01*
X229340223Y-45474400D02*
X229197366Y-45331542D01*
X232197366Y-45331542D02*
X232340223Y-45474400D01*
X232340223Y-45474400D02*
X232197366Y-45617257D01*
X232197366Y-45617257D02*
X232054509Y-45474400D01*
X232054509Y-45474400D02*
X232197366Y-45331542D01*
X232197366Y-45331542D02*
X232197366Y-45617257D01*
X234197366Y-42617257D02*
X234483080Y-42617257D01*
X234483080Y-42617257D02*
X234768794Y-42760114D01*
X234768794Y-42760114D02*
X234911652Y-42902971D01*
X234911652Y-42902971D02*
X235054509Y-43188685D01*
X235054509Y-43188685D02*
X235197366Y-43760114D01*
X235197366Y-43760114D02*
X235197366Y-44474400D01*
X235197366Y-44474400D02*
X235054509Y-45045828D01*
X235054509Y-45045828D02*
X234911652Y-45331542D01*
X234911652Y-45331542D02*
X234768794Y-45474400D01*
X234768794Y-45474400D02*
X234483080Y-45617257D01*
X234483080Y-45617257D02*
X234197366Y-45617257D01*
X234197366Y-45617257D02*
X233911652Y-45474400D01*
X233911652Y-45474400D02*
X233768794Y-45331542D01*
X233768794Y-45331542D02*
X233625937Y-45045828D01*
X233625937Y-45045828D02*
X233483080Y-44474400D01*
X233483080Y-44474400D02*
X233483080Y-43760114D01*
X233483080Y-43760114D02*
X233625937Y-43188685D01*
X233625937Y-43188685D02*
X233768794Y-42902971D01*
X233768794Y-42902971D02*
X233911652Y-42760114D01*
X233911652Y-42760114D02*
X234197366Y-42617257D01*
D10*
X198872419Y-74196115D02*
X197872419Y-74196115D01*
X197872419Y-74196115D02*
X198586704Y-73862782D01*
X198586704Y-73862782D02*
X197872419Y-73529449D01*
X197872419Y-73529449D02*
X198872419Y-73529449D01*
X197872419Y-72862782D02*
X197872419Y-72672306D01*
X197872419Y-72672306D02*
X197920038Y-72577068D01*
X197920038Y-72577068D02*
X198015276Y-72481830D01*
X198015276Y-72481830D02*
X198205752Y-72434211D01*
X198205752Y-72434211D02*
X198539085Y-72434211D01*
X198539085Y-72434211D02*
X198729561Y-72481830D01*
X198729561Y-72481830D02*
X198824800Y-72577068D01*
X198824800Y-72577068D02*
X198872419Y-72672306D01*
X198872419Y-72672306D02*
X198872419Y-72862782D01*
X198872419Y-72862782D02*
X198824800Y-72958020D01*
X198824800Y-72958020D02*
X198729561Y-73053258D01*
X198729561Y-73053258D02*
X198539085Y-73100877D01*
X198539085Y-73100877D02*
X198205752Y-73100877D01*
X198205752Y-73100877D02*
X198015276Y-73053258D01*
X198015276Y-73053258D02*
X197920038Y-72958020D01*
X197920038Y-72958020D02*
X197872419Y-72862782D01*
X198872419Y-72005639D02*
X197872419Y-72005639D01*
X197872419Y-72005639D02*
X197872419Y-71767544D01*
X197872419Y-71767544D02*
X197920038Y-71624687D01*
X197920038Y-71624687D02*
X198015276Y-71529449D01*
X198015276Y-71529449D02*
X198110514Y-71481830D01*
X198110514Y-71481830D02*
X198300990Y-71434211D01*
X198300990Y-71434211D02*
X198443847Y-71434211D01*
X198443847Y-71434211D02*
X198634323Y-71481830D01*
X198634323Y-71481830D02*
X198729561Y-71529449D01*
X198729561Y-71529449D02*
X198824800Y-71624687D01*
X198824800Y-71624687D02*
X198872419Y-71767544D01*
X198872419Y-71767544D02*
X198872419Y-72005639D01*
X198348609Y-71005639D02*
X198348609Y-70672306D01*
X198872419Y-70529449D02*
X198872419Y-71005639D01*
X198872419Y-71005639D02*
X197872419Y-71005639D01*
X197872419Y-71005639D02*
X197872419Y-70529449D01*
X198967657Y-70338973D02*
X198967657Y-69577068D01*
X198348609Y-69005639D02*
X198396228Y-68862782D01*
X198396228Y-68862782D02*
X198443847Y-68815163D01*
X198443847Y-68815163D02*
X198539085Y-68767544D01*
X198539085Y-68767544D02*
X198681942Y-68767544D01*
X198681942Y-68767544D02*
X198777180Y-68815163D01*
X198777180Y-68815163D02*
X198824800Y-68862782D01*
X198824800Y-68862782D02*
X198872419Y-68958020D01*
X198872419Y-68958020D02*
X198872419Y-69338972D01*
X198872419Y-69338972D02*
X197872419Y-69338972D01*
X197872419Y-69338972D02*
X197872419Y-69005639D01*
X197872419Y-69005639D02*
X197920038Y-68910401D01*
X197920038Y-68910401D02*
X197967657Y-68862782D01*
X197967657Y-68862782D02*
X198062895Y-68815163D01*
X198062895Y-68815163D02*
X198158133Y-68815163D01*
X198158133Y-68815163D02*
X198253371Y-68862782D01*
X198253371Y-68862782D02*
X198300990Y-68910401D01*
X198300990Y-68910401D02*
X198348609Y-69005639D01*
X198348609Y-69005639D02*
X198348609Y-69338972D01*
X201472419Y-74296115D02*
X200472419Y-74296115D01*
X200472419Y-74296115D02*
X201186704Y-73962782D01*
X201186704Y-73962782D02*
X200472419Y-73629449D01*
X200472419Y-73629449D02*
X201472419Y-73629449D01*
X200472419Y-72962782D02*
X200472419Y-72772306D01*
X200472419Y-72772306D02*
X200520038Y-72677068D01*
X200520038Y-72677068D02*
X200615276Y-72581830D01*
X200615276Y-72581830D02*
X200805752Y-72534211D01*
X200805752Y-72534211D02*
X201139085Y-72534211D01*
X201139085Y-72534211D02*
X201329561Y-72581830D01*
X201329561Y-72581830D02*
X201424800Y-72677068D01*
X201424800Y-72677068D02*
X201472419Y-72772306D01*
X201472419Y-72772306D02*
X201472419Y-72962782D01*
X201472419Y-72962782D02*
X201424800Y-73058020D01*
X201424800Y-73058020D02*
X201329561Y-73153258D01*
X201329561Y-73153258D02*
X201139085Y-73200877D01*
X201139085Y-73200877D02*
X200805752Y-73200877D01*
X200805752Y-73200877D02*
X200615276Y-73153258D01*
X200615276Y-73153258D02*
X200520038Y-73058020D01*
X200520038Y-73058020D02*
X200472419Y-72962782D01*
X201472419Y-72105639D02*
X200472419Y-72105639D01*
X200472419Y-72105639D02*
X200472419Y-71867544D01*
X200472419Y-71867544D02*
X200520038Y-71724687D01*
X200520038Y-71724687D02*
X200615276Y-71629449D01*
X200615276Y-71629449D02*
X200710514Y-71581830D01*
X200710514Y-71581830D02*
X200900990Y-71534211D01*
X200900990Y-71534211D02*
X201043847Y-71534211D01*
X201043847Y-71534211D02*
X201234323Y-71581830D01*
X201234323Y-71581830D02*
X201329561Y-71629449D01*
X201329561Y-71629449D02*
X201424800Y-71724687D01*
X201424800Y-71724687D02*
X201472419Y-71867544D01*
X201472419Y-71867544D02*
X201472419Y-72105639D01*
X200948609Y-71105639D02*
X200948609Y-70772306D01*
X201472419Y-70629449D02*
X201472419Y-71105639D01*
X201472419Y-71105639D02*
X200472419Y-71105639D01*
X200472419Y-71105639D02*
X200472419Y-70629449D01*
X201567657Y-70438973D02*
X201567657Y-69677068D01*
X201424800Y-69486591D02*
X201472419Y-69343734D01*
X201472419Y-69343734D02*
X201472419Y-69105639D01*
X201472419Y-69105639D02*
X201424800Y-69010401D01*
X201424800Y-69010401D02*
X201377180Y-68962782D01*
X201377180Y-68962782D02*
X201281942Y-68915163D01*
X201281942Y-68915163D02*
X201186704Y-68915163D01*
X201186704Y-68915163D02*
X201091466Y-68962782D01*
X201091466Y-68962782D02*
X201043847Y-69010401D01*
X201043847Y-69010401D02*
X200996228Y-69105639D01*
X200996228Y-69105639D02*
X200948609Y-69296115D01*
X200948609Y-69296115D02*
X200900990Y-69391353D01*
X200900990Y-69391353D02*
X200853371Y-69438972D01*
X200853371Y-69438972D02*
X200758133Y-69486591D01*
X200758133Y-69486591D02*
X200662895Y-69486591D01*
X200662895Y-69486591D02*
X200567657Y-69438972D01*
X200567657Y-69438972D02*
X200520038Y-69391353D01*
X200520038Y-69391353D02*
X200472419Y-69296115D01*
X200472419Y-69296115D02*
X200472419Y-69058020D01*
X200472419Y-69058020D02*
X200520038Y-68915163D01*
X200472419Y-68581829D02*
X201472419Y-68343734D01*
X201472419Y-68343734D02*
X200758133Y-68153258D01*
X200758133Y-68153258D02*
X201472419Y-67962782D01*
X201472419Y-67962782D02*
X200472419Y-67724687D01*
X201472419Y-66819925D02*
X201472419Y-67391353D01*
X201472419Y-67105639D02*
X200472419Y-67105639D01*
X200472419Y-67105639D02*
X200615276Y-67200877D01*
X200615276Y-67200877D02*
X200710514Y-67296115D01*
X200710514Y-67296115D02*
X200758133Y-67391353D01*
X196372419Y-74196115D02*
X195372419Y-74196115D01*
X195372419Y-74196115D02*
X196086704Y-73862782D01*
X196086704Y-73862782D02*
X195372419Y-73529449D01*
X195372419Y-73529449D02*
X196372419Y-73529449D01*
X195372419Y-72862782D02*
X195372419Y-72672306D01*
X195372419Y-72672306D02*
X195420038Y-72577068D01*
X195420038Y-72577068D02*
X195515276Y-72481830D01*
X195515276Y-72481830D02*
X195705752Y-72434211D01*
X195705752Y-72434211D02*
X196039085Y-72434211D01*
X196039085Y-72434211D02*
X196229561Y-72481830D01*
X196229561Y-72481830D02*
X196324800Y-72577068D01*
X196324800Y-72577068D02*
X196372419Y-72672306D01*
X196372419Y-72672306D02*
X196372419Y-72862782D01*
X196372419Y-72862782D02*
X196324800Y-72958020D01*
X196324800Y-72958020D02*
X196229561Y-73053258D01*
X196229561Y-73053258D02*
X196039085Y-73100877D01*
X196039085Y-73100877D02*
X195705752Y-73100877D01*
X195705752Y-73100877D02*
X195515276Y-73053258D01*
X195515276Y-73053258D02*
X195420038Y-72958020D01*
X195420038Y-72958020D02*
X195372419Y-72862782D01*
X196372419Y-72005639D02*
X195372419Y-72005639D01*
X195372419Y-72005639D02*
X195372419Y-71767544D01*
X195372419Y-71767544D02*
X195420038Y-71624687D01*
X195420038Y-71624687D02*
X195515276Y-71529449D01*
X195515276Y-71529449D02*
X195610514Y-71481830D01*
X195610514Y-71481830D02*
X195800990Y-71434211D01*
X195800990Y-71434211D02*
X195943847Y-71434211D01*
X195943847Y-71434211D02*
X196134323Y-71481830D01*
X196134323Y-71481830D02*
X196229561Y-71529449D01*
X196229561Y-71529449D02*
X196324800Y-71624687D01*
X196324800Y-71624687D02*
X196372419Y-71767544D01*
X196372419Y-71767544D02*
X196372419Y-72005639D01*
X195848609Y-71005639D02*
X195848609Y-70672306D01*
X196372419Y-70529449D02*
X196372419Y-71005639D01*
X196372419Y-71005639D02*
X195372419Y-71005639D01*
X195372419Y-71005639D02*
X195372419Y-70529449D01*
X196467657Y-70338973D02*
X196467657Y-69577068D01*
X196086704Y-69386591D02*
X196086704Y-68910401D01*
X196372419Y-69481829D02*
X195372419Y-69148496D01*
X195372419Y-69148496D02*
X196372419Y-68815163D01*
X192920038Y-73672306D02*
X192872419Y-73767544D01*
X192872419Y-73767544D02*
X192872419Y-73910401D01*
X192872419Y-73910401D02*
X192920038Y-74053258D01*
X192920038Y-74053258D02*
X193015276Y-74148496D01*
X193015276Y-74148496D02*
X193110514Y-74196115D01*
X193110514Y-74196115D02*
X193300990Y-74243734D01*
X193300990Y-74243734D02*
X193443847Y-74243734D01*
X193443847Y-74243734D02*
X193634323Y-74196115D01*
X193634323Y-74196115D02*
X193729561Y-74148496D01*
X193729561Y-74148496D02*
X193824800Y-74053258D01*
X193824800Y-74053258D02*
X193872419Y-73910401D01*
X193872419Y-73910401D02*
X193872419Y-73815163D01*
X193872419Y-73815163D02*
X193824800Y-73672306D01*
X193824800Y-73672306D02*
X193777180Y-73624687D01*
X193777180Y-73624687D02*
X193443847Y-73624687D01*
X193443847Y-73624687D02*
X193443847Y-73815163D01*
X193872419Y-73196115D02*
X192872419Y-73196115D01*
X192872419Y-73196115D02*
X193872419Y-72624687D01*
X193872419Y-72624687D02*
X192872419Y-72624687D01*
X193872419Y-72148496D02*
X192872419Y-72148496D01*
X192872419Y-72148496D02*
X192872419Y-71910401D01*
X192872419Y-71910401D02*
X192920038Y-71767544D01*
X192920038Y-71767544D02*
X193015276Y-71672306D01*
X193015276Y-71672306D02*
X193110514Y-71624687D01*
X193110514Y-71624687D02*
X193300990Y-71577068D01*
X193300990Y-71577068D02*
X193443847Y-71577068D01*
X193443847Y-71577068D02*
X193634323Y-71624687D01*
X193634323Y-71624687D02*
X193729561Y-71672306D01*
X193729561Y-71672306D02*
X193824800Y-71767544D01*
X193824800Y-71767544D02*
X193872419Y-71910401D01*
X193872419Y-71910401D02*
X193872419Y-72148496D01*
D12*
X129204819Y-43988094D02*
X128204819Y-43988094D01*
X128204819Y-43988094D02*
X128204819Y-43749999D01*
X128204819Y-43749999D02*
X128252438Y-43607142D01*
X128252438Y-43607142D02*
X128347676Y-43511904D01*
X128347676Y-43511904D02*
X128442914Y-43464285D01*
X128442914Y-43464285D02*
X128633390Y-43416666D01*
X128633390Y-43416666D02*
X128776247Y-43416666D01*
X128776247Y-43416666D02*
X128966723Y-43464285D01*
X128966723Y-43464285D02*
X129061961Y-43511904D01*
X129061961Y-43511904D02*
X129157200Y-43607142D01*
X129157200Y-43607142D02*
X129204819Y-43749999D01*
X129204819Y-43749999D02*
X129204819Y-43988094D01*
X129204819Y-42464285D02*
X129204819Y-43035713D01*
X129204819Y-42749999D02*
X128204819Y-42749999D01*
X128204819Y-42749999D02*
X128347676Y-42845237D01*
X128347676Y-42845237D02*
X128442914Y-42940475D01*
X128442914Y-42940475D02*
X128490533Y-43035713D01*
X174204819Y-70738094D02*
X173204819Y-70738094D01*
X173204819Y-70738094D02*
X173204819Y-70499999D01*
X173204819Y-70499999D02*
X173252438Y-70357142D01*
X173252438Y-70357142D02*
X173347676Y-70261904D01*
X173347676Y-70261904D02*
X173442914Y-70214285D01*
X173442914Y-70214285D02*
X173633390Y-70166666D01*
X173633390Y-70166666D02*
X173776247Y-70166666D01*
X173776247Y-70166666D02*
X173966723Y-70214285D01*
X173966723Y-70214285D02*
X174061961Y-70261904D01*
X174061961Y-70261904D02*
X174157200Y-70357142D01*
X174157200Y-70357142D02*
X174204819Y-70499999D01*
X174204819Y-70499999D02*
X174204819Y-70738094D01*
X173300057Y-69785713D02*
X173252438Y-69738094D01*
X173252438Y-69738094D02*
X173204819Y-69642856D01*
X173204819Y-69642856D02*
X173204819Y-69404761D01*
X173204819Y-69404761D02*
X173252438Y-69309523D01*
X173252438Y-69309523D02*
X173300057Y-69261904D01*
X173300057Y-69261904D02*
X173395295Y-69214285D01*
X173395295Y-69214285D02*
X173490533Y-69214285D01*
X173490533Y-69214285D02*
X173633390Y-69261904D01*
X173633390Y-69261904D02*
X174204819Y-69833332D01*
X174204819Y-69833332D02*
X174204819Y-69214285D01*
X221454819Y-52166666D02*
X220978628Y-52499999D01*
X221454819Y-52738094D02*
X220454819Y-52738094D01*
X220454819Y-52738094D02*
X220454819Y-52357142D01*
X220454819Y-52357142D02*
X220502438Y-52261904D01*
X220502438Y-52261904D02*
X220550057Y-52214285D01*
X220550057Y-52214285D02*
X220645295Y-52166666D01*
X220645295Y-52166666D02*
X220788152Y-52166666D01*
X220788152Y-52166666D02*
X220883390Y-52214285D01*
X220883390Y-52214285D02*
X220931009Y-52261904D01*
X220931009Y-52261904D02*
X220978628Y-52357142D01*
X220978628Y-52357142D02*
X220978628Y-52738094D01*
X220454819Y-51309523D02*
X220454819Y-51499999D01*
X220454819Y-51499999D02*
X220502438Y-51595237D01*
X220502438Y-51595237D02*
X220550057Y-51642856D01*
X220550057Y-51642856D02*
X220692914Y-51738094D01*
X220692914Y-51738094D02*
X220883390Y-51785713D01*
X220883390Y-51785713D02*
X221264342Y-51785713D01*
X221264342Y-51785713D02*
X221359580Y-51738094D01*
X221359580Y-51738094D02*
X221407200Y-51690475D01*
X221407200Y-51690475D02*
X221454819Y-51595237D01*
X221454819Y-51595237D02*
X221454819Y-51404761D01*
X221454819Y-51404761D02*
X221407200Y-51309523D01*
X221407200Y-51309523D02*
X221359580Y-51261904D01*
X221359580Y-51261904D02*
X221264342Y-51214285D01*
X221264342Y-51214285D02*
X221026247Y-51214285D01*
X221026247Y-51214285D02*
X220931009Y-51261904D01*
X220931009Y-51261904D02*
X220883390Y-51309523D01*
X220883390Y-51309523D02*
X220835771Y-51404761D01*
X220835771Y-51404761D02*
X220835771Y-51595237D01*
X220835771Y-51595237D02*
X220883390Y-51690475D01*
X220883390Y-51690475D02*
X220931009Y-51738094D01*
X220931009Y-51738094D02*
X221026247Y-51785713D01*
X129666666Y-59374819D02*
X129666666Y-60089104D01*
X129666666Y-60089104D02*
X129619047Y-60231961D01*
X129619047Y-60231961D02*
X129523809Y-60327200D01*
X129523809Y-60327200D02*
X129380952Y-60374819D01*
X129380952Y-60374819D02*
X129285714Y-60374819D01*
X130666666Y-60374819D02*
X130095238Y-60374819D01*
X130380952Y-60374819D02*
X130380952Y-59374819D01*
X130380952Y-59374819D02*
X130285714Y-59517676D01*
X130285714Y-59517676D02*
X130190476Y-59612914D01*
X130190476Y-59612914D02*
X130095238Y-59660533D01*
X128190476Y-70454819D02*
X128190476Y-69454819D01*
X128190476Y-69454819D02*
X128571428Y-69454819D01*
X128571428Y-69454819D02*
X128666666Y-69502438D01*
X128666666Y-69502438D02*
X128714285Y-69550057D01*
X128714285Y-69550057D02*
X128761904Y-69645295D01*
X128761904Y-69645295D02*
X128761904Y-69788152D01*
X128761904Y-69788152D02*
X128714285Y-69883390D01*
X128714285Y-69883390D02*
X128666666Y-69931009D01*
X128666666Y-69931009D02*
X128571428Y-69978628D01*
X128571428Y-69978628D02*
X128190476Y-69978628D01*
X129380952Y-69454819D02*
X129571428Y-69454819D01*
X129571428Y-69454819D02*
X129666666Y-69502438D01*
X129666666Y-69502438D02*
X129761904Y-69597676D01*
X129761904Y-69597676D02*
X129809523Y-69788152D01*
X129809523Y-69788152D02*
X129809523Y-70121485D01*
X129809523Y-70121485D02*
X129761904Y-70311961D01*
X129761904Y-70311961D02*
X129666666Y-70407200D01*
X129666666Y-70407200D02*
X129571428Y-70454819D01*
X129571428Y-70454819D02*
X129380952Y-70454819D01*
X129380952Y-70454819D02*
X129285714Y-70407200D01*
X129285714Y-70407200D02*
X129190476Y-70311961D01*
X129190476Y-70311961D02*
X129142857Y-70121485D01*
X129142857Y-70121485D02*
X129142857Y-69788152D01*
X129142857Y-69788152D02*
X129190476Y-69597676D01*
X129190476Y-69597676D02*
X129285714Y-69502438D01*
X129285714Y-69502438D02*
X129380952Y-69454819D01*
X130142857Y-69454819D02*
X130380952Y-70454819D01*
X130380952Y-70454819D02*
X130571428Y-69740533D01*
X130571428Y-69740533D02*
X130761904Y-70454819D01*
X130761904Y-70454819D02*
X131000000Y-69454819D01*
X131380952Y-69931009D02*
X131714285Y-69931009D01*
X131857142Y-70454819D02*
X131380952Y-70454819D01*
X131380952Y-70454819D02*
X131380952Y-69454819D01*
X131380952Y-69454819D02*
X131857142Y-69454819D01*
X132857142Y-70454819D02*
X132523809Y-69978628D01*
X132285714Y-70454819D02*
X132285714Y-69454819D01*
X132285714Y-69454819D02*
X132666666Y-69454819D01*
X132666666Y-69454819D02*
X132761904Y-69502438D01*
X132761904Y-69502438D02*
X132809523Y-69550057D01*
X132809523Y-69550057D02*
X132857142Y-69645295D01*
X132857142Y-69645295D02*
X132857142Y-69788152D01*
X132857142Y-69788152D02*
X132809523Y-69883390D01*
X132809523Y-69883390D02*
X132761904Y-69931009D01*
X132761904Y-69931009D02*
X132666666Y-69978628D01*
X132666666Y-69978628D02*
X132285714Y-69978628D01*
X145034819Y-76833333D02*
X145749104Y-76833333D01*
X145749104Y-76833333D02*
X145891961Y-76880952D01*
X145891961Y-76880952D02*
X145987200Y-76976190D01*
X145987200Y-76976190D02*
X146034819Y-77119047D01*
X146034819Y-77119047D02*
X146034819Y-77214285D01*
X145034819Y-75880952D02*
X145034819Y-76357142D01*
X145034819Y-76357142D02*
X145511009Y-76404761D01*
X145511009Y-76404761D02*
X145463390Y-76357142D01*
X145463390Y-76357142D02*
X145415771Y-76261904D01*
X145415771Y-76261904D02*
X145415771Y-76023809D01*
X145415771Y-76023809D02*
X145463390Y-75928571D01*
X145463390Y-75928571D02*
X145511009Y-75880952D01*
X145511009Y-75880952D02*
X145606247Y-75833333D01*
X145606247Y-75833333D02*
X145844342Y-75833333D01*
X145844342Y-75833333D02*
X145939580Y-75880952D01*
X145939580Y-75880952D02*
X145987200Y-75928571D01*
X145987200Y-75928571D02*
X146034819Y-76023809D01*
X146034819Y-76023809D02*
X146034819Y-76261904D01*
X146034819Y-76261904D02*
X145987200Y-76357142D01*
X145987200Y-76357142D02*
X145939580Y-76404761D01*
X135179819Y-77499999D02*
X135179819Y-77309523D01*
X135179819Y-77309523D02*
X135227438Y-77214285D01*
X135227438Y-77214285D02*
X135322676Y-77119047D01*
X135322676Y-77119047D02*
X135513152Y-77071428D01*
X135513152Y-77071428D02*
X135846485Y-77071428D01*
X135846485Y-77071428D02*
X136036961Y-77119047D01*
X136036961Y-77119047D02*
X136132200Y-77214285D01*
X136132200Y-77214285D02*
X136179819Y-77309523D01*
X136179819Y-77309523D02*
X136179819Y-77499999D01*
X136179819Y-77499999D02*
X136132200Y-77595237D01*
X136132200Y-77595237D02*
X136036961Y-77690475D01*
X136036961Y-77690475D02*
X135846485Y-77738094D01*
X135846485Y-77738094D02*
X135513152Y-77738094D01*
X135513152Y-77738094D02*
X135322676Y-77690475D01*
X135322676Y-77690475D02*
X135227438Y-77595237D01*
X135227438Y-77595237D02*
X135179819Y-77499999D01*
X135179819Y-76642856D02*
X135989342Y-76642856D01*
X135989342Y-76642856D02*
X136084580Y-76595237D01*
X136084580Y-76595237D02*
X136132200Y-76547618D01*
X136132200Y-76547618D02*
X136179819Y-76452380D01*
X136179819Y-76452380D02*
X136179819Y-76261904D01*
X136179819Y-76261904D02*
X136132200Y-76166666D01*
X136132200Y-76166666D02*
X136084580Y-76119047D01*
X136084580Y-76119047D02*
X135989342Y-76071428D01*
X135989342Y-76071428D02*
X135179819Y-76071428D01*
X135179819Y-75738094D02*
X135179819Y-75166666D01*
X136179819Y-75452380D02*
X135179819Y-75452380D01*
X143609580Y-69416666D02*
X143657200Y-69464285D01*
X143657200Y-69464285D02*
X143704819Y-69607142D01*
X143704819Y-69607142D02*
X143704819Y-69702380D01*
X143704819Y-69702380D02*
X143657200Y-69845237D01*
X143657200Y-69845237D02*
X143561961Y-69940475D01*
X143561961Y-69940475D02*
X143466723Y-69988094D01*
X143466723Y-69988094D02*
X143276247Y-70035713D01*
X143276247Y-70035713D02*
X143133390Y-70035713D01*
X143133390Y-70035713D02*
X142942914Y-69988094D01*
X142942914Y-69988094D02*
X142847676Y-69940475D01*
X142847676Y-69940475D02*
X142752438Y-69845237D01*
X142752438Y-69845237D02*
X142704819Y-69702380D01*
X142704819Y-69702380D02*
X142704819Y-69607142D01*
X142704819Y-69607142D02*
X142752438Y-69464285D01*
X142752438Y-69464285D02*
X142800057Y-69416666D01*
X142704819Y-69083332D02*
X142704819Y-68464285D01*
X142704819Y-68464285D02*
X143085771Y-68797618D01*
X143085771Y-68797618D02*
X143085771Y-68654761D01*
X143085771Y-68654761D02*
X143133390Y-68559523D01*
X143133390Y-68559523D02*
X143181009Y-68511904D01*
X143181009Y-68511904D02*
X143276247Y-68464285D01*
X143276247Y-68464285D02*
X143514342Y-68464285D01*
X143514342Y-68464285D02*
X143609580Y-68511904D01*
X143609580Y-68511904D02*
X143657200Y-68559523D01*
X143657200Y-68559523D02*
X143704819Y-68654761D01*
X143704819Y-68654761D02*
X143704819Y-68940475D01*
X143704819Y-68940475D02*
X143657200Y-69035713D01*
X143657200Y-69035713D02*
X143609580Y-69083332D01*
X181204819Y-70666666D02*
X180728628Y-70999999D01*
X181204819Y-71238094D02*
X180204819Y-71238094D01*
X180204819Y-71238094D02*
X180204819Y-70857142D01*
X180204819Y-70857142D02*
X180252438Y-70761904D01*
X180252438Y-70761904D02*
X180300057Y-70714285D01*
X180300057Y-70714285D02*
X180395295Y-70666666D01*
X180395295Y-70666666D02*
X180538152Y-70666666D01*
X180538152Y-70666666D02*
X180633390Y-70714285D01*
X180633390Y-70714285D02*
X180681009Y-70761904D01*
X180681009Y-70761904D02*
X180728628Y-70857142D01*
X180728628Y-70857142D02*
X180728628Y-71238094D01*
X180204819Y-70333332D02*
X180204819Y-69714285D01*
X180204819Y-69714285D02*
X180585771Y-70047618D01*
X180585771Y-70047618D02*
X180585771Y-69904761D01*
X180585771Y-69904761D02*
X180633390Y-69809523D01*
X180633390Y-69809523D02*
X180681009Y-69761904D01*
X180681009Y-69761904D02*
X180776247Y-69714285D01*
X180776247Y-69714285D02*
X181014342Y-69714285D01*
X181014342Y-69714285D02*
X181109580Y-69761904D01*
X181109580Y-69761904D02*
X181157200Y-69809523D01*
X181157200Y-69809523D02*
X181204819Y-69904761D01*
X181204819Y-69904761D02*
X181204819Y-70190475D01*
X181204819Y-70190475D02*
X181157200Y-70285713D01*
X181157200Y-70285713D02*
X181109580Y-70333332D01*
X153738095Y-74206819D02*
X154309523Y-74206819D01*
X154023809Y-75206819D02*
X154023809Y-74206819D01*
X154642857Y-75206819D02*
X154642857Y-74206819D01*
X154642857Y-74206819D02*
X155023809Y-74206819D01*
X155023809Y-74206819D02*
X155119047Y-74254438D01*
X155119047Y-74254438D02*
X155166666Y-74302057D01*
X155166666Y-74302057D02*
X155214285Y-74397295D01*
X155214285Y-74397295D02*
X155214285Y-74540152D01*
X155214285Y-74540152D02*
X155166666Y-74635390D01*
X155166666Y-74635390D02*
X155119047Y-74683009D01*
X155119047Y-74683009D02*
X155023809Y-74730628D01*
X155023809Y-74730628D02*
X154642857Y-74730628D01*
X156166666Y-75206819D02*
X155595238Y-75206819D01*
X155880952Y-75206819D02*
X155880952Y-74206819D01*
X155880952Y-74206819D02*
X155785714Y-74349676D01*
X155785714Y-74349676D02*
X155690476Y-74444914D01*
X155690476Y-74444914D02*
X155595238Y-74492533D01*
X153000000Y-78873866D02*
X153761905Y-78873866D01*
X153380952Y-79254819D02*
X153380952Y-78492914D01*
X154142857Y-78254819D02*
X154761904Y-78254819D01*
X154761904Y-78254819D02*
X154428571Y-78635771D01*
X154428571Y-78635771D02*
X154571428Y-78635771D01*
X154571428Y-78635771D02*
X154666666Y-78683390D01*
X154666666Y-78683390D02*
X154714285Y-78731009D01*
X154714285Y-78731009D02*
X154761904Y-78826247D01*
X154761904Y-78826247D02*
X154761904Y-79064342D01*
X154761904Y-79064342D02*
X154714285Y-79159580D01*
X154714285Y-79159580D02*
X154666666Y-79207200D01*
X154666666Y-79207200D02*
X154571428Y-79254819D01*
X154571428Y-79254819D02*
X154285714Y-79254819D01*
X154285714Y-79254819D02*
X154190476Y-79207200D01*
X154190476Y-79207200D02*
X154142857Y-79159580D01*
X155190476Y-79159580D02*
X155238095Y-79207200D01*
X155238095Y-79207200D02*
X155190476Y-79254819D01*
X155190476Y-79254819D02*
X155142857Y-79207200D01*
X155142857Y-79207200D02*
X155190476Y-79159580D01*
X155190476Y-79159580D02*
X155190476Y-79254819D01*
X155571428Y-78254819D02*
X156190475Y-78254819D01*
X156190475Y-78254819D02*
X155857142Y-78635771D01*
X155857142Y-78635771D02*
X155999999Y-78635771D01*
X155999999Y-78635771D02*
X156095237Y-78683390D01*
X156095237Y-78683390D02*
X156142856Y-78731009D01*
X156142856Y-78731009D02*
X156190475Y-78826247D01*
X156190475Y-78826247D02*
X156190475Y-79064342D01*
X156190475Y-79064342D02*
X156142856Y-79159580D01*
X156142856Y-79159580D02*
X156095237Y-79207200D01*
X156095237Y-79207200D02*
X155999999Y-79254819D01*
X155999999Y-79254819D02*
X155714285Y-79254819D01*
X155714285Y-79254819D02*
X155619047Y-79207200D01*
X155619047Y-79207200D02*
X155571428Y-79159580D01*
X156476190Y-78254819D02*
X156809523Y-79254819D01*
X156809523Y-79254819D02*
X157142856Y-78254819D01*
X160738095Y-58204819D02*
X160738095Y-59014342D01*
X160738095Y-59014342D02*
X160785714Y-59109580D01*
X160785714Y-59109580D02*
X160833333Y-59157200D01*
X160833333Y-59157200D02*
X160928571Y-59204819D01*
X160928571Y-59204819D02*
X161119047Y-59204819D01*
X161119047Y-59204819D02*
X161214285Y-59157200D01*
X161214285Y-59157200D02*
X161261904Y-59109580D01*
X161261904Y-59109580D02*
X161309523Y-59014342D01*
X161309523Y-59014342D02*
X161309523Y-58204819D01*
X162309523Y-59204819D02*
X161738095Y-59204819D01*
X162023809Y-59204819D02*
X162023809Y-58204819D01*
X162023809Y-58204819D02*
X161928571Y-58347676D01*
X161928571Y-58347676D02*
X161833333Y-58442914D01*
X161833333Y-58442914D02*
X161738095Y-58490533D01*
X133454819Y-53083333D02*
X134169104Y-53083333D01*
X134169104Y-53083333D02*
X134311961Y-53130952D01*
X134311961Y-53130952D02*
X134407200Y-53226190D01*
X134407200Y-53226190D02*
X134454819Y-53369047D01*
X134454819Y-53369047D02*
X134454819Y-53464285D01*
X133454819Y-52702380D02*
X133454819Y-52083333D01*
X133454819Y-52083333D02*
X133835771Y-52416666D01*
X133835771Y-52416666D02*
X133835771Y-52273809D01*
X133835771Y-52273809D02*
X133883390Y-52178571D01*
X133883390Y-52178571D02*
X133931009Y-52130952D01*
X133931009Y-52130952D02*
X134026247Y-52083333D01*
X134026247Y-52083333D02*
X134264342Y-52083333D01*
X134264342Y-52083333D02*
X134359580Y-52130952D01*
X134359580Y-52130952D02*
X134407200Y-52178571D01*
X134407200Y-52178571D02*
X134454819Y-52273809D01*
X134454819Y-52273809D02*
X134454819Y-52559523D01*
X134454819Y-52559523D02*
X134407200Y-52654761D01*
X134407200Y-52654761D02*
X134359580Y-52702380D01*
X133454819Y-37583333D02*
X134169104Y-37583333D01*
X134169104Y-37583333D02*
X134311961Y-37630952D01*
X134311961Y-37630952D02*
X134407200Y-37726190D01*
X134407200Y-37726190D02*
X134454819Y-37869047D01*
X134454819Y-37869047D02*
X134454819Y-37964285D01*
X133788152Y-36678571D02*
X134454819Y-36678571D01*
X133407200Y-36916666D02*
X134121485Y-37154761D01*
X134121485Y-37154761D02*
X134121485Y-36535714D01*
X140083333Y-58859580D02*
X140035714Y-58907200D01*
X140035714Y-58907200D02*
X139892857Y-58954819D01*
X139892857Y-58954819D02*
X139797619Y-58954819D01*
X139797619Y-58954819D02*
X139654762Y-58907200D01*
X139654762Y-58907200D02*
X139559524Y-58811961D01*
X139559524Y-58811961D02*
X139511905Y-58716723D01*
X139511905Y-58716723D02*
X139464286Y-58526247D01*
X139464286Y-58526247D02*
X139464286Y-58383390D01*
X139464286Y-58383390D02*
X139511905Y-58192914D01*
X139511905Y-58192914D02*
X139559524Y-58097676D01*
X139559524Y-58097676D02*
X139654762Y-58002438D01*
X139654762Y-58002438D02*
X139797619Y-57954819D01*
X139797619Y-57954819D02*
X139892857Y-57954819D01*
X139892857Y-57954819D02*
X140035714Y-58002438D01*
X140035714Y-58002438D02*
X140083333Y-58050057D01*
X140464286Y-58050057D02*
X140511905Y-58002438D01*
X140511905Y-58002438D02*
X140607143Y-57954819D01*
X140607143Y-57954819D02*
X140845238Y-57954819D01*
X140845238Y-57954819D02*
X140940476Y-58002438D01*
X140940476Y-58002438D02*
X140988095Y-58050057D01*
X140988095Y-58050057D02*
X141035714Y-58145295D01*
X141035714Y-58145295D02*
X141035714Y-58240533D01*
X141035714Y-58240533D02*
X140988095Y-58383390D01*
X140988095Y-58383390D02*
X140416667Y-58954819D01*
X140416667Y-58954819D02*
X141035714Y-58954819D01*
X231359580Y-57666666D02*
X231407200Y-57714285D01*
X231407200Y-57714285D02*
X231454819Y-57857142D01*
X231454819Y-57857142D02*
X231454819Y-57952380D01*
X231454819Y-57952380D02*
X231407200Y-58095237D01*
X231407200Y-58095237D02*
X231311961Y-58190475D01*
X231311961Y-58190475D02*
X231216723Y-58238094D01*
X231216723Y-58238094D02*
X231026247Y-58285713D01*
X231026247Y-58285713D02*
X230883390Y-58285713D01*
X230883390Y-58285713D02*
X230692914Y-58238094D01*
X230692914Y-58238094D02*
X230597676Y-58190475D01*
X230597676Y-58190475D02*
X230502438Y-58095237D01*
X230502438Y-58095237D02*
X230454819Y-57952380D01*
X230454819Y-57952380D02*
X230454819Y-57857142D01*
X230454819Y-57857142D02*
X230502438Y-57714285D01*
X230502438Y-57714285D02*
X230550057Y-57666666D01*
X230788152Y-56809523D02*
X231454819Y-56809523D01*
X230407200Y-57047618D02*
X231121485Y-57285713D01*
X231121485Y-57285713D02*
X231121485Y-56666666D01*
X129666666Y-49624819D02*
X129666666Y-50339104D01*
X129666666Y-50339104D02*
X129619047Y-50481961D01*
X129619047Y-50481961D02*
X129523809Y-50577200D01*
X129523809Y-50577200D02*
X129380952Y-50624819D01*
X129380952Y-50624819D02*
X129285714Y-50624819D01*
X130095238Y-49720057D02*
X130142857Y-49672438D01*
X130142857Y-49672438D02*
X130238095Y-49624819D01*
X130238095Y-49624819D02*
X130476190Y-49624819D01*
X130476190Y-49624819D02*
X130571428Y-49672438D01*
X130571428Y-49672438D02*
X130619047Y-49720057D01*
X130619047Y-49720057D02*
X130666666Y-49815295D01*
X130666666Y-49815295D02*
X130666666Y-49910533D01*
X130666666Y-49910533D02*
X130619047Y-50053390D01*
X130619047Y-50053390D02*
X130047619Y-50624819D01*
X130047619Y-50624819D02*
X130666666Y-50624819D01*
X128583333Y-57454819D02*
X128773809Y-57454819D01*
X128773809Y-57454819D02*
X128869047Y-57502438D01*
X128869047Y-57502438D02*
X128964285Y-57597676D01*
X128964285Y-57597676D02*
X129011904Y-57788152D01*
X129011904Y-57788152D02*
X129011904Y-58121485D01*
X129011904Y-58121485D02*
X128964285Y-58311961D01*
X128964285Y-58311961D02*
X128869047Y-58407200D01*
X128869047Y-58407200D02*
X128773809Y-58454819D01*
X128773809Y-58454819D02*
X128583333Y-58454819D01*
X128583333Y-58454819D02*
X128488095Y-58407200D01*
X128488095Y-58407200D02*
X128392857Y-58311961D01*
X128392857Y-58311961D02*
X128345238Y-58121485D01*
X128345238Y-58121485D02*
X128345238Y-57788152D01*
X128345238Y-57788152D02*
X128392857Y-57597676D01*
X128392857Y-57597676D02*
X128488095Y-57502438D01*
X128488095Y-57502438D02*
X128583333Y-57454819D01*
X129440476Y-57788152D02*
X129440476Y-58454819D01*
X129440476Y-57883390D02*
X129488095Y-57835771D01*
X129488095Y-57835771D02*
X129583333Y-57788152D01*
X129583333Y-57788152D02*
X129726190Y-57788152D01*
X129726190Y-57788152D02*
X129821428Y-57835771D01*
X129821428Y-57835771D02*
X129869047Y-57931009D01*
X129869047Y-57931009D02*
X129869047Y-58454819D01*
X131059523Y-57407200D02*
X130202381Y-58692914D01*
X131583333Y-57454819D02*
X131773809Y-57454819D01*
X131773809Y-57454819D02*
X131869047Y-57502438D01*
X131869047Y-57502438D02*
X131964285Y-57597676D01*
X131964285Y-57597676D02*
X132011904Y-57788152D01*
X132011904Y-57788152D02*
X132011904Y-58121485D01*
X132011904Y-58121485D02*
X131964285Y-58311961D01*
X131964285Y-58311961D02*
X131869047Y-58407200D01*
X131869047Y-58407200D02*
X131773809Y-58454819D01*
X131773809Y-58454819D02*
X131583333Y-58454819D01*
X131583333Y-58454819D02*
X131488095Y-58407200D01*
X131488095Y-58407200D02*
X131392857Y-58311961D01*
X131392857Y-58311961D02*
X131345238Y-58121485D01*
X131345238Y-58121485D02*
X131345238Y-57788152D01*
X131345238Y-57788152D02*
X131392857Y-57597676D01*
X131392857Y-57597676D02*
X131488095Y-57502438D01*
X131488095Y-57502438D02*
X131583333Y-57454819D01*
X132297619Y-57788152D02*
X132678571Y-57788152D01*
X132440476Y-58454819D02*
X132440476Y-57597676D01*
X132440476Y-57597676D02*
X132488095Y-57502438D01*
X132488095Y-57502438D02*
X132583333Y-57454819D01*
X132583333Y-57454819D02*
X132678571Y-57454819D01*
X132869048Y-57788152D02*
X133250000Y-57788152D01*
X133011905Y-58454819D02*
X133011905Y-57597676D01*
X133011905Y-57597676D02*
X133059524Y-57502438D01*
X133059524Y-57502438D02*
X133154762Y-57454819D01*
X133154762Y-57454819D02*
X133250000Y-57454819D01*
X181304819Y-76916666D02*
X180828628Y-77249999D01*
X181304819Y-77488094D02*
X180304819Y-77488094D01*
X180304819Y-77488094D02*
X180304819Y-77107142D01*
X180304819Y-77107142D02*
X180352438Y-77011904D01*
X180352438Y-77011904D02*
X180400057Y-76964285D01*
X180400057Y-76964285D02*
X180495295Y-76916666D01*
X180495295Y-76916666D02*
X180638152Y-76916666D01*
X180638152Y-76916666D02*
X180733390Y-76964285D01*
X180733390Y-76964285D02*
X180781009Y-77011904D01*
X180781009Y-77011904D02*
X180828628Y-77107142D01*
X180828628Y-77107142D02*
X180828628Y-77488094D01*
X180638152Y-76059523D02*
X181304819Y-76059523D01*
X180257200Y-76297618D02*
X180971485Y-76535713D01*
X180971485Y-76535713D02*
X180971485Y-75916666D01*
X148238095Y-74206819D02*
X148809523Y-74206819D01*
X148523809Y-75206819D02*
X148523809Y-74206819D01*
X149142857Y-75206819D02*
X149142857Y-74206819D01*
X149142857Y-74206819D02*
X149523809Y-74206819D01*
X149523809Y-74206819D02*
X149619047Y-74254438D01*
X149619047Y-74254438D02*
X149666666Y-74302057D01*
X149666666Y-74302057D02*
X149714285Y-74397295D01*
X149714285Y-74397295D02*
X149714285Y-74540152D01*
X149714285Y-74540152D02*
X149666666Y-74635390D01*
X149666666Y-74635390D02*
X149619047Y-74683009D01*
X149619047Y-74683009D02*
X149523809Y-74730628D01*
X149523809Y-74730628D02*
X149142857Y-74730628D01*
X150095238Y-74302057D02*
X150142857Y-74254438D01*
X150142857Y-74254438D02*
X150238095Y-74206819D01*
X150238095Y-74206819D02*
X150476190Y-74206819D01*
X150476190Y-74206819D02*
X150571428Y-74254438D01*
X150571428Y-74254438D02*
X150619047Y-74302057D01*
X150619047Y-74302057D02*
X150666666Y-74397295D01*
X150666666Y-74397295D02*
X150666666Y-74492533D01*
X150666666Y-74492533D02*
X150619047Y-74635390D01*
X150619047Y-74635390D02*
X150047619Y-75206819D01*
X150047619Y-75206819D02*
X150666666Y-75206819D01*
X148738095Y-78302438D02*
X148642857Y-78254819D01*
X148642857Y-78254819D02*
X148500000Y-78254819D01*
X148500000Y-78254819D02*
X148357143Y-78302438D01*
X148357143Y-78302438D02*
X148261905Y-78397676D01*
X148261905Y-78397676D02*
X148214286Y-78492914D01*
X148214286Y-78492914D02*
X148166667Y-78683390D01*
X148166667Y-78683390D02*
X148166667Y-78826247D01*
X148166667Y-78826247D02*
X148214286Y-79016723D01*
X148214286Y-79016723D02*
X148261905Y-79111961D01*
X148261905Y-79111961D02*
X148357143Y-79207200D01*
X148357143Y-79207200D02*
X148500000Y-79254819D01*
X148500000Y-79254819D02*
X148595238Y-79254819D01*
X148595238Y-79254819D02*
X148738095Y-79207200D01*
X148738095Y-79207200D02*
X148785714Y-79159580D01*
X148785714Y-79159580D02*
X148785714Y-78826247D01*
X148785714Y-78826247D02*
X148595238Y-78826247D01*
X149214286Y-79254819D02*
X149214286Y-78254819D01*
X149214286Y-78254819D02*
X149785714Y-79254819D01*
X149785714Y-79254819D02*
X149785714Y-78254819D01*
X150261905Y-79254819D02*
X150261905Y-78254819D01*
X150261905Y-78254819D02*
X150500000Y-78254819D01*
X150500000Y-78254819D02*
X150642857Y-78302438D01*
X150642857Y-78302438D02*
X150738095Y-78397676D01*
X150738095Y-78397676D02*
X150785714Y-78492914D01*
X150785714Y-78492914D02*
X150833333Y-78683390D01*
X150833333Y-78683390D02*
X150833333Y-78826247D01*
X150833333Y-78826247D02*
X150785714Y-79016723D01*
X150785714Y-79016723D02*
X150738095Y-79111961D01*
X150738095Y-79111961D02*
X150642857Y-79207200D01*
X150642857Y-79207200D02*
X150500000Y-79254819D01*
X150500000Y-79254819D02*
X150261905Y-79254819D01*
X227609580Y-57666666D02*
X227657200Y-57714285D01*
X227657200Y-57714285D02*
X227704819Y-57857142D01*
X227704819Y-57857142D02*
X227704819Y-57952380D01*
X227704819Y-57952380D02*
X227657200Y-58095237D01*
X227657200Y-58095237D02*
X227561961Y-58190475D01*
X227561961Y-58190475D02*
X227466723Y-58238094D01*
X227466723Y-58238094D02*
X227276247Y-58285713D01*
X227276247Y-58285713D02*
X227133390Y-58285713D01*
X227133390Y-58285713D02*
X226942914Y-58238094D01*
X226942914Y-58238094D02*
X226847676Y-58190475D01*
X226847676Y-58190475D02*
X226752438Y-58095237D01*
X226752438Y-58095237D02*
X226704819Y-57952380D01*
X226704819Y-57952380D02*
X226704819Y-57857142D01*
X226704819Y-57857142D02*
X226752438Y-57714285D01*
X226752438Y-57714285D02*
X226800057Y-57666666D01*
X226704819Y-56761904D02*
X226704819Y-57238094D01*
X226704819Y-57238094D02*
X227181009Y-57285713D01*
X227181009Y-57285713D02*
X227133390Y-57238094D01*
X227133390Y-57238094D02*
X227085771Y-57142856D01*
X227085771Y-57142856D02*
X227085771Y-56904761D01*
X227085771Y-56904761D02*
X227133390Y-56809523D01*
X227133390Y-56809523D02*
X227181009Y-56761904D01*
X227181009Y-56761904D02*
X227276247Y-56714285D01*
X227276247Y-56714285D02*
X227514342Y-56714285D01*
X227514342Y-56714285D02*
X227609580Y-56761904D01*
X227609580Y-56761904D02*
X227657200Y-56809523D01*
X227657200Y-56809523D02*
X227704819Y-56904761D01*
X227704819Y-56904761D02*
X227704819Y-57142856D01*
X227704819Y-57142856D02*
X227657200Y-57238094D01*
X227657200Y-57238094D02*
X227609580Y-57285713D01*
X167550057Y-75845238D02*
X167502438Y-75940476D01*
X167502438Y-75940476D02*
X167407200Y-76035714D01*
X167407200Y-76035714D02*
X167264342Y-76178571D01*
X167264342Y-76178571D02*
X167216723Y-76273809D01*
X167216723Y-76273809D02*
X167216723Y-76369047D01*
X167454819Y-76321428D02*
X167407200Y-76416666D01*
X167407200Y-76416666D02*
X167311961Y-76511904D01*
X167311961Y-76511904D02*
X167121485Y-76559523D01*
X167121485Y-76559523D02*
X166788152Y-76559523D01*
X166788152Y-76559523D02*
X166597676Y-76511904D01*
X166597676Y-76511904D02*
X166502438Y-76416666D01*
X166502438Y-76416666D02*
X166454819Y-76321428D01*
X166454819Y-76321428D02*
X166454819Y-76130952D01*
X166454819Y-76130952D02*
X166502438Y-76035714D01*
X166502438Y-76035714D02*
X166597676Y-75940476D01*
X166597676Y-75940476D02*
X166788152Y-75892857D01*
X166788152Y-75892857D02*
X167121485Y-75892857D01*
X167121485Y-75892857D02*
X167311961Y-75940476D01*
X167311961Y-75940476D02*
X167407200Y-76035714D01*
X167407200Y-76035714D02*
X167454819Y-76130952D01*
X167454819Y-76130952D02*
X167454819Y-76321428D01*
X167454819Y-74940476D02*
X167454819Y-75511904D01*
X167454819Y-75226190D02*
X166454819Y-75226190D01*
X166454819Y-75226190D02*
X166597676Y-75321428D01*
X166597676Y-75321428D02*
X166692914Y-75416666D01*
X166692914Y-75416666D02*
X166740533Y-75511904D01*
X203204819Y-76583333D02*
X203919104Y-76583333D01*
X203919104Y-76583333D02*
X204061961Y-76630952D01*
X204061961Y-76630952D02*
X204157200Y-76726190D01*
X204157200Y-76726190D02*
X204204819Y-76869047D01*
X204204819Y-76869047D02*
X204204819Y-76964285D01*
X203204819Y-75678571D02*
X203204819Y-75869047D01*
X203204819Y-75869047D02*
X203252438Y-75964285D01*
X203252438Y-75964285D02*
X203300057Y-76011904D01*
X203300057Y-76011904D02*
X203442914Y-76107142D01*
X203442914Y-76107142D02*
X203633390Y-76154761D01*
X203633390Y-76154761D02*
X204014342Y-76154761D01*
X204014342Y-76154761D02*
X204109580Y-76107142D01*
X204109580Y-76107142D02*
X204157200Y-76059523D01*
X204157200Y-76059523D02*
X204204819Y-75964285D01*
X204204819Y-75964285D02*
X204204819Y-75773809D01*
X204204819Y-75773809D02*
X204157200Y-75678571D01*
X204157200Y-75678571D02*
X204109580Y-75630952D01*
X204109580Y-75630952D02*
X204014342Y-75583333D01*
X204014342Y-75583333D02*
X203776247Y-75583333D01*
X203776247Y-75583333D02*
X203681009Y-75630952D01*
X203681009Y-75630952D02*
X203633390Y-75678571D01*
X203633390Y-75678571D02*
X203585771Y-75773809D01*
X203585771Y-75773809D02*
X203585771Y-75964285D01*
X203585771Y-75964285D02*
X203633390Y-76059523D01*
X203633390Y-76059523D02*
X203681009Y-76107142D01*
X203681009Y-76107142D02*
X203776247Y-76154761D01*
X191504819Y-78059523D02*
X190504819Y-78059523D01*
X190504819Y-78059523D02*
X191219104Y-77726190D01*
X191219104Y-77726190D02*
X190504819Y-77392857D01*
X190504819Y-77392857D02*
X191504819Y-77392857D01*
X190504819Y-76726190D02*
X190504819Y-76535714D01*
X190504819Y-76535714D02*
X190552438Y-76440476D01*
X190552438Y-76440476D02*
X190647676Y-76345238D01*
X190647676Y-76345238D02*
X190838152Y-76297619D01*
X190838152Y-76297619D02*
X191171485Y-76297619D01*
X191171485Y-76297619D02*
X191361961Y-76345238D01*
X191361961Y-76345238D02*
X191457200Y-76440476D01*
X191457200Y-76440476D02*
X191504819Y-76535714D01*
X191504819Y-76535714D02*
X191504819Y-76726190D01*
X191504819Y-76726190D02*
X191457200Y-76821428D01*
X191457200Y-76821428D02*
X191361961Y-76916666D01*
X191361961Y-76916666D02*
X191171485Y-76964285D01*
X191171485Y-76964285D02*
X190838152Y-76964285D01*
X190838152Y-76964285D02*
X190647676Y-76916666D01*
X190647676Y-76916666D02*
X190552438Y-76821428D01*
X190552438Y-76821428D02*
X190504819Y-76726190D01*
X191504819Y-75869047D02*
X190504819Y-75869047D01*
X190504819Y-75869047D02*
X190504819Y-75630952D01*
X190504819Y-75630952D02*
X190552438Y-75488095D01*
X190552438Y-75488095D02*
X190647676Y-75392857D01*
X190647676Y-75392857D02*
X190742914Y-75345238D01*
X190742914Y-75345238D02*
X190933390Y-75297619D01*
X190933390Y-75297619D02*
X191076247Y-75297619D01*
X191076247Y-75297619D02*
X191266723Y-75345238D01*
X191266723Y-75345238D02*
X191361961Y-75392857D01*
X191361961Y-75392857D02*
X191457200Y-75488095D01*
X191457200Y-75488095D02*
X191504819Y-75630952D01*
X191504819Y-75630952D02*
X191504819Y-75869047D01*
X190981009Y-74869047D02*
X190981009Y-74535714D01*
X191504819Y-74392857D02*
X191504819Y-74869047D01*
X191504819Y-74869047D02*
X190504819Y-74869047D01*
X190504819Y-74869047D02*
X190504819Y-74392857D01*
X158454819Y-76166666D02*
X157978628Y-76499999D01*
X158454819Y-76738094D02*
X157454819Y-76738094D01*
X157454819Y-76738094D02*
X157454819Y-76357142D01*
X157454819Y-76357142D02*
X157502438Y-76261904D01*
X157502438Y-76261904D02*
X157550057Y-76214285D01*
X157550057Y-76214285D02*
X157645295Y-76166666D01*
X157645295Y-76166666D02*
X157788152Y-76166666D01*
X157788152Y-76166666D02*
X157883390Y-76214285D01*
X157883390Y-76214285D02*
X157931009Y-76261904D01*
X157931009Y-76261904D02*
X157978628Y-76357142D01*
X157978628Y-76357142D02*
X157978628Y-76738094D01*
X157454819Y-75261904D02*
X157454819Y-75738094D01*
X157454819Y-75738094D02*
X157931009Y-75785713D01*
X157931009Y-75785713D02*
X157883390Y-75738094D01*
X157883390Y-75738094D02*
X157835771Y-75642856D01*
X157835771Y-75642856D02*
X157835771Y-75404761D01*
X157835771Y-75404761D02*
X157883390Y-75309523D01*
X157883390Y-75309523D02*
X157931009Y-75261904D01*
X157931009Y-75261904D02*
X158026247Y-75214285D01*
X158026247Y-75214285D02*
X158264342Y-75214285D01*
X158264342Y-75214285D02*
X158359580Y-75261904D01*
X158359580Y-75261904D02*
X158407200Y-75309523D01*
X158407200Y-75309523D02*
X158454819Y-75404761D01*
X158454819Y-75404761D02*
X158454819Y-75642856D01*
X158454819Y-75642856D02*
X158407200Y-75738094D01*
X158407200Y-75738094D02*
X158359580Y-75785713D01*
X225454819Y-52166666D02*
X224978628Y-52499999D01*
X225454819Y-52738094D02*
X224454819Y-52738094D01*
X224454819Y-52738094D02*
X224454819Y-52357142D01*
X224454819Y-52357142D02*
X224502438Y-52261904D01*
X224502438Y-52261904D02*
X224550057Y-52214285D01*
X224550057Y-52214285D02*
X224645295Y-52166666D01*
X224645295Y-52166666D02*
X224788152Y-52166666D01*
X224788152Y-52166666D02*
X224883390Y-52214285D01*
X224883390Y-52214285D02*
X224931009Y-52261904D01*
X224931009Y-52261904D02*
X224978628Y-52357142D01*
X224978628Y-52357142D02*
X224978628Y-52738094D01*
X224454819Y-51833332D02*
X224454819Y-51166666D01*
X224454819Y-51166666D02*
X225454819Y-51595237D01*
D13*
%TO.C,D1*%
X129600000Y-38990000D02*
X129600000Y-46000000D01*
X132900000Y-38990000D02*
X129600000Y-38990000D01*
X132900000Y-38990000D02*
X132900000Y-46000000D01*
%TO.C,D2*%
X174600000Y-65490000D02*
X174600000Y-72500000D01*
X177900000Y-65490000D02*
X174600000Y-65490000D01*
X177900000Y-65490000D02*
X177900000Y-72500000D01*
%TO.C,R6*%
X220265000Y-54772936D02*
X220265000Y-55227064D01*
X221735000Y-54772936D02*
X221735000Y-55227064D01*
%TO.C,J1*%
X128670000Y-60920000D02*
X130000000Y-60920000D01*
X128670000Y-62250000D02*
X128670000Y-60920000D01*
X128670000Y-63520000D02*
X128670000Y-68660000D01*
X128670000Y-63520000D02*
X131330000Y-63520000D01*
X128670000Y-68660000D02*
X131330000Y-68660000D01*
X131330000Y-63520000D02*
X131330000Y-68660000D01*
%TO.C,J5*%
X136840000Y-75170000D02*
X136840000Y-77830000D01*
X141980000Y-75170000D02*
X136840000Y-75170000D01*
X141980000Y-75170000D02*
X141980000Y-77830000D01*
X141980000Y-77830000D02*
X136840000Y-77830000D01*
X143250000Y-75170000D02*
X144580000Y-75170000D01*
X144580000Y-75170000D02*
X144580000Y-76500000D01*
%TO.C,C3*%
X144265000Y-68988748D02*
X144265000Y-69511252D01*
X145735000Y-68988748D02*
X145735000Y-69511252D01*
%TO.C,R3*%
X181765000Y-70522936D02*
X181765000Y-70977064D01*
X183235000Y-70522936D02*
X183235000Y-70977064D01*
%TO.C,TP1*%
X153800000Y-75550000D02*
X156200000Y-75550000D01*
X153800000Y-77950000D02*
X153800000Y-75550000D01*
X156200000Y-75550000D02*
X156200000Y-77950000D01*
X156200000Y-77950000D02*
X153800000Y-77950000D01*
%TO.C,U1*%
X153110000Y-60540000D02*
X153110000Y-71040000D01*
X153110000Y-63250000D02*
X151150000Y-63250000D01*
X153110000Y-65790000D02*
X151150000Y-65790000D01*
X153110000Y-68330000D02*
X151150000Y-68330000D01*
X169220000Y-60540000D02*
X153110000Y-60540000D01*
X169220000Y-60540000D02*
X169220000Y-71040000D01*
X169220000Y-71040000D02*
X153110000Y-71040000D01*
%TO.C,J3*%
X135855000Y-52330000D02*
X135855000Y-51000000D01*
X137185000Y-52330000D02*
X135855000Y-52330000D01*
X138455000Y-49670000D02*
X186775000Y-49670000D01*
X138455000Y-52330000D02*
X138455000Y-49670000D01*
X138455000Y-52330000D02*
X186775000Y-52330000D01*
X186775000Y-52330000D02*
X186775000Y-49670000D01*
%TO.C,J4*%
X135855000Y-37330000D02*
X135855000Y-36000000D01*
X137185000Y-37330000D02*
X135855000Y-37330000D01*
X138455000Y-34670000D02*
X186775000Y-34670000D01*
X138455000Y-37330000D02*
X138455000Y-34670000D01*
X138455000Y-37330000D02*
X186775000Y-37330000D01*
X186775000Y-37330000D02*
X186775000Y-34670000D01*
%TO.C,C2*%
X137649000Y-62284000D02*
X137649000Y-61716000D01*
X137689000Y-62518000D02*
X137689000Y-61482000D01*
X137729000Y-62677000D02*
X137729000Y-61323000D01*
X137769000Y-62805000D02*
X137769000Y-61195000D01*
X137809000Y-62915000D02*
X137809000Y-61085000D01*
X137849000Y-63011000D02*
X137849000Y-60989000D01*
X137889000Y-63098000D02*
X137889000Y-60902000D01*
X137929000Y-63178000D02*
X137929000Y-60822000D01*
X137969000Y-60960000D02*
X137969000Y-60749000D01*
X137969000Y-63251000D02*
X137969000Y-63040000D01*
X138009000Y-60960000D02*
X138009000Y-60681000D01*
X138009000Y-63319000D02*
X138009000Y-63040000D01*
X138049000Y-60960000D02*
X138049000Y-60617000D01*
X138049000Y-63383000D02*
X138049000Y-63040000D01*
X138089000Y-60960000D02*
X138089000Y-60557000D01*
X138089000Y-63443000D02*
X138089000Y-63040000D01*
X138129000Y-60960000D02*
X138129000Y-60500000D01*
X138129000Y-63500000D02*
X138129000Y-63040000D01*
X138169000Y-60960000D02*
X138169000Y-60446000D01*
X138169000Y-63554000D02*
X138169000Y-63040000D01*
X138209000Y-60960000D02*
X138209000Y-60395000D01*
X138209000Y-63605000D02*
X138209000Y-63040000D01*
X138249000Y-60960000D02*
X138249000Y-60347000D01*
X138249000Y-63653000D02*
X138249000Y-63040000D01*
X138289000Y-60960000D02*
X138289000Y-60301000D01*
X138289000Y-63699000D02*
X138289000Y-63040000D01*
X138329000Y-60960000D02*
X138329000Y-60257000D01*
X138329000Y-63743000D02*
X138329000Y-63040000D01*
X138369000Y-60960000D02*
X138369000Y-60215000D01*
X138369000Y-63785000D02*
X138369000Y-63040000D01*
X138409000Y-60960000D02*
X138409000Y-60174000D01*
X138409000Y-63826000D02*
X138409000Y-63040000D01*
X138449000Y-60960000D02*
X138449000Y-60136000D01*
X138449000Y-63864000D02*
X138449000Y-63040000D01*
X138489000Y-60960000D02*
X138489000Y-60099000D01*
X138489000Y-63901000D02*
X138489000Y-63040000D01*
X138529000Y-60960000D02*
X138529000Y-60063000D01*
X138529000Y-63937000D02*
X138529000Y-63040000D01*
X138569000Y-60960000D02*
X138569000Y-60029000D01*
X138569000Y-63971000D02*
X138569000Y-63040000D01*
X138609000Y-60960000D02*
X138609000Y-59996000D01*
X138609000Y-64004000D02*
X138609000Y-63040000D01*
X138649000Y-60960000D02*
X138649000Y-59965000D01*
X138649000Y-64035000D02*
X138649000Y-63040000D01*
X138689000Y-60960000D02*
X138689000Y-59935000D01*
X138689000Y-64065000D02*
X138689000Y-63040000D01*
X138729000Y-60960000D02*
X138729000Y-59905000D01*
X138729000Y-64095000D02*
X138729000Y-63040000D01*
X138769000Y-60960000D02*
X138769000Y-59878000D01*
X138769000Y-64122000D02*
X138769000Y-63040000D01*
X138809000Y-60960000D02*
X138809000Y-59851000D01*
X138809000Y-64149000D02*
X138809000Y-63040000D01*
X138849000Y-60960000D02*
X138849000Y-59825000D01*
X138849000Y-64175000D02*
X138849000Y-63040000D01*
X138889000Y-60960000D02*
X138889000Y-59800000D01*
X138889000Y-64200000D02*
X138889000Y-63040000D01*
X138929000Y-60960000D02*
X138929000Y-59776000D01*
X138929000Y-64224000D02*
X138929000Y-63040000D01*
X138969000Y-60960000D02*
X138969000Y-59753000D01*
X138969000Y-64247000D02*
X138969000Y-63040000D01*
X139009000Y-60960000D02*
X139009000Y-59732000D01*
X139009000Y-64268000D02*
X139009000Y-63040000D01*
X139049000Y-60960000D02*
X139049000Y-59710000D01*
X139049000Y-64290000D02*
X139049000Y-63040000D01*
X139089000Y-60960000D02*
X139089000Y-59690000D01*
X139089000Y-64310000D02*
X139089000Y-63040000D01*
X139129000Y-60960000D02*
X139129000Y-59671000D01*
X139129000Y-64329000D02*
X139129000Y-63040000D01*
X139169000Y-60960000D02*
X139169000Y-59652000D01*
X139169000Y-64348000D02*
X139169000Y-63040000D01*
X139209000Y-60960000D02*
X139209000Y-59635000D01*
X139209000Y-64365000D02*
X139209000Y-63040000D01*
X139249000Y-60960000D02*
X139249000Y-59618000D01*
X139249000Y-64382000D02*
X139249000Y-63040000D01*
X139289000Y-60960000D02*
X139289000Y-59602000D01*
X139289000Y-64398000D02*
X139289000Y-63040000D01*
X139329000Y-60960000D02*
X139329000Y-59586000D01*
X139329000Y-64414000D02*
X139329000Y-63040000D01*
X139369000Y-60960000D02*
X139369000Y-59572000D01*
X139369000Y-64428000D02*
X139369000Y-63040000D01*
X139409000Y-60960000D02*
X139409000Y-59558000D01*
X139409000Y-64442000D02*
X139409000Y-63040000D01*
X139449000Y-60960000D02*
X139449000Y-59545000D01*
X139449000Y-64455000D02*
X139449000Y-63040000D01*
X139489000Y-60960000D02*
X139489000Y-59532000D01*
X139489000Y-64468000D02*
X139489000Y-63040000D01*
X139529000Y-60960000D02*
X139529000Y-59520000D01*
X139529000Y-64480000D02*
X139529000Y-63040000D01*
X139570000Y-60960000D02*
X139570000Y-59509000D01*
X139570000Y-64491000D02*
X139570000Y-63040000D01*
X139610000Y-60960000D02*
X139610000Y-59499000D01*
X139610000Y-64501000D02*
X139610000Y-63040000D01*
X139650000Y-60960000D02*
X139650000Y-59489000D01*
X139650000Y-64511000D02*
X139650000Y-63040000D01*
X139690000Y-60960000D02*
X139690000Y-59480000D01*
X139690000Y-64520000D02*
X139690000Y-63040000D01*
X139730000Y-60960000D02*
X139730000Y-59472000D01*
X139730000Y-64528000D02*
X139730000Y-63040000D01*
X139770000Y-60960000D02*
X139770000Y-59464000D01*
X139770000Y-64536000D02*
X139770000Y-63040000D01*
X139810000Y-60960000D02*
X139810000Y-59457000D01*
X139810000Y-64543000D02*
X139810000Y-63040000D01*
X139850000Y-60960000D02*
X139850000Y-59450000D01*
X139850000Y-64550000D02*
X139850000Y-63040000D01*
X139890000Y-60960000D02*
X139890000Y-59444000D01*
X139890000Y-64556000D02*
X139890000Y-63040000D01*
X139930000Y-60960000D02*
X139930000Y-59439000D01*
X139930000Y-64561000D02*
X139930000Y-63040000D01*
X139970000Y-60960000D02*
X139970000Y-59435000D01*
X139970000Y-64565000D02*
X139970000Y-63040000D01*
X140010000Y-60960000D02*
X140010000Y-59431000D01*
X140010000Y-64569000D02*
X140010000Y-63040000D01*
X140050000Y-64573000D02*
X140050000Y-59427000D01*
X140090000Y-64576000D02*
X140090000Y-59424000D01*
X140130000Y-64578000D02*
X140130000Y-59422000D01*
X140170000Y-64579000D02*
X140170000Y-59421000D01*
X140210000Y-64580000D02*
X140210000Y-59420000D01*
X140250000Y-64580000D02*
X140250000Y-59420000D01*
X142804775Y-63725000D02*
X142804775Y-63225000D01*
X143054775Y-63475000D02*
X142554775Y-63475000D01*
X142870000Y-62000000D02*
G75*
G02*
X137630000Y-62000000I-2620000J0D01*
G01*
X137630000Y-62000000D02*
G75*
G02*
X142870000Y-62000000I2620000J0D01*
G01*
%TO.C,C4*%
X233488748Y-56765000D02*
X234011252Y-56765000D01*
X233488748Y-58235000D02*
X234011252Y-58235000D01*
%TO.C,J2*%
X128670000Y-51170000D02*
X130000000Y-51170000D01*
X128670000Y-52500000D02*
X128670000Y-51170000D01*
X128670000Y-53770000D02*
X128670000Y-56370000D01*
X128670000Y-53770000D02*
X131330000Y-53770000D01*
X128670000Y-56370000D02*
X131330000Y-56370000D01*
X131330000Y-53770000D02*
X131330000Y-56370000D01*
%TO.C,R4*%
X181765000Y-76977064D02*
X181765000Y-76522936D01*
X183235000Y-76977064D02*
X183235000Y-76522936D01*
%TO.C,TP2*%
X148300000Y-75550000D02*
X150700000Y-75550000D01*
X148300000Y-77950000D02*
X148300000Y-75550000D01*
X150700000Y-75550000D02*
X150700000Y-77950000D01*
X150700000Y-77950000D02*
X148300000Y-77950000D01*
%TO.C,C5*%
X228265000Y-57488748D02*
X228265000Y-58011252D01*
X229735000Y-57488748D02*
X229735000Y-58011252D01*
D14*
%TO.C,G\u002A\u002A\u002A*%
G36*
X202784070Y-42137810D02*
G01*
X202951132Y-42185844D01*
X203096002Y-42282793D01*
X203166869Y-42354649D01*
X203273961Y-42515749D01*
X203334358Y-42694172D01*
X203349856Y-42879207D01*
X203322253Y-43060142D01*
X203253345Y-43226265D01*
X203144929Y-43366865D01*
X202998802Y-43471230D01*
X202977892Y-43481232D01*
X202820218Y-43526648D01*
X202642297Y-43536856D01*
X202469938Y-43512125D01*
X202367839Y-43474877D01*
X202203141Y-43361390D01*
X202079692Y-43207360D01*
X202001071Y-43019001D01*
X201970853Y-42802532D01*
X201970635Y-42784686D01*
X201994428Y-42579145D01*
X202065849Y-42409462D01*
X202182741Y-42277925D01*
X202342944Y-42186823D01*
X202544301Y-42138445D01*
X202583787Y-42134528D01*
X202784070Y-42137810D01*
G37*
G36*
X199818148Y-42416723D02*
G01*
X199935585Y-42477593D01*
X200089597Y-42560043D01*
X200274292Y-42660723D01*
X200483780Y-42776284D01*
X200712170Y-42903375D01*
X200953572Y-43038646D01*
X201202095Y-43178749D01*
X201451848Y-43320333D01*
X201696940Y-43460048D01*
X201931482Y-43594545D01*
X202149583Y-43720474D01*
X202345351Y-43834486D01*
X202512896Y-43933230D01*
X202646329Y-44013356D01*
X202739757Y-44071516D01*
X202787290Y-44104359D01*
X202789735Y-44106540D01*
X202799639Y-44139930D01*
X202818387Y-44225917D01*
X202844788Y-44357894D01*
X202877647Y-44529256D01*
X202915773Y-44733398D01*
X202957972Y-44963713D01*
X203003051Y-45213596D01*
X203049816Y-45476440D01*
X203097076Y-45745641D01*
X203143638Y-46014593D01*
X203188307Y-46276689D01*
X203229891Y-46525324D01*
X203261828Y-46720567D01*
X203289377Y-46879340D01*
X203318983Y-47030609D01*
X203347007Y-47156795D01*
X203368897Y-47237581D01*
X203442038Y-47385859D01*
X203568413Y-47544638D01*
X203749656Y-47715695D01*
X203960873Y-47881493D01*
X204089993Y-47978805D01*
X204217430Y-48079357D01*
X204325451Y-48168944D01*
X204378107Y-48215735D01*
X204454608Y-48282128D01*
X204515497Y-48325848D01*
X204545806Y-48337262D01*
X204575685Y-48311190D01*
X204634187Y-48249787D01*
X204711347Y-48163731D01*
X204758158Y-48109724D01*
X204861796Y-47989286D01*
X204939670Y-47909227D01*
X205004060Y-47869074D01*
X205067247Y-47868348D01*
X205141512Y-47906576D01*
X205239135Y-47983279D01*
X205358993Y-48086434D01*
X205615314Y-48321547D01*
X205818745Y-48541088D01*
X205972536Y-48750800D01*
X206079937Y-48956424D01*
X206144194Y-49163702D01*
X206168558Y-49378376D01*
X206165469Y-49511803D01*
X206151646Y-49639862D01*
X206130216Y-49759259D01*
X206105758Y-49844626D01*
X206105152Y-49846094D01*
X206072705Y-49908723D01*
X206028394Y-49949688D01*
X205954449Y-49981509D01*
X205882194Y-50003187D01*
X205691223Y-50039151D01*
X205477216Y-50051218D01*
X205266470Y-50039330D01*
X205090378Y-50004957D01*
X204903441Y-49930307D01*
X204693433Y-49812871D01*
X204470617Y-49659806D01*
X204245253Y-49478272D01*
X204027605Y-49275427D01*
X203990452Y-49237631D01*
X203864238Y-49107446D01*
X204116922Y-48833834D01*
X204369606Y-48560221D01*
X204138053Y-48338222D01*
X204011535Y-48217827D01*
X203874227Y-48089043D01*
X203721476Y-47947637D01*
X203548628Y-47789374D01*
X203351029Y-47610019D01*
X203124024Y-47405338D01*
X202862961Y-47171095D01*
X202563185Y-46903057D01*
X202439404Y-46792577D01*
X201594680Y-46038938D01*
X201543663Y-46132057D01*
X201503943Y-46204676D01*
X201475733Y-46256456D01*
X201474233Y-46259227D01*
X201476724Y-46301804D01*
X201500776Y-46381258D01*
X201541231Y-46480686D01*
X201542920Y-46484404D01*
X201574319Y-46551279D01*
X201610899Y-46624519D01*
X201656298Y-46710677D01*
X201714151Y-46816305D01*
X201788094Y-46947955D01*
X201881764Y-47112178D01*
X201998797Y-47315528D01*
X202132207Y-47546217D01*
X202211791Y-47688342D01*
X202271541Y-47812279D01*
X202309969Y-47925407D01*
X202325584Y-48035105D01*
X202316897Y-48148753D01*
X202282418Y-48273729D01*
X202220658Y-48417414D01*
X202130128Y-48587186D01*
X202009337Y-48790425D01*
X201856796Y-49034510D01*
X201820091Y-49092435D01*
X201706537Y-49272607D01*
X201597558Y-49447760D01*
X201499499Y-49607523D01*
X201418705Y-49741529D01*
X201361521Y-49839408D01*
X201346993Y-49865543D01*
X201296077Y-49957590D01*
X201257004Y-50024513D01*
X201237588Y-50052972D01*
X201237066Y-50053191D01*
X201213311Y-50033679D01*
X201160178Y-49983066D01*
X201103968Y-49927172D01*
X201030330Y-49845915D01*
X200992637Y-49779857D01*
X200979840Y-49706818D01*
X200979196Y-49676773D01*
X201002743Y-49457463D01*
X201071984Y-49207508D01*
X201184816Y-48932614D01*
X201339135Y-48638486D01*
X201399088Y-48537714D01*
X201471146Y-48416214D01*
X201542668Y-48289523D01*
X201593268Y-48194513D01*
X201669678Y-48043725D01*
X201238144Y-47239534D01*
X201099963Y-46982182D01*
X200987325Y-46772893D01*
X200897485Y-46606767D01*
X200827698Y-46478900D01*
X200775217Y-46384391D01*
X200737298Y-46318338D01*
X200711195Y-46275838D01*
X200694161Y-46251991D01*
X200683451Y-46241892D01*
X200678510Y-46240379D01*
X200660550Y-46265976D01*
X200617948Y-46338999D01*
X200553813Y-46453622D01*
X200471254Y-46604021D01*
X200373380Y-46784371D01*
X200263299Y-46988846D01*
X200144121Y-47211623D01*
X200018955Y-47446875D01*
X199890909Y-47688779D01*
X199763092Y-47931510D01*
X199638614Y-48169242D01*
X199520583Y-48396151D01*
X199412108Y-48606413D01*
X199332542Y-48762175D01*
X199238056Y-48947576D01*
X199151990Y-49115279D01*
X199078222Y-49257825D01*
X199020628Y-49367754D01*
X198983085Y-49437608D01*
X198970022Y-49459706D01*
X198935241Y-49458549D01*
X198862547Y-49434378D01*
X198766321Y-49393693D01*
X198660943Y-49342995D01*
X198560791Y-49288786D01*
X198482980Y-49239524D01*
X198395091Y-49176942D01*
X198872378Y-48241485D01*
X199064397Y-47867233D01*
X199269471Y-47471702D01*
X199490611Y-47049175D01*
X199730829Y-46593932D01*
X199993136Y-46100255D01*
X200141516Y-45822588D01*
X201691145Y-45822588D01*
X201778019Y-45913898D01*
X201837701Y-45971488D01*
X201929752Y-46054374D01*
X202039967Y-46149951D01*
X202120094Y-46217467D01*
X202245476Y-46324850D01*
X202372736Y-46439021D01*
X202482865Y-46542712D01*
X202530350Y-46590159D01*
X202634379Y-46690422D01*
X202704686Y-46741035D01*
X202741302Y-46742012D01*
X202744258Y-46693366D01*
X202742089Y-46683037D01*
X202732318Y-46636795D01*
X202712452Y-46539885D01*
X202684155Y-46400522D01*
X202649090Y-46226924D01*
X202608919Y-46027308D01*
X202565306Y-45809889D01*
X202559257Y-45779679D01*
X202493159Y-45453568D01*
X202436684Y-45183952D01*
X202389189Y-44968167D01*
X202350037Y-44803543D01*
X202318588Y-44687414D01*
X202294200Y-44617113D01*
X202276235Y-44589972D01*
X202273762Y-44589459D01*
X202256580Y-44615384D01*
X202218928Y-44686601D01*
X202165266Y-44793772D01*
X202100057Y-44927562D01*
X202027759Y-45078635D01*
X201952836Y-45237655D01*
X201879748Y-45395286D01*
X201812955Y-45542191D01*
X201756919Y-45669036D01*
X201747995Y-45689774D01*
X201691145Y-45822588D01*
X200141516Y-45822588D01*
X200280542Y-45562424D01*
X200413603Y-45314277D01*
X200531872Y-45093920D01*
X200456110Y-44994591D01*
X200397061Y-44932443D01*
X200304105Y-44851355D01*
X200193599Y-44765238D01*
X200146853Y-44731590D01*
X199944757Y-44577187D01*
X199920829Y-44554068D01*
X199797087Y-44434510D01*
X199700289Y-44299653D01*
X199656549Y-44192777D01*
X199635742Y-44069158D01*
X199626778Y-43925970D01*
X200258628Y-43925970D01*
X200258628Y-44554068D01*
X200446276Y-44721462D01*
X200532514Y-44797780D01*
X200599488Y-44855898D01*
X200636415Y-44886501D01*
X200640263Y-44888990D01*
X200655889Y-44864690D01*
X200689268Y-44802096D01*
X200717354Y-44746513D01*
X200757548Y-44666806D01*
X200818052Y-44548450D01*
X200891377Y-44406019D01*
X200970038Y-44254091D01*
X200988733Y-44218115D01*
X201081044Y-44035843D01*
X201143670Y-43899908D01*
X201178229Y-43805405D01*
X201186334Y-43747426D01*
X201169603Y-43721066D01*
X201153337Y-43718203D01*
X201115252Y-43705204D01*
X201033963Y-43669357D01*
X200919603Y-43615392D01*
X200782311Y-43548035D01*
X200702757Y-43508037D01*
X200559273Y-43435756D01*
X200435371Y-43374210D01*
X200340578Y-43328062D01*
X200284420Y-43301978D01*
X200273415Y-43297872D01*
X200269015Y-43326431D01*
X200265137Y-43406248D01*
X200261987Y-43528535D01*
X200259771Y-43684505D01*
X200258697Y-43865369D01*
X200258628Y-43925970D01*
X199626778Y-43925970D01*
X199624975Y-43897170D01*
X199624224Y-43687644D01*
X199633462Y-43451409D01*
X199652666Y-43199293D01*
X199659010Y-43135158D01*
X199672817Y-42967835D01*
X199681023Y-42796669D01*
X199682808Y-42644754D01*
X199679484Y-42557897D01*
X199662891Y-42338504D01*
X199818148Y-42416723D01*
G37*
D13*
%TO.C,Q1*%
X167900000Y-73950000D02*
X167900000Y-77550000D01*
X167908259Y-73938125D02*
G75*
G02*
X172200000Y-74930000I1841741J-1811875D01*
G01*
X172200000Y-76530000D02*
G75*
G02*
X167922316Y-77558445I-2450000J780000D01*
G01*
%TO.C,J6*%
X192050000Y-74920000D02*
X192050000Y-77580000D01*
X199730000Y-74920000D02*
X192050000Y-74920000D01*
X199730000Y-74920000D02*
X199730000Y-77580000D01*
X199730000Y-77580000D02*
X192050000Y-77580000D01*
X201000000Y-74920000D02*
X202330000Y-74920000D01*
X202330000Y-74920000D02*
X202330000Y-76250000D01*
%TO.C,R5*%
X159015000Y-75772936D02*
X159015000Y-76227064D01*
X160485000Y-75772936D02*
X160485000Y-76227064D01*
%TO.C,R7*%
X224265000Y-54772936D02*
X224265000Y-55227064D01*
X225735000Y-54772936D02*
X225735000Y-55227064D01*
%TD*%
M02*
