%TF.GenerationSoftware,KiCad,Pcbnew,8.0.7-8.0.7-0~ubuntu24.04.1*%
%TF.CreationDate,2024-12-31T11:00:58+02:00*%
%TF.ProjectId,LRL5,4c524c35-2e6b-4696-9361-645f70636258,rev?*%
%TF.SameCoordinates,Original*%
%TF.FileFunction,Copper,L2,Bot*%
%TF.FilePolarity,Positive*%
%FSLAX46Y46*%
G04 Gerber Fmt 4.6, Leading zero omitted, Abs format (unit mm)*
G04 Created by KiCad (PCBNEW 8.0.7-8.0.7-0~ubuntu24.04.1) date 2024-12-31 11:00:58*
%MOMM*%
%LPD*%
G01*
G04 APERTURE LIST*
G04 Aperture macros list*
%AMRoundRect*
0 Rectangle with rounded corners*
0 $1 Rounding radius*
0 $2 $3 $4 $5 $6 $7 $8 $9 X,Y pos of 4 corners*
0 Add a 4 corners polygon primitive as box body*
4,1,4,$2,$3,$4,$5,$6,$7,$8,$9,$2,$3,0*
0 Add four circle primitives for the rounded corners*
1,1,$1+$1,$2,$3*
1,1,$1+$1,$4,$5*
1,1,$1+$1,$6,$7*
1,1,$1+$1,$8,$9*
0 Add four rect primitives between the rounded corners*
20,1,$1+$1,$2,$3,$4,$5,0*
20,1,$1+$1,$4,$5,$6,$7,0*
20,1,$1+$1,$6,$7,$8,$9,0*
20,1,$1+$1,$8,$9,$2,$3,0*%
G04 Aperture macros list end*
%TA.AperFunction,ComponentPad*%
%ADD10R,1.700000X1.700000*%
%TD*%
%TA.AperFunction,ComponentPad*%
%ADD11O,1.700000X1.700000*%
%TD*%
%TA.AperFunction,ComponentPad*%
%ADD12R,2.000000X2.000000*%
%TD*%
%TA.AperFunction,ComponentPad*%
%ADD13R,2.000000X1.905000*%
%TD*%
%TA.AperFunction,ComponentPad*%
%ADD14O,2.000000X1.905000*%
%TD*%
%TA.AperFunction,ComponentPad*%
%ADD15R,1.600000X1.600000*%
%TD*%
%TA.AperFunction,ComponentPad*%
%ADD16C,1.600000*%
%TD*%
%TA.AperFunction,ComponentPad*%
%ADD17R,1.800000X1.100000*%
%TD*%
%TA.AperFunction,ComponentPad*%
%ADD18RoundRect,0.275000X-0.625000X0.275000X-0.625000X-0.275000X0.625000X-0.275000X0.625000X0.275000X0*%
%TD*%
%TA.AperFunction,SMDPad,CuDef*%
%ADD19RoundRect,0.250000X-0.450000X0.350000X-0.450000X-0.350000X0.450000X-0.350000X0.450000X0.350000X0*%
%TD*%
%TA.AperFunction,SMDPad,CuDef*%
%ADD20RoundRect,0.250000X0.475000X-0.337500X0.475000X0.337500X-0.475000X0.337500X-0.475000X-0.337500X0*%
%TD*%
%TA.AperFunction,SMDPad,CuDef*%
%ADD21RoundRect,0.250000X0.450000X-0.350000X0.450000X0.350000X-0.450000X0.350000X-0.450000X-0.350000X0*%
%TD*%
%TA.AperFunction,ComponentPad*%
%ADD22O,1.800000X3.400000*%
%TD*%
%TA.AperFunction,SMDPad,CuDef*%
%ADD23RoundRect,0.250000X0.350000X0.450000X-0.350000X0.450000X-0.350000X-0.450000X0.350000X-0.450000X0*%
%TD*%
%TA.AperFunction,ViaPad*%
%ADD24C,0.600000*%
%TD*%
%TA.AperFunction,Conductor*%
%ADD25C,0.500000*%
%TD*%
G04 APERTURE END LIST*
D10*
%TO.P,J1,1,Pin_1*%
%TO.N,Net-(J1-Pin_1)*%
X130000000Y-62250000D03*
D11*
%TO.P,J1,2,Pin_2*%
%TO.N,BATT{slash}2*%
X130000000Y-64790000D03*
%TO.P,J1,3,Pin_3*%
%TO.N,GND*%
X130000000Y-67330000D03*
%TD*%
D10*
%TO.P,J5,1,Pin_1*%
%TO.N,Net-(D2-K)*%
X143250000Y-76500000D03*
D11*
%TO.P,J5,2,Pin_2*%
%TO.N,BATT{slash}2*%
X140710000Y-76500000D03*
%TO.P,J5,3,Pin_3*%
%TO.N,GND*%
X138170000Y-76500000D03*
%TD*%
D12*
%TO.P,TP1,1,1*%
%TO.N,+3.3V*%
X155000000Y-76750000D03*
%TD*%
D13*
%TO.P,U1,1,IN*%
%TO.N,+BATT*%
X150000000Y-63250000D03*
D14*
%TO.P,U1,2,GND*%
%TO.N,GND*%
X150000000Y-65790000D03*
%TO.P,U1,3,OUT*%
%TO.N,+3.3V*%
X150000000Y-68330000D03*
%TD*%
D10*
%TO.P,J3,1,Pin_1*%
%TO.N,+3.3V*%
X137185000Y-51000000D03*
D11*
%TO.P,J3,2,Pin_2*%
%TO.N,GND*%
X139725000Y-51000000D03*
%TO.P,J3,3,Pin_3*%
%TO.N,unconnected-(J3-Pin_3-Pad3)*%
X142265000Y-51000000D03*
%TO.P,J3,4,Pin_4*%
%TO.N,I2C1_SDA*%
X144805000Y-51000000D03*
%TO.P,J3,5,Pin_5*%
%TO.N,I2C1_SCL*%
X147345000Y-51000000D03*
%TO.P,J3,6,Pin_6*%
%TO.N,MODE_SW1*%
X149885000Y-51000000D03*
%TO.P,J3,7,Pin_7*%
%TO.N,MODE_B*%
X152425000Y-51000000D03*
%TO.P,J3,8,Pin_8*%
%TO.N,MODE_A*%
X154965000Y-51000000D03*
%TO.P,J3,9,Pin_9*%
%TO.N,unconnected-(J3-Pin_9-Pad9)*%
X157505000Y-51000000D03*
%TO.P,J3,10,Pin_10*%
%TO.N,unconnected-(J3-Pin_10-Pad10)*%
X160045000Y-51000000D03*
%TO.P,J3,11,Pin_11*%
%TO.N,unconnected-(J3-Pin_11-Pad11)*%
X162585000Y-51000000D03*
%TO.P,J3,12,Pin_12*%
%TO.N,unconnected-(J3-Pin_12-Pad12)*%
X165125000Y-51000000D03*
%TO.P,J3,13,Pin_13*%
%TO.N,unconnected-(J3-Pin_13-Pad13)*%
X167665000Y-51000000D03*
%TO.P,J3,14,Pin_14*%
%TO.N,unconnected-(J3-Pin_14-Pad14)*%
X170205000Y-51000000D03*
%TO.P,J3,15,Pin_15*%
%TO.N,unconnected-(J3-Pin_15-Pad15)*%
X172745000Y-51000000D03*
%TO.P,J3,16,Pin_16*%
%TO.N,FIN*%
X175285000Y-51000000D03*
%TO.P,J3,17,Pin_17*%
%TO.N,unconnected-(J3-Pin_17-Pad17)*%
X177825000Y-51000000D03*
%TO.P,J3,18,Pin_18*%
%TO.N,unconnected-(J3-Pin_18-Pad18)*%
X180365000Y-51000000D03*
%TO.P,J3,19,Pin_19*%
%TO.N,unconnected-(J3-Pin_19-Pad19)*%
X182905000Y-51000000D03*
%TO.P,J3,20,Pin_20*%
%TO.N,LCD_RESET*%
X185445000Y-51000000D03*
%TD*%
D10*
%TO.P,J4,1,Pin_1*%
%TO.N,unconnected-(J4-Pin_1-Pad1)*%
X137185000Y-36000000D03*
D11*
%TO.P,J4,2,Pin_2*%
%TO.N,unconnected-(J4-Pin_2-Pad2)*%
X139725000Y-36000000D03*
%TO.P,J4,3,Pin_3*%
%TO.N,unconnected-(J4-Pin_3-Pad3)*%
X142265000Y-36000000D03*
%TO.P,J4,4,Pin_4*%
%TO.N,unconnected-(J4-Pin_4-Pad4)*%
X144805000Y-36000000D03*
%TO.P,J4,5,Pin_5*%
%TO.N,VBAT*%
X147345000Y-36000000D03*
%TO.P,J4,6,Pin_6*%
%TO.N,unconnected-(J4-Pin_6-Pad6)*%
X149885000Y-36000000D03*
%TO.P,J4,7,Pin_7*%
%TO.N,unconnected-(J4-Pin_7-Pad7)*%
X152425000Y-36000000D03*
%TO.P,J4,8,Pin_8*%
%TO.N,unconnected-(J4-Pin_8-Pad8)*%
X154965000Y-36000000D03*
%TO.P,J4,9,Pin_9*%
%TO.N,unconnected-(J4-Pin_9-Pad9)*%
X157505000Y-36000000D03*
%TO.P,J4,10,Pin_10*%
%TO.N,unconnected-(J4-Pin_10-Pad10)*%
X160045000Y-36000000D03*
%TO.P,J4,11,Pin_11*%
%TO.N,unconnected-(J4-Pin_11-Pad11)*%
X162585000Y-36000000D03*
%TO.P,J4,12,Pin_12*%
%TO.N,unconnected-(J4-Pin_12-Pad12)*%
X165125000Y-36000000D03*
%TO.P,J4,13,Pin_13*%
%TO.N,unconnected-(J4-Pin_13-Pad13)*%
X167665000Y-36000000D03*
%TO.P,J4,14,Pin_14*%
%TO.N,unconnected-(J4-Pin_14-Pad14)*%
X170205000Y-36000000D03*
%TO.P,J4,15,Pin_15*%
%TO.N,unconnected-(J4-Pin_15-Pad15)*%
X172745000Y-36000000D03*
%TO.P,J4,16,Pin_16*%
%TO.N,FOUT*%
X175285000Y-36000000D03*
%TO.P,J4,17,Pin_17*%
%TO.N,unconnected-(J4-Pin_17-Pad17)*%
X177825000Y-36000000D03*
%TO.P,J4,18,Pin_18*%
%TO.N,unconnected-(J4-Pin_18-Pad18)*%
X180365000Y-36000000D03*
%TO.P,J4,19,Pin_19*%
%TO.N,unconnected-(J4-Pin_19-Pad19)*%
X182905000Y-36000000D03*
%TO.P,J4,20,Pin_20*%
%TO.N,unconnected-(J4-Pin_20-Pad20)*%
X185445000Y-36000000D03*
%TD*%
D15*
%TO.P,C2,1*%
%TO.N,+3.3V*%
X141500000Y-62000000D03*
D16*
%TO.P,C2,2*%
%TO.N,GND*%
X139000000Y-62000000D03*
%TD*%
D10*
%TO.P,J2,1,Pin_1*%
%TO.N,Net-(D1-A)*%
X130000000Y-52500000D03*
D11*
%TO.P,J2,2,Pin_2*%
%TO.N,Net-(J1-Pin_1)*%
X130000000Y-55040000D03*
%TD*%
D12*
%TO.P,TP2,1,1*%
%TO.N,GND*%
X149500000Y-76750000D03*
%TD*%
D17*
%TO.P,Q1,1,C*%
%TO.N,Net-(D2-K)*%
X169350000Y-74480000D03*
D18*
%TO.P,Q1,2,B*%
%TO.N,Net-(D2-A)*%
X171420000Y-75750000D03*
%TO.P,Q1,3,E*%
%TO.N,GND*%
X169350000Y-77020000D03*
%TD*%
D10*
%TO.P,J6,1,Pin_1*%
%TO.N,MODE_A*%
X201000000Y-76250000D03*
D11*
%TO.P,J6,2,Pin_2*%
%TO.N,MODE_B*%
X198460000Y-76250000D03*
%TO.P,J6,3,Pin_3*%
%TO.N,MODE_SW1*%
X195920000Y-76250000D03*
%TO.P,J6,4,Pin_4*%
%TO.N,GND*%
X193380000Y-76250000D03*
%TD*%
D19*
%TO.P,R2,1*%
%TO.N,VBAT*%
X152000000Y-40000000D03*
%TO.P,R2,2*%
%TO.N,GND*%
X152000000Y-42000000D03*
%TD*%
D20*
%TO.P,C1,1*%
%TO.N,+BATT*%
X142500000Y-42000000D03*
%TO.P,C1,2*%
%TO.N,GND*%
X142500000Y-39925000D03*
%TD*%
D21*
%TO.P,R1,1*%
%TO.N,+BATT*%
X147250000Y-42000000D03*
%TO.P,R1,2*%
%TO.N,VBAT*%
X147250000Y-40000000D03*
%TD*%
D15*
%TO.P,U2,1,~{RST}*%
%TO.N,LCD_RESET*%
X219000000Y-63900000D03*
D16*
%TO.P,U2,2,SCL*%
%TO.N,I2C1_SCL*%
X221000000Y-63900000D03*
%TO.P,U2,3,SDA*%
%TO.N,I2C1_SDA*%
X223000000Y-63900000D03*
%TO.P,U2,4,VSS*%
%TO.N,GND*%
X225000000Y-63900000D03*
%TO.P,U2,5,VDD*%
%TO.N,+3.3V*%
X227000000Y-63900000D03*
%TO.P,U2,6,VOUT*%
%TO.N,Net-(U2-VOUT)*%
X229000000Y-63900000D03*
%TO.P,U2,7,C1+*%
%TO.N,Net-(U2-C1+)*%
X231000000Y-63900000D03*
%TO.P,U2,8,C1-*%
%TO.N,Net-(U2-C1-)*%
X233000000Y-63900000D03*
D22*
%TO.P,U2,9,A*%
%TO.N,GND*%
X264550000Y-52250000D03*
%TO.P,U2,10,K*%
X264550000Y-43750000D03*
%TD*%
D23*
%TO.P,R8,1*%
%TO.N,FOUT*%
X177250000Y-56250000D03*
%TO.P,R8,2*%
%TO.N,FIN*%
X175250000Y-56250000D03*
%TD*%
D24*
%TO.N,+BATT*%
X134000000Y-42000000D03*
X137750000Y-58750000D03*
%TO.N,GND*%
X230500000Y-54000000D03*
X225000000Y-61200000D03*
%TO.N,Net-(D2-K)*%
X169750000Y-72500000D03*
%TO.N,I2C1_SDA*%
X218950000Y-58450000D03*
X225000000Y-58400000D03*
%TO.N,FOUT*%
X180750000Y-68000000D03*
X192250000Y-39750000D03*
%TD*%
D25*
%TO.N,+BATT*%
X142750000Y-58750000D02*
X137750000Y-58750000D01*
X149920000Y-63170000D02*
X147170000Y-63170000D01*
X150000000Y-63250000D02*
X149920000Y-63170000D01*
X142500000Y-42000000D02*
X147250000Y-42000000D01*
X147170000Y-63170000D02*
X142750000Y-58750000D01*
X142500000Y-42000000D02*
X134000000Y-42000000D01*
%TO.N,GND*%
X264550000Y-51357500D02*
X264550000Y-52250000D01*
X264603750Y-51303750D02*
X264550000Y-51357500D01*
%TO.N,Net-(D2-K)*%
X169750000Y-74480000D02*
X169750000Y-72500000D01*
X143250000Y-74250000D02*
X145000000Y-72500000D01*
X143250000Y-76500000D02*
X143250000Y-74250000D01*
X145000000Y-72500000D02*
X169750000Y-72500000D01*
%TO.N,I2C1_SDA*%
X218950000Y-58450000D02*
X219000000Y-58400000D01*
X219000000Y-58400000D02*
X225000000Y-58400000D01*
%TO.N,FOUT*%
X188500000Y-56250000D02*
X180750000Y-56250000D01*
X192250000Y-52500000D02*
X188500000Y-56250000D01*
X192250000Y-39750000D02*
X192250000Y-52500000D01*
X180750000Y-68000000D02*
X180750000Y-56250000D01*
X180750000Y-56250000D02*
X177250000Y-56250000D01*
%TO.N,I2C1_SCL*%
X147400000Y-50945000D02*
X147345000Y-51000000D01*
%TO.N,FIN*%
X175250000Y-56250000D02*
X175250000Y-51035000D01*
X175250000Y-51035000D02*
X175285000Y-51000000D01*
%TO.N,unconnected-(J4-Pin_14-Pad14)*%
X170250000Y-36045000D02*
X170205000Y-36000000D01*
%TO.N,VBAT*%
X147125000Y-36220000D02*
X147345000Y-36000000D01*
X147375000Y-36030000D02*
X147345000Y-36000000D01*
X147345000Y-39905000D02*
X147250000Y-40000000D01*
X147345000Y-36000000D02*
X147345000Y-39905000D01*
X147250000Y-40000000D02*
X152000000Y-40000000D01*
%TD*%
%TA.AperFunction,Conductor*%
%TO.N,GND*%
G36*
X266443039Y-30520185D02*
G01*
X266488794Y-30572989D01*
X266500000Y-30624500D01*
X266500000Y-79375500D01*
X266480315Y-79442539D01*
X266427511Y-79488294D01*
X266376000Y-79499500D01*
X247124500Y-79499500D01*
X247057461Y-79479815D01*
X247011706Y-79427011D01*
X247000500Y-79375500D01*
X247000500Y-75881902D01*
X262499500Y-75881902D01*
X262499500Y-76118097D01*
X262536446Y-76351368D01*
X262609433Y-76575996D01*
X262680731Y-76715925D01*
X262716657Y-76786433D01*
X262855483Y-76977510D01*
X263022490Y-77144517D01*
X263213567Y-77283343D01*
X263236897Y-77295230D01*
X263424003Y-77390566D01*
X263424005Y-77390566D01*
X263424008Y-77390568D01*
X263525670Y-77423600D01*
X263648631Y-77463553D01*
X263881903Y-77500500D01*
X263881908Y-77500500D01*
X264118097Y-77500500D01*
X264351368Y-77463553D01*
X264575992Y-77390568D01*
X264786433Y-77283343D01*
X264977510Y-77144517D01*
X265144517Y-76977510D01*
X265283343Y-76786433D01*
X265390568Y-76575992D01*
X265463553Y-76351368D01*
X265479608Y-76249999D01*
X265500500Y-76118097D01*
X265500500Y-75881902D01*
X265463553Y-75648631D01*
X265406351Y-75472584D01*
X265390568Y-75424008D01*
X265390566Y-75424005D01*
X265390566Y-75424003D01*
X265319783Y-75285085D01*
X265283343Y-75213567D01*
X265144517Y-75022490D01*
X264977510Y-74855483D01*
X264786433Y-74716657D01*
X264575996Y-74609433D01*
X264351368Y-74536446D01*
X264118097Y-74499500D01*
X264118092Y-74499500D01*
X263881908Y-74499500D01*
X263881903Y-74499500D01*
X263648631Y-74536446D01*
X263424003Y-74609433D01*
X263213566Y-74716657D01*
X263146737Y-74765212D01*
X263022490Y-74855483D01*
X263022488Y-74855485D01*
X263022487Y-74855485D01*
X262855485Y-75022487D01*
X262855485Y-75022488D01*
X262855483Y-75022490D01*
X262843568Y-75038890D01*
X262716657Y-75213566D01*
X262609433Y-75424003D01*
X262536446Y-75648631D01*
X262499500Y-75881902D01*
X247000500Y-75881902D01*
X247000500Y-67681902D01*
X256999500Y-67681902D01*
X256999500Y-67918097D01*
X257036446Y-68151368D01*
X257109433Y-68375996D01*
X257174451Y-68503600D01*
X257216657Y-68586433D01*
X257355483Y-68777510D01*
X257522490Y-68944517D01*
X257713567Y-69083343D01*
X257806249Y-69130567D01*
X257924003Y-69190566D01*
X257924005Y-69190566D01*
X257924008Y-69190568D01*
X258035331Y-69226739D01*
X258148631Y-69263553D01*
X258381903Y-69300500D01*
X258381908Y-69300500D01*
X258618097Y-69300500D01*
X258851368Y-69263553D01*
X259075992Y-69190568D01*
X259286433Y-69083343D01*
X259477510Y-68944517D01*
X259644517Y-68777510D01*
X259783343Y-68586433D01*
X259890568Y-68375992D01*
X259963553Y-68151368D01*
X259986327Y-68007578D01*
X260000500Y-67918097D01*
X260000500Y-67681902D01*
X259963553Y-67448631D01*
X259914376Y-67297281D01*
X259890568Y-67224008D01*
X259890566Y-67224005D01*
X259890566Y-67224003D01*
X259796571Y-67039529D01*
X259783343Y-67013567D01*
X259644517Y-66822490D01*
X259477510Y-66655483D01*
X259286433Y-66516657D01*
X259253742Y-66500000D01*
X259075996Y-66409433D01*
X258851368Y-66336446D01*
X258618097Y-66299500D01*
X258618092Y-66299500D01*
X258381908Y-66299500D01*
X258381903Y-66299500D01*
X258148631Y-66336446D01*
X257924003Y-66409433D01*
X257713566Y-66516657D01*
X257604550Y-66595862D01*
X257522490Y-66655483D01*
X257522488Y-66655485D01*
X257522487Y-66655485D01*
X257355485Y-66822487D01*
X257355485Y-66822488D01*
X257355483Y-66822490D01*
X257301464Y-66896840D01*
X257216657Y-67013566D01*
X257109433Y-67224003D01*
X257036446Y-67448631D01*
X256999500Y-67681902D01*
X247000500Y-67681902D01*
X247000500Y-66929815D01*
X247000000Y-66922185D01*
X247000000Y-66500000D01*
X246577816Y-66500000D01*
X246570187Y-66499500D01*
X246565892Y-66499500D01*
X205065892Y-66499500D01*
X204934108Y-66499500D01*
X204929813Y-66499500D01*
X204922184Y-66500000D01*
X204500000Y-66500000D01*
X204500000Y-66922185D01*
X204499500Y-66929815D01*
X204499500Y-79375500D01*
X204479815Y-79442539D01*
X204427011Y-79488294D01*
X204375500Y-79499500D01*
X128624000Y-79499500D01*
X128556961Y-79479815D01*
X128511206Y-79427011D01*
X128500000Y-79375500D01*
X128500000Y-75881902D01*
X129499500Y-75881902D01*
X129499500Y-76118097D01*
X129536446Y-76351368D01*
X129609433Y-76575996D01*
X129680731Y-76715925D01*
X129716657Y-76786433D01*
X129855483Y-76977510D01*
X130022490Y-77144517D01*
X130213567Y-77283343D01*
X130236897Y-77295230D01*
X130424003Y-77390566D01*
X130424005Y-77390566D01*
X130424008Y-77390568D01*
X130525670Y-77423600D01*
X130648631Y-77463553D01*
X130881903Y-77500500D01*
X130881908Y-77500500D01*
X131118097Y-77500500D01*
X131351368Y-77463553D01*
X131575992Y-77390568D01*
X131786433Y-77283343D01*
X131977510Y-77144517D01*
X132144517Y-76977510D01*
X132283343Y-76786433D01*
X132390568Y-76575992D01*
X132463553Y-76351368D01*
X132479608Y-76249999D01*
X136839364Y-76249999D01*
X136839364Y-76250000D01*
X137736988Y-76250000D01*
X137704075Y-76307007D01*
X137670000Y-76434174D01*
X137670000Y-76565826D01*
X137704075Y-76692993D01*
X137736988Y-76750000D01*
X136839364Y-76750000D01*
X136896567Y-76963486D01*
X136896570Y-76963492D01*
X136996399Y-77177578D01*
X137131894Y-77371082D01*
X137298917Y-77538105D01*
X137492421Y-77673600D01*
X137706507Y-77773429D01*
X137706516Y-77773433D01*
X137920000Y-77830634D01*
X137920000Y-76933012D01*
X137977007Y-76965925D01*
X138104174Y-77000000D01*
X138235826Y-77000000D01*
X138362993Y-76965925D01*
X138420000Y-76933012D01*
X138420000Y-77830633D01*
X138633483Y-77773433D01*
X138633492Y-77773429D01*
X138847578Y-77673600D01*
X139030908Y-77545230D01*
X139097114Y-77522903D01*
X139164882Y-77539913D01*
X139201299Y-77572495D01*
X139307906Y-77714907D01*
X139307922Y-77714925D01*
X139495074Y-77902077D01*
X139495092Y-77902093D01*
X139706986Y-78060714D01*
X139706994Y-78060719D01*
X139939305Y-78187571D01*
X139939309Y-78187573D01*
X139939311Y-78187574D01*
X140187322Y-78280077D01*
X140187325Y-78280077D01*
X140187326Y-78280078D01*
X140204942Y-78283910D01*
X140445974Y-78336343D01*
X140689660Y-78353772D01*
X140709999Y-78355227D01*
X140710000Y-78355227D01*
X140710001Y-78355227D01*
X140728885Y-78353876D01*
X140974026Y-78336343D01*
X141232678Y-78280077D01*
X141480689Y-78187574D01*
X141625103Y-78108716D01*
X141693374Y-78093865D01*
X141758839Y-78118281D01*
X141762891Y-78121447D01*
X141846593Y-78189698D01*
X142026951Y-78283909D01*
X142222582Y-78339886D01*
X142341963Y-78350500D01*
X144158036Y-78350499D01*
X144277418Y-78339886D01*
X144473049Y-78283909D01*
X144653407Y-78189698D01*
X144811109Y-78061109D01*
X144939698Y-77903407D01*
X145033909Y-77723049D01*
X145089886Y-77527418D01*
X145100500Y-77408037D01*
X145100499Y-75702155D01*
X148000000Y-75702155D01*
X148000000Y-76500000D01*
X149066988Y-76500000D01*
X149034075Y-76557007D01*
X149000000Y-76684174D01*
X149000000Y-76815826D01*
X149034075Y-76942993D01*
X149066988Y-77000000D01*
X148000000Y-77000000D01*
X148000000Y-77797844D01*
X148006401Y-77857372D01*
X148006403Y-77857379D01*
X148056645Y-77992086D01*
X148056649Y-77992093D01*
X148142809Y-78107187D01*
X148142812Y-78107190D01*
X148257906Y-78193350D01*
X148257913Y-78193354D01*
X148392620Y-78243596D01*
X148392627Y-78243598D01*
X148452155Y-78249999D01*
X148452172Y-78250000D01*
X149250000Y-78250000D01*
X149250000Y-77183012D01*
X149307007Y-77215925D01*
X149434174Y-77250000D01*
X149565826Y-77250000D01*
X149692993Y-77215925D01*
X149750000Y-77183012D01*
X149750000Y-78250000D01*
X150547828Y-78250000D01*
X150547844Y-78249999D01*
X150607372Y-78243598D01*
X150607379Y-78243596D01*
X150742086Y-78193354D01*
X150742093Y-78193350D01*
X150857187Y-78107190D01*
X150857190Y-78107187D01*
X150943350Y-77992093D01*
X150943354Y-77992086D01*
X150993596Y-77857379D01*
X150993598Y-77857372D01*
X150999999Y-77797844D01*
X151000000Y-77797827D01*
X151000000Y-77000000D01*
X149933012Y-77000000D01*
X149965925Y-76942993D01*
X150000000Y-76815826D01*
X150000000Y-76684174D01*
X149965925Y-76557007D01*
X149933012Y-76500000D01*
X151000000Y-76500000D01*
X151000000Y-75702172D01*
X150999999Y-75702155D01*
X150998903Y-75691966D01*
X152999500Y-75691966D01*
X152999500Y-77808028D01*
X152999500Y-77808033D01*
X152999501Y-77808036D01*
X153001510Y-77830633D01*
X153010113Y-77927415D01*
X153066089Y-78123045D01*
X153066090Y-78123048D01*
X153066091Y-78123049D01*
X153160302Y-78303407D01*
X153160304Y-78303409D01*
X153288890Y-78461109D01*
X153382803Y-78537684D01*
X153446593Y-78589698D01*
X153626951Y-78683909D01*
X153822582Y-78739886D01*
X153941963Y-78750500D01*
X156058036Y-78750499D01*
X156177418Y-78739886D01*
X156373049Y-78683909D01*
X156553407Y-78589698D01*
X156711109Y-78461109D01*
X156839698Y-78303407D01*
X156933909Y-78123049D01*
X156989886Y-77927418D01*
X157000500Y-77808037D01*
X157000500Y-77338530D01*
X167950000Y-77338530D01*
X167964648Y-77468539D01*
X168022330Y-77633386D01*
X168115246Y-77781262D01*
X168238737Y-77904753D01*
X168386613Y-77997669D01*
X168551460Y-78055351D01*
X168681469Y-78069999D01*
X168681473Y-78070000D01*
X169100000Y-78070000D01*
X169100000Y-77270000D01*
X167950000Y-77270000D01*
X167950000Y-77338530D01*
X157000500Y-77338530D01*
X157000499Y-75691964D01*
X156989886Y-75572582D01*
X156934474Y-75378926D01*
X156933910Y-75376954D01*
X156933909Y-75376953D01*
X156933909Y-75376951D01*
X156839698Y-75196593D01*
X156787684Y-75132803D01*
X156711109Y-75038890D01*
X156579083Y-74931238D01*
X156553407Y-74910302D01*
X156373049Y-74816091D01*
X156373048Y-74816090D01*
X156373045Y-74816089D01*
X156255829Y-74782550D01*
X156177418Y-74760114D01*
X156177415Y-74760113D01*
X156177413Y-74760113D01*
X156111102Y-74754217D01*
X156058037Y-74749500D01*
X156058032Y-74749500D01*
X153941971Y-74749500D01*
X153941965Y-74749500D01*
X153941964Y-74749501D01*
X153930316Y-74750536D01*
X153822584Y-74760113D01*
X153626954Y-74816089D01*
X153551539Y-74855483D01*
X153446593Y-74910302D01*
X153446591Y-74910303D01*
X153446590Y-74910304D01*
X153288890Y-75038890D01*
X153182504Y-75169364D01*
X153160302Y-75196593D01*
X153132405Y-75250000D01*
X153066089Y-75376954D01*
X153036802Y-75479311D01*
X153010161Y-75572420D01*
X153010114Y-75572583D01*
X153010113Y-75572586D01*
X152999500Y-75691966D01*
X150998903Y-75691966D01*
X150993598Y-75642627D01*
X150993596Y-75642620D01*
X150943354Y-75507913D01*
X150943350Y-75507906D01*
X150857190Y-75392812D01*
X150857187Y-75392809D01*
X150742093Y-75306649D01*
X150742086Y-75306645D01*
X150607379Y-75256403D01*
X150607372Y-75256401D01*
X150547844Y-75250000D01*
X149750000Y-75250000D01*
X149750000Y-76316988D01*
X149692993Y-76284075D01*
X149565826Y-76250000D01*
X149434174Y-76250000D01*
X149307007Y-76284075D01*
X149250000Y-76316988D01*
X149250000Y-75250000D01*
X148452155Y-75250000D01*
X148392627Y-75256401D01*
X148392620Y-75256403D01*
X148257913Y-75306645D01*
X148257906Y-75306649D01*
X148142812Y-75392809D01*
X148142809Y-75392812D01*
X148056649Y-75507906D01*
X148056645Y-75507913D01*
X148006403Y-75642620D01*
X148006401Y-75642627D01*
X148000000Y-75702155D01*
X145100499Y-75702155D01*
X145100499Y-75591964D01*
X145089886Y-75472582D01*
X145036237Y-75285086D01*
X145033910Y-75276954D01*
X145033909Y-75276953D01*
X145033909Y-75276951D01*
X144939698Y-75096593D01*
X144879273Y-75022487D01*
X144811109Y-74938890D01*
X144652232Y-74809344D01*
X144612715Y-74751723D01*
X144610623Y-74681885D01*
X144642912Y-74625561D01*
X144776560Y-74491914D01*
X145481656Y-73786819D01*
X145542979Y-73753334D01*
X145569337Y-73750500D01*
X167325500Y-73750500D01*
X167392539Y-73770185D01*
X167438294Y-73822989D01*
X167449500Y-73874500D01*
X167449500Y-75088028D01*
X167449500Y-75088033D01*
X167449501Y-75088036D01*
X167450379Y-75097913D01*
X167460113Y-75207415D01*
X167516089Y-75403045D01*
X167516090Y-75403048D01*
X167516091Y-75403049D01*
X167610302Y-75583407D01*
X167617280Y-75591965D01*
X167738890Y-75741109D01*
X167832803Y-75817684D01*
X167896593Y-75869698D01*
X168076951Y-75963909D01*
X168133444Y-75980073D01*
X168192481Y-76017440D01*
X168221945Y-76080793D01*
X168212480Y-76150019D01*
X168187014Y-76186970D01*
X168115245Y-76258739D01*
X168022330Y-76406613D01*
X167964648Y-76571460D01*
X167950000Y-76701469D01*
X167950000Y-76770000D01*
X169226000Y-76770000D01*
X169293039Y-76789685D01*
X169338794Y-76842489D01*
X169350000Y-76894000D01*
X169350000Y-77020000D01*
X169375000Y-77020000D01*
X169375000Y-77069370D01*
X169400556Y-77164745D01*
X169449925Y-77250255D01*
X169519745Y-77320075D01*
X169600000Y-77366410D01*
X169600000Y-78070000D01*
X170018527Y-78070000D01*
X170018530Y-78069999D01*
X170148539Y-78055351D01*
X170313386Y-77997669D01*
X170461262Y-77904753D01*
X170584753Y-77781262D01*
X170677669Y-77633386D01*
X170735351Y-77468539D01*
X170741878Y-77410615D01*
X170768945Y-77346201D01*
X170826540Y-77306646D01*
X170865092Y-77300499D01*
X172110512Y-77300499D01*
X172245339Y-77289889D01*
X172467974Y-77233790D01*
X172677014Y-77138839D01*
X172865741Y-77008089D01*
X173028089Y-76845741D01*
X173158839Y-76657014D01*
X173253790Y-76447974D01*
X173309889Y-76225339D01*
X173320500Y-76090513D01*
X173320500Y-75999999D01*
X192049364Y-75999999D01*
X192049364Y-76000000D01*
X192946988Y-76000000D01*
X192914075Y-76057007D01*
X192880000Y-76184174D01*
X192880000Y-76315826D01*
X192914075Y-76442993D01*
X192946988Y-76500000D01*
X192049364Y-76500000D01*
X192106567Y-76713486D01*
X192106570Y-76713492D01*
X192206399Y-76927578D01*
X192341894Y-77121082D01*
X192508917Y-77288105D01*
X192702421Y-77423600D01*
X192916507Y-77523429D01*
X192916516Y-77523433D01*
X193130000Y-77580634D01*
X193130000Y-76683012D01*
X193187007Y-76715925D01*
X193314174Y-76750000D01*
X193445826Y-76750000D01*
X193572993Y-76715925D01*
X193630000Y-76683012D01*
X193630000Y-77580633D01*
X193843483Y-77523433D01*
X193843492Y-77523429D01*
X194057578Y-77423600D01*
X194240908Y-77295230D01*
X194307114Y-77272903D01*
X194374882Y-77289913D01*
X194411299Y-77322495D01*
X194517906Y-77464907D01*
X194517922Y-77464925D01*
X194705074Y-77652077D01*
X194705092Y-77652093D01*
X194916986Y-77810714D01*
X194916994Y-77810719D01*
X195149305Y-77937571D01*
X195149309Y-77937573D01*
X195149311Y-77937574D01*
X195397322Y-78030077D01*
X195397325Y-78030077D01*
X195397326Y-78030078D01*
X195575150Y-78068761D01*
X195655974Y-78086343D01*
X195899660Y-78103772D01*
X195919999Y-78105227D01*
X195920000Y-78105227D01*
X195920001Y-78105227D01*
X195938885Y-78103876D01*
X196184026Y-78086343D01*
X196442678Y-78030077D01*
X196690689Y-77937574D01*
X196923011Y-77810716D01*
X197050973Y-77714925D01*
X197115690Y-77666479D01*
X197181154Y-77642062D01*
X197249427Y-77656914D01*
X197264310Y-77666479D01*
X197456986Y-77810714D01*
X197456994Y-77810719D01*
X197689305Y-77937571D01*
X197689309Y-77937573D01*
X197689311Y-77937574D01*
X197937322Y-78030077D01*
X197937325Y-78030077D01*
X197937326Y-78030078D01*
X198115150Y-78068761D01*
X198195974Y-78086343D01*
X198439660Y-78103772D01*
X198459999Y-78105227D01*
X198460000Y-78105227D01*
X198460001Y-78105227D01*
X198478885Y-78103876D01*
X198724026Y-78086343D01*
X198982678Y-78030077D01*
X199230689Y-77937574D01*
X199375103Y-77858716D01*
X199443374Y-77843865D01*
X199508839Y-77868281D01*
X199512891Y-77871447D01*
X199596593Y-77939698D01*
X199776951Y-78033909D01*
X199972582Y-78089886D01*
X200091963Y-78100500D01*
X201908036Y-78100499D01*
X202027418Y-78089886D01*
X202223049Y-78033909D01*
X202403407Y-77939698D01*
X202561109Y-77811109D01*
X202689698Y-77653407D01*
X202783909Y-77473049D01*
X202839886Y-77277418D01*
X202850500Y-77158037D01*
X202850499Y-75341964D01*
X202839886Y-75222582D01*
X202791083Y-75052023D01*
X202783910Y-75026954D01*
X202783909Y-75026953D01*
X202783909Y-75026951D01*
X202689698Y-74846593D01*
X202610529Y-74749500D01*
X202561109Y-74688890D01*
X202406014Y-74562428D01*
X202403407Y-74560302D01*
X202223049Y-74466091D01*
X202223048Y-74466090D01*
X202223045Y-74466089D01*
X202105829Y-74432550D01*
X202027418Y-74410114D01*
X202027415Y-74410113D01*
X202027413Y-74410113D01*
X201961102Y-74404217D01*
X201908037Y-74399500D01*
X201908032Y-74399500D01*
X200091971Y-74399500D01*
X200091965Y-74399500D01*
X200091964Y-74399501D01*
X200080316Y-74400536D01*
X199972584Y-74410113D01*
X199776954Y-74466089D01*
X199596587Y-74560305D01*
X199512889Y-74628552D01*
X199448493Y-74655661D01*
X199379663Y-74643651D01*
X199375102Y-74641282D01*
X199230694Y-74562428D01*
X199230690Y-74562426D01*
X198982673Y-74469921D01*
X198724034Y-74413658D01*
X198724027Y-74413657D01*
X198460001Y-74394773D01*
X198459999Y-74394773D01*
X198195972Y-74413657D01*
X198195965Y-74413658D01*
X197937326Y-74469921D01*
X197689309Y-74562426D01*
X197689305Y-74562428D01*
X197456994Y-74689280D01*
X197456986Y-74689285D01*
X197264310Y-74833520D01*
X197198845Y-74857937D01*
X197130573Y-74843085D01*
X197115690Y-74833520D01*
X196923013Y-74689285D01*
X196923005Y-74689280D01*
X196690694Y-74562428D01*
X196690690Y-74562426D01*
X196442673Y-74469921D01*
X196184034Y-74413658D01*
X196184027Y-74413657D01*
X195920001Y-74394773D01*
X195919999Y-74394773D01*
X195655972Y-74413657D01*
X195655965Y-74413658D01*
X195397326Y-74469921D01*
X195149309Y-74562426D01*
X195149305Y-74562428D01*
X194916994Y-74689280D01*
X194916986Y-74689285D01*
X194705092Y-74847906D01*
X194705074Y-74847922D01*
X194517922Y-75035074D01*
X194517912Y-75035086D01*
X194411298Y-75177505D01*
X194355364Y-75219376D01*
X194285672Y-75224360D01*
X194240907Y-75204769D01*
X194057578Y-75076399D01*
X193843492Y-74976570D01*
X193843486Y-74976567D01*
X193630000Y-74919364D01*
X193630000Y-75816988D01*
X193572993Y-75784075D01*
X193445826Y-75750000D01*
X193314174Y-75750000D01*
X193187007Y-75784075D01*
X193130000Y-75816988D01*
X193130000Y-74919364D01*
X193129999Y-74919364D01*
X192916513Y-74976567D01*
X192916507Y-74976570D01*
X192702422Y-75076399D01*
X192702420Y-75076400D01*
X192508926Y-75211886D01*
X192508920Y-75211891D01*
X192341891Y-75378920D01*
X192341886Y-75378926D01*
X192206400Y-75572420D01*
X192206399Y-75572422D01*
X192106570Y-75786507D01*
X192106567Y-75786513D01*
X192049364Y-75999999D01*
X173320500Y-75999999D01*
X173320499Y-75409488D01*
X173309889Y-75274661D01*
X173253790Y-75052026D01*
X173247823Y-75038890D01*
X173189416Y-74910304D01*
X173158839Y-74842986D01*
X173140205Y-74816089D01*
X173028095Y-74654267D01*
X173028092Y-74654263D01*
X173028089Y-74654259D01*
X172865741Y-74491911D01*
X172865737Y-74491908D01*
X172865732Y-74491904D01*
X172677016Y-74361162D01*
X172677010Y-74361159D01*
X172467976Y-74266210D01*
X172319550Y-74228810D01*
X172245339Y-74210111D01*
X172222868Y-74208342D01*
X172110518Y-74199500D01*
X172110513Y-74199500D01*
X171374499Y-74199500D01*
X171307460Y-74179815D01*
X171261705Y-74127011D01*
X171250499Y-74075500D01*
X171250499Y-73871971D01*
X171250499Y-73871964D01*
X171239886Y-73752582D01*
X171183909Y-73556951D01*
X171089698Y-73376593D01*
X171089695Y-73376590D01*
X171089694Y-73376587D01*
X171028398Y-73301413D01*
X171001289Y-73237017D01*
X171000500Y-73223053D01*
X171000500Y-72874142D01*
X171004724Y-72842052D01*
X171035635Y-72726692D01*
X171055468Y-72500000D01*
X171035635Y-72273308D01*
X170976739Y-72053504D01*
X170880568Y-71847266D01*
X170750047Y-71660861D01*
X170750045Y-71660858D01*
X170589141Y-71499954D01*
X170402734Y-71369432D01*
X170402732Y-71369431D01*
X170196497Y-71273261D01*
X170196488Y-71273258D01*
X169976697Y-71214366D01*
X169976693Y-71214365D01*
X169976692Y-71214365D01*
X169976691Y-71214364D01*
X169976686Y-71214364D01*
X169750002Y-71194532D01*
X169749998Y-71194532D01*
X169523313Y-71214364D01*
X169523302Y-71214366D01*
X169407950Y-71245275D01*
X169375857Y-71249500D01*
X144901578Y-71249500D01*
X144751560Y-71273261D01*
X144751559Y-71273261D01*
X144707174Y-71280290D01*
X144707173Y-71280290D01*
X144519969Y-71341117D01*
X144344591Y-71430478D01*
X144185360Y-71546165D01*
X144185355Y-71546169D01*
X142296174Y-73435351D01*
X142296172Y-73435354D01*
X142246485Y-73503741D01*
X142180476Y-73594594D01*
X142091117Y-73769971D01*
X142031975Y-73951991D01*
X142031974Y-73951994D01*
X142030291Y-73957171D01*
X142030291Y-73957173D01*
X141999500Y-74151577D01*
X141999500Y-74655304D01*
X141979815Y-74722343D01*
X141932912Y-74765212D01*
X141846595Y-74810300D01*
X141846587Y-74810305D01*
X141762889Y-74878552D01*
X141698493Y-74905661D01*
X141629663Y-74893651D01*
X141625102Y-74891282D01*
X141480694Y-74812428D01*
X141480690Y-74812426D01*
X141232673Y-74719921D01*
X140974034Y-74663658D01*
X140974027Y-74663657D01*
X140710001Y-74644773D01*
X140709999Y-74644773D01*
X140445972Y-74663657D01*
X140445965Y-74663658D01*
X140187326Y-74719921D01*
X139939309Y-74812426D01*
X139939305Y-74812428D01*
X139706994Y-74939280D01*
X139706986Y-74939285D01*
X139495092Y-75097906D01*
X139495074Y-75097922D01*
X139307922Y-75285074D01*
X139307912Y-75285086D01*
X139201298Y-75427505D01*
X139145364Y-75469376D01*
X139075672Y-75474360D01*
X139030907Y-75454769D01*
X138847578Y-75326399D01*
X138633492Y-75226570D01*
X138633486Y-75226567D01*
X138420000Y-75169364D01*
X138420000Y-76066988D01*
X138362993Y-76034075D01*
X138235826Y-76000000D01*
X138104174Y-76000000D01*
X137977007Y-76034075D01*
X137920000Y-76066988D01*
X137920000Y-75169364D01*
X137919999Y-75169364D01*
X137706513Y-75226567D01*
X137706507Y-75226570D01*
X137492422Y-75326399D01*
X137492420Y-75326400D01*
X137298926Y-75461886D01*
X137298920Y-75461891D01*
X137131891Y-75628920D01*
X137131886Y-75628926D01*
X136996400Y-75822420D01*
X136996399Y-75822422D01*
X136896570Y-76036507D01*
X136896567Y-76036513D01*
X136839364Y-76249999D01*
X132479608Y-76249999D01*
X132500500Y-76118097D01*
X132500500Y-75881902D01*
X132463553Y-75648631D01*
X132406351Y-75472584D01*
X132390568Y-75424008D01*
X132390566Y-75424005D01*
X132390566Y-75424003D01*
X132319783Y-75285085D01*
X132283343Y-75213567D01*
X132144517Y-75022490D01*
X131977510Y-74855483D01*
X131786433Y-74716657D01*
X131575996Y-74609433D01*
X131351368Y-74536446D01*
X131118097Y-74499500D01*
X131118092Y-74499500D01*
X130881908Y-74499500D01*
X130881903Y-74499500D01*
X130648631Y-74536446D01*
X130424003Y-74609433D01*
X130213566Y-74716657D01*
X130146737Y-74765212D01*
X130022490Y-74855483D01*
X130022488Y-74855485D01*
X130022487Y-74855485D01*
X129855485Y-75022487D01*
X129855485Y-75022488D01*
X129855483Y-75022490D01*
X129843568Y-75038890D01*
X129716657Y-75213566D01*
X129609433Y-75424003D01*
X129536446Y-75648631D01*
X129499500Y-75881902D01*
X128500000Y-75881902D01*
X128500000Y-67866939D01*
X128519685Y-67799900D01*
X128572489Y-67754145D01*
X128641647Y-67744201D01*
X128705203Y-67773226D01*
X128736382Y-67814534D01*
X128826399Y-68007578D01*
X128961894Y-68201082D01*
X129128917Y-68368105D01*
X129322421Y-68503600D01*
X129536507Y-68603429D01*
X129536516Y-68603433D01*
X129750000Y-68660634D01*
X129750000Y-67763012D01*
X129807007Y-67795925D01*
X129934174Y-67830000D01*
X130065826Y-67830000D01*
X130192993Y-67795925D01*
X130250000Y-67763012D01*
X130250000Y-68660633D01*
X130463483Y-68603433D01*
X130463492Y-68603429D01*
X130677578Y-68503600D01*
X130871082Y-68368105D01*
X131038105Y-68201082D01*
X131173600Y-68007578D01*
X131273429Y-67793492D01*
X131273432Y-67793486D01*
X131330636Y-67580000D01*
X130433012Y-67580000D01*
X130465925Y-67522993D01*
X130500000Y-67395826D01*
X130500000Y-67264174D01*
X130465925Y-67137007D01*
X130433012Y-67080000D01*
X131330636Y-67080000D01*
X131330635Y-67079999D01*
X131273432Y-66866513D01*
X131273429Y-66866507D01*
X131173600Y-66652422D01*
X131173599Y-66652420D01*
X131045230Y-66469090D01*
X131022903Y-66402884D01*
X131039913Y-66335117D01*
X131072489Y-66298705D01*
X131214915Y-66192087D01*
X131402087Y-66004915D01*
X131560716Y-65793011D01*
X131687574Y-65560689D01*
X131780077Y-65312678D01*
X131836343Y-65054026D01*
X131855227Y-64790000D01*
X131836343Y-64525974D01*
X131793469Y-64328884D01*
X131780078Y-64267326D01*
X131777544Y-64260533D01*
X131687574Y-64019311D01*
X131672637Y-63991957D01*
X131608717Y-63874896D01*
X131593865Y-63806624D01*
X131618282Y-63741159D01*
X131621426Y-63737134D01*
X131689698Y-63653407D01*
X131783909Y-63473049D01*
X131839886Y-63277418D01*
X131850500Y-63158037D01*
X131850499Y-61341964D01*
X131839886Y-61222582D01*
X131783909Y-61026951D01*
X131689698Y-60846593D01*
X131630286Y-60773730D01*
X131561109Y-60688890D01*
X131403409Y-60560304D01*
X131403410Y-60560304D01*
X131403407Y-60560302D01*
X131223049Y-60466091D01*
X131223048Y-60466090D01*
X131223045Y-60466089D01*
X131105829Y-60432550D01*
X131027418Y-60410114D01*
X131027415Y-60410113D01*
X131027413Y-60410113D01*
X130961102Y-60404217D01*
X130908037Y-60399500D01*
X130908032Y-60399500D01*
X129091971Y-60399500D01*
X129091965Y-60399500D01*
X129091964Y-60399501D01*
X129080316Y-60400536D01*
X128972584Y-60410113D01*
X128776952Y-60466090D01*
X128681411Y-60515997D01*
X128612876Y-60529588D01*
X128547873Y-60503969D01*
X128507040Y-60447273D01*
X128500000Y-60406088D01*
X128500000Y-58749998D01*
X136444532Y-58749998D01*
X136444532Y-58750001D01*
X136464364Y-58976686D01*
X136464366Y-58976697D01*
X136523258Y-59196488D01*
X136523261Y-59196497D01*
X136619431Y-59402732D01*
X136619432Y-59402734D01*
X136749954Y-59589141D01*
X136910858Y-59750045D01*
X136910861Y-59750047D01*
X137097266Y-59880568D01*
X137303504Y-59976739D01*
X137523308Y-60035635D01*
X137685230Y-60049801D01*
X137749998Y-60055468D01*
X137750000Y-60055468D01*
X137750002Y-60055468D01*
X137806673Y-60050509D01*
X137976692Y-60035635D01*
X138092050Y-60004724D01*
X138124143Y-60000500D01*
X140371037Y-60000500D01*
X140438076Y-60020185D01*
X140483831Y-60072989D01*
X140493775Y-60142147D01*
X140464750Y-60205703D01*
X140405972Y-60243477D01*
X140405203Y-60243700D01*
X140377480Y-60251632D01*
X140326953Y-60266090D01*
X140326951Y-60266090D01*
X140326951Y-60266091D01*
X140146593Y-60360302D01*
X140146591Y-60360303D01*
X140146590Y-60360304D01*
X139988890Y-60488890D01*
X139860304Y-60646590D01*
X139860302Y-60646593D01*
X139780693Y-60798995D01*
X139732208Y-60849301D01*
X139664220Y-60865408D01*
X139618381Y-60853964D01*
X139446326Y-60773734D01*
X139446317Y-60773730D01*
X139226610Y-60714860D01*
X139226599Y-60714858D01*
X139000002Y-60695034D01*
X138999998Y-60695034D01*
X138773400Y-60714858D01*
X138773389Y-60714860D01*
X138553682Y-60773730D01*
X138553673Y-60773734D01*
X138347516Y-60869866D01*
X138347512Y-60869868D01*
X138274526Y-60920973D01*
X138274526Y-60920974D01*
X138953553Y-61600000D01*
X138947339Y-61600000D01*
X138845606Y-61627259D01*
X138754394Y-61679920D01*
X138679920Y-61754394D01*
X138627259Y-61845606D01*
X138600000Y-61947339D01*
X138600000Y-61953552D01*
X137920974Y-61274526D01*
X137920973Y-61274526D01*
X137869868Y-61347512D01*
X137869866Y-61347516D01*
X137773734Y-61553673D01*
X137773730Y-61553682D01*
X137714860Y-61773389D01*
X137714858Y-61773400D01*
X137695034Y-61999997D01*
X137695034Y-62000002D01*
X137714858Y-62226599D01*
X137714860Y-62226610D01*
X137773730Y-62446317D01*
X137773735Y-62446331D01*
X137869863Y-62652478D01*
X137920974Y-62725472D01*
X138600000Y-62046446D01*
X138600000Y-62052661D01*
X138627259Y-62154394D01*
X138679920Y-62245606D01*
X138754394Y-62320080D01*
X138845606Y-62372741D01*
X138947339Y-62400000D01*
X138953552Y-62400000D01*
X138274526Y-63079025D01*
X138347513Y-63130132D01*
X138347521Y-63130136D01*
X138553668Y-63226264D01*
X138553682Y-63226269D01*
X138773389Y-63285139D01*
X138773400Y-63285141D01*
X138999998Y-63304966D01*
X139000002Y-63304966D01*
X139226599Y-63285141D01*
X139226610Y-63285139D01*
X139446317Y-63226269D01*
X139446326Y-63226265D01*
X139618381Y-63146036D01*
X139687459Y-63135544D01*
X139751243Y-63164064D01*
X139780693Y-63201004D01*
X139860302Y-63353407D01*
X139860304Y-63353409D01*
X139988890Y-63511109D01*
X140082803Y-63587684D01*
X140146593Y-63639698D01*
X140326951Y-63733909D01*
X140326953Y-63733909D01*
X140326954Y-63733910D01*
X140346355Y-63739461D01*
X140522582Y-63789886D01*
X140641963Y-63800500D01*
X142358036Y-63800499D01*
X142477418Y-63789886D01*
X142673049Y-63733909D01*
X142853407Y-63639698D01*
X143011109Y-63511109D01*
X143139698Y-63353407D01*
X143233909Y-63173049D01*
X143289886Y-62977418D01*
X143300500Y-62858037D01*
X143300499Y-61368334D01*
X143320184Y-61301296D01*
X143372987Y-61255541D01*
X143442146Y-61245597D01*
X143505702Y-61274622D01*
X143512180Y-61280654D01*
X146355354Y-64123828D01*
X146514595Y-64239524D01*
X146569152Y-64267322D01*
X146689969Y-64328882D01*
X146689971Y-64328882D01*
X146689974Y-64328884D01*
X146790318Y-64361487D01*
X146877173Y-64389709D01*
X147071578Y-64420500D01*
X147071583Y-64420500D01*
X147071584Y-64420500D01*
X147268417Y-64420500D01*
X147928230Y-64420500D01*
X147995269Y-64440185D01*
X148041024Y-64492989D01*
X148047446Y-64510388D01*
X148066091Y-64575549D01*
X148160302Y-64755907D01*
X148162038Y-64758036D01*
X148288890Y-64913609D01*
X148417479Y-65018458D01*
X148446593Y-65042198D01*
X148543158Y-65092639D01*
X148593463Y-65141123D01*
X148609571Y-65209111D01*
X148603676Y-65240864D01*
X148535766Y-65449867D01*
X148535766Y-65449870D01*
X148521491Y-65540000D01*
X149451518Y-65540000D01*
X149440889Y-65558409D01*
X149400000Y-65711009D01*
X149400000Y-65868991D01*
X149440889Y-66021591D01*
X149451518Y-66040000D01*
X148521491Y-66040000D01*
X148535765Y-66130128D01*
X148606417Y-66347570D01*
X148710213Y-66551280D01*
X148765281Y-66627075D01*
X148788761Y-66692881D01*
X148772935Y-66760935D01*
X148740451Y-66798334D01*
X148662041Y-66858501D01*
X148662029Y-66858512D01*
X148481011Y-67039529D01*
X148325152Y-67242647D01*
X148197151Y-67464353D01*
X148197144Y-67464368D01*
X148099177Y-67700883D01*
X148032917Y-67948172D01*
X147999500Y-68201986D01*
X147999500Y-68458013D01*
X148018646Y-68603433D01*
X148032917Y-68711829D01*
X148050517Y-68777512D01*
X148099177Y-68959116D01*
X148197144Y-69195631D01*
X148197151Y-69195646D01*
X148325152Y-69417352D01*
X148481011Y-69620470D01*
X148662029Y-69801488D01*
X148662033Y-69801491D01*
X148662035Y-69801493D01*
X148865143Y-69957344D01*
X148865147Y-69957347D01*
X149086853Y-70085348D01*
X149086868Y-70085355D01*
X149209182Y-70136018D01*
X149323382Y-70183322D01*
X149570671Y-70249583D01*
X149824494Y-70283000D01*
X149824501Y-70283000D01*
X150175499Y-70283000D01*
X150175506Y-70283000D01*
X150429329Y-70249583D01*
X150676618Y-70183322D01*
X150913143Y-70085350D01*
X151134857Y-69957344D01*
X151337965Y-69801493D01*
X151518993Y-69620465D01*
X151674844Y-69417357D01*
X151802850Y-69195643D01*
X151900822Y-68959118D01*
X151967083Y-68711829D01*
X152000500Y-68458006D01*
X152000500Y-68201994D01*
X151967083Y-67948171D01*
X151900822Y-67700882D01*
X151802850Y-67464357D01*
X151798559Y-67456924D01*
X151674847Y-67242647D01*
X151574483Y-67111851D01*
X151518993Y-67039535D01*
X151518991Y-67039533D01*
X151518988Y-67039529D01*
X151337974Y-66858515D01*
X151337965Y-66858507D01*
X151259548Y-66798335D01*
X151218346Y-66741907D01*
X151214191Y-66672161D01*
X151234718Y-66627073D01*
X151289788Y-66551277D01*
X151393582Y-66347570D01*
X151464234Y-66130128D01*
X151478509Y-66040000D01*
X150548482Y-66040000D01*
X150559111Y-66021591D01*
X150600000Y-65868991D01*
X150600000Y-65711009D01*
X150586030Y-65658872D01*
X163799500Y-65658872D01*
X163799500Y-65921127D01*
X163815151Y-66040000D01*
X163833730Y-66181116D01*
X163901602Y-66434418D01*
X163901605Y-66434428D01*
X164001953Y-66676690D01*
X164001958Y-66676700D01*
X164133075Y-66903803D01*
X164292718Y-67111851D01*
X164292726Y-67111860D01*
X164478140Y-67297274D01*
X164478148Y-67297281D01*
X164686196Y-67456924D01*
X164913299Y-67588041D01*
X164913309Y-67588046D01*
X165155571Y-67688394D01*
X165155581Y-67688398D01*
X165408884Y-67756270D01*
X165668880Y-67790500D01*
X165668887Y-67790500D01*
X165931113Y-67790500D01*
X165931120Y-67790500D01*
X166191116Y-67756270D01*
X166444419Y-67688398D01*
X166686697Y-67588043D01*
X166913803Y-67456924D01*
X167121851Y-67297282D01*
X167121855Y-67297277D01*
X167121860Y-67297274D01*
X167307274Y-67111860D01*
X167307277Y-67111855D01*
X167307282Y-67111851D01*
X167466924Y-66903803D01*
X167598043Y-66676697D01*
X167698398Y-66434419D01*
X167766270Y-66181116D01*
X167800500Y-65921120D01*
X167800500Y-65658880D01*
X167766270Y-65398884D01*
X167698398Y-65145581D01*
X167698394Y-65145571D01*
X167598046Y-64903309D01*
X167598041Y-64903299D01*
X167466924Y-64676196D01*
X167339693Y-64510388D01*
X167307282Y-64468149D01*
X167307281Y-64468148D01*
X167307274Y-64468140D01*
X167121860Y-64282726D01*
X167121851Y-64282718D01*
X166913803Y-64123075D01*
X166686700Y-63991958D01*
X166686690Y-63991953D01*
X166444428Y-63891605D01*
X166444421Y-63891603D01*
X166444419Y-63891602D01*
X166191116Y-63823730D01*
X166133339Y-63816123D01*
X165931127Y-63789500D01*
X165931120Y-63789500D01*
X165668880Y-63789500D01*
X165668872Y-63789500D01*
X165437772Y-63819926D01*
X165408884Y-63823730D01*
X165217929Y-63874896D01*
X165155581Y-63891602D01*
X165155571Y-63891605D01*
X164913309Y-63991953D01*
X164913299Y-63991958D01*
X164686196Y-64123075D01*
X164478148Y-64282718D01*
X164292718Y-64468148D01*
X164133075Y-64676196D01*
X164001958Y-64903299D01*
X164001953Y-64903309D01*
X163901605Y-65145571D01*
X163901602Y-65145581D01*
X163857109Y-65311634D01*
X163833730Y-65398885D01*
X163799500Y-65658872D01*
X150586030Y-65658872D01*
X150559111Y-65558409D01*
X150548482Y-65540000D01*
X151478509Y-65540000D01*
X151464234Y-65449871D01*
X151396323Y-65240866D01*
X151394328Y-65171025D01*
X151430408Y-65111192D01*
X151456838Y-65092640D01*
X151553407Y-65042198D01*
X151711109Y-64913609D01*
X151839698Y-64755907D01*
X151933909Y-64575549D01*
X151989886Y-64379918D01*
X152000500Y-64260537D01*
X152000499Y-62239464D01*
X151989886Y-62120082D01*
X151933909Y-61924451D01*
X151839698Y-61744093D01*
X151787372Y-61679920D01*
X151711109Y-61586390D01*
X151553409Y-61457804D01*
X151553410Y-61457804D01*
X151553407Y-61457802D01*
X151373049Y-61363591D01*
X151373048Y-61363590D01*
X151373045Y-61363589D01*
X151255829Y-61330050D01*
X151177418Y-61307614D01*
X151177415Y-61307613D01*
X151177413Y-61307613D01*
X151106356Y-61301296D01*
X151058037Y-61297000D01*
X151058032Y-61297000D01*
X148941971Y-61297000D01*
X148941965Y-61297000D01*
X148941964Y-61297001D01*
X148930316Y-61298036D01*
X148822584Y-61307613D01*
X148626954Y-61363589D01*
X148536772Y-61410696D01*
X148446593Y-61457802D01*
X148446591Y-61457803D01*
X148446590Y-61457804D01*
X148288890Y-61586390D01*
X148160302Y-61744093D01*
X148160300Y-61744095D01*
X148103459Y-61852912D01*
X148054973Y-61903219D01*
X147993551Y-61919500D01*
X147739336Y-61919500D01*
X147672297Y-61899815D01*
X147651655Y-61883181D01*
X143564648Y-57796174D01*
X143564646Y-57796172D01*
X143405405Y-57680476D01*
X143372706Y-57663815D01*
X143230030Y-57591117D01*
X143042826Y-57530290D01*
X142848422Y-57499500D01*
X142848417Y-57499500D01*
X138124143Y-57499500D01*
X138092050Y-57495275D01*
X137976697Y-57464366D01*
X137976693Y-57464365D01*
X137976692Y-57464365D01*
X137976691Y-57464364D01*
X137976686Y-57464364D01*
X137750002Y-57444532D01*
X137749998Y-57444532D01*
X137523313Y-57464364D01*
X137523302Y-57464366D01*
X137303511Y-57523258D01*
X137303502Y-57523261D01*
X137097267Y-57619431D01*
X137097265Y-57619432D01*
X136910858Y-57749954D01*
X136749954Y-57910858D01*
X136619432Y-58097265D01*
X136619431Y-58097267D01*
X136523261Y-58303502D01*
X136523258Y-58303511D01*
X136464366Y-58523302D01*
X136464364Y-58523313D01*
X136444532Y-58749998D01*
X128500000Y-58749998D01*
X128500000Y-56456365D01*
X128519685Y-56389326D01*
X128572489Y-56343571D01*
X128641647Y-56333627D01*
X128705203Y-56362652D01*
X128711681Y-56368684D01*
X128785074Y-56442077D01*
X128785092Y-56442093D01*
X128996986Y-56600714D01*
X128996994Y-56600719D01*
X129229305Y-56727571D01*
X129229309Y-56727573D01*
X129229311Y-56727574D01*
X129477322Y-56820077D01*
X129477325Y-56820077D01*
X129477326Y-56820078D01*
X129672552Y-56862546D01*
X129735974Y-56876343D01*
X129979660Y-56893772D01*
X129999999Y-56895227D01*
X130000000Y-56895227D01*
X130000001Y-56895227D01*
X130018885Y-56893876D01*
X130264026Y-56876343D01*
X130522678Y-56820077D01*
X130770689Y-56727574D01*
X131003011Y-56600716D01*
X131214915Y-56442087D01*
X131402087Y-56254915D01*
X131560716Y-56043011D01*
X131687574Y-55810689D01*
X131780077Y-55562678D01*
X131836343Y-55304026D01*
X131855227Y-55040000D01*
X131836343Y-54775974D01*
X131800472Y-54611078D01*
X131780078Y-54517326D01*
X131760499Y-54464833D01*
X131687574Y-54269311D01*
X131608717Y-54124896D01*
X131593865Y-54056624D01*
X131618282Y-53991159D01*
X131621426Y-53987134D01*
X131689698Y-53903407D01*
X131783909Y-53723049D01*
X131839886Y-53527418D01*
X131850500Y-53408037D01*
X131850499Y-51591964D01*
X131839886Y-51472582D01*
X131783909Y-51276951D01*
X131689698Y-51096593D01*
X131597952Y-50984075D01*
X131561109Y-50938890D01*
X131403409Y-50810304D01*
X131403410Y-50810304D01*
X131403407Y-50810302D01*
X131223049Y-50716091D01*
X131223048Y-50716090D01*
X131223045Y-50716089D01*
X131105829Y-50682550D01*
X131027418Y-50660114D01*
X131027415Y-50660113D01*
X131027413Y-50660113D01*
X130961102Y-50654217D01*
X130908037Y-50649500D01*
X130908032Y-50649500D01*
X129091971Y-50649500D01*
X129091965Y-50649500D01*
X129091964Y-50649501D01*
X129080316Y-50650536D01*
X128972584Y-50660113D01*
X128776952Y-50716090D01*
X128681411Y-50765997D01*
X128612876Y-50779588D01*
X128547873Y-50753969D01*
X128507040Y-50697273D01*
X128500000Y-50656088D01*
X128500000Y-50091966D01*
X135334500Y-50091966D01*
X135334500Y-51908028D01*
X135334501Y-51908034D01*
X135345113Y-52027415D01*
X135401089Y-52223045D01*
X135401090Y-52223048D01*
X135401091Y-52223049D01*
X135495302Y-52403407D01*
X135495304Y-52403409D01*
X135623890Y-52561109D01*
X135717803Y-52637684D01*
X135781593Y-52689698D01*
X135961951Y-52783909D01*
X136157582Y-52839886D01*
X136276963Y-52850500D01*
X138093036Y-52850499D01*
X138212418Y-52839886D01*
X138408049Y-52783909D01*
X138588407Y-52689698D01*
X138746109Y-52561109D01*
X138874698Y-52403407D01*
X138950177Y-52258908D01*
X138998660Y-52208605D01*
X139066648Y-52192497D01*
X139112488Y-52203941D01*
X139261507Y-52273429D01*
X139261516Y-52273433D01*
X139475000Y-52330634D01*
X139475000Y-51433012D01*
X139532007Y-51465925D01*
X139659174Y-51500000D01*
X139790826Y-51500000D01*
X139917993Y-51465925D01*
X139975000Y-51433012D01*
X139975000Y-52330633D01*
X140188483Y-52273433D01*
X140188492Y-52273429D01*
X140402578Y-52173600D01*
X140585908Y-52045230D01*
X140652114Y-52022903D01*
X140719882Y-52039913D01*
X140756299Y-52072495D01*
X140862906Y-52214907D01*
X140862922Y-52214925D01*
X141050074Y-52402077D01*
X141050092Y-52402093D01*
X141261986Y-52560714D01*
X141261994Y-52560719D01*
X141494305Y-52687571D01*
X141494309Y-52687573D01*
X141494311Y-52687574D01*
X141742322Y-52780077D01*
X141742325Y-52780077D01*
X141742326Y-52780078D01*
X141937552Y-52822546D01*
X142000974Y-52836343D01*
X142244660Y-52853772D01*
X142264999Y-52855227D01*
X142265000Y-52855227D01*
X142265001Y-52855227D01*
X142283885Y-52853876D01*
X142529026Y-52836343D01*
X142787678Y-52780077D01*
X143035689Y-52687574D01*
X143268011Y-52560716D01*
X143409261Y-52454978D01*
X143460690Y-52416479D01*
X143526154Y-52392062D01*
X143594427Y-52406914D01*
X143609310Y-52416479D01*
X143801986Y-52560714D01*
X143801994Y-52560719D01*
X144034305Y-52687571D01*
X144034309Y-52687573D01*
X144034311Y-52687574D01*
X144282322Y-52780077D01*
X144282325Y-52780077D01*
X144282326Y-52780078D01*
X144477552Y-52822546D01*
X144540974Y-52836343D01*
X144784660Y-52853772D01*
X144804999Y-52855227D01*
X144805000Y-52855227D01*
X144805001Y-52855227D01*
X144823885Y-52853876D01*
X145069026Y-52836343D01*
X145327678Y-52780077D01*
X145575689Y-52687574D01*
X145808011Y-52560716D01*
X145949261Y-52454978D01*
X146000690Y-52416479D01*
X146066154Y-52392062D01*
X146134427Y-52406914D01*
X146149310Y-52416479D01*
X146341986Y-52560714D01*
X146341994Y-52560719D01*
X146574305Y-52687571D01*
X146574309Y-52687573D01*
X146574311Y-52687574D01*
X146822322Y-52780077D01*
X146822325Y-52780077D01*
X146822326Y-52780078D01*
X147017552Y-52822546D01*
X147080974Y-52836343D01*
X147324660Y-52853772D01*
X147344999Y-52855227D01*
X147345000Y-52855227D01*
X147345001Y-52855227D01*
X147363885Y-52853876D01*
X147609026Y-52836343D01*
X147867678Y-52780077D01*
X148115689Y-52687574D01*
X148348011Y-52560716D01*
X148489261Y-52454978D01*
X148540690Y-52416479D01*
X148606154Y-52392062D01*
X148674427Y-52406914D01*
X148689310Y-52416479D01*
X148881986Y-52560714D01*
X148881994Y-52560719D01*
X149114305Y-52687571D01*
X149114309Y-52687573D01*
X149114311Y-52687574D01*
X149362322Y-52780077D01*
X149362325Y-52780077D01*
X149362326Y-52780078D01*
X149557552Y-52822546D01*
X149620974Y-52836343D01*
X149864660Y-52853772D01*
X149884999Y-52855227D01*
X149885000Y-52855227D01*
X149885001Y-52855227D01*
X149903885Y-52853876D01*
X150149026Y-52836343D01*
X150407678Y-52780077D01*
X150655689Y-52687574D01*
X150888011Y-52560716D01*
X151029261Y-52454978D01*
X151080690Y-52416479D01*
X151146154Y-52392062D01*
X151214427Y-52406914D01*
X151229310Y-52416479D01*
X151421986Y-52560714D01*
X151421994Y-52560719D01*
X151654305Y-52687571D01*
X151654309Y-52687573D01*
X151654311Y-52687574D01*
X151902322Y-52780077D01*
X151902325Y-52780077D01*
X151902326Y-52780078D01*
X152097552Y-52822546D01*
X152160974Y-52836343D01*
X152404660Y-52853772D01*
X152424999Y-52855227D01*
X152425000Y-52855227D01*
X152425001Y-52855227D01*
X152443885Y-52853876D01*
X152689026Y-52836343D01*
X152947678Y-52780077D01*
X153195689Y-52687574D01*
X153428011Y-52560716D01*
X153569261Y-52454978D01*
X153620690Y-52416479D01*
X153686154Y-52392062D01*
X153754427Y-52406914D01*
X153769310Y-52416479D01*
X153961986Y-52560714D01*
X153961994Y-52560719D01*
X154194305Y-52687571D01*
X154194309Y-52687573D01*
X154194311Y-52687574D01*
X154442322Y-52780077D01*
X154442325Y-52780077D01*
X154442326Y-52780078D01*
X154637552Y-52822546D01*
X154700974Y-52836343D01*
X154944660Y-52853772D01*
X154964999Y-52855227D01*
X154965000Y-52855227D01*
X154965001Y-52855227D01*
X154983885Y-52853876D01*
X155229026Y-52836343D01*
X155487678Y-52780077D01*
X155735689Y-52687574D01*
X155968011Y-52560716D01*
X156109261Y-52454978D01*
X156160690Y-52416479D01*
X156226154Y-52392062D01*
X156294427Y-52406914D01*
X156309310Y-52416479D01*
X156501986Y-52560714D01*
X156501994Y-52560719D01*
X156734305Y-52687571D01*
X156734309Y-52687573D01*
X156734311Y-52687574D01*
X156982322Y-52780077D01*
X156982325Y-52780077D01*
X156982326Y-52780078D01*
X157177552Y-52822546D01*
X157240974Y-52836343D01*
X157484660Y-52853772D01*
X157504999Y-52855227D01*
X157505000Y-52855227D01*
X157505001Y-52855227D01*
X157523885Y-52853876D01*
X157769026Y-52836343D01*
X158027678Y-52780077D01*
X158275689Y-52687574D01*
X158508011Y-52560716D01*
X158649261Y-52454978D01*
X158700690Y-52416479D01*
X158766154Y-52392062D01*
X158834427Y-52406914D01*
X158849310Y-52416479D01*
X159041986Y-52560714D01*
X159041994Y-52560719D01*
X159274305Y-52687571D01*
X159274309Y-52687573D01*
X159274311Y-52687574D01*
X159522322Y-52780077D01*
X159522325Y-52780077D01*
X159522326Y-52780078D01*
X159717552Y-52822546D01*
X159780974Y-52836343D01*
X160024660Y-52853772D01*
X160044999Y-52855227D01*
X160045000Y-52855227D01*
X160045001Y-52855227D01*
X160063885Y-52853876D01*
X160309026Y-52836343D01*
X160567678Y-52780077D01*
X160815689Y-52687574D01*
X161048011Y-52560716D01*
X161189261Y-52454978D01*
X161240690Y-52416479D01*
X161306154Y-52392062D01*
X161374427Y-52406914D01*
X161389310Y-52416479D01*
X161581986Y-52560714D01*
X161581994Y-52560719D01*
X161814305Y-52687571D01*
X161814309Y-52687573D01*
X161814311Y-52687574D01*
X162062322Y-52780077D01*
X162062325Y-52780077D01*
X162062326Y-52780078D01*
X162257552Y-52822546D01*
X162320974Y-52836343D01*
X162564660Y-52853772D01*
X162584999Y-52855227D01*
X162585000Y-52855227D01*
X162585001Y-52855227D01*
X162603885Y-52853876D01*
X162849026Y-52836343D01*
X163107678Y-52780077D01*
X163355689Y-52687574D01*
X163588011Y-52560716D01*
X163729261Y-52454978D01*
X163780690Y-52416479D01*
X163846154Y-52392062D01*
X163914427Y-52406914D01*
X163929310Y-52416479D01*
X164121986Y-52560714D01*
X164121994Y-52560719D01*
X164354305Y-52687571D01*
X164354309Y-52687573D01*
X164354311Y-52687574D01*
X164602322Y-52780077D01*
X164602325Y-52780077D01*
X164602326Y-52780078D01*
X164797552Y-52822546D01*
X164860974Y-52836343D01*
X165104660Y-52853772D01*
X165124999Y-52855227D01*
X165125000Y-52855227D01*
X165125001Y-52855227D01*
X165143885Y-52853876D01*
X165389026Y-52836343D01*
X165647678Y-52780077D01*
X165895689Y-52687574D01*
X166128011Y-52560716D01*
X166269261Y-52454978D01*
X166320690Y-52416479D01*
X166386154Y-52392062D01*
X166454427Y-52406914D01*
X166469310Y-52416479D01*
X166661986Y-52560714D01*
X166661994Y-52560719D01*
X166894305Y-52687571D01*
X166894309Y-52687573D01*
X166894311Y-52687574D01*
X167142322Y-52780077D01*
X167142325Y-52780077D01*
X167142326Y-52780078D01*
X167337552Y-52822546D01*
X167400974Y-52836343D01*
X167644660Y-52853772D01*
X167664999Y-52855227D01*
X167665000Y-52855227D01*
X167665001Y-52855227D01*
X167683885Y-52853876D01*
X167929026Y-52836343D01*
X168187678Y-52780077D01*
X168435689Y-52687574D01*
X168668011Y-52560716D01*
X168809261Y-52454978D01*
X168860690Y-52416479D01*
X168926154Y-52392062D01*
X168994427Y-52406914D01*
X169009310Y-52416479D01*
X169201986Y-52560714D01*
X169201994Y-52560719D01*
X169434305Y-52687571D01*
X169434309Y-52687573D01*
X169434311Y-52687574D01*
X169682322Y-52780077D01*
X169682325Y-52780077D01*
X169682326Y-52780078D01*
X169877552Y-52822546D01*
X169940974Y-52836343D01*
X170184660Y-52853772D01*
X170204999Y-52855227D01*
X170205000Y-52855227D01*
X170205001Y-52855227D01*
X170223885Y-52853876D01*
X170469026Y-52836343D01*
X170727678Y-52780077D01*
X170975689Y-52687574D01*
X171208011Y-52560716D01*
X171349261Y-52454978D01*
X171400690Y-52416479D01*
X171466154Y-52392062D01*
X171534427Y-52406914D01*
X171549310Y-52416479D01*
X171741986Y-52560714D01*
X171741994Y-52560719D01*
X171974305Y-52687571D01*
X171974309Y-52687573D01*
X171974311Y-52687574D01*
X172222322Y-52780077D01*
X172222325Y-52780077D01*
X172222326Y-52780078D01*
X172417552Y-52822546D01*
X172480974Y-52836343D01*
X172724660Y-52853772D01*
X172744999Y-52855227D01*
X172745000Y-52855227D01*
X172745001Y-52855227D01*
X172763885Y-52853876D01*
X173009026Y-52836343D01*
X173267678Y-52780077D01*
X173515689Y-52687574D01*
X173748011Y-52560716D01*
X173801190Y-52520907D01*
X173866654Y-52496490D01*
X173934927Y-52511342D01*
X173984332Y-52560747D01*
X173999500Y-52620174D01*
X173999500Y-54880665D01*
X173979815Y-54947704D01*
X173963181Y-54968346D01*
X173936184Y-54995342D01*
X173936174Y-54995354D01*
X173807997Y-55180367D01*
X173807991Y-55180377D01*
X173714903Y-55385318D01*
X173714902Y-55385321D01*
X173659905Y-55603579D01*
X173659904Y-55603586D01*
X173649500Y-55735777D01*
X173649500Y-56764208D01*
X173649501Y-56764223D01*
X173659904Y-56896413D01*
X173659905Y-56896420D01*
X173714902Y-57114678D01*
X173714903Y-57114681D01*
X173807991Y-57319622D01*
X173807997Y-57319632D01*
X173936174Y-57504645D01*
X173936178Y-57504650D01*
X173936181Y-57504654D01*
X174095346Y-57663819D01*
X174095350Y-57663822D01*
X174095354Y-57663825D01*
X174215793Y-57747265D01*
X174280374Y-57792007D01*
X174485317Y-57885096D01*
X174485321Y-57885097D01*
X174703579Y-57940094D01*
X174703581Y-57940094D01*
X174703588Y-57940096D01*
X174835783Y-57950500D01*
X175664216Y-57950499D01*
X175796412Y-57940096D01*
X176014683Y-57885096D01*
X176198720Y-57801502D01*
X176267897Y-57791700D01*
X176301278Y-57801502D01*
X176485317Y-57885096D01*
X176485321Y-57885097D01*
X176703579Y-57940094D01*
X176703581Y-57940094D01*
X176703588Y-57940096D01*
X176835783Y-57950500D01*
X177664216Y-57950499D01*
X177796412Y-57940096D01*
X178014683Y-57885096D01*
X178219626Y-57792007D01*
X178404654Y-57663819D01*
X178531655Y-57536818D01*
X178592978Y-57503334D01*
X178619336Y-57500500D01*
X179375500Y-57500500D01*
X179442539Y-57520185D01*
X179488294Y-57572989D01*
X179499500Y-57624500D01*
X179499500Y-67625856D01*
X179495275Y-67657949D01*
X179464366Y-67773302D01*
X179464364Y-67773313D01*
X179444532Y-67999998D01*
X179444532Y-68000001D01*
X179464364Y-68226686D01*
X179464366Y-68226697D01*
X179523258Y-68446488D01*
X179523261Y-68446497D01*
X179619431Y-68652732D01*
X179619432Y-68652734D01*
X179749954Y-68839141D01*
X179910858Y-69000045D01*
X179910861Y-69000047D01*
X180097266Y-69130568D01*
X180303504Y-69226739D01*
X180523308Y-69285635D01*
X180685230Y-69299801D01*
X180749998Y-69305468D01*
X180750000Y-69305468D01*
X180750002Y-69305468D01*
X180806784Y-69300500D01*
X180976692Y-69285635D01*
X181196496Y-69226739D01*
X181402734Y-69130568D01*
X181589139Y-69000047D01*
X181750047Y-68839139D01*
X181880568Y-68652734D01*
X181976739Y-68446496D01*
X182035635Y-68226692D01*
X182055468Y-68000000D01*
X182035635Y-67773308D01*
X182011143Y-67681902D01*
X191999500Y-67681902D01*
X191999500Y-67918097D01*
X192036446Y-68151368D01*
X192109433Y-68375996D01*
X192174451Y-68503600D01*
X192216657Y-68586433D01*
X192355483Y-68777510D01*
X192522490Y-68944517D01*
X192713567Y-69083343D01*
X192806249Y-69130567D01*
X192924003Y-69190566D01*
X192924005Y-69190566D01*
X192924008Y-69190568D01*
X193035331Y-69226739D01*
X193148631Y-69263553D01*
X193381903Y-69300500D01*
X193381908Y-69300500D01*
X193618097Y-69300500D01*
X193851368Y-69263553D01*
X194075992Y-69190568D01*
X194286433Y-69083343D01*
X194477510Y-68944517D01*
X194644517Y-68777510D01*
X194783343Y-68586433D01*
X194890568Y-68375992D01*
X194963553Y-68151368D01*
X194986327Y-68007578D01*
X195000500Y-67918097D01*
X195000500Y-67681902D01*
X194963553Y-67448631D01*
X194914376Y-67297281D01*
X194890568Y-67224008D01*
X194890566Y-67224005D01*
X194890566Y-67224003D01*
X194796571Y-67039529D01*
X194783343Y-67013567D01*
X194644517Y-66822490D01*
X194477510Y-66655483D01*
X194286433Y-66516657D01*
X194253742Y-66500000D01*
X194075996Y-66409433D01*
X193851368Y-66336446D01*
X193618097Y-66299500D01*
X193618092Y-66299500D01*
X193381908Y-66299500D01*
X193381903Y-66299500D01*
X193148631Y-66336446D01*
X192924003Y-66409433D01*
X192713566Y-66516657D01*
X192604550Y-66595862D01*
X192522490Y-66655483D01*
X192522488Y-66655485D01*
X192522487Y-66655485D01*
X192355485Y-66822487D01*
X192355485Y-66822488D01*
X192355483Y-66822490D01*
X192301464Y-66896840D01*
X192216657Y-67013566D01*
X192109433Y-67224003D01*
X192036446Y-67448631D01*
X191999500Y-67681902D01*
X182011143Y-67681902D01*
X182004725Y-67657949D01*
X182000500Y-67625856D01*
X182000500Y-63041966D01*
X217199500Y-63041966D01*
X217199500Y-64758028D01*
X217199501Y-64758034D01*
X217210113Y-64877415D01*
X217266089Y-65073045D01*
X217266090Y-65073048D01*
X217266091Y-65073049D01*
X217360302Y-65253407D01*
X217360304Y-65253409D01*
X217488890Y-65411109D01*
X217582803Y-65487684D01*
X217646593Y-65539698D01*
X217826951Y-65633909D01*
X218022582Y-65689886D01*
X218141963Y-65700500D01*
X219858036Y-65700499D01*
X219977418Y-65689886D01*
X220173049Y-65633909D01*
X220253949Y-65591649D01*
X220322482Y-65578058D01*
X220347908Y-65583066D01*
X220598228Y-65660280D01*
X220598229Y-65660280D01*
X220598232Y-65660281D01*
X220865063Y-65700499D01*
X220865068Y-65700499D01*
X220865071Y-65700500D01*
X220865072Y-65700500D01*
X221134928Y-65700500D01*
X221134929Y-65700500D01*
X221134936Y-65700499D01*
X221401767Y-65660281D01*
X221401768Y-65660280D01*
X221401772Y-65660280D01*
X221659641Y-65580738D01*
X221902775Y-65463651D01*
X221930147Y-65444988D01*
X221996625Y-65423487D01*
X222064175Y-65441339D01*
X222069851Y-65444987D01*
X222097226Y-65463651D01*
X222340359Y-65580738D01*
X222598228Y-65660280D01*
X222598229Y-65660280D01*
X222598232Y-65660281D01*
X222865063Y-65700499D01*
X222865068Y-65700499D01*
X222865071Y-65700500D01*
X222865072Y-65700500D01*
X223134928Y-65700500D01*
X223134929Y-65700500D01*
X223134936Y-65700499D01*
X223401767Y-65660281D01*
X223401768Y-65660280D01*
X223401772Y-65660280D01*
X223659641Y-65580738D01*
X223902775Y-65463651D01*
X224125741Y-65311635D01*
X224323561Y-65128085D01*
X224326116Y-65124879D01*
X224383298Y-65084734D01*
X224453109Y-65081876D01*
X224475475Y-65089801D01*
X224553673Y-65126266D01*
X224553682Y-65126269D01*
X224773389Y-65185139D01*
X224773400Y-65185141D01*
X224999998Y-65204966D01*
X225000002Y-65204966D01*
X225226599Y-65185141D01*
X225226610Y-65185139D01*
X225446317Y-65126269D01*
X225446331Y-65126264D01*
X225524522Y-65089802D01*
X225593599Y-65079309D01*
X225657383Y-65107828D01*
X225673875Y-65124870D01*
X225676439Y-65128085D01*
X225874259Y-65311635D01*
X226097226Y-65463651D01*
X226340359Y-65580738D01*
X226598228Y-65660280D01*
X226598229Y-65660280D01*
X226598232Y-65660281D01*
X226865063Y-65700499D01*
X226865068Y-65700499D01*
X226865071Y-65700500D01*
X226865072Y-65700500D01*
X227134928Y-65700500D01*
X227134929Y-65700500D01*
X227134936Y-65700499D01*
X227401767Y-65660281D01*
X227401768Y-65660280D01*
X227401772Y-65660280D01*
X227659641Y-65580738D01*
X227902775Y-65463651D01*
X227930147Y-65444988D01*
X227996625Y-65423487D01*
X228064175Y-65441339D01*
X228069851Y-65444987D01*
X228097226Y-65463651D01*
X228340359Y-65580738D01*
X228598228Y-65660280D01*
X228598229Y-65660280D01*
X228598232Y-65660281D01*
X228865063Y-65700499D01*
X228865068Y-65700499D01*
X228865071Y-65700500D01*
X228865072Y-65700500D01*
X229134928Y-65700500D01*
X229134929Y-65700500D01*
X229134936Y-65700499D01*
X229401767Y-65660281D01*
X229401768Y-65660280D01*
X229401772Y-65660280D01*
X229659641Y-65580738D01*
X229902775Y-65463651D01*
X229930147Y-65444988D01*
X229996625Y-65423487D01*
X230064175Y-65441339D01*
X230069851Y-65444987D01*
X230097226Y-65463651D01*
X230340359Y-65580738D01*
X230598228Y-65660280D01*
X230598229Y-65660280D01*
X230598232Y-65660281D01*
X230865063Y-65700499D01*
X230865068Y-65700499D01*
X230865071Y-65700500D01*
X230865072Y-65700500D01*
X231134928Y-65700500D01*
X231134929Y-65700500D01*
X231134936Y-65700499D01*
X231401767Y-65660281D01*
X231401768Y-65660280D01*
X231401772Y-65660280D01*
X231659641Y-65580738D01*
X231902775Y-65463651D01*
X231930147Y-65444988D01*
X231996625Y-65423487D01*
X232064175Y-65441339D01*
X232069851Y-65444987D01*
X232097226Y-65463651D01*
X232340359Y-65580738D01*
X232598228Y-65660280D01*
X232598229Y-65660280D01*
X232598232Y-65660281D01*
X232865063Y-65700499D01*
X232865068Y-65700499D01*
X232865071Y-65700500D01*
X232865072Y-65700500D01*
X233134928Y-65700500D01*
X233134929Y-65700500D01*
X233134936Y-65700499D01*
X233401767Y-65660281D01*
X233401768Y-65660280D01*
X233401772Y-65660280D01*
X233659641Y-65580738D01*
X233902775Y-65463651D01*
X234125741Y-65311635D01*
X234304716Y-65145571D01*
X234323557Y-65128089D01*
X234323557Y-65128087D01*
X234323561Y-65128085D01*
X234491815Y-64917102D01*
X234626743Y-64683398D01*
X234725334Y-64432195D01*
X234785383Y-64169103D01*
X234805549Y-63900000D01*
X234799833Y-63823730D01*
X234787070Y-63653406D01*
X234785383Y-63630897D01*
X234725334Y-63367805D01*
X234626743Y-63116602D01*
X234491815Y-62882898D01*
X234323561Y-62671915D01*
X234323560Y-62671914D01*
X234323557Y-62671910D01*
X234125741Y-62488365D01*
X233902775Y-62336349D01*
X233902769Y-62336346D01*
X233902768Y-62336345D01*
X233902767Y-62336344D01*
X233659643Y-62219263D01*
X233659645Y-62219263D01*
X233401773Y-62139720D01*
X233401767Y-62139718D01*
X233134936Y-62099500D01*
X233134929Y-62099500D01*
X232865071Y-62099500D01*
X232865063Y-62099500D01*
X232598232Y-62139718D01*
X232598226Y-62139720D01*
X232340358Y-62219262D01*
X232097229Y-62336347D01*
X232069849Y-62355014D01*
X232003369Y-62376512D01*
X231935819Y-62358656D01*
X231930150Y-62355012D01*
X231902782Y-62336353D01*
X231902767Y-62336344D01*
X231659643Y-62219263D01*
X231659645Y-62219263D01*
X231401773Y-62139720D01*
X231401767Y-62139718D01*
X231134936Y-62099500D01*
X231134929Y-62099500D01*
X230865071Y-62099500D01*
X230865063Y-62099500D01*
X230598232Y-62139718D01*
X230598226Y-62139720D01*
X230340358Y-62219262D01*
X230097229Y-62336347D01*
X230069849Y-62355014D01*
X230003369Y-62376512D01*
X229935819Y-62358656D01*
X229930150Y-62355012D01*
X229902782Y-62336353D01*
X229902767Y-62336344D01*
X229659643Y-62219263D01*
X229659645Y-62219263D01*
X229401773Y-62139720D01*
X229401767Y-62139718D01*
X229134936Y-62099500D01*
X229134929Y-62099500D01*
X228865071Y-62099500D01*
X228865063Y-62099500D01*
X228598232Y-62139718D01*
X228598226Y-62139720D01*
X228340358Y-62219262D01*
X228097229Y-62336347D01*
X228069849Y-62355014D01*
X228003369Y-62376512D01*
X227935819Y-62358656D01*
X227930150Y-62355012D01*
X227902782Y-62336353D01*
X227902767Y-62336344D01*
X227659643Y-62219263D01*
X227659645Y-62219263D01*
X227401773Y-62139720D01*
X227401767Y-62139718D01*
X227134936Y-62099500D01*
X227134929Y-62099500D01*
X226865071Y-62099500D01*
X226865063Y-62099500D01*
X226598232Y-62139718D01*
X226598226Y-62139720D01*
X226340358Y-62219262D01*
X226097230Y-62336346D01*
X225874258Y-62488365D01*
X225676435Y-62671918D01*
X225673865Y-62675141D01*
X225616671Y-62715273D01*
X225546859Y-62718114D01*
X225524524Y-62710197D01*
X225446331Y-62673735D01*
X225446317Y-62673730D01*
X225226610Y-62614860D01*
X225226599Y-62614858D01*
X225000002Y-62595034D01*
X224999998Y-62595034D01*
X224773400Y-62614858D01*
X224773389Y-62614860D01*
X224553682Y-62673730D01*
X224553672Y-62673734D01*
X224475473Y-62710198D01*
X224406395Y-62720689D01*
X224342612Y-62692168D01*
X224326125Y-62675130D01*
X224323559Y-62671912D01*
X224125741Y-62488365D01*
X223902775Y-62336349D01*
X223902769Y-62336346D01*
X223902768Y-62336345D01*
X223902767Y-62336344D01*
X223659643Y-62219263D01*
X223659645Y-62219263D01*
X223401773Y-62139720D01*
X223401767Y-62139718D01*
X223134936Y-62099500D01*
X223134929Y-62099500D01*
X222865071Y-62099500D01*
X222865063Y-62099500D01*
X222598232Y-62139718D01*
X222598226Y-62139720D01*
X222340358Y-62219262D01*
X222097229Y-62336347D01*
X222069849Y-62355014D01*
X222003369Y-62376512D01*
X221935819Y-62358656D01*
X221930150Y-62355012D01*
X221902782Y-62336353D01*
X221902767Y-62336344D01*
X221659643Y-62219263D01*
X221659645Y-62219263D01*
X221401773Y-62139720D01*
X221401767Y-62139718D01*
X221134936Y-62099500D01*
X221134929Y-62099500D01*
X220865071Y-62099500D01*
X220865063Y-62099500D01*
X220598232Y-62139718D01*
X220598226Y-62139720D01*
X220347911Y-62216932D01*
X220278047Y-62217882D01*
X220253950Y-62208350D01*
X220173047Y-62166090D01*
X220080879Y-62139718D01*
X219977418Y-62110114D01*
X219977415Y-62110113D01*
X219977413Y-62110113D01*
X219911102Y-62104217D01*
X219858037Y-62099500D01*
X219858032Y-62099500D01*
X218141971Y-62099500D01*
X218141965Y-62099500D01*
X218141964Y-62099501D01*
X218130316Y-62100536D01*
X218022584Y-62110113D01*
X217826954Y-62166089D01*
X217746050Y-62208350D01*
X217646593Y-62260302D01*
X217646591Y-62260303D01*
X217646590Y-62260304D01*
X217488890Y-62388890D01*
X217360304Y-62546590D01*
X217360302Y-62546593D01*
X217324642Y-62614860D01*
X217266089Y-62726954D01*
X217210114Y-62922583D01*
X217210113Y-62922586D01*
X217199500Y-63041966D01*
X182000500Y-63041966D01*
X182000500Y-58449998D01*
X217644532Y-58449998D01*
X217644532Y-58450001D01*
X217664364Y-58676686D01*
X217664366Y-58676697D01*
X217723258Y-58896488D01*
X217723261Y-58896497D01*
X217819431Y-59102732D01*
X217819432Y-59102734D01*
X217949954Y-59289141D01*
X218110858Y-59450045D01*
X218110861Y-59450047D01*
X218297266Y-59580568D01*
X218503504Y-59676739D01*
X218723308Y-59735635D01*
X218885230Y-59749801D01*
X218949998Y-59755468D01*
X218950000Y-59755468D01*
X218950002Y-59755468D01*
X219011985Y-59750045D01*
X219176692Y-59735635D01*
X219396496Y-59676739D01*
X219427850Y-59662117D01*
X219480255Y-59650500D01*
X224625857Y-59650500D01*
X224657949Y-59654724D01*
X224773308Y-59685635D01*
X224935230Y-59699801D01*
X224999998Y-59705468D01*
X225000000Y-59705468D01*
X225000002Y-59705468D01*
X225056673Y-59700509D01*
X225226692Y-59685635D01*
X225446496Y-59626739D01*
X225652734Y-59530568D01*
X225839139Y-59400047D01*
X226000047Y-59239139D01*
X226130568Y-59052734D01*
X226226739Y-58846496D01*
X226285635Y-58626692D01*
X226305468Y-58400000D01*
X226285635Y-58173308D01*
X226226739Y-57953504D01*
X226130568Y-57747266D01*
X226000047Y-57560861D01*
X226000045Y-57560858D01*
X225839141Y-57399954D01*
X225652734Y-57269432D01*
X225652732Y-57269431D01*
X225446497Y-57173261D01*
X225446488Y-57173258D01*
X225226697Y-57114366D01*
X225226693Y-57114365D01*
X225226692Y-57114365D01*
X225226691Y-57114364D01*
X225226686Y-57114364D01*
X225000002Y-57094532D01*
X224999998Y-57094532D01*
X224773313Y-57114364D01*
X224773302Y-57114366D01*
X224657950Y-57145275D01*
X224625857Y-57149500D01*
X219012196Y-57149500D01*
X219001390Y-57149028D01*
X218974912Y-57146711D01*
X218950001Y-57144532D01*
X218949998Y-57144532D01*
X218723313Y-57164364D01*
X218723302Y-57164366D01*
X218503511Y-57223258D01*
X218503502Y-57223261D01*
X218297267Y-57319431D01*
X218297265Y-57319432D01*
X218110858Y-57449954D01*
X217949954Y-57610858D01*
X217819432Y-57797265D01*
X217819431Y-57797267D01*
X217723261Y-58003502D01*
X217723258Y-58003511D01*
X217664366Y-58223302D01*
X217664364Y-58223313D01*
X217644532Y-58449998D01*
X182000500Y-58449998D01*
X182000500Y-57624500D01*
X182020185Y-57557461D01*
X182072989Y-57511706D01*
X182124500Y-57500500D01*
X188598422Y-57500500D01*
X188792826Y-57469709D01*
X188809276Y-57464364D01*
X188980026Y-57408884D01*
X189155405Y-57319524D01*
X189314646Y-57203828D01*
X193203828Y-53314646D01*
X193319524Y-53155405D01*
X193408884Y-52980026D01*
X193469709Y-52792826D01*
X193486379Y-52687574D01*
X193500500Y-52598421D01*
X193500500Y-51339818D01*
X263150000Y-51339818D01*
X263150000Y-52000000D01*
X264050000Y-52000000D01*
X264050000Y-52500000D01*
X263150000Y-52500000D01*
X263150000Y-53160181D01*
X263184473Y-53377835D01*
X263252567Y-53587410D01*
X263352613Y-53783760D01*
X263482142Y-53962041D01*
X263637958Y-54117857D01*
X263816239Y-54247386D01*
X264012589Y-54347432D01*
X264222163Y-54415526D01*
X264299999Y-54427854D01*
X264300000Y-54427854D01*
X264300000Y-53483012D01*
X264357007Y-53515925D01*
X264484174Y-53550000D01*
X264615826Y-53550000D01*
X264742993Y-53515925D01*
X264800000Y-53483012D01*
X264800000Y-54427854D01*
X264877834Y-54415526D01*
X264877837Y-54415526D01*
X265087410Y-54347432D01*
X265283760Y-54247386D01*
X265462041Y-54117857D01*
X265617857Y-53962041D01*
X265747386Y-53783760D01*
X265847432Y-53587410D01*
X265915526Y-53377835D01*
X265950000Y-53160181D01*
X265950000Y-52500000D01*
X265050000Y-52500000D01*
X265050000Y-52000000D01*
X265950000Y-52000000D01*
X265950000Y-51339818D01*
X265915526Y-51122164D01*
X265847432Y-50912589D01*
X265747386Y-50716239D01*
X265617857Y-50537958D01*
X265462041Y-50382142D01*
X265283760Y-50252613D01*
X265087410Y-50152567D01*
X264877836Y-50084473D01*
X264800000Y-50072144D01*
X264800000Y-51016988D01*
X264742993Y-50984075D01*
X264615826Y-50950000D01*
X264484174Y-50950000D01*
X264357007Y-50984075D01*
X264300000Y-51016988D01*
X264300000Y-50072144D01*
X264222164Y-50084473D01*
X264222161Y-50084473D01*
X264012589Y-50152567D01*
X263816239Y-50252613D01*
X263637958Y-50382142D01*
X263482142Y-50537958D01*
X263352613Y-50716239D01*
X263252567Y-50912589D01*
X263184473Y-51122164D01*
X263150000Y-51339818D01*
X193500500Y-51339818D01*
X193500500Y-42839818D01*
X263150000Y-42839818D01*
X263150000Y-43500000D01*
X264050000Y-43500000D01*
X264050000Y-44000000D01*
X263150000Y-44000000D01*
X263150000Y-44660181D01*
X263184473Y-44877835D01*
X263252567Y-45087410D01*
X263352613Y-45283760D01*
X263482142Y-45462041D01*
X263637958Y-45617857D01*
X263816239Y-45747386D01*
X264012589Y-45847432D01*
X264222163Y-45915526D01*
X264299999Y-45927854D01*
X264300000Y-45927854D01*
X264300000Y-44983012D01*
X264357007Y-45015925D01*
X264484174Y-45050000D01*
X264615826Y-45050000D01*
X264742993Y-45015925D01*
X264800000Y-44983012D01*
X264800000Y-45927854D01*
X264877834Y-45915526D01*
X264877837Y-45915526D01*
X265087410Y-45847432D01*
X265283760Y-45747386D01*
X265462041Y-45617857D01*
X265617857Y-45462041D01*
X265747386Y-45283760D01*
X265847432Y-45087410D01*
X265915526Y-44877835D01*
X265950000Y-44660181D01*
X265950000Y-44000000D01*
X265050000Y-44000000D01*
X265050000Y-43500000D01*
X265950000Y-43500000D01*
X265950000Y-42839818D01*
X265915526Y-42622164D01*
X265847432Y-42412589D01*
X265747386Y-42216239D01*
X265617857Y-42037958D01*
X265462041Y-41882142D01*
X265283760Y-41752613D01*
X265087410Y-41652567D01*
X264877836Y-41584473D01*
X264800000Y-41572144D01*
X264800000Y-42516988D01*
X264742993Y-42484075D01*
X264615826Y-42450000D01*
X264484174Y-42450000D01*
X264357007Y-42484075D01*
X264300000Y-42516988D01*
X264300000Y-41572144D01*
X264222164Y-41584473D01*
X264222161Y-41584473D01*
X264012589Y-41652567D01*
X263816239Y-41752613D01*
X263637958Y-41882142D01*
X263482142Y-42037958D01*
X263352613Y-42216239D01*
X263252567Y-42412589D01*
X263184473Y-42622164D01*
X263150000Y-42839818D01*
X193500500Y-42839818D01*
X193500500Y-40124142D01*
X193504724Y-40092052D01*
X193535635Y-39976692D01*
X193555468Y-39750000D01*
X193535635Y-39523308D01*
X193476739Y-39303504D01*
X193380568Y-39097266D01*
X193250047Y-38910861D01*
X193250045Y-38910858D01*
X193089141Y-38749954D01*
X192902734Y-38619432D01*
X192902732Y-38619431D01*
X192696497Y-38523261D01*
X192696488Y-38523258D01*
X192476697Y-38464366D01*
X192476693Y-38464365D01*
X192476692Y-38464365D01*
X192476691Y-38464364D01*
X192476686Y-38464364D01*
X192250002Y-38444532D01*
X192249998Y-38444532D01*
X192023313Y-38464364D01*
X192023302Y-38464366D01*
X191803511Y-38523258D01*
X191803502Y-38523261D01*
X191597267Y-38619431D01*
X191597265Y-38619432D01*
X191410858Y-38749954D01*
X191249954Y-38910858D01*
X191119432Y-39097265D01*
X191119431Y-39097267D01*
X191023261Y-39303502D01*
X191023258Y-39303511D01*
X190964366Y-39523302D01*
X190964364Y-39523313D01*
X190944532Y-39749998D01*
X190944532Y-39750000D01*
X190964365Y-39976692D01*
X190995275Y-40092052D01*
X190999500Y-40124142D01*
X190999500Y-51930664D01*
X190979815Y-51997703D01*
X190963181Y-52018345D01*
X188018345Y-54963181D01*
X187957022Y-54996666D01*
X187930664Y-54999500D01*
X178619336Y-54999500D01*
X178552297Y-54979815D01*
X178531655Y-54963182D01*
X178500500Y-54932027D01*
X178404654Y-54836181D01*
X178404650Y-54836178D01*
X178404645Y-54836174D01*
X178219632Y-54707997D01*
X178219630Y-54707995D01*
X178219626Y-54707993D01*
X178014683Y-54614904D01*
X178014681Y-54614903D01*
X178014678Y-54614902D01*
X177796420Y-54559905D01*
X177796413Y-54559904D01*
X177752347Y-54556436D01*
X177664217Y-54549500D01*
X177664215Y-54549500D01*
X176835791Y-54549500D01*
X176835776Y-54549501D01*
X176703587Y-54559904D01*
X176654797Y-54572198D01*
X176584980Y-54569490D01*
X176527710Y-54529465D01*
X176501170Y-54464833D01*
X176500500Y-54451956D01*
X176500500Y-52567772D01*
X176520185Y-52500733D01*
X176572989Y-52454978D01*
X176642147Y-52445034D01*
X176698807Y-52468503D01*
X176821989Y-52560716D01*
X176821993Y-52560718D01*
X176821994Y-52560719D01*
X177054305Y-52687571D01*
X177054309Y-52687573D01*
X177054311Y-52687574D01*
X177302322Y-52780077D01*
X177302325Y-52780077D01*
X177302326Y-52780078D01*
X177497552Y-52822546D01*
X177560974Y-52836343D01*
X177804660Y-52853772D01*
X177824999Y-52855227D01*
X177825000Y-52855227D01*
X177825001Y-52855227D01*
X177843885Y-52853876D01*
X178089026Y-52836343D01*
X178347678Y-52780077D01*
X178595689Y-52687574D01*
X178828011Y-52560716D01*
X178969261Y-52454978D01*
X179020690Y-52416479D01*
X179086154Y-52392062D01*
X179154427Y-52406914D01*
X179169310Y-52416479D01*
X179361986Y-52560714D01*
X179361994Y-52560719D01*
X179594305Y-52687571D01*
X179594309Y-52687573D01*
X179594311Y-52687574D01*
X179842322Y-52780077D01*
X179842325Y-52780077D01*
X179842326Y-52780078D01*
X180037552Y-52822546D01*
X180100974Y-52836343D01*
X180344660Y-52853772D01*
X180364999Y-52855227D01*
X180365000Y-52855227D01*
X180365001Y-52855227D01*
X180383885Y-52853876D01*
X180629026Y-52836343D01*
X180887678Y-52780077D01*
X181135689Y-52687574D01*
X181368011Y-52560716D01*
X181509261Y-52454978D01*
X181560690Y-52416479D01*
X181626154Y-52392062D01*
X181694427Y-52406914D01*
X181709310Y-52416479D01*
X181901986Y-52560714D01*
X181901994Y-52560719D01*
X182134305Y-52687571D01*
X182134309Y-52687573D01*
X182134311Y-52687574D01*
X182382322Y-52780077D01*
X182382325Y-52780077D01*
X182382326Y-52780078D01*
X182577552Y-52822546D01*
X182640974Y-52836343D01*
X182884660Y-52853772D01*
X182904999Y-52855227D01*
X182905000Y-52855227D01*
X182905001Y-52855227D01*
X182923885Y-52853876D01*
X183169026Y-52836343D01*
X183427678Y-52780077D01*
X183675689Y-52687574D01*
X183908011Y-52560716D01*
X184049261Y-52454978D01*
X184100690Y-52416479D01*
X184166154Y-52392062D01*
X184234427Y-52406914D01*
X184249310Y-52416479D01*
X184441986Y-52560714D01*
X184441994Y-52560719D01*
X184674305Y-52687571D01*
X184674309Y-52687573D01*
X184674311Y-52687574D01*
X184922322Y-52780077D01*
X184922325Y-52780077D01*
X184922326Y-52780078D01*
X185117552Y-52822546D01*
X185180974Y-52836343D01*
X185424660Y-52853772D01*
X185444999Y-52855227D01*
X185445000Y-52855227D01*
X185445001Y-52855227D01*
X185463885Y-52853876D01*
X185709026Y-52836343D01*
X185967678Y-52780077D01*
X186215689Y-52687574D01*
X186448011Y-52560716D01*
X186659915Y-52402087D01*
X186847087Y-52214915D01*
X187005716Y-52003011D01*
X187132574Y-51770689D01*
X187225077Y-51522678D01*
X187281343Y-51264026D01*
X187300227Y-51000000D01*
X187281343Y-50735974D01*
X187251742Y-50599901D01*
X187225078Y-50477326D01*
X187189576Y-50382142D01*
X187132574Y-50229311D01*
X187090668Y-50152567D01*
X187005719Y-49996994D01*
X187005714Y-49996986D01*
X186847093Y-49785092D01*
X186847077Y-49785074D01*
X186659925Y-49597922D01*
X186659907Y-49597906D01*
X186448013Y-49439285D01*
X186448005Y-49439280D01*
X186215694Y-49312428D01*
X186215690Y-49312426D01*
X185967673Y-49219921D01*
X185709034Y-49163658D01*
X185709027Y-49163657D01*
X185445001Y-49144773D01*
X185444999Y-49144773D01*
X185180972Y-49163657D01*
X185180965Y-49163658D01*
X184922326Y-49219921D01*
X184674309Y-49312426D01*
X184674305Y-49312428D01*
X184441994Y-49439280D01*
X184441986Y-49439285D01*
X184249310Y-49583520D01*
X184183845Y-49607937D01*
X184115573Y-49593085D01*
X184100690Y-49583520D01*
X183908013Y-49439285D01*
X183908005Y-49439280D01*
X183675694Y-49312428D01*
X183675690Y-49312426D01*
X183427673Y-49219921D01*
X183169034Y-49163658D01*
X183169027Y-49163657D01*
X182905001Y-49144773D01*
X182904999Y-49144773D01*
X182640972Y-49163657D01*
X182640965Y-49163658D01*
X182382326Y-49219921D01*
X182134309Y-49312426D01*
X182134305Y-49312428D01*
X181901994Y-49439280D01*
X181901986Y-49439285D01*
X181709310Y-49583520D01*
X181643845Y-49607937D01*
X181575573Y-49593085D01*
X181560690Y-49583520D01*
X181368013Y-49439285D01*
X181368005Y-49439280D01*
X181135694Y-49312428D01*
X181135690Y-49312426D01*
X180887673Y-49219921D01*
X180629034Y-49163658D01*
X180629027Y-49163657D01*
X180365001Y-49144773D01*
X180364999Y-49144773D01*
X180100972Y-49163657D01*
X180100965Y-49163658D01*
X179842326Y-49219921D01*
X179594309Y-49312426D01*
X179594305Y-49312428D01*
X179361994Y-49439280D01*
X179361986Y-49439285D01*
X179169310Y-49583520D01*
X179103845Y-49607937D01*
X179035573Y-49593085D01*
X179020690Y-49583520D01*
X178828013Y-49439285D01*
X178828005Y-49439280D01*
X178595694Y-49312428D01*
X178595690Y-49312426D01*
X178347673Y-49219921D01*
X178089034Y-49163658D01*
X178089027Y-49163657D01*
X177825001Y-49144773D01*
X177824999Y-49144773D01*
X177560972Y-49163657D01*
X177560965Y-49163658D01*
X177302326Y-49219921D01*
X177054309Y-49312426D01*
X177054305Y-49312428D01*
X176821994Y-49439280D01*
X176821986Y-49439285D01*
X176629310Y-49583520D01*
X176563845Y-49607937D01*
X176495573Y-49593085D01*
X176480690Y-49583520D01*
X176288013Y-49439285D01*
X176288005Y-49439280D01*
X176055694Y-49312428D01*
X176055690Y-49312426D01*
X175807673Y-49219921D01*
X175549034Y-49163658D01*
X175549027Y-49163657D01*
X175285001Y-49144773D01*
X175284999Y-49144773D01*
X175020972Y-49163657D01*
X175020965Y-49163658D01*
X174762326Y-49219921D01*
X174514309Y-49312426D01*
X174514305Y-49312428D01*
X174281994Y-49439280D01*
X174281986Y-49439285D01*
X174089310Y-49583520D01*
X174023845Y-49607937D01*
X173955573Y-49593085D01*
X173940690Y-49583520D01*
X173748013Y-49439285D01*
X173748005Y-49439280D01*
X173515694Y-49312428D01*
X173515690Y-49312426D01*
X173267673Y-49219921D01*
X173009034Y-49163658D01*
X173009027Y-49163657D01*
X172745001Y-49144773D01*
X172744999Y-49144773D01*
X172480972Y-49163657D01*
X172480965Y-49163658D01*
X172222326Y-49219921D01*
X171974309Y-49312426D01*
X171974305Y-49312428D01*
X171741994Y-49439280D01*
X171741986Y-49439285D01*
X171549310Y-49583520D01*
X171483845Y-49607937D01*
X171415573Y-49593085D01*
X171400690Y-49583520D01*
X171208013Y-49439285D01*
X171208005Y-49439280D01*
X170975694Y-49312428D01*
X170975690Y-49312426D01*
X170727673Y-49219921D01*
X170469034Y-49163658D01*
X170469027Y-49163657D01*
X170205001Y-49144773D01*
X170204999Y-49144773D01*
X169940972Y-49163657D01*
X169940965Y-49163658D01*
X169682326Y-49219921D01*
X169434309Y-49312426D01*
X169434305Y-49312428D01*
X169201994Y-49439280D01*
X169201986Y-49439285D01*
X169009310Y-49583520D01*
X168943845Y-49607937D01*
X168875573Y-49593085D01*
X168860690Y-49583520D01*
X168668013Y-49439285D01*
X168668005Y-49439280D01*
X168435694Y-49312428D01*
X168435690Y-49312426D01*
X168187673Y-49219921D01*
X167929034Y-49163658D01*
X167929027Y-49163657D01*
X167665001Y-49144773D01*
X167664999Y-49144773D01*
X167400972Y-49163657D01*
X167400965Y-49163658D01*
X167142326Y-49219921D01*
X166894309Y-49312426D01*
X166894305Y-49312428D01*
X166661994Y-49439280D01*
X166661986Y-49439285D01*
X166469310Y-49583520D01*
X166403845Y-49607937D01*
X166335573Y-49593085D01*
X166320690Y-49583520D01*
X166128013Y-49439285D01*
X166128005Y-49439280D01*
X165895694Y-49312428D01*
X165895690Y-49312426D01*
X165647673Y-49219921D01*
X165389034Y-49163658D01*
X165389027Y-49163657D01*
X165125001Y-49144773D01*
X165124999Y-49144773D01*
X164860972Y-49163657D01*
X164860965Y-49163658D01*
X164602326Y-49219921D01*
X164354309Y-49312426D01*
X164354305Y-49312428D01*
X164121994Y-49439280D01*
X164121986Y-49439285D01*
X163929310Y-49583520D01*
X163863845Y-49607937D01*
X163795573Y-49593085D01*
X163780690Y-49583520D01*
X163588013Y-49439285D01*
X163588005Y-49439280D01*
X163355694Y-49312428D01*
X163355690Y-49312426D01*
X163107673Y-49219921D01*
X162849034Y-49163658D01*
X162849027Y-49163657D01*
X162585001Y-49144773D01*
X162584999Y-49144773D01*
X162320972Y-49163657D01*
X162320965Y-49163658D01*
X162062326Y-49219921D01*
X161814309Y-49312426D01*
X161814305Y-49312428D01*
X161581994Y-49439280D01*
X161581986Y-49439285D01*
X161389310Y-49583520D01*
X161323845Y-49607937D01*
X161255573Y-49593085D01*
X161240690Y-49583520D01*
X161048013Y-49439285D01*
X161048005Y-49439280D01*
X160815694Y-49312428D01*
X160815690Y-49312426D01*
X160567673Y-49219921D01*
X160309034Y-49163658D01*
X160309027Y-49163657D01*
X160045001Y-49144773D01*
X160044999Y-49144773D01*
X159780972Y-49163657D01*
X159780965Y-49163658D01*
X159522326Y-49219921D01*
X159274309Y-49312426D01*
X159274305Y-49312428D01*
X159041994Y-49439280D01*
X159041986Y-49439285D01*
X158849310Y-49583520D01*
X158783845Y-49607937D01*
X158715573Y-49593085D01*
X158700690Y-49583520D01*
X158508013Y-49439285D01*
X158508005Y-49439280D01*
X158275694Y-49312428D01*
X158275690Y-49312426D01*
X158027673Y-49219921D01*
X157769034Y-49163658D01*
X157769027Y-49163657D01*
X157505001Y-49144773D01*
X157504999Y-49144773D01*
X157240972Y-49163657D01*
X157240965Y-49163658D01*
X156982326Y-49219921D01*
X156734309Y-49312426D01*
X156734305Y-49312428D01*
X156501994Y-49439280D01*
X156501986Y-49439285D01*
X156309310Y-49583520D01*
X156243845Y-49607937D01*
X156175573Y-49593085D01*
X156160690Y-49583520D01*
X155968013Y-49439285D01*
X155968005Y-49439280D01*
X155735694Y-49312428D01*
X155735690Y-49312426D01*
X155487673Y-49219921D01*
X155229034Y-49163658D01*
X155229027Y-49163657D01*
X154965001Y-49144773D01*
X154964999Y-49144773D01*
X154700972Y-49163657D01*
X154700965Y-49163658D01*
X154442326Y-49219921D01*
X154194309Y-49312426D01*
X154194305Y-49312428D01*
X153961994Y-49439280D01*
X153961986Y-49439285D01*
X153769310Y-49583520D01*
X153703845Y-49607937D01*
X153635573Y-49593085D01*
X153620690Y-49583520D01*
X153428013Y-49439285D01*
X153428005Y-49439280D01*
X153195694Y-49312428D01*
X153195690Y-49312426D01*
X152947673Y-49219921D01*
X152689034Y-49163658D01*
X152689027Y-49163657D01*
X152425001Y-49144773D01*
X152424999Y-49144773D01*
X152160972Y-49163657D01*
X152160965Y-49163658D01*
X151902326Y-49219921D01*
X151654309Y-49312426D01*
X151654305Y-49312428D01*
X151421994Y-49439280D01*
X151421986Y-49439285D01*
X151229310Y-49583520D01*
X151163845Y-49607937D01*
X151095573Y-49593085D01*
X151080690Y-49583520D01*
X150888013Y-49439285D01*
X150888005Y-49439280D01*
X150655694Y-49312428D01*
X150655690Y-49312426D01*
X150407673Y-49219921D01*
X150149034Y-49163658D01*
X150149027Y-49163657D01*
X149885001Y-49144773D01*
X149884999Y-49144773D01*
X149620972Y-49163657D01*
X149620965Y-49163658D01*
X149362326Y-49219921D01*
X149114309Y-49312426D01*
X149114305Y-49312428D01*
X148881994Y-49439280D01*
X148881986Y-49439285D01*
X148689310Y-49583520D01*
X148623845Y-49607937D01*
X148555573Y-49593085D01*
X148540690Y-49583520D01*
X148348013Y-49439285D01*
X148348005Y-49439280D01*
X148115694Y-49312428D01*
X148115690Y-49312426D01*
X147867673Y-49219921D01*
X147609034Y-49163658D01*
X147609027Y-49163657D01*
X147345001Y-49144773D01*
X147344999Y-49144773D01*
X147080972Y-49163657D01*
X147080965Y-49163658D01*
X146822326Y-49219921D01*
X146574309Y-49312426D01*
X146574305Y-49312428D01*
X146341994Y-49439280D01*
X146341986Y-49439285D01*
X146149310Y-49583520D01*
X146083845Y-49607937D01*
X146015573Y-49593085D01*
X146000690Y-49583520D01*
X145808013Y-49439285D01*
X145808005Y-49439280D01*
X145575694Y-49312428D01*
X145575690Y-49312426D01*
X145327673Y-49219921D01*
X145069034Y-49163658D01*
X145069027Y-49163657D01*
X144805001Y-49144773D01*
X144804999Y-49144773D01*
X144540972Y-49163657D01*
X144540965Y-49163658D01*
X144282326Y-49219921D01*
X144034309Y-49312426D01*
X144034305Y-49312428D01*
X143801994Y-49439280D01*
X143801986Y-49439285D01*
X143609310Y-49583520D01*
X143543845Y-49607937D01*
X143475573Y-49593085D01*
X143460690Y-49583520D01*
X143268013Y-49439285D01*
X143268005Y-49439280D01*
X143035694Y-49312428D01*
X143035690Y-49312426D01*
X142787673Y-49219921D01*
X142529034Y-49163658D01*
X142529027Y-49163657D01*
X142265001Y-49144773D01*
X142264999Y-49144773D01*
X142000972Y-49163657D01*
X142000965Y-49163658D01*
X141742326Y-49219921D01*
X141494309Y-49312426D01*
X141494305Y-49312428D01*
X141261994Y-49439280D01*
X141261986Y-49439285D01*
X141050092Y-49597906D01*
X141050074Y-49597922D01*
X140862922Y-49785074D01*
X140862912Y-49785086D01*
X140756298Y-49927505D01*
X140700364Y-49969376D01*
X140630672Y-49974360D01*
X140585907Y-49954769D01*
X140402578Y-49826399D01*
X140188492Y-49726570D01*
X140188486Y-49726567D01*
X139975000Y-49669364D01*
X139975000Y-50566988D01*
X139917993Y-50534075D01*
X139790826Y-50500000D01*
X139659174Y-50500000D01*
X139532007Y-50534075D01*
X139475000Y-50566988D01*
X139475000Y-49669364D01*
X139474999Y-49669364D01*
X139261513Y-49726567D01*
X139261502Y-49726571D01*
X139112488Y-49796058D01*
X139043411Y-49806550D01*
X138979627Y-49778030D01*
X138950177Y-49741090D01*
X138874698Y-49596593D01*
X138822684Y-49532803D01*
X138746109Y-49438890D01*
X138591014Y-49312428D01*
X138588407Y-49310302D01*
X138408049Y-49216091D01*
X138408048Y-49216090D01*
X138408045Y-49216089D01*
X138290829Y-49182550D01*
X138212418Y-49160114D01*
X138212415Y-49160113D01*
X138212413Y-49160113D01*
X138146102Y-49154217D01*
X138093037Y-49149500D01*
X138093032Y-49149500D01*
X136276971Y-49149500D01*
X136276965Y-49149500D01*
X136276964Y-49149501D01*
X136265316Y-49150536D01*
X136157584Y-49160113D01*
X135961954Y-49216089D01*
X135871772Y-49263196D01*
X135781593Y-49310302D01*
X135781591Y-49310303D01*
X135781590Y-49310304D01*
X135623890Y-49438890D01*
X135498162Y-49593085D01*
X135495302Y-49596593D01*
X135465839Y-49652998D01*
X135401089Y-49776954D01*
X135358012Y-49927505D01*
X135346032Y-49969376D01*
X135345114Y-49972583D01*
X135345113Y-49972586D01*
X135334500Y-50091966D01*
X128500000Y-50091966D01*
X128500000Y-41999998D01*
X132694532Y-41999998D01*
X132694532Y-42000001D01*
X132714364Y-42226686D01*
X132714366Y-42226697D01*
X132773258Y-42446488D01*
X132773261Y-42446497D01*
X132869431Y-42652732D01*
X132869432Y-42652734D01*
X132999954Y-42839141D01*
X133160858Y-43000045D01*
X133160861Y-43000047D01*
X133347266Y-43130568D01*
X133553504Y-43226739D01*
X133773308Y-43285635D01*
X133935230Y-43299801D01*
X133999998Y-43305468D01*
X134000000Y-43305468D01*
X134000002Y-43305468D01*
X134056673Y-43300509D01*
X134226692Y-43285635D01*
X134342050Y-43254724D01*
X134374143Y-43250500D01*
X141118165Y-43250500D01*
X141185204Y-43270185D01*
X141205846Y-43286819D01*
X141220346Y-43301319D01*
X141220350Y-43301322D01*
X141220354Y-43301325D01*
X141238397Y-43313825D01*
X141405374Y-43429507D01*
X141610317Y-43522596D01*
X141610321Y-43522597D01*
X141828579Y-43577594D01*
X141828581Y-43577594D01*
X141828588Y-43577596D01*
X141960783Y-43588000D01*
X143039216Y-43587999D01*
X143171412Y-43577596D01*
X143389683Y-43522596D01*
X143594626Y-43429507D01*
X143779654Y-43301319D01*
X143794154Y-43286819D01*
X143855477Y-43253334D01*
X143881835Y-43250500D01*
X145880665Y-43250500D01*
X145947704Y-43270185D01*
X145968346Y-43286819D01*
X145995346Y-43313819D01*
X145995350Y-43313822D01*
X145995354Y-43313825D01*
X146134603Y-43410297D01*
X146180374Y-43442007D01*
X146385317Y-43535096D01*
X146385321Y-43535097D01*
X146603579Y-43590094D01*
X146603581Y-43590094D01*
X146603588Y-43590096D01*
X146735783Y-43600500D01*
X147764216Y-43600499D01*
X147896412Y-43590096D01*
X148114683Y-43535096D01*
X148319626Y-43442007D01*
X148504654Y-43313819D01*
X148663819Y-43154654D01*
X148792007Y-42969626D01*
X148885096Y-42764683D01*
X148940096Y-42546412D01*
X148950500Y-42414217D01*
X148950500Y-42399986D01*
X150800001Y-42399986D01*
X150810494Y-42502697D01*
X150865641Y-42669119D01*
X150865643Y-42669124D01*
X150957684Y-42818345D01*
X151081654Y-42942315D01*
X151230875Y-43034356D01*
X151230880Y-43034358D01*
X151397302Y-43089505D01*
X151397309Y-43089506D01*
X151500019Y-43099999D01*
X151749999Y-43099999D01*
X152250000Y-43099999D01*
X152499972Y-43099999D01*
X152499986Y-43099998D01*
X152602697Y-43089505D01*
X152769119Y-43034358D01*
X152769124Y-43034356D01*
X152918345Y-42942315D01*
X153042315Y-42818345D01*
X153134356Y-42669124D01*
X153134358Y-42669119D01*
X153189505Y-42502697D01*
X153189506Y-42502690D01*
X153199999Y-42399986D01*
X153200000Y-42399973D01*
X153200000Y-42250000D01*
X152250000Y-42250000D01*
X152250000Y-43099999D01*
X151749999Y-43099999D01*
X151750000Y-43099998D01*
X151750000Y-42250000D01*
X150800001Y-42250000D01*
X150800001Y-42399986D01*
X148950500Y-42399986D01*
X148950499Y-41585784D01*
X148940096Y-41453588D01*
X148927802Y-41404798D01*
X148930509Y-41334982D01*
X148970532Y-41277711D01*
X149035164Y-41251171D01*
X149048043Y-41250500D01*
X150630665Y-41250500D01*
X150697704Y-41270185D01*
X150718346Y-41286819D01*
X150745346Y-41313819D01*
X150771500Y-41331939D01*
X150815396Y-41386295D01*
X150822936Y-41455757D01*
X150818590Y-41472869D01*
X150810494Y-41497300D01*
X150810494Y-41497301D01*
X150800000Y-41600013D01*
X150800000Y-41750000D01*
X153199999Y-41750000D01*
X153199999Y-41600028D01*
X153199998Y-41600013D01*
X153189506Y-41497306D01*
X153189505Y-41497305D01*
X153181409Y-41472870D01*
X153179007Y-41403042D01*
X153214739Y-41343000D01*
X153228491Y-41331944D01*
X153254654Y-41313819D01*
X153413819Y-41154654D01*
X153542007Y-40969626D01*
X153635096Y-40764683D01*
X153690096Y-40546412D01*
X153700500Y-40414217D01*
X153700499Y-39585784D01*
X153690096Y-39453588D01*
X153685362Y-39434802D01*
X153635097Y-39235321D01*
X153635096Y-39235318D01*
X153582332Y-39119154D01*
X153542007Y-39030374D01*
X153413819Y-38845346D01*
X153254654Y-38686181D01*
X153254650Y-38686178D01*
X153254645Y-38686174D01*
X153069632Y-38557997D01*
X153069630Y-38557995D01*
X153069626Y-38557993D01*
X153057625Y-38552542D01*
X152864681Y-38464903D01*
X152864678Y-38464902D01*
X152646420Y-38409905D01*
X152646413Y-38409904D01*
X152602347Y-38406436D01*
X152514217Y-38399500D01*
X152514215Y-38399500D01*
X151485791Y-38399500D01*
X151485776Y-38399501D01*
X151353586Y-38409904D01*
X151353579Y-38409905D01*
X151135321Y-38464902D01*
X151135318Y-38464903D01*
X150930377Y-38557991D01*
X150930367Y-38557997D01*
X150745354Y-38686174D01*
X150745342Y-38686184D01*
X150718346Y-38713181D01*
X150657023Y-38746666D01*
X150630665Y-38749500D01*
X148719500Y-38749500D01*
X148652461Y-38729815D01*
X148606706Y-38677011D01*
X148595500Y-38625500D01*
X148595500Y-37593973D01*
X148615185Y-37526934D01*
X148667989Y-37481179D01*
X148737147Y-37471235D01*
X148793808Y-37494704D01*
X148881989Y-37560716D01*
X148881993Y-37560718D01*
X148881994Y-37560719D01*
X149114305Y-37687571D01*
X149114309Y-37687573D01*
X149114311Y-37687574D01*
X149362322Y-37780077D01*
X149362325Y-37780077D01*
X149362326Y-37780078D01*
X149379942Y-37783910D01*
X149620974Y-37836343D01*
X149864660Y-37853772D01*
X149884999Y-37855227D01*
X149885000Y-37855227D01*
X149885001Y-37855227D01*
X149903885Y-37853876D01*
X150149026Y-37836343D01*
X150407678Y-37780077D01*
X150655689Y-37687574D01*
X150888011Y-37560716D01*
X151008808Y-37470289D01*
X151080690Y-37416479D01*
X151146154Y-37392062D01*
X151214427Y-37406914D01*
X151229310Y-37416479D01*
X151421986Y-37560714D01*
X151421994Y-37560719D01*
X151654305Y-37687571D01*
X151654309Y-37687573D01*
X151654311Y-37687574D01*
X151902322Y-37780077D01*
X151902325Y-37780077D01*
X151902326Y-37780078D01*
X151919942Y-37783910D01*
X152160974Y-37836343D01*
X152404660Y-37853772D01*
X152424999Y-37855227D01*
X152425000Y-37855227D01*
X152425001Y-37855227D01*
X152443885Y-37853876D01*
X152689026Y-37836343D01*
X152947678Y-37780077D01*
X153195689Y-37687574D01*
X153428011Y-37560716D01*
X153548808Y-37470289D01*
X153620690Y-37416479D01*
X153686154Y-37392062D01*
X153754427Y-37406914D01*
X153769310Y-37416479D01*
X153961986Y-37560714D01*
X153961994Y-37560719D01*
X154194305Y-37687571D01*
X154194309Y-37687573D01*
X154194311Y-37687574D01*
X154442322Y-37780077D01*
X154442325Y-37780077D01*
X154442326Y-37780078D01*
X154459942Y-37783910D01*
X154700974Y-37836343D01*
X154944660Y-37853772D01*
X154964999Y-37855227D01*
X154965000Y-37855227D01*
X154965001Y-37855227D01*
X154983885Y-37853876D01*
X155229026Y-37836343D01*
X155487678Y-37780077D01*
X155735689Y-37687574D01*
X155968011Y-37560716D01*
X156088808Y-37470289D01*
X156160690Y-37416479D01*
X156226154Y-37392062D01*
X156294427Y-37406914D01*
X156309310Y-37416479D01*
X156501986Y-37560714D01*
X156501994Y-37560719D01*
X156734305Y-37687571D01*
X156734309Y-37687573D01*
X156734311Y-37687574D01*
X156982322Y-37780077D01*
X156982325Y-37780077D01*
X156982326Y-37780078D01*
X156999942Y-37783910D01*
X157240974Y-37836343D01*
X157484660Y-37853772D01*
X157504999Y-37855227D01*
X157505000Y-37855227D01*
X157505001Y-37855227D01*
X157523885Y-37853876D01*
X157769026Y-37836343D01*
X158027678Y-37780077D01*
X158275689Y-37687574D01*
X158508011Y-37560716D01*
X158628808Y-37470289D01*
X158700690Y-37416479D01*
X158766154Y-37392062D01*
X158834427Y-37406914D01*
X158849310Y-37416479D01*
X159041986Y-37560714D01*
X159041994Y-37560719D01*
X159274305Y-37687571D01*
X159274309Y-37687573D01*
X159274311Y-37687574D01*
X159522322Y-37780077D01*
X159522325Y-37780077D01*
X159522326Y-37780078D01*
X159539942Y-37783910D01*
X159780974Y-37836343D01*
X160024660Y-37853772D01*
X160044999Y-37855227D01*
X160045000Y-37855227D01*
X160045001Y-37855227D01*
X160063885Y-37853876D01*
X160309026Y-37836343D01*
X160567678Y-37780077D01*
X160815689Y-37687574D01*
X161048011Y-37560716D01*
X161168808Y-37470289D01*
X161240690Y-37416479D01*
X161306154Y-37392062D01*
X161374427Y-37406914D01*
X161389310Y-37416479D01*
X161581986Y-37560714D01*
X161581994Y-37560719D01*
X161814305Y-37687571D01*
X161814309Y-37687573D01*
X161814311Y-37687574D01*
X162062322Y-37780077D01*
X162062325Y-37780077D01*
X162062326Y-37780078D01*
X162079942Y-37783910D01*
X162320974Y-37836343D01*
X162564660Y-37853772D01*
X162584999Y-37855227D01*
X162585000Y-37855227D01*
X162585001Y-37855227D01*
X162603885Y-37853876D01*
X162849026Y-37836343D01*
X163107678Y-37780077D01*
X163355689Y-37687574D01*
X163588011Y-37560716D01*
X163708808Y-37470289D01*
X163780690Y-37416479D01*
X163846154Y-37392062D01*
X163914427Y-37406914D01*
X163929310Y-37416479D01*
X164121986Y-37560714D01*
X164121994Y-37560719D01*
X164354305Y-37687571D01*
X164354309Y-37687573D01*
X164354311Y-37687574D01*
X164602322Y-37780077D01*
X164602325Y-37780077D01*
X164602326Y-37780078D01*
X164619942Y-37783910D01*
X164860974Y-37836343D01*
X165104660Y-37853772D01*
X165124999Y-37855227D01*
X165125000Y-37855227D01*
X165125001Y-37855227D01*
X165143885Y-37853876D01*
X165389026Y-37836343D01*
X165647678Y-37780077D01*
X165895689Y-37687574D01*
X166128011Y-37560716D01*
X166248808Y-37470289D01*
X166320690Y-37416479D01*
X166386154Y-37392062D01*
X166454427Y-37406914D01*
X166469310Y-37416479D01*
X166661986Y-37560714D01*
X166661994Y-37560719D01*
X166894305Y-37687571D01*
X166894309Y-37687573D01*
X166894311Y-37687574D01*
X167142322Y-37780077D01*
X167142325Y-37780077D01*
X167142326Y-37780078D01*
X167159942Y-37783910D01*
X167400974Y-37836343D01*
X167644660Y-37853772D01*
X167664999Y-37855227D01*
X167665000Y-37855227D01*
X167665001Y-37855227D01*
X167683885Y-37853876D01*
X167929026Y-37836343D01*
X168187678Y-37780077D01*
X168435689Y-37687574D01*
X168668011Y-37560716D01*
X168788808Y-37470289D01*
X168860690Y-37416479D01*
X168926154Y-37392062D01*
X168994427Y-37406914D01*
X169009310Y-37416479D01*
X169201986Y-37560714D01*
X169201994Y-37560719D01*
X169434305Y-37687571D01*
X169434309Y-37687573D01*
X169434311Y-37687574D01*
X169682322Y-37780077D01*
X169682325Y-37780077D01*
X169682326Y-37780078D01*
X169699942Y-37783910D01*
X169940974Y-37836343D01*
X170184660Y-37853772D01*
X170204999Y-37855227D01*
X170205000Y-37855227D01*
X170205001Y-37855227D01*
X170223885Y-37853876D01*
X170469026Y-37836343D01*
X170727678Y-37780077D01*
X170975689Y-37687574D01*
X171208011Y-37560716D01*
X171328808Y-37470289D01*
X171400690Y-37416479D01*
X171466154Y-37392062D01*
X171534427Y-37406914D01*
X171549310Y-37416479D01*
X171741986Y-37560714D01*
X171741994Y-37560719D01*
X171974305Y-37687571D01*
X171974309Y-37687573D01*
X171974311Y-37687574D01*
X172222322Y-37780077D01*
X172222325Y-37780077D01*
X172222326Y-37780078D01*
X172239942Y-37783910D01*
X172480974Y-37836343D01*
X172724660Y-37853772D01*
X172744999Y-37855227D01*
X172745000Y-37855227D01*
X172745001Y-37855227D01*
X172763885Y-37853876D01*
X173009026Y-37836343D01*
X173267678Y-37780077D01*
X173515689Y-37687574D01*
X173748011Y-37560716D01*
X173868808Y-37470289D01*
X173940690Y-37416479D01*
X174006154Y-37392062D01*
X174074427Y-37406914D01*
X174089310Y-37416479D01*
X174281986Y-37560714D01*
X174281994Y-37560719D01*
X174514305Y-37687571D01*
X174514309Y-37687573D01*
X174514311Y-37687574D01*
X174762322Y-37780077D01*
X174762325Y-37780077D01*
X174762326Y-37780078D01*
X174779942Y-37783910D01*
X175020974Y-37836343D01*
X175264660Y-37853772D01*
X175284999Y-37855227D01*
X175285000Y-37855227D01*
X175285001Y-37855227D01*
X175303885Y-37853876D01*
X175549026Y-37836343D01*
X175807678Y-37780077D01*
X176055689Y-37687574D01*
X176288011Y-37560716D01*
X176408808Y-37470289D01*
X176480690Y-37416479D01*
X176546154Y-37392062D01*
X176614427Y-37406914D01*
X176629310Y-37416479D01*
X176821986Y-37560714D01*
X176821994Y-37560719D01*
X177054305Y-37687571D01*
X177054309Y-37687573D01*
X177054311Y-37687574D01*
X177302322Y-37780077D01*
X177302325Y-37780077D01*
X177302326Y-37780078D01*
X177319942Y-37783910D01*
X177560974Y-37836343D01*
X177804660Y-37853772D01*
X177824999Y-37855227D01*
X177825000Y-37855227D01*
X177825001Y-37855227D01*
X177843885Y-37853876D01*
X178089026Y-37836343D01*
X178347678Y-37780077D01*
X178595689Y-37687574D01*
X178828011Y-37560716D01*
X178948808Y-37470289D01*
X179020690Y-37416479D01*
X179086154Y-37392062D01*
X179154427Y-37406914D01*
X179169310Y-37416479D01*
X179361986Y-37560714D01*
X179361994Y-37560719D01*
X179594305Y-37687571D01*
X179594309Y-37687573D01*
X179594311Y-37687574D01*
X179842322Y-37780077D01*
X179842325Y-37780077D01*
X179842326Y-37780078D01*
X179859942Y-37783910D01*
X180100974Y-37836343D01*
X180344660Y-37853772D01*
X180364999Y-37855227D01*
X180365000Y-37855227D01*
X180365001Y-37855227D01*
X180383885Y-37853876D01*
X180629026Y-37836343D01*
X180887678Y-37780077D01*
X181135689Y-37687574D01*
X181368011Y-37560716D01*
X181488808Y-37470289D01*
X181560690Y-37416479D01*
X181626154Y-37392062D01*
X181694427Y-37406914D01*
X181709310Y-37416479D01*
X181901986Y-37560714D01*
X181901994Y-37560719D01*
X182134305Y-37687571D01*
X182134309Y-37687573D01*
X182134311Y-37687574D01*
X182382322Y-37780077D01*
X182382325Y-37780077D01*
X182382326Y-37780078D01*
X182399942Y-37783910D01*
X182640974Y-37836343D01*
X182884660Y-37853772D01*
X182904999Y-37855227D01*
X182905000Y-37855227D01*
X182905001Y-37855227D01*
X182923885Y-37853876D01*
X183169026Y-37836343D01*
X183427678Y-37780077D01*
X183675689Y-37687574D01*
X183908011Y-37560716D01*
X184028808Y-37470289D01*
X184100690Y-37416479D01*
X184166154Y-37392062D01*
X184234427Y-37406914D01*
X184249310Y-37416479D01*
X184441986Y-37560714D01*
X184441994Y-37560719D01*
X184674305Y-37687571D01*
X184674309Y-37687573D01*
X184674311Y-37687574D01*
X184922322Y-37780077D01*
X184922325Y-37780077D01*
X184922326Y-37780078D01*
X184939942Y-37783910D01*
X185180974Y-37836343D01*
X185424660Y-37853772D01*
X185444999Y-37855227D01*
X185445000Y-37855227D01*
X185445001Y-37855227D01*
X185463885Y-37853876D01*
X185709026Y-37836343D01*
X185967678Y-37780077D01*
X186215689Y-37687574D01*
X186448011Y-37560716D01*
X186659915Y-37402087D01*
X186847087Y-37214915D01*
X187005716Y-37003011D01*
X187132574Y-36770689D01*
X187225077Y-36522678D01*
X187281343Y-36264026D01*
X187300227Y-36000000D01*
X187281343Y-35735974D01*
X187225077Y-35477322D01*
X187132574Y-35229311D01*
X187035409Y-35051368D01*
X187005719Y-34996994D01*
X187005714Y-34996986D01*
X186847093Y-34785092D01*
X186847077Y-34785074D01*
X186659925Y-34597922D01*
X186659907Y-34597906D01*
X186638528Y-34581902D01*
X191999500Y-34581902D01*
X191999500Y-34818097D01*
X192036446Y-35051368D01*
X192109433Y-35275996D01*
X192167810Y-35390566D01*
X192216657Y-35486433D01*
X192355483Y-35677510D01*
X192522490Y-35844517D01*
X192713567Y-35983343D01*
X192812991Y-36034002D01*
X192924003Y-36090566D01*
X192924005Y-36090566D01*
X192924008Y-36090568D01*
X193044412Y-36129689D01*
X193148631Y-36163553D01*
X193381903Y-36200500D01*
X193381908Y-36200500D01*
X193618097Y-36200500D01*
X193851368Y-36163553D01*
X194075992Y-36090568D01*
X194286433Y-35983343D01*
X194477510Y-35844517D01*
X194644517Y-35677510D01*
X194783343Y-35486433D01*
X194890568Y-35275992D01*
X194963553Y-35051368D01*
X194976031Y-34972583D01*
X195000500Y-34818097D01*
X195000500Y-34581902D01*
X256999500Y-34581902D01*
X256999500Y-34818097D01*
X257036446Y-35051368D01*
X257109433Y-35275996D01*
X257167810Y-35390566D01*
X257216657Y-35486433D01*
X257355483Y-35677510D01*
X257522490Y-35844517D01*
X257713567Y-35983343D01*
X257812991Y-36034002D01*
X257924003Y-36090566D01*
X257924005Y-36090566D01*
X257924008Y-36090568D01*
X258044412Y-36129689D01*
X258148631Y-36163553D01*
X258381903Y-36200500D01*
X258381908Y-36200500D01*
X258618097Y-36200500D01*
X258851368Y-36163553D01*
X259075992Y-36090568D01*
X259286433Y-35983343D01*
X259477510Y-35844517D01*
X259644517Y-35677510D01*
X259783343Y-35486433D01*
X259890568Y-35275992D01*
X259963553Y-35051368D01*
X259976031Y-34972583D01*
X260000500Y-34818097D01*
X260000500Y-34581902D01*
X259963553Y-34348631D01*
X259903451Y-34163657D01*
X259890568Y-34124008D01*
X259890566Y-34124005D01*
X259890566Y-34124003D01*
X259783342Y-33913566D01*
X259760341Y-33881908D01*
X259644517Y-33722490D01*
X259477510Y-33555483D01*
X259286433Y-33416657D01*
X259218223Y-33381902D01*
X262499500Y-33381902D01*
X262499500Y-33618097D01*
X262536446Y-33851368D01*
X262609433Y-34075996D01*
X262680815Y-34216089D01*
X262716657Y-34286433D01*
X262855483Y-34477510D01*
X263022490Y-34644517D01*
X263213567Y-34783343D01*
X263281766Y-34818092D01*
X263424003Y-34890566D01*
X263424005Y-34890566D01*
X263424008Y-34890568D01*
X263544412Y-34929689D01*
X263648631Y-34963553D01*
X263881903Y-35000500D01*
X263881908Y-35000500D01*
X264118097Y-35000500D01*
X264351368Y-34963553D01*
X264575992Y-34890568D01*
X264786433Y-34783343D01*
X264977510Y-34644517D01*
X265144517Y-34477510D01*
X265283343Y-34286433D01*
X265390568Y-34075992D01*
X265463553Y-33851368D01*
X265500500Y-33618097D01*
X265500500Y-33381902D01*
X265463553Y-33148631D01*
X265390566Y-32924003D01*
X265283342Y-32713566D01*
X265144517Y-32522490D01*
X264977510Y-32355483D01*
X264786433Y-32216657D01*
X264575996Y-32109433D01*
X264351368Y-32036446D01*
X264118097Y-31999500D01*
X264118092Y-31999500D01*
X263881908Y-31999500D01*
X263881903Y-31999500D01*
X263648631Y-32036446D01*
X263424003Y-32109433D01*
X263213566Y-32216657D01*
X263104550Y-32295862D01*
X263022490Y-32355483D01*
X263022488Y-32355485D01*
X263022487Y-32355485D01*
X262855485Y-32522487D01*
X262855485Y-32522488D01*
X262855483Y-32522490D01*
X262845343Y-32536447D01*
X262716657Y-32713566D01*
X262609433Y-32924003D01*
X262536446Y-33148631D01*
X262499500Y-33381902D01*
X259218223Y-33381902D01*
X259075996Y-33309433D01*
X258851368Y-33236446D01*
X258618097Y-33199500D01*
X258618092Y-33199500D01*
X258381908Y-33199500D01*
X258381903Y-33199500D01*
X258148631Y-33236446D01*
X257924003Y-33309433D01*
X257713566Y-33416657D01*
X257604550Y-33495862D01*
X257522490Y-33555483D01*
X257522488Y-33555485D01*
X257522487Y-33555485D01*
X257355485Y-33722487D01*
X257355485Y-33722488D01*
X257355483Y-33722490D01*
X257295862Y-33804550D01*
X257216657Y-33913566D01*
X257109433Y-34124003D01*
X257036446Y-34348631D01*
X256999500Y-34581902D01*
X195000500Y-34581902D01*
X194963553Y-34348631D01*
X194903451Y-34163657D01*
X194890568Y-34124008D01*
X194890566Y-34124005D01*
X194890566Y-34124003D01*
X194783342Y-33913566D01*
X194760341Y-33881908D01*
X194644517Y-33722490D01*
X194477510Y-33555483D01*
X194286433Y-33416657D01*
X194075996Y-33309433D01*
X193851368Y-33236446D01*
X193618097Y-33199500D01*
X193618092Y-33199500D01*
X193381908Y-33199500D01*
X193381903Y-33199500D01*
X193148631Y-33236446D01*
X192924003Y-33309433D01*
X192713566Y-33416657D01*
X192604550Y-33495862D01*
X192522490Y-33555483D01*
X192522488Y-33555485D01*
X192522487Y-33555485D01*
X192355485Y-33722487D01*
X192355485Y-33722488D01*
X192355483Y-33722490D01*
X192295862Y-33804550D01*
X192216657Y-33913566D01*
X192109433Y-34124003D01*
X192036446Y-34348631D01*
X191999500Y-34581902D01*
X186638528Y-34581902D01*
X186448013Y-34439285D01*
X186448005Y-34439280D01*
X186215694Y-34312428D01*
X186215690Y-34312426D01*
X185967673Y-34219921D01*
X185709034Y-34163658D01*
X185709027Y-34163657D01*
X185445001Y-34144773D01*
X185444999Y-34144773D01*
X185180972Y-34163657D01*
X185180965Y-34163658D01*
X184922326Y-34219921D01*
X184674309Y-34312426D01*
X184674305Y-34312428D01*
X184441994Y-34439280D01*
X184441986Y-34439285D01*
X184249310Y-34583520D01*
X184183845Y-34607937D01*
X184115573Y-34593085D01*
X184100690Y-34583520D01*
X183908013Y-34439285D01*
X183908005Y-34439280D01*
X183675694Y-34312428D01*
X183675690Y-34312426D01*
X183427673Y-34219921D01*
X183169034Y-34163658D01*
X183169027Y-34163657D01*
X182905001Y-34144773D01*
X182904999Y-34144773D01*
X182640972Y-34163657D01*
X182640965Y-34163658D01*
X182382326Y-34219921D01*
X182134309Y-34312426D01*
X182134305Y-34312428D01*
X181901994Y-34439280D01*
X181901986Y-34439285D01*
X181709310Y-34583520D01*
X181643845Y-34607937D01*
X181575573Y-34593085D01*
X181560690Y-34583520D01*
X181368013Y-34439285D01*
X181368005Y-34439280D01*
X181135694Y-34312428D01*
X181135690Y-34312426D01*
X180887673Y-34219921D01*
X180629034Y-34163658D01*
X180629027Y-34163657D01*
X180365001Y-34144773D01*
X180364999Y-34144773D01*
X180100972Y-34163657D01*
X180100965Y-34163658D01*
X179842326Y-34219921D01*
X179594309Y-34312426D01*
X179594305Y-34312428D01*
X179361994Y-34439280D01*
X179361986Y-34439285D01*
X179169310Y-34583520D01*
X179103845Y-34607937D01*
X179035573Y-34593085D01*
X179020690Y-34583520D01*
X178828013Y-34439285D01*
X178828005Y-34439280D01*
X178595694Y-34312428D01*
X178595690Y-34312426D01*
X178347673Y-34219921D01*
X178089034Y-34163658D01*
X178089027Y-34163657D01*
X177825001Y-34144773D01*
X177824999Y-34144773D01*
X177560972Y-34163657D01*
X177560965Y-34163658D01*
X177302326Y-34219921D01*
X177054309Y-34312426D01*
X177054305Y-34312428D01*
X176821994Y-34439280D01*
X176821986Y-34439285D01*
X176629310Y-34583520D01*
X176563845Y-34607937D01*
X176495573Y-34593085D01*
X176480690Y-34583520D01*
X176288013Y-34439285D01*
X176288005Y-34439280D01*
X176055694Y-34312428D01*
X176055690Y-34312426D01*
X175807673Y-34219921D01*
X175549034Y-34163658D01*
X175549027Y-34163657D01*
X175285001Y-34144773D01*
X175284999Y-34144773D01*
X175020972Y-34163657D01*
X175020965Y-34163658D01*
X174762326Y-34219921D01*
X174514309Y-34312426D01*
X174514305Y-34312428D01*
X174281994Y-34439280D01*
X174281986Y-34439285D01*
X174089310Y-34583520D01*
X174023845Y-34607937D01*
X173955573Y-34593085D01*
X173940690Y-34583520D01*
X173748013Y-34439285D01*
X173748005Y-34439280D01*
X173515694Y-34312428D01*
X173515690Y-34312426D01*
X173267673Y-34219921D01*
X173009034Y-34163658D01*
X173009027Y-34163657D01*
X172745001Y-34144773D01*
X172744999Y-34144773D01*
X172480972Y-34163657D01*
X172480965Y-34163658D01*
X172222326Y-34219921D01*
X171974309Y-34312426D01*
X171974305Y-34312428D01*
X171741994Y-34439280D01*
X171741986Y-34439285D01*
X171549310Y-34583520D01*
X171483845Y-34607937D01*
X171415573Y-34593085D01*
X171400690Y-34583520D01*
X171208013Y-34439285D01*
X171208005Y-34439280D01*
X170975694Y-34312428D01*
X170975690Y-34312426D01*
X170727673Y-34219921D01*
X170469034Y-34163658D01*
X170469027Y-34163657D01*
X170205001Y-34144773D01*
X170204999Y-34144773D01*
X169940972Y-34163657D01*
X169940965Y-34163658D01*
X169682326Y-34219921D01*
X169434309Y-34312426D01*
X169434305Y-34312428D01*
X169201994Y-34439280D01*
X169201986Y-34439285D01*
X169009310Y-34583520D01*
X168943845Y-34607937D01*
X168875573Y-34593085D01*
X168860690Y-34583520D01*
X168668013Y-34439285D01*
X168668005Y-34439280D01*
X168435694Y-34312428D01*
X168435690Y-34312426D01*
X168187673Y-34219921D01*
X167929034Y-34163658D01*
X167929027Y-34163657D01*
X167665001Y-34144773D01*
X167664999Y-34144773D01*
X167400972Y-34163657D01*
X167400965Y-34163658D01*
X167142326Y-34219921D01*
X166894309Y-34312426D01*
X166894305Y-34312428D01*
X166661994Y-34439280D01*
X166661986Y-34439285D01*
X166469310Y-34583520D01*
X166403845Y-34607937D01*
X166335573Y-34593085D01*
X166320690Y-34583520D01*
X166128013Y-34439285D01*
X166128005Y-34439280D01*
X165895694Y-34312428D01*
X165895690Y-34312426D01*
X165647673Y-34219921D01*
X165389034Y-34163658D01*
X165389027Y-34163657D01*
X165125001Y-34144773D01*
X165124999Y-34144773D01*
X164860972Y-34163657D01*
X164860965Y-34163658D01*
X164602326Y-34219921D01*
X164354309Y-34312426D01*
X164354305Y-34312428D01*
X164121994Y-34439280D01*
X164121986Y-34439285D01*
X163929310Y-34583520D01*
X163863845Y-34607937D01*
X163795573Y-34593085D01*
X163780690Y-34583520D01*
X163588013Y-34439285D01*
X163588005Y-34439280D01*
X163355694Y-34312428D01*
X163355690Y-34312426D01*
X163107673Y-34219921D01*
X162849034Y-34163658D01*
X162849027Y-34163657D01*
X162585001Y-34144773D01*
X162584999Y-34144773D01*
X162320972Y-34163657D01*
X162320965Y-34163658D01*
X162062326Y-34219921D01*
X161814309Y-34312426D01*
X161814305Y-34312428D01*
X161581994Y-34439280D01*
X161581986Y-34439285D01*
X161389310Y-34583520D01*
X161323845Y-34607937D01*
X161255573Y-34593085D01*
X161240690Y-34583520D01*
X161048013Y-34439285D01*
X161048005Y-34439280D01*
X160815694Y-34312428D01*
X160815690Y-34312426D01*
X160567673Y-34219921D01*
X160309034Y-34163658D01*
X160309027Y-34163657D01*
X160045001Y-34144773D01*
X160044999Y-34144773D01*
X159780972Y-34163657D01*
X159780965Y-34163658D01*
X159522326Y-34219921D01*
X159274309Y-34312426D01*
X159274305Y-34312428D01*
X159041994Y-34439280D01*
X159041986Y-34439285D01*
X158849310Y-34583520D01*
X158783845Y-34607937D01*
X158715573Y-34593085D01*
X158700690Y-34583520D01*
X158508013Y-34439285D01*
X158508005Y-34439280D01*
X158275694Y-34312428D01*
X158275690Y-34312426D01*
X158027673Y-34219921D01*
X157769034Y-34163658D01*
X157769027Y-34163657D01*
X157505001Y-34144773D01*
X157504999Y-34144773D01*
X157240972Y-34163657D01*
X157240965Y-34163658D01*
X156982326Y-34219921D01*
X156734309Y-34312426D01*
X156734305Y-34312428D01*
X156501994Y-34439280D01*
X156501986Y-34439285D01*
X156309310Y-34583520D01*
X156243845Y-34607937D01*
X156175573Y-34593085D01*
X156160690Y-34583520D01*
X155968013Y-34439285D01*
X155968005Y-34439280D01*
X155735694Y-34312428D01*
X155735690Y-34312426D01*
X155487673Y-34219921D01*
X155229034Y-34163658D01*
X155229027Y-34163657D01*
X154965001Y-34144773D01*
X154964999Y-34144773D01*
X154700972Y-34163657D01*
X154700965Y-34163658D01*
X154442326Y-34219921D01*
X154194309Y-34312426D01*
X154194305Y-34312428D01*
X153961994Y-34439280D01*
X153961986Y-34439285D01*
X153769310Y-34583520D01*
X153703845Y-34607937D01*
X153635573Y-34593085D01*
X153620690Y-34583520D01*
X153428013Y-34439285D01*
X153428005Y-34439280D01*
X153195694Y-34312428D01*
X153195690Y-34312426D01*
X152947673Y-34219921D01*
X152689034Y-34163658D01*
X152689027Y-34163657D01*
X152425001Y-34144773D01*
X152424999Y-34144773D01*
X152160972Y-34163657D01*
X152160965Y-34163658D01*
X151902326Y-34219921D01*
X151654309Y-34312426D01*
X151654305Y-34312428D01*
X151421994Y-34439280D01*
X151421986Y-34439285D01*
X151229310Y-34583520D01*
X151163845Y-34607937D01*
X151095573Y-34593085D01*
X151080690Y-34583520D01*
X150888013Y-34439285D01*
X150888005Y-34439280D01*
X150655694Y-34312428D01*
X150655690Y-34312426D01*
X150407673Y-34219921D01*
X150149034Y-34163658D01*
X150149027Y-34163657D01*
X149885001Y-34144773D01*
X149884999Y-34144773D01*
X149620972Y-34163657D01*
X149620965Y-34163658D01*
X149362326Y-34219921D01*
X149114309Y-34312426D01*
X149114305Y-34312428D01*
X148881994Y-34439280D01*
X148881986Y-34439285D01*
X148689310Y-34583520D01*
X148623845Y-34607937D01*
X148555573Y-34593085D01*
X148540690Y-34583520D01*
X148348013Y-34439285D01*
X148348005Y-34439280D01*
X148115694Y-34312428D01*
X148115690Y-34312426D01*
X147867673Y-34219921D01*
X147609034Y-34163658D01*
X147609027Y-34163657D01*
X147345001Y-34144773D01*
X147344999Y-34144773D01*
X147080972Y-34163657D01*
X147080965Y-34163658D01*
X146822326Y-34219921D01*
X146574309Y-34312426D01*
X146574305Y-34312428D01*
X146341994Y-34439280D01*
X146341986Y-34439285D01*
X146149310Y-34583520D01*
X146083845Y-34607937D01*
X146015573Y-34593085D01*
X146000690Y-34583520D01*
X145808013Y-34439285D01*
X145808005Y-34439280D01*
X145575694Y-34312428D01*
X145575690Y-34312426D01*
X145327673Y-34219921D01*
X145069034Y-34163658D01*
X145069027Y-34163657D01*
X144805001Y-34144773D01*
X144804999Y-34144773D01*
X144540972Y-34163657D01*
X144540965Y-34163658D01*
X144282326Y-34219921D01*
X144034309Y-34312426D01*
X144034305Y-34312428D01*
X143801994Y-34439280D01*
X143801986Y-34439285D01*
X143609310Y-34583520D01*
X143543845Y-34607937D01*
X143475573Y-34593085D01*
X143460690Y-34583520D01*
X143268013Y-34439285D01*
X143268005Y-34439280D01*
X143035694Y-34312428D01*
X143035690Y-34312426D01*
X142787673Y-34219921D01*
X142529034Y-34163658D01*
X142529027Y-34163657D01*
X142265001Y-34144773D01*
X142264999Y-34144773D01*
X142000972Y-34163657D01*
X142000965Y-34163658D01*
X141742326Y-34219921D01*
X141494309Y-34312426D01*
X141494305Y-34312428D01*
X141261994Y-34439280D01*
X141261986Y-34439285D01*
X141069310Y-34583520D01*
X141003845Y-34607937D01*
X140935573Y-34593085D01*
X140920690Y-34583520D01*
X140728013Y-34439285D01*
X140728005Y-34439280D01*
X140495694Y-34312428D01*
X140495690Y-34312426D01*
X140247673Y-34219921D01*
X139989034Y-34163658D01*
X139989027Y-34163657D01*
X139725001Y-34144773D01*
X139724999Y-34144773D01*
X139460972Y-34163657D01*
X139460965Y-34163658D01*
X139202326Y-34219921D01*
X138954309Y-34312426D01*
X138809895Y-34391282D01*
X138741622Y-34406133D01*
X138676158Y-34381716D01*
X138672108Y-34378551D01*
X138591014Y-34312428D01*
X138588407Y-34310302D01*
X138408049Y-34216091D01*
X138408048Y-34216090D01*
X138408045Y-34216089D01*
X138290829Y-34182550D01*
X138212418Y-34160114D01*
X138212415Y-34160113D01*
X138212413Y-34160113D01*
X138146102Y-34154217D01*
X138093037Y-34149500D01*
X138093032Y-34149500D01*
X136276971Y-34149500D01*
X136276965Y-34149500D01*
X136276964Y-34149501D01*
X136265316Y-34150536D01*
X136157584Y-34160113D01*
X135961954Y-34216089D01*
X135871772Y-34263196D01*
X135781593Y-34310302D01*
X135781591Y-34310303D01*
X135781590Y-34310304D01*
X135623890Y-34438890D01*
X135498162Y-34593085D01*
X135495302Y-34596593D01*
X135470270Y-34644514D01*
X135401089Y-34776954D01*
X135345114Y-34972583D01*
X135345113Y-34972586D01*
X135334500Y-35091966D01*
X135334500Y-36908028D01*
X135334501Y-36908034D01*
X135345113Y-37027415D01*
X135401089Y-37223045D01*
X135401090Y-37223048D01*
X135401091Y-37223049D01*
X135495302Y-37403407D01*
X135495304Y-37403409D01*
X135623890Y-37561109D01*
X135697891Y-37621448D01*
X135781593Y-37689698D01*
X135961951Y-37783909D01*
X136157582Y-37839886D01*
X136276963Y-37850500D01*
X138093036Y-37850499D01*
X138212418Y-37839886D01*
X138408049Y-37783909D01*
X138588407Y-37689698D01*
X138672109Y-37621446D01*
X138736503Y-37594338D01*
X138805333Y-37606347D01*
X138809896Y-37608717D01*
X138954305Y-37687571D01*
X138954309Y-37687573D01*
X138954311Y-37687574D01*
X139202322Y-37780077D01*
X139202325Y-37780077D01*
X139202326Y-37780078D01*
X139219942Y-37783910D01*
X139460974Y-37836343D01*
X139704660Y-37853772D01*
X139724999Y-37855227D01*
X139725000Y-37855227D01*
X139725001Y-37855227D01*
X139743885Y-37853876D01*
X139989026Y-37836343D01*
X140247678Y-37780077D01*
X140495689Y-37687574D01*
X140728011Y-37560716D01*
X140848808Y-37470289D01*
X140920690Y-37416479D01*
X140986154Y-37392062D01*
X141054427Y-37406914D01*
X141069310Y-37416479D01*
X141261986Y-37560714D01*
X141261994Y-37560719D01*
X141494305Y-37687571D01*
X141494309Y-37687573D01*
X141494311Y-37687574D01*
X141742322Y-37780077D01*
X141742325Y-37780077D01*
X141742326Y-37780078D01*
X141759942Y-37783910D01*
X142000974Y-37836343D01*
X142244660Y-37853772D01*
X142264999Y-37855227D01*
X142265000Y-37855227D01*
X142265001Y-37855227D01*
X142283885Y-37853876D01*
X142529026Y-37836343D01*
X142787678Y-37780077D01*
X143035689Y-37687574D01*
X143268011Y-37560716D01*
X143388808Y-37470289D01*
X143460690Y-37416479D01*
X143526154Y-37392062D01*
X143594427Y-37406914D01*
X143609310Y-37416479D01*
X143801986Y-37560714D01*
X143801994Y-37560719D01*
X144034305Y-37687571D01*
X144034309Y-37687573D01*
X144034311Y-37687574D01*
X144282322Y-37780077D01*
X144282325Y-37780077D01*
X144282326Y-37780078D01*
X144299942Y-37783910D01*
X144540974Y-37836343D01*
X144784660Y-37853772D01*
X144804999Y-37855227D01*
X144805000Y-37855227D01*
X144805001Y-37855227D01*
X144823885Y-37853876D01*
X145069026Y-37836343D01*
X145327678Y-37780077D01*
X145575689Y-37687574D01*
X145808011Y-37560716D01*
X145896191Y-37494705D01*
X145961654Y-37470289D01*
X146029927Y-37485141D01*
X146079332Y-37534546D01*
X146094500Y-37593973D01*
X146094500Y-38552542D01*
X146074815Y-38619581D01*
X146041117Y-38654469D01*
X145995349Y-38686177D01*
X145836179Y-38845348D01*
X145836174Y-38845354D01*
X145707997Y-39030367D01*
X145707991Y-39030377D01*
X145614903Y-39235318D01*
X145614902Y-39235321D01*
X145559905Y-39453579D01*
X145559904Y-39453586D01*
X145549500Y-39585777D01*
X145549500Y-40414208D01*
X145549501Y-40414223D01*
X145559904Y-40546413D01*
X145559905Y-40546417D01*
X145572198Y-40595201D01*
X145569491Y-40665018D01*
X145529468Y-40722289D01*
X145464836Y-40748829D01*
X145451957Y-40749500D01*
X143881836Y-40749500D01*
X143814797Y-40729815D01*
X143794155Y-40713181D01*
X143779655Y-40698681D01*
X143726549Y-40661889D01*
X143682652Y-40607530D01*
X143675113Y-40538069D01*
X143679459Y-40520956D01*
X143714505Y-40415194D01*
X143714506Y-40415190D01*
X143724999Y-40312486D01*
X143725000Y-40312473D01*
X143725000Y-40175000D01*
X141275001Y-40175000D01*
X141275001Y-40312486D01*
X141285494Y-40415197D01*
X141320540Y-40520957D01*
X141322942Y-40590785D01*
X141287210Y-40650827D01*
X141273452Y-40661888D01*
X141220346Y-40698681D01*
X141220335Y-40698690D01*
X141205845Y-40713181D01*
X141144522Y-40746666D01*
X141118164Y-40749500D01*
X134374143Y-40749500D01*
X134342050Y-40745275D01*
X134226697Y-40714366D01*
X134226693Y-40714365D01*
X134226692Y-40714365D01*
X134226691Y-40714364D01*
X134226686Y-40714364D01*
X134000002Y-40694532D01*
X133999998Y-40694532D01*
X133773313Y-40714364D01*
X133773302Y-40714366D01*
X133553511Y-40773258D01*
X133553502Y-40773261D01*
X133347267Y-40869431D01*
X133347265Y-40869432D01*
X133160858Y-40999954D01*
X132999954Y-41160858D01*
X132869432Y-41347265D01*
X132869431Y-41347267D01*
X132773261Y-41553502D01*
X132773258Y-41553511D01*
X132714366Y-41773302D01*
X132714364Y-41773313D01*
X132694532Y-41999998D01*
X128500000Y-41999998D01*
X128500000Y-39537513D01*
X141275000Y-39537513D01*
X141275000Y-39675000D01*
X142250000Y-39675000D01*
X142750000Y-39675000D01*
X143724999Y-39675000D01*
X143724999Y-39537528D01*
X143724998Y-39537513D01*
X143714505Y-39434802D01*
X143659358Y-39268380D01*
X143659356Y-39268375D01*
X143567315Y-39119154D01*
X143443345Y-38995184D01*
X143294124Y-38903143D01*
X143294119Y-38903141D01*
X143127697Y-38847994D01*
X143127690Y-38847993D01*
X143024986Y-38837500D01*
X142750000Y-38837500D01*
X142750000Y-39675000D01*
X142250000Y-39675000D01*
X142250000Y-38837500D01*
X141975029Y-38837500D01*
X141975012Y-38837501D01*
X141872302Y-38847994D01*
X141705880Y-38903141D01*
X141705875Y-38903143D01*
X141556654Y-38995184D01*
X141432684Y-39119154D01*
X141340643Y-39268375D01*
X141340641Y-39268380D01*
X141285494Y-39434802D01*
X141285493Y-39434809D01*
X141275000Y-39537513D01*
X128500000Y-39537513D01*
X128500000Y-33881902D01*
X129499500Y-33881902D01*
X129499500Y-34118097D01*
X129536446Y-34351368D01*
X129609433Y-34575996D01*
X129711826Y-34776951D01*
X129716657Y-34786433D01*
X129855483Y-34977510D01*
X130022490Y-35144517D01*
X130213567Y-35283343D01*
X130312991Y-35334002D01*
X130424003Y-35390566D01*
X130424005Y-35390566D01*
X130424008Y-35390568D01*
X130544412Y-35429689D01*
X130648631Y-35463553D01*
X130881903Y-35500500D01*
X130881908Y-35500500D01*
X131118097Y-35500500D01*
X131351368Y-35463553D01*
X131575992Y-35390568D01*
X131786433Y-35283343D01*
X131977510Y-35144517D01*
X132144517Y-34977510D01*
X132283343Y-34786433D01*
X132390568Y-34575992D01*
X132463553Y-34351368D01*
X132463986Y-34348632D01*
X132500500Y-34118097D01*
X132500500Y-33881902D01*
X132463553Y-33648631D01*
X132390566Y-33424003D01*
X132283342Y-33213566D01*
X132144517Y-33022490D01*
X131977510Y-32855483D01*
X131786433Y-32716657D01*
X131780367Y-32713566D01*
X131575996Y-32609433D01*
X131351368Y-32536446D01*
X131118097Y-32499500D01*
X131118092Y-32499500D01*
X130881908Y-32499500D01*
X130881903Y-32499500D01*
X130648631Y-32536446D01*
X130424003Y-32609433D01*
X130213566Y-32716657D01*
X130104550Y-32795862D01*
X130022490Y-32855483D01*
X130022488Y-32855485D01*
X130022487Y-32855485D01*
X129855485Y-33022487D01*
X129855485Y-33022488D01*
X129855483Y-33022490D01*
X129795862Y-33104550D01*
X129716657Y-33213566D01*
X129609433Y-33424003D01*
X129536446Y-33648631D01*
X129499500Y-33881902D01*
X128500000Y-33881902D01*
X128500000Y-30624500D01*
X128519685Y-30557461D01*
X128572489Y-30511706D01*
X128624000Y-30500500D01*
X266376000Y-30500500D01*
X266443039Y-30520185D01*
G37*
%TD.AperFunction*%
%TD*%
M02*
