%TF.GenerationSoftware,KiCad,Pcbnew,8.0.9-8.0.9-0~ubuntu24.04.1*%
%TF.CreationDate,2025-02-24T19:57:28+02:00*%
%TF.ProjectId,LRL5,4c524c35-2e6b-4696-9361-645f70636258,rev?*%
%TF.SameCoordinates,Original*%
%TF.FileFunction,Copper,L2,Bot*%
%TF.FilePolarity,Positive*%
%FSLAX46Y46*%
G04 Gerber Fmt 4.6, Leading zero omitted, Abs format (unit mm)*
G04 Created by KiCad (PCBNEW 8.0.9-8.0.9-0~ubuntu24.04.1) date 2025-02-24 19:57:28*
%MOMM*%
%LPD*%
G01*
G04 APERTURE LIST*
%TA.AperFunction,ComponentPad*%
%ADD10R,1.700000X1.700000*%
%TD*%
%TA.AperFunction,ComponentPad*%
%ADD11O,1.700000X1.700000*%
%TD*%
%TA.AperFunction,ComponentPad*%
%ADD12R,2.000000X2.000000*%
%TD*%
%TA.AperFunction,ComponentPad*%
%ADD13R,2.000000X1.905000*%
%TD*%
%TA.AperFunction,ComponentPad*%
%ADD14O,2.000000X1.905000*%
%TD*%
%TA.AperFunction,ComponentPad*%
%ADD15R,1.600000X1.600000*%
%TD*%
%TA.AperFunction,ComponentPad*%
%ADD16C,1.600000*%
%TD*%
%TA.AperFunction,ComponentPad*%
%ADD17R,1.710000X1.800000*%
%TD*%
%TA.AperFunction,ComponentPad*%
%ADD18O,1.710000X1.800000*%
%TD*%
%TA.AperFunction,ComponentPad*%
%ADD19O,1.800000X3.400000*%
%TD*%
%TA.AperFunction,ViaPad*%
%ADD20C,0.600000*%
%TD*%
%TA.AperFunction,Conductor*%
%ADD21C,0.500000*%
%TD*%
G04 APERTURE END LIST*
D10*
%TO.P,J1,1,Pin_1*%
%TO.N,Net-(J1-Pin_1)*%
X237000000Y-77300000D03*
D11*
%TO.P,J1,2,Pin_2*%
%TO.N,BATT{slash}2*%
X239540000Y-77300000D03*
%TO.P,J1,3,Pin_3*%
%TO.N,GND*%
X242080000Y-77300000D03*
%TD*%
D12*
%TO.P,TP1,1,1*%
%TO.N,+3.3V*%
X191400000Y-76400000D03*
%TD*%
D13*
%TO.P,U1,1,IN*%
%TO.N,+BATT*%
X211250000Y-70920000D03*
D14*
%TO.P,U1,2,GND*%
%TO.N,GND*%
X211250000Y-73460000D03*
%TO.P,U1,3,OUT*%
%TO.N,+3.3V*%
X211250000Y-76000000D03*
%TD*%
D15*
%TO.P,C2,1*%
%TO.N,+3.3V*%
X199250000Y-76000000D03*
D16*
%TO.P,C2,2*%
%TO.N,GND*%
X199250000Y-73500000D03*
%TD*%
D12*
%TO.P,TP2,1,1*%
%TO.N,GND*%
X185000000Y-76400000D03*
%TD*%
D17*
%TO.P,Q1,1,C*%
%TO.N,Net-(D2-K)*%
X182475000Y-61200000D03*
D18*
%TO.P,Q1,2,B*%
%TO.N,Net-(D2-A)*%
X180195000Y-61200000D03*
%TO.P,Q1,3,E*%
%TO.N,GND*%
X177915000Y-61200000D03*
%TD*%
D10*
%TO.P,J6,1,Pin_1*%
%TO.N,MODE_A*%
X175000000Y-51200000D03*
D11*
%TO.P,J6,2,Pin_2*%
%TO.N,MODE_B*%
X175000000Y-48660000D03*
%TO.P,J6,3,Pin_3*%
%TO.N,MODE_SW1*%
X175000000Y-46120000D03*
%TO.P,J6,4,Pin_4*%
%TO.N,GND*%
X175000000Y-43580000D03*
%TD*%
D15*
%TO.P,U2,1,~{RST}*%
%TO.N,LCD_RESET*%
X217500000Y-63900000D03*
D16*
%TO.P,U2,2,SCL*%
%TO.N,I2C1_SCL*%
X219500000Y-63900000D03*
%TO.P,U2,3,SDA*%
%TO.N,I2C1_SDA*%
X221500000Y-63900000D03*
%TO.P,U2,4,VSS*%
%TO.N,GND*%
X223500000Y-63900000D03*
%TO.P,U2,5,VDD*%
%TO.N,+3.3V*%
X225500000Y-63900000D03*
%TO.P,U2,6,VOUT*%
%TO.N,Net-(U2-VOUT)*%
X227500000Y-63900000D03*
%TO.P,U2,7,C1+*%
%TO.N,Net-(U2-C1+)*%
X229500000Y-63900000D03*
%TO.P,U2,8,C1-*%
%TO.N,Net-(U2-C1-)*%
X231500000Y-63900000D03*
D19*
%TO.P,U2,9,A*%
%TO.N,GND*%
X263050000Y-52250000D03*
%TO.P,U2,10,K*%
X263050000Y-43750000D03*
%TD*%
D20*
%TO.N,+BATT*%
X232680000Y-70920000D03*
X190800000Y-63200000D03*
%TO.N,GND*%
X200500000Y-68000000D03*
X248400000Y-49400000D03*
X181800000Y-39400000D03*
X191200000Y-59200000D03*
%TO.N,+3.3V*%
X250000000Y-55600000D03*
X228600000Y-57200000D03*
%TO.N,Net-(D2-K)*%
X246200000Y-69800000D03*
X190800000Y-61200000D03*
%TO.N,I2C1_SDA*%
X240800000Y-54200000D03*
%TO.N,I2C1_SCL*%
X240800000Y-52000000D03*
%TO.N,MODE_A*%
X230950000Y-43800000D03*
%TO.N,UART1_TX*%
X214400000Y-46200000D03*
X198000000Y-46200000D03*
%TO.N,UART1_RX*%
X199200000Y-53000000D03*
X215600000Y-53000000D03*
%TO.N,MODE_B*%
X232600000Y-42600000D03*
%TO.N,VBAT*%
X200400000Y-45000000D03*
X223400000Y-45000000D03*
%TO.N,MODE_SW1*%
X234200000Y-41550000D03*
%TO.N,USER_BTN*%
X215400000Y-40000000D03*
X188600000Y-40000000D03*
%TD*%
D21*
%TO.N,+BATT*%
X190800000Y-63200000D02*
X206000000Y-63200000D01*
X206000000Y-63200000D02*
X211250000Y-68450000D01*
X211250000Y-68450000D02*
X211250000Y-70920000D01*
X232680000Y-70920000D02*
X211250000Y-70920000D01*
%TO.N,GND*%
X264550000Y-51357500D02*
X264550000Y-52250000D01*
X264603750Y-51303750D02*
X264550000Y-51357500D01*
%TO.N,+3.3V*%
X250000000Y-55600000D02*
X230200000Y-55600000D01*
X228600000Y-57200000D02*
X225500000Y-60300000D01*
X225500000Y-60300000D02*
X225500000Y-63900000D01*
X230200000Y-55600000D02*
X228600000Y-57200000D01*
%TO.N,Net-(D2-K)*%
X205800000Y-61200000D02*
X190800000Y-61200000D01*
X214400000Y-69800000D02*
X205800000Y-61200000D01*
X246200000Y-69800000D02*
X214400000Y-69800000D01*
%TO.N,I2C1_SDA*%
X229000000Y-54600000D02*
X221500000Y-62100000D01*
X221500000Y-62100000D02*
X221500000Y-63900000D01*
X240400000Y-54600000D02*
X229000000Y-54600000D01*
X240800000Y-54200000D02*
X240400000Y-54600000D01*
%TO.N,I2C1_SCL*%
X240800000Y-52000000D02*
X239400000Y-53400000D01*
X239400000Y-53400000D02*
X228000000Y-53400000D01*
X219500000Y-61900000D02*
X219500000Y-63900000D01*
X228000000Y-53400000D02*
X219500000Y-61900000D01*
%TO.N,MODE_A*%
X185400000Y-43800000D02*
X178000000Y-51200000D01*
X178000000Y-51200000D02*
X175000000Y-51200000D01*
X230950000Y-43800000D02*
X185400000Y-43800000D01*
%TO.N,UART1_TX*%
X198000000Y-46200000D02*
X214400000Y-46200000D01*
%TO.N,UART1_RX*%
X199200000Y-53000000D02*
X215600000Y-53000000D01*
%TO.N,MODE_B*%
X178800000Y-48600000D02*
X175060000Y-48600000D01*
X184800000Y-42600000D02*
X178800000Y-48600000D01*
X232600000Y-42600000D02*
X184800000Y-42600000D01*
%TO.N,VBAT*%
X200400000Y-45000000D02*
X223400000Y-45000000D01*
%TO.N,MODE_SW1*%
X234050000Y-41400000D02*
X184200000Y-41400000D01*
X234200000Y-41550000D02*
X234050000Y-41400000D01*
X179600000Y-46000000D02*
X175120000Y-46000000D01*
X184200000Y-41400000D02*
X179600000Y-46000000D01*
%TO.N,USER_BTN*%
X188600000Y-40000000D02*
X215400000Y-40000000D01*
%TD*%
%TA.AperFunction,Conductor*%
%TO.N,GND*%
G36*
X266942539Y-30520185D02*
G01*
X266988294Y-30572989D01*
X266999500Y-30624500D01*
X266999500Y-79375500D01*
X266979815Y-79442539D01*
X266927011Y-79488294D01*
X266875500Y-79499500D01*
X171874500Y-79499500D01*
X171807461Y-79479815D01*
X171761706Y-79427011D01*
X171750500Y-79375500D01*
X171750500Y-76378711D01*
X172899500Y-76378711D01*
X172899500Y-76621288D01*
X172930667Y-76858036D01*
X172931162Y-76861789D01*
X172932270Y-76865925D01*
X172993947Y-77096104D01*
X173025819Y-77173049D01*
X173086776Y-77320212D01*
X173208064Y-77530289D01*
X173208066Y-77530292D01*
X173208067Y-77530293D01*
X173355733Y-77722736D01*
X173355739Y-77722743D01*
X173527256Y-77894260D01*
X173527263Y-77894266D01*
X173604340Y-77953409D01*
X173719711Y-78041936D01*
X173929788Y-78163224D01*
X174153900Y-78256054D01*
X174388211Y-78318838D01*
X174568586Y-78342584D01*
X174628711Y-78350500D01*
X174628712Y-78350500D01*
X174871289Y-78350500D01*
X174919388Y-78344167D01*
X175111789Y-78318838D01*
X175346100Y-78256054D01*
X175570212Y-78163224D01*
X175780289Y-78041936D01*
X175972738Y-77894265D01*
X176144265Y-77722738D01*
X176291936Y-77530289D01*
X176413224Y-77320212D01*
X176506054Y-77096100D01*
X176568838Y-76861789D01*
X176600500Y-76621288D01*
X176600500Y-76378712D01*
X176568838Y-76138211D01*
X176506054Y-75903900D01*
X176413224Y-75679788D01*
X176291936Y-75469711D01*
X176201732Y-75352155D01*
X183500000Y-75352155D01*
X183500000Y-76150000D01*
X184566988Y-76150000D01*
X184534075Y-76207007D01*
X184500000Y-76334174D01*
X184500000Y-76465826D01*
X184534075Y-76592993D01*
X184566988Y-76650000D01*
X183500000Y-76650000D01*
X183500000Y-77447844D01*
X183506401Y-77507372D01*
X183506403Y-77507379D01*
X183556645Y-77642086D01*
X183556649Y-77642093D01*
X183642809Y-77757187D01*
X183642812Y-77757190D01*
X183757906Y-77843350D01*
X183757913Y-77843354D01*
X183892620Y-77893596D01*
X183892627Y-77893598D01*
X183952155Y-77899999D01*
X183952172Y-77900000D01*
X184750000Y-77900000D01*
X184750000Y-76833012D01*
X184807007Y-76865925D01*
X184934174Y-76900000D01*
X185065826Y-76900000D01*
X185192993Y-76865925D01*
X185250000Y-76833012D01*
X185250000Y-77900000D01*
X186047828Y-77900000D01*
X186047844Y-77899999D01*
X186107372Y-77893598D01*
X186107379Y-77893596D01*
X186242086Y-77843354D01*
X186242093Y-77843350D01*
X186357187Y-77757190D01*
X186357190Y-77757187D01*
X186443350Y-77642093D01*
X186443354Y-77642086D01*
X186493596Y-77507379D01*
X186493598Y-77507372D01*
X186499999Y-77447844D01*
X186500000Y-77447827D01*
X186500000Y-76650000D01*
X185433012Y-76650000D01*
X185465925Y-76592993D01*
X185500000Y-76465826D01*
X185500000Y-76334174D01*
X185465925Y-76207007D01*
X185433012Y-76150000D01*
X186500000Y-76150000D01*
X186500000Y-75352172D01*
X186499999Y-75352155D01*
X186498903Y-75341966D01*
X189399500Y-75341966D01*
X189399500Y-77458028D01*
X189399501Y-77458034D01*
X189410113Y-77577415D01*
X189466089Y-77773045D01*
X189466090Y-77773048D01*
X189466091Y-77773049D01*
X189560302Y-77953407D01*
X189560304Y-77953409D01*
X189688890Y-78111109D01*
X189752805Y-78163224D01*
X189846593Y-78239698D01*
X190026951Y-78333909D01*
X190222582Y-78389886D01*
X190341963Y-78400500D01*
X192458036Y-78400499D01*
X192577418Y-78389886D01*
X192773049Y-78333909D01*
X192953407Y-78239698D01*
X193111109Y-78111109D01*
X193239698Y-77953407D01*
X193333909Y-77773049D01*
X193389886Y-77577418D01*
X193400500Y-77458037D01*
X193400499Y-75341964D01*
X193389886Y-75222582D01*
X193366819Y-75141966D01*
X197449500Y-75141966D01*
X197449500Y-76858028D01*
X197449501Y-76858034D01*
X197460113Y-76977415D01*
X197516089Y-77173045D01*
X197516090Y-77173048D01*
X197516091Y-77173049D01*
X197610302Y-77353407D01*
X197644977Y-77395933D01*
X197738890Y-77511109D01*
X197832803Y-77587684D01*
X197896593Y-77639698D01*
X198076951Y-77733909D01*
X198272582Y-77789886D01*
X198391963Y-77800500D01*
X200108036Y-77800499D01*
X200227418Y-77789886D01*
X200423049Y-77733909D01*
X200603407Y-77639698D01*
X200761109Y-77511109D01*
X200889698Y-77353407D01*
X200983909Y-77173049D01*
X201039886Y-76977418D01*
X201050500Y-76858037D01*
X201050499Y-75141964D01*
X201039886Y-75022582D01*
X200986720Y-74836776D01*
X200983910Y-74826954D01*
X200983909Y-74826953D01*
X200983909Y-74826951D01*
X200889698Y-74646593D01*
X200819337Y-74560302D01*
X200761109Y-74488890D01*
X200618558Y-74372656D01*
X200603407Y-74360302D01*
X200451004Y-74280693D01*
X200400699Y-74232208D01*
X200384592Y-74164220D01*
X200396036Y-74118381D01*
X200476265Y-73946326D01*
X200476269Y-73946317D01*
X200535139Y-73726610D01*
X200535141Y-73726599D01*
X200554966Y-73500000D01*
X200554966Y-73499997D01*
X200535141Y-73273400D01*
X200535139Y-73273389D01*
X200476269Y-73053682D01*
X200476264Y-73053668D01*
X200380136Y-72847521D01*
X200380132Y-72847513D01*
X200329025Y-72774526D01*
X199650000Y-73453551D01*
X199650000Y-73447339D01*
X199622741Y-73345606D01*
X199570080Y-73254394D01*
X199495606Y-73179920D01*
X199404394Y-73127259D01*
X199302661Y-73100000D01*
X199296445Y-73100000D01*
X199975472Y-72420974D01*
X199902478Y-72369863D01*
X199696331Y-72273735D01*
X199696317Y-72273730D01*
X199476610Y-72214860D01*
X199476599Y-72214858D01*
X199250002Y-72195034D01*
X199249998Y-72195034D01*
X199023400Y-72214858D01*
X199023389Y-72214860D01*
X198803682Y-72273730D01*
X198803673Y-72273734D01*
X198597516Y-72369866D01*
X198597512Y-72369868D01*
X198524526Y-72420973D01*
X198524526Y-72420974D01*
X199203553Y-73100000D01*
X199197339Y-73100000D01*
X199095606Y-73127259D01*
X199004394Y-73179920D01*
X198929920Y-73254394D01*
X198877259Y-73345606D01*
X198850000Y-73447339D01*
X198850000Y-73453552D01*
X198170974Y-72774526D01*
X198170973Y-72774526D01*
X198119868Y-72847512D01*
X198119866Y-72847516D01*
X198023734Y-73053673D01*
X198023730Y-73053682D01*
X197964860Y-73273389D01*
X197964858Y-73273400D01*
X197945034Y-73499997D01*
X197945034Y-73500000D01*
X197964858Y-73726599D01*
X197964860Y-73726610D01*
X198023730Y-73946317D01*
X198023734Y-73946326D01*
X198103964Y-74118381D01*
X198114456Y-74187459D01*
X198085936Y-74251243D01*
X198048995Y-74280693D01*
X197896593Y-74360302D01*
X197896591Y-74360303D01*
X197896590Y-74360304D01*
X197738890Y-74488890D01*
X197610304Y-74646590D01*
X197610302Y-74646593D01*
X197577427Y-74709529D01*
X197516089Y-74826954D01*
X197460114Y-75022583D01*
X197460113Y-75022586D01*
X197449500Y-75141966D01*
X193366819Y-75141966D01*
X193333909Y-75026951D01*
X193239698Y-74846593D01*
X193186908Y-74781851D01*
X193111109Y-74688890D01*
X192995933Y-74594977D01*
X192953407Y-74560302D01*
X192773049Y-74466091D01*
X192773048Y-74466090D01*
X192773045Y-74466089D01*
X192650184Y-74430935D01*
X192577418Y-74410114D01*
X192577415Y-74410113D01*
X192577413Y-74410113D01*
X192511102Y-74404217D01*
X192458037Y-74399500D01*
X192458032Y-74399500D01*
X190341971Y-74399500D01*
X190341965Y-74399500D01*
X190341964Y-74399501D01*
X190330316Y-74400536D01*
X190222584Y-74410113D01*
X190026954Y-74466089D01*
X189936772Y-74513196D01*
X189846593Y-74560302D01*
X189846591Y-74560303D01*
X189846590Y-74560304D01*
X189688890Y-74688890D01*
X189560304Y-74846590D01*
X189560302Y-74846593D01*
X189525798Y-74912647D01*
X189466089Y-75026954D01*
X189410114Y-75222583D01*
X189410113Y-75222586D01*
X189399500Y-75341966D01*
X186498903Y-75341966D01*
X186493598Y-75292627D01*
X186493596Y-75292620D01*
X186443354Y-75157913D01*
X186443350Y-75157906D01*
X186357190Y-75042812D01*
X186357187Y-75042809D01*
X186242093Y-74956649D01*
X186242086Y-74956645D01*
X186107379Y-74906403D01*
X186107372Y-74906401D01*
X186047844Y-74900000D01*
X185250000Y-74900000D01*
X185250000Y-75966988D01*
X185192993Y-75934075D01*
X185065826Y-75900000D01*
X184934174Y-75900000D01*
X184807007Y-75934075D01*
X184750000Y-75966988D01*
X184750000Y-74900000D01*
X183952155Y-74900000D01*
X183892627Y-74906401D01*
X183892620Y-74906403D01*
X183757913Y-74956645D01*
X183757906Y-74956649D01*
X183642812Y-75042809D01*
X183642809Y-75042812D01*
X183556649Y-75157906D01*
X183556645Y-75157913D01*
X183506403Y-75292620D01*
X183506401Y-75292627D01*
X183500000Y-75352155D01*
X176201732Y-75352155D01*
X176193913Y-75341965D01*
X176144266Y-75277263D01*
X176144260Y-75277256D01*
X175972743Y-75105739D01*
X175972736Y-75105733D01*
X175780293Y-74958067D01*
X175780292Y-74958066D01*
X175780289Y-74958064D01*
X175570212Y-74836776D01*
X175546500Y-74826954D01*
X175346104Y-74743947D01*
X175111785Y-74681161D01*
X174871289Y-74649500D01*
X174871288Y-74649500D01*
X174628712Y-74649500D01*
X174628711Y-74649500D01*
X174388214Y-74681161D01*
X174153895Y-74743947D01*
X173929794Y-74836773D01*
X173929785Y-74836777D01*
X173719706Y-74958067D01*
X173527263Y-75105733D01*
X173527256Y-75105739D01*
X173355739Y-75277256D01*
X173355733Y-75277263D01*
X173208067Y-75469706D01*
X173086777Y-75679785D01*
X173086773Y-75679794D01*
X172993947Y-75903895D01*
X172931161Y-76138214D01*
X172899500Y-76378711D01*
X171750500Y-76378711D01*
X171750500Y-67681902D01*
X190499500Y-67681902D01*
X190499500Y-67918097D01*
X190536446Y-68151368D01*
X190609433Y-68375996D01*
X190716657Y-68586433D01*
X190855483Y-68777510D01*
X191022490Y-68944517D01*
X191213567Y-69083343D01*
X191300823Y-69127802D01*
X191424003Y-69190566D01*
X191424005Y-69190566D01*
X191424008Y-69190568D01*
X191544412Y-69229689D01*
X191648631Y-69263553D01*
X191881903Y-69300500D01*
X191881908Y-69300500D01*
X192118097Y-69300500D01*
X192351368Y-69263553D01*
X192373413Y-69256390D01*
X192575992Y-69190568D01*
X192786433Y-69083343D01*
X192977510Y-68944517D01*
X193144517Y-68777510D01*
X193283343Y-68586433D01*
X193390568Y-68375992D01*
X193463553Y-68151368D01*
X193500500Y-67918097D01*
X193500500Y-67681902D01*
X193463553Y-67448631D01*
X193390566Y-67224003D01*
X193283342Y-67013566D01*
X193144517Y-66822490D01*
X192977510Y-66655483D01*
X192786433Y-66516657D01*
X192575996Y-66409433D01*
X192351368Y-66336446D01*
X192118097Y-66299500D01*
X192118092Y-66299500D01*
X191881908Y-66299500D01*
X191881903Y-66299500D01*
X191648631Y-66336446D01*
X191424003Y-66409433D01*
X191213566Y-66516657D01*
X191104550Y-66595862D01*
X191022490Y-66655483D01*
X191022488Y-66655485D01*
X191022487Y-66655485D01*
X190855485Y-66822487D01*
X190855485Y-66822488D01*
X190855483Y-66822490D01*
X190795862Y-66904550D01*
X190716657Y-67013566D01*
X190609433Y-67224003D01*
X190536446Y-67448631D01*
X190499500Y-67681902D01*
X171750500Y-67681902D01*
X171750500Y-60950000D01*
X176575579Y-60950000D01*
X177481988Y-60950000D01*
X177449075Y-61007007D01*
X177415000Y-61134174D01*
X177415000Y-61265826D01*
X177449075Y-61392993D01*
X177481988Y-61450000D01*
X176575579Y-61450000D01*
X176593365Y-61562298D01*
X176659270Y-61765136D01*
X176659271Y-61765139D01*
X176756100Y-61955175D01*
X176881466Y-62127724D01*
X176881466Y-62127725D01*
X177032274Y-62278533D01*
X177204824Y-62403899D01*
X177394860Y-62500728D01*
X177394863Y-62500729D01*
X177597696Y-62566633D01*
X177665000Y-62577292D01*
X177665000Y-61633012D01*
X177722007Y-61665925D01*
X177849174Y-61700000D01*
X177980826Y-61700000D01*
X178107993Y-61665925D01*
X178165000Y-61633012D01*
X178165000Y-62577291D01*
X178232303Y-62566633D01*
X178435136Y-62500729D01*
X178435139Y-62500728D01*
X178619752Y-62406662D01*
X178688421Y-62393766D01*
X178753161Y-62420042D01*
X178774422Y-62441660D01*
X178796964Y-62471036D01*
X178796972Y-62471046D01*
X178968953Y-62643027D01*
X178968960Y-62643033D01*
X179066808Y-62718114D01*
X179161928Y-62791102D01*
X179297309Y-62869264D01*
X179372565Y-62912714D01*
X179372570Y-62912716D01*
X179372573Y-62912718D01*
X179597289Y-63005799D01*
X179832233Y-63068752D01*
X180073384Y-63100500D01*
X180073391Y-63100500D01*
X180316609Y-63100500D01*
X180316616Y-63100500D01*
X180557767Y-63068752D01*
X180792711Y-63005799D01*
X180962523Y-62935459D01*
X181031992Y-62927991D01*
X181067380Y-62940109D01*
X181246951Y-63033909D01*
X181442582Y-63089886D01*
X181561963Y-63100500D01*
X183388036Y-63100499D01*
X183507418Y-63089886D01*
X183703049Y-63033909D01*
X183883407Y-62939698D01*
X184041109Y-62811109D01*
X184169698Y-62653407D01*
X184263909Y-62473049D01*
X184319886Y-62277418D01*
X184330500Y-62158037D01*
X184330499Y-61199998D01*
X189494532Y-61199998D01*
X189494532Y-61200001D01*
X189514364Y-61426686D01*
X189514366Y-61426697D01*
X189573258Y-61646488D01*
X189573261Y-61646497D01*
X189669431Y-61852732D01*
X189669432Y-61852734D01*
X189799954Y-62039141D01*
X189873132Y-62112319D01*
X189906617Y-62173642D01*
X189901633Y-62243334D01*
X189873132Y-62287681D01*
X189799954Y-62360858D01*
X189669432Y-62547265D01*
X189669431Y-62547267D01*
X189573261Y-62753502D01*
X189573258Y-62753511D01*
X189514366Y-62973302D01*
X189514364Y-62973313D01*
X189494532Y-63199998D01*
X189494532Y-63200001D01*
X189514364Y-63426686D01*
X189514366Y-63426697D01*
X189573258Y-63646488D01*
X189573261Y-63646497D01*
X189669431Y-63852732D01*
X189669432Y-63852734D01*
X189799954Y-64039141D01*
X189960858Y-64200045D01*
X189960861Y-64200047D01*
X190147266Y-64330568D01*
X190353504Y-64426739D01*
X190573308Y-64485635D01*
X190735230Y-64499801D01*
X190799998Y-64505468D01*
X190800000Y-64505468D01*
X190800002Y-64505468D01*
X190856673Y-64500509D01*
X191026692Y-64485635D01*
X191142050Y-64454724D01*
X191174143Y-64450500D01*
X205430664Y-64450500D01*
X205497703Y-64470185D01*
X205518345Y-64486819D01*
X209881147Y-68849621D01*
X209914632Y-68910944D01*
X209909648Y-68980636D01*
X209867776Y-69036569D01*
X209850883Y-69047207D01*
X209696593Y-69127802D01*
X209696591Y-69127803D01*
X209696590Y-69127804D01*
X209538890Y-69256390D01*
X209410304Y-69414090D01*
X209316089Y-69594454D01*
X209260114Y-69790083D01*
X209260113Y-69790086D01*
X209249500Y-69909466D01*
X209249500Y-71930528D01*
X209249501Y-71930534D01*
X209260113Y-72049915D01*
X209316089Y-72245545D01*
X209316090Y-72245548D01*
X209316091Y-72245549D01*
X209410302Y-72425907D01*
X209410304Y-72425909D01*
X209538890Y-72583609D01*
X209667479Y-72688458D01*
X209696593Y-72712198D01*
X209793158Y-72762639D01*
X209843463Y-72811123D01*
X209859571Y-72879111D01*
X209853676Y-72910864D01*
X209785766Y-73119867D01*
X209785766Y-73119870D01*
X209771491Y-73210000D01*
X210701518Y-73210000D01*
X210690889Y-73228409D01*
X210650000Y-73381009D01*
X210650000Y-73538991D01*
X210690889Y-73691591D01*
X210701518Y-73710000D01*
X209771491Y-73710000D01*
X209785765Y-73800128D01*
X209856417Y-74017570D01*
X209960213Y-74221280D01*
X210015281Y-74297075D01*
X210038761Y-74362881D01*
X210022935Y-74430935D01*
X209990451Y-74468334D01*
X209912041Y-74528501D01*
X209912029Y-74528512D01*
X209731011Y-74709529D01*
X209575152Y-74912647D01*
X209447151Y-75134353D01*
X209447144Y-75134368D01*
X209349177Y-75370883D01*
X209300671Y-75551911D01*
X209284457Y-75612426D01*
X209282917Y-75618172D01*
X209249500Y-75871986D01*
X209249500Y-76128013D01*
X209269128Y-76277096D01*
X209282917Y-76381829D01*
X209295535Y-76428920D01*
X209349177Y-76629116D01*
X209447144Y-76865631D01*
X209447151Y-76865646D01*
X209575152Y-77087352D01*
X209731011Y-77290470D01*
X209912029Y-77471488D01*
X209912033Y-77471491D01*
X209912035Y-77471493D01*
X210115143Y-77627344D01*
X210115147Y-77627347D01*
X210336853Y-77755348D01*
X210336868Y-77755355D01*
X210459182Y-77806018D01*
X210573382Y-77853322D01*
X210820671Y-77919583D01*
X211074494Y-77953000D01*
X211074501Y-77953000D01*
X211425499Y-77953000D01*
X211425506Y-77953000D01*
X211679329Y-77919583D01*
X211926618Y-77853322D01*
X212163143Y-77755350D01*
X212384857Y-77627344D01*
X212587965Y-77471493D01*
X212768993Y-77290465D01*
X212924844Y-77087357D01*
X213052850Y-76865643D01*
X213150822Y-76629118D01*
X213214367Y-76391966D01*
X235149500Y-76391966D01*
X235149500Y-78208028D01*
X235149501Y-78208034D01*
X235160113Y-78327415D01*
X235216089Y-78523045D01*
X235216090Y-78523048D01*
X235216091Y-78523049D01*
X235310302Y-78703407D01*
X235310304Y-78703409D01*
X235438890Y-78861109D01*
X235512891Y-78921448D01*
X235596593Y-78989698D01*
X235776951Y-79083909D01*
X235972582Y-79139886D01*
X236091963Y-79150500D01*
X237908036Y-79150499D01*
X238027418Y-79139886D01*
X238223049Y-79083909D01*
X238403407Y-78989698D01*
X238487109Y-78921446D01*
X238551503Y-78894338D01*
X238620333Y-78906347D01*
X238624896Y-78908717D01*
X238769305Y-78987571D01*
X238769309Y-78987573D01*
X238769311Y-78987574D01*
X239017322Y-79080077D01*
X239017325Y-79080077D01*
X239017326Y-79080078D01*
X239034942Y-79083910D01*
X239275974Y-79136343D01*
X239519660Y-79153772D01*
X239539999Y-79155227D01*
X239540000Y-79155227D01*
X239540001Y-79155227D01*
X239558885Y-79153876D01*
X239804026Y-79136343D01*
X240062678Y-79080077D01*
X240310689Y-78987574D01*
X240543011Y-78860716D01*
X240754915Y-78702087D01*
X240942087Y-78514915D01*
X241048701Y-78372494D01*
X241104634Y-78330623D01*
X241174326Y-78325639D01*
X241219092Y-78345230D01*
X241402421Y-78473600D01*
X241616507Y-78573429D01*
X241616516Y-78573433D01*
X241830000Y-78630634D01*
X241830000Y-77733012D01*
X241887007Y-77765925D01*
X242014174Y-77800000D01*
X242145826Y-77800000D01*
X242272993Y-77765925D01*
X242330000Y-77733012D01*
X242330000Y-78630633D01*
X242543483Y-78573433D01*
X242543492Y-78573429D01*
X242757578Y-78473600D01*
X242951082Y-78338105D01*
X243118105Y-78171082D01*
X243253600Y-77977578D01*
X243353429Y-77763492D01*
X243353432Y-77763486D01*
X243410636Y-77550000D01*
X242513012Y-77550000D01*
X242545925Y-77492993D01*
X242580000Y-77365826D01*
X242580000Y-77234174D01*
X242545925Y-77107007D01*
X242513012Y-77050000D01*
X243410636Y-77050000D01*
X243410635Y-77049999D01*
X243353432Y-76836513D01*
X243353429Y-76836507D01*
X243253600Y-76622422D01*
X243253599Y-76622420D01*
X243118113Y-76428926D01*
X243118108Y-76428920D01*
X243067899Y-76378711D01*
X262149500Y-76378711D01*
X262149500Y-76621288D01*
X262180667Y-76858036D01*
X262181162Y-76861789D01*
X262182270Y-76865925D01*
X262243947Y-77096104D01*
X262275819Y-77173049D01*
X262336776Y-77320212D01*
X262458064Y-77530289D01*
X262458066Y-77530292D01*
X262458067Y-77530293D01*
X262605733Y-77722736D01*
X262605739Y-77722743D01*
X262777256Y-77894260D01*
X262777263Y-77894266D01*
X262854340Y-77953409D01*
X262969711Y-78041936D01*
X263179788Y-78163224D01*
X263403900Y-78256054D01*
X263638211Y-78318838D01*
X263818586Y-78342584D01*
X263878711Y-78350500D01*
X263878712Y-78350500D01*
X264121289Y-78350500D01*
X264169388Y-78344167D01*
X264361789Y-78318838D01*
X264596100Y-78256054D01*
X264820212Y-78163224D01*
X265030289Y-78041936D01*
X265222738Y-77894265D01*
X265394265Y-77722738D01*
X265541936Y-77530289D01*
X265663224Y-77320212D01*
X265756054Y-77096100D01*
X265818838Y-76861789D01*
X265850500Y-76621288D01*
X265850500Y-76378712D01*
X265818838Y-76138211D01*
X265756054Y-75903900D01*
X265663224Y-75679788D01*
X265541936Y-75469711D01*
X265443913Y-75341965D01*
X265394266Y-75277263D01*
X265394260Y-75277256D01*
X265222743Y-75105739D01*
X265222736Y-75105733D01*
X265030293Y-74958067D01*
X265030292Y-74958066D01*
X265030289Y-74958064D01*
X264820212Y-74836776D01*
X264796500Y-74826954D01*
X264596104Y-74743947D01*
X264361785Y-74681161D01*
X264121289Y-74649500D01*
X264121288Y-74649500D01*
X263878712Y-74649500D01*
X263878711Y-74649500D01*
X263638214Y-74681161D01*
X263403895Y-74743947D01*
X263179794Y-74836773D01*
X263179785Y-74836777D01*
X262969706Y-74958067D01*
X262777263Y-75105733D01*
X262777256Y-75105739D01*
X262605739Y-75277256D01*
X262605733Y-75277263D01*
X262458067Y-75469706D01*
X262336777Y-75679785D01*
X262336773Y-75679794D01*
X262243947Y-75903895D01*
X262181161Y-76138214D01*
X262149500Y-76378711D01*
X243067899Y-76378711D01*
X242951082Y-76261894D01*
X242757578Y-76126399D01*
X242543492Y-76026570D01*
X242543486Y-76026567D01*
X242330000Y-75969364D01*
X242330000Y-76866988D01*
X242272993Y-76834075D01*
X242145826Y-76800000D01*
X242014174Y-76800000D01*
X241887007Y-76834075D01*
X241830000Y-76866988D01*
X241830000Y-75969364D01*
X241829999Y-75969364D01*
X241616513Y-76026567D01*
X241616507Y-76026570D01*
X241402422Y-76126399D01*
X241402420Y-76126400D01*
X241219090Y-76254769D01*
X241152884Y-76277096D01*
X241085117Y-76260086D01*
X241048700Y-76227504D01*
X240942093Y-76085092D01*
X240942077Y-76085074D01*
X240754925Y-75897922D01*
X240754907Y-75897906D01*
X240543013Y-75739285D01*
X240543005Y-75739280D01*
X240310694Y-75612428D01*
X240310690Y-75612426D01*
X240062673Y-75519921D01*
X239804034Y-75463658D01*
X239804027Y-75463657D01*
X239540001Y-75444773D01*
X239539999Y-75444773D01*
X239275972Y-75463657D01*
X239275965Y-75463658D01*
X239017326Y-75519921D01*
X238769309Y-75612426D01*
X238624895Y-75691282D01*
X238556622Y-75706133D01*
X238491158Y-75681716D01*
X238487108Y-75678551D01*
X238449145Y-75647596D01*
X238403407Y-75610302D01*
X238223049Y-75516091D01*
X238223048Y-75516090D01*
X238223045Y-75516089D01*
X238105829Y-75482550D01*
X238027418Y-75460114D01*
X238027415Y-75460113D01*
X238027413Y-75460113D01*
X237961102Y-75454217D01*
X237908037Y-75449500D01*
X237908032Y-75449500D01*
X236091971Y-75449500D01*
X236091965Y-75449500D01*
X236091964Y-75449501D01*
X236080316Y-75450536D01*
X235972584Y-75460113D01*
X235776954Y-75516089D01*
X235686772Y-75563196D01*
X235596593Y-75610302D01*
X235596591Y-75610303D01*
X235596590Y-75610304D01*
X235438890Y-75738890D01*
X235310304Y-75896590D01*
X235310302Y-75896593D01*
X235290723Y-75934075D01*
X235216089Y-76076954D01*
X235160114Y-76272583D01*
X235160113Y-76272586D01*
X235149500Y-76391966D01*
X213214367Y-76391966D01*
X213217083Y-76381829D01*
X213250500Y-76128006D01*
X213250500Y-75871994D01*
X213217083Y-75618171D01*
X213150822Y-75370882D01*
X213089395Y-75222584D01*
X213052855Y-75134368D01*
X213052848Y-75134353D01*
X212924847Y-74912647D01*
X212874162Y-74846593D01*
X212768993Y-74709535D01*
X212768991Y-74709533D01*
X212768988Y-74709529D01*
X212587974Y-74528515D01*
X212587965Y-74528507D01*
X212509548Y-74468335D01*
X212468346Y-74411907D01*
X212464191Y-74342161D01*
X212484718Y-74297073D01*
X212539788Y-74221277D01*
X212643582Y-74017570D01*
X212714234Y-73800128D01*
X212728509Y-73710000D01*
X211798482Y-73710000D01*
X211809111Y-73691591D01*
X211850000Y-73538991D01*
X211850000Y-73381009D01*
X211809111Y-73228409D01*
X211798482Y-73210000D01*
X212728509Y-73210000D01*
X212714234Y-73119871D01*
X212646323Y-72910866D01*
X212644328Y-72841025D01*
X212680408Y-72781192D01*
X212706838Y-72762640D01*
X212803407Y-72712198D01*
X212961109Y-72583609D01*
X213089698Y-72425907D01*
X213183909Y-72245549D01*
X213183910Y-72245545D01*
X213186820Y-72239975D01*
X213188665Y-72240939D01*
X213225883Y-72193544D01*
X213291894Y-72170645D01*
X213297882Y-72170500D01*
X225269740Y-72170500D01*
X225336779Y-72190185D01*
X225382534Y-72242989D01*
X225392478Y-72312147D01*
X225377127Y-72356500D01*
X225251958Y-72573299D01*
X225251953Y-72573309D01*
X225151605Y-72815571D01*
X225151602Y-72815581D01*
X225087804Y-73053682D01*
X225083730Y-73068885D01*
X225049500Y-73328872D01*
X225049500Y-73591127D01*
X225067338Y-73726610D01*
X225083730Y-73851116D01*
X225128331Y-74017570D01*
X225151602Y-74104418D01*
X225151605Y-74104428D01*
X225251953Y-74346690D01*
X225251958Y-74346700D01*
X225383075Y-74573803D01*
X225542718Y-74781851D01*
X225542726Y-74781860D01*
X225728140Y-74967274D01*
X225728148Y-74967281D01*
X225936196Y-75126924D01*
X226163299Y-75258041D01*
X226163309Y-75258046D01*
X226390509Y-75352155D01*
X226405581Y-75358398D01*
X226658884Y-75426270D01*
X226907188Y-75458960D01*
X226915940Y-75460113D01*
X226918880Y-75460500D01*
X226918887Y-75460500D01*
X227181113Y-75460500D01*
X227181120Y-75460500D01*
X227441116Y-75426270D01*
X227694419Y-75358398D01*
X227936697Y-75258043D01*
X228163803Y-75126924D01*
X228371851Y-74967282D01*
X228371855Y-74967277D01*
X228371860Y-74967274D01*
X228557274Y-74781860D01*
X228557277Y-74781855D01*
X228557282Y-74781851D01*
X228716924Y-74573803D01*
X228848043Y-74346697D01*
X228948398Y-74104419D01*
X229016270Y-73851116D01*
X229050500Y-73591120D01*
X229050500Y-73328880D01*
X229016270Y-73068884D01*
X228948398Y-72815581D01*
X228948394Y-72815571D01*
X228848046Y-72573309D01*
X228848041Y-72573299D01*
X228722873Y-72356500D01*
X228706400Y-72288599D01*
X228729253Y-72222573D01*
X228784174Y-72179382D01*
X228830260Y-72170500D01*
X232305857Y-72170500D01*
X232337949Y-72174724D01*
X232453308Y-72205635D01*
X232615230Y-72219801D01*
X232679998Y-72225468D01*
X232680000Y-72225468D01*
X232680002Y-72225468D01*
X232736673Y-72220509D01*
X232906692Y-72205635D01*
X233126496Y-72146739D01*
X233332734Y-72050568D01*
X233519139Y-71920047D01*
X233680047Y-71759139D01*
X233810568Y-71572734D01*
X233906739Y-71366496D01*
X233965635Y-71146692D01*
X233965635Y-71146691D01*
X233966783Y-71142407D01*
X234003148Y-71082746D01*
X234065995Y-71052217D01*
X234086558Y-71050500D01*
X245825857Y-71050500D01*
X245857949Y-71054724D01*
X245973308Y-71085635D01*
X246135230Y-71099801D01*
X246199998Y-71105468D01*
X246200000Y-71105468D01*
X246200002Y-71105468D01*
X246256673Y-71100509D01*
X246426692Y-71085635D01*
X246646496Y-71026739D01*
X246852734Y-70930568D01*
X247039139Y-70800047D01*
X247200047Y-70639139D01*
X247330568Y-70452734D01*
X247426739Y-70246496D01*
X247485635Y-70026692D01*
X247505468Y-69800000D01*
X247504600Y-69790083D01*
X247487485Y-69594454D01*
X247485635Y-69573308D01*
X247426739Y-69353504D01*
X247330568Y-69147266D01*
X247226419Y-68998525D01*
X247200045Y-68960858D01*
X247039141Y-68799954D01*
X246852734Y-68669432D01*
X246852732Y-68669431D01*
X246646497Y-68573261D01*
X246646488Y-68573258D01*
X246426697Y-68514366D01*
X246426693Y-68514365D01*
X246426692Y-68514365D01*
X246426691Y-68514364D01*
X246426686Y-68514364D01*
X246200002Y-68494532D01*
X246199998Y-68494532D01*
X245973313Y-68514364D01*
X245973302Y-68514366D01*
X245857950Y-68545275D01*
X245825857Y-68549500D01*
X214969336Y-68549500D01*
X214902297Y-68529815D01*
X214881655Y-68513181D01*
X214050376Y-67681902D01*
X255499500Y-67681902D01*
X255499500Y-67918097D01*
X255536446Y-68151368D01*
X255609433Y-68375996D01*
X255716657Y-68586433D01*
X255855483Y-68777510D01*
X256022490Y-68944517D01*
X256213567Y-69083343D01*
X256300823Y-69127802D01*
X256424003Y-69190566D01*
X256424005Y-69190566D01*
X256424008Y-69190568D01*
X256544412Y-69229689D01*
X256648631Y-69263553D01*
X256881903Y-69300500D01*
X256881908Y-69300500D01*
X257118097Y-69300500D01*
X257351368Y-69263553D01*
X257373413Y-69256390D01*
X257575992Y-69190568D01*
X257786433Y-69083343D01*
X257977510Y-68944517D01*
X258144517Y-68777510D01*
X258283343Y-68586433D01*
X258390568Y-68375992D01*
X258463553Y-68151368D01*
X258500500Y-67918097D01*
X258500500Y-67681902D01*
X258463553Y-67448631D01*
X258390566Y-67224003D01*
X258283342Y-67013566D01*
X258144517Y-66822490D01*
X257977510Y-66655483D01*
X257786433Y-66516657D01*
X257575996Y-66409433D01*
X257351368Y-66336446D01*
X257118097Y-66299500D01*
X257118092Y-66299500D01*
X256881908Y-66299500D01*
X256881903Y-66299500D01*
X256648631Y-66336446D01*
X256424003Y-66409433D01*
X256213566Y-66516657D01*
X256104550Y-66595862D01*
X256022490Y-66655483D01*
X256022488Y-66655485D01*
X256022487Y-66655485D01*
X255855485Y-66822487D01*
X255855485Y-66822488D01*
X255855483Y-66822490D01*
X255795862Y-66904550D01*
X255716657Y-67013566D01*
X255609433Y-67224003D01*
X255536446Y-67448631D01*
X255499500Y-67681902D01*
X214050376Y-67681902D01*
X209410440Y-63041966D01*
X215699500Y-63041966D01*
X215699500Y-64758028D01*
X215699501Y-64758034D01*
X215710113Y-64877415D01*
X215766089Y-65073045D01*
X215766090Y-65073048D01*
X215766091Y-65073049D01*
X215860302Y-65253407D01*
X215860304Y-65253409D01*
X215988890Y-65411109D01*
X216082803Y-65487684D01*
X216146593Y-65539698D01*
X216326951Y-65633909D01*
X216522582Y-65689886D01*
X216641963Y-65700500D01*
X218358036Y-65700499D01*
X218477418Y-65689886D01*
X218673049Y-65633909D01*
X218753949Y-65591649D01*
X218822482Y-65578058D01*
X218847908Y-65583066D01*
X219098228Y-65660280D01*
X219098229Y-65660280D01*
X219098232Y-65660281D01*
X219365063Y-65700499D01*
X219365068Y-65700499D01*
X219365071Y-65700500D01*
X219365072Y-65700500D01*
X219634928Y-65700500D01*
X219634929Y-65700500D01*
X219634936Y-65700499D01*
X219901767Y-65660281D01*
X219901768Y-65660280D01*
X219901772Y-65660280D01*
X220159641Y-65580738D01*
X220402775Y-65463651D01*
X220430147Y-65444988D01*
X220496625Y-65423487D01*
X220564175Y-65441339D01*
X220569851Y-65444987D01*
X220597226Y-65463651D01*
X220840359Y-65580738D01*
X221098228Y-65660280D01*
X221098229Y-65660280D01*
X221098232Y-65660281D01*
X221365063Y-65700499D01*
X221365068Y-65700499D01*
X221365071Y-65700500D01*
X221365072Y-65700500D01*
X221634928Y-65700500D01*
X221634929Y-65700500D01*
X221634936Y-65700499D01*
X221901767Y-65660281D01*
X221901768Y-65660280D01*
X221901772Y-65660280D01*
X222159641Y-65580738D01*
X222402775Y-65463651D01*
X222625741Y-65311635D01*
X222823561Y-65128085D01*
X222826116Y-65124879D01*
X222883298Y-65084734D01*
X222953109Y-65081876D01*
X222975475Y-65089801D01*
X223053673Y-65126266D01*
X223053682Y-65126269D01*
X223273389Y-65185139D01*
X223273400Y-65185141D01*
X223499998Y-65204966D01*
X223500002Y-65204966D01*
X223726599Y-65185141D01*
X223726610Y-65185139D01*
X223946317Y-65126269D01*
X223946331Y-65126264D01*
X224024522Y-65089802D01*
X224093599Y-65079309D01*
X224157383Y-65107828D01*
X224173875Y-65124870D01*
X224176439Y-65128085D01*
X224374259Y-65311635D01*
X224597226Y-65463651D01*
X224840359Y-65580738D01*
X225098228Y-65660280D01*
X225098229Y-65660280D01*
X225098232Y-65660281D01*
X225365063Y-65700499D01*
X225365068Y-65700499D01*
X225365071Y-65700500D01*
X225365072Y-65700500D01*
X225634928Y-65700500D01*
X225634929Y-65700500D01*
X225634936Y-65700499D01*
X225901767Y-65660281D01*
X225901768Y-65660280D01*
X225901772Y-65660280D01*
X226159641Y-65580738D01*
X226402775Y-65463651D01*
X226430147Y-65444988D01*
X226496625Y-65423487D01*
X226564175Y-65441339D01*
X226569851Y-65444987D01*
X226597226Y-65463651D01*
X226840359Y-65580738D01*
X227098228Y-65660280D01*
X227098229Y-65660280D01*
X227098232Y-65660281D01*
X227365063Y-65700499D01*
X227365068Y-65700499D01*
X227365071Y-65700500D01*
X227365072Y-65700500D01*
X227634928Y-65700500D01*
X227634929Y-65700500D01*
X227634936Y-65700499D01*
X227901767Y-65660281D01*
X227901768Y-65660280D01*
X227901772Y-65660280D01*
X228159641Y-65580738D01*
X228402775Y-65463651D01*
X228430147Y-65444988D01*
X228496625Y-65423487D01*
X228564175Y-65441339D01*
X228569851Y-65444987D01*
X228597226Y-65463651D01*
X228840359Y-65580738D01*
X229098228Y-65660280D01*
X229098229Y-65660280D01*
X229098232Y-65660281D01*
X229365063Y-65700499D01*
X229365068Y-65700499D01*
X229365071Y-65700500D01*
X229365072Y-65700500D01*
X229634928Y-65700500D01*
X229634929Y-65700500D01*
X229634936Y-65700499D01*
X229901767Y-65660281D01*
X229901768Y-65660280D01*
X229901772Y-65660280D01*
X230159641Y-65580738D01*
X230402775Y-65463651D01*
X230430147Y-65444988D01*
X230496625Y-65423487D01*
X230564175Y-65441339D01*
X230569851Y-65444987D01*
X230597226Y-65463651D01*
X230840359Y-65580738D01*
X231098228Y-65660280D01*
X231098229Y-65660280D01*
X231098232Y-65660281D01*
X231365063Y-65700499D01*
X231365068Y-65700499D01*
X231365071Y-65700500D01*
X231365072Y-65700500D01*
X231634928Y-65700500D01*
X231634929Y-65700500D01*
X231634936Y-65700499D01*
X231901767Y-65660281D01*
X231901768Y-65660280D01*
X231901772Y-65660280D01*
X232159641Y-65580738D01*
X232402775Y-65463651D01*
X232625741Y-65311635D01*
X232823561Y-65128085D01*
X232991815Y-64917102D01*
X233126743Y-64683398D01*
X233225334Y-64432195D01*
X233285383Y-64169103D01*
X233305549Y-63900000D01*
X233285383Y-63630897D01*
X233225334Y-63367805D01*
X233126743Y-63116602D01*
X232991815Y-62882898D01*
X232823561Y-62671915D01*
X232823560Y-62671914D01*
X232823557Y-62671910D01*
X232625741Y-62488365D01*
X232402775Y-62336349D01*
X232402771Y-62336347D01*
X232402768Y-62336345D01*
X232402767Y-62336344D01*
X232159643Y-62219263D01*
X232159645Y-62219263D01*
X231901773Y-62139720D01*
X231901767Y-62139718D01*
X231634936Y-62099500D01*
X231634929Y-62099500D01*
X231365071Y-62099500D01*
X231365063Y-62099500D01*
X231098232Y-62139718D01*
X231098226Y-62139720D01*
X230840358Y-62219262D01*
X230597229Y-62336347D01*
X230569849Y-62355014D01*
X230503369Y-62376512D01*
X230435819Y-62358656D01*
X230430150Y-62355012D01*
X230402782Y-62336353D01*
X230402767Y-62336344D01*
X230159643Y-62219263D01*
X230159645Y-62219263D01*
X229901773Y-62139720D01*
X229901767Y-62139718D01*
X229634936Y-62099500D01*
X229634929Y-62099500D01*
X229365071Y-62099500D01*
X229365063Y-62099500D01*
X229098232Y-62139718D01*
X229098226Y-62139720D01*
X228840358Y-62219262D01*
X228597229Y-62336347D01*
X228569849Y-62355014D01*
X228503369Y-62376512D01*
X228435819Y-62358656D01*
X228430150Y-62355012D01*
X228402782Y-62336353D01*
X228402767Y-62336344D01*
X228159643Y-62219263D01*
X228159645Y-62219263D01*
X227901773Y-62139720D01*
X227901767Y-62139718D01*
X227634936Y-62099500D01*
X227634929Y-62099500D01*
X227365071Y-62099500D01*
X227365063Y-62099500D01*
X227098232Y-62139718D01*
X227098222Y-62139721D01*
X226911049Y-62197456D01*
X226841186Y-62198406D01*
X226781900Y-62161434D01*
X226752013Y-62098279D01*
X226750500Y-62078965D01*
X226750500Y-60869335D01*
X226770185Y-60802296D01*
X226786814Y-60781659D01*
X229209490Y-58358982D01*
X229244762Y-58334285D01*
X229252734Y-58330568D01*
X229439139Y-58200047D01*
X229600047Y-58039139D01*
X229730568Y-57852734D01*
X229734285Y-57844762D01*
X229758982Y-57809490D01*
X230681655Y-56886819D01*
X230742978Y-56853334D01*
X230769336Y-56850500D01*
X249625857Y-56850500D01*
X249657949Y-56854724D01*
X249773308Y-56885635D01*
X249935230Y-56899801D01*
X249999998Y-56905468D01*
X250000000Y-56905468D01*
X250000002Y-56905468D01*
X250056673Y-56900509D01*
X250226692Y-56885635D01*
X250446496Y-56826739D01*
X250652734Y-56730568D01*
X250839139Y-56600047D01*
X251000047Y-56439139D01*
X251130568Y-56252734D01*
X251226739Y-56046496D01*
X251285635Y-55826692D01*
X251305468Y-55600000D01*
X251285635Y-55373308D01*
X251226739Y-55153504D01*
X251130568Y-54947266D01*
X251000047Y-54760861D01*
X251000045Y-54760858D01*
X250839141Y-54599954D01*
X250652734Y-54469432D01*
X250652732Y-54469431D01*
X250446497Y-54373261D01*
X250446488Y-54373258D01*
X250226697Y-54314366D01*
X250226693Y-54314365D01*
X250226692Y-54314365D01*
X250226691Y-54314364D01*
X250226686Y-54314364D01*
X250000002Y-54294532D01*
X249999998Y-54294532D01*
X249773313Y-54314364D01*
X249773302Y-54314366D01*
X249657950Y-54345275D01*
X249625857Y-54349500D01*
X242227711Y-54349500D01*
X242160672Y-54329815D01*
X242114917Y-54277011D01*
X242104183Y-54214695D01*
X242105468Y-54200004D01*
X242105468Y-54199998D01*
X242085635Y-53973313D01*
X242085635Y-53973308D01*
X242026739Y-53753504D01*
X241930568Y-53547266D01*
X241800047Y-53360861D01*
X241800045Y-53360858D01*
X241639138Y-53199951D01*
X241634994Y-53196474D01*
X241636215Y-53195018D01*
X241597831Y-53146999D01*
X241590637Y-53077501D01*
X241622159Y-53015146D01*
X241635236Y-53003814D01*
X241634994Y-53003526D01*
X241639138Y-53000048D01*
X241800045Y-52839141D01*
X241800047Y-52839139D01*
X241930568Y-52652734D01*
X242026739Y-52446496D01*
X242085635Y-52226692D01*
X242105468Y-52000000D01*
X242085635Y-51773308D01*
X242026739Y-51553504D01*
X241930568Y-51347266D01*
X241925353Y-51339818D01*
X261650000Y-51339818D01*
X261650000Y-52000000D01*
X262550000Y-52000000D01*
X262550000Y-52500000D01*
X261650000Y-52500000D01*
X261650000Y-53160181D01*
X261684473Y-53377835D01*
X261752567Y-53587410D01*
X261852613Y-53783760D01*
X261982142Y-53962041D01*
X262137958Y-54117857D01*
X262316239Y-54247386D01*
X262512589Y-54347432D01*
X262722163Y-54415526D01*
X262799999Y-54427854D01*
X262800000Y-54427854D01*
X262800000Y-53483012D01*
X262857007Y-53515925D01*
X262984174Y-53550000D01*
X263115826Y-53550000D01*
X263242993Y-53515925D01*
X263300000Y-53483012D01*
X263300000Y-54427854D01*
X263377834Y-54415526D01*
X263377837Y-54415526D01*
X263587410Y-54347432D01*
X263783760Y-54247386D01*
X263962041Y-54117857D01*
X264117857Y-53962041D01*
X264247386Y-53783760D01*
X264347432Y-53587410D01*
X264415526Y-53377835D01*
X264450000Y-53160181D01*
X264450000Y-52500000D01*
X263550000Y-52500000D01*
X263550000Y-52000000D01*
X264450000Y-52000000D01*
X264450000Y-51339818D01*
X264415526Y-51122164D01*
X264347432Y-50912589D01*
X264247386Y-50716239D01*
X264117857Y-50537958D01*
X263962041Y-50382142D01*
X263783760Y-50252613D01*
X263587410Y-50152567D01*
X263377836Y-50084473D01*
X263300000Y-50072144D01*
X263300000Y-51016988D01*
X263242993Y-50984075D01*
X263115826Y-50950000D01*
X262984174Y-50950000D01*
X262857007Y-50984075D01*
X262800000Y-51016988D01*
X262800000Y-50072144D01*
X262722164Y-50084473D01*
X262722161Y-50084473D01*
X262512589Y-50152567D01*
X262316239Y-50252613D01*
X262137958Y-50382142D01*
X261982142Y-50537958D01*
X261852613Y-50716239D01*
X261752567Y-50912589D01*
X261684473Y-51122164D01*
X261650000Y-51339818D01*
X241925353Y-51339818D01*
X241800047Y-51160861D01*
X241800045Y-51160858D01*
X241639141Y-50999954D01*
X241452734Y-50869432D01*
X241452732Y-50869431D01*
X241246497Y-50773261D01*
X241246488Y-50773258D01*
X241026697Y-50714366D01*
X241026693Y-50714365D01*
X241026692Y-50714365D01*
X241026691Y-50714364D01*
X241026686Y-50714364D01*
X240800002Y-50694532D01*
X240799998Y-50694532D01*
X240573313Y-50714364D01*
X240573302Y-50714366D01*
X240353511Y-50773258D01*
X240353502Y-50773261D01*
X240147267Y-50869431D01*
X240147265Y-50869432D01*
X239960858Y-50999954D01*
X239799954Y-51160858D01*
X239669432Y-51347264D01*
X239665712Y-51355242D01*
X239641015Y-51390509D01*
X238918345Y-52113181D01*
X238857022Y-52146666D01*
X238830664Y-52149500D01*
X227901578Y-52149500D01*
X227707172Y-52180291D01*
X227646348Y-52200053D01*
X227646348Y-52200054D01*
X227603103Y-52214105D01*
X227519970Y-52241117D01*
X227464221Y-52269524D01*
X227344594Y-52330476D01*
X227253741Y-52396485D01*
X227185354Y-52446172D01*
X227185352Y-52446174D01*
X227185351Y-52446174D01*
X218546174Y-61085351D01*
X218546174Y-61085352D01*
X218546172Y-61085354D01*
X218521746Y-61118974D01*
X218430476Y-61244594D01*
X218341117Y-61419969D01*
X218280290Y-61607173D01*
X218249500Y-61801577D01*
X218249500Y-61975500D01*
X218229815Y-62042539D01*
X218177011Y-62088294D01*
X218125500Y-62099500D01*
X216641971Y-62099500D01*
X216641965Y-62099500D01*
X216641964Y-62099501D01*
X216630316Y-62100536D01*
X216522584Y-62110113D01*
X216326954Y-62166089D01*
X216265087Y-62198406D01*
X216146593Y-62260302D01*
X216146591Y-62260303D01*
X216146590Y-62260304D01*
X215988890Y-62388890D01*
X215860304Y-62546590D01*
X215860302Y-62546593D01*
X215824642Y-62614860D01*
X215766089Y-62726954D01*
X215742010Y-62811109D01*
X215712937Y-62912718D01*
X215710114Y-62922583D01*
X215710113Y-62922586D01*
X215699500Y-63041966D01*
X209410440Y-63041966D01*
X206614648Y-60246174D01*
X206614646Y-60246172D01*
X206455405Y-60130476D01*
X206437722Y-60121466D01*
X206280030Y-60041117D01*
X206092826Y-59980290D01*
X205898422Y-59949500D01*
X205898417Y-59949500D01*
X191174143Y-59949500D01*
X191142050Y-59945275D01*
X191026697Y-59914366D01*
X191026693Y-59914365D01*
X191026692Y-59914365D01*
X191026691Y-59914364D01*
X191026686Y-59914364D01*
X190800002Y-59894532D01*
X190799998Y-59894532D01*
X190573313Y-59914364D01*
X190573302Y-59914366D01*
X190353511Y-59973258D01*
X190353502Y-59973261D01*
X190147267Y-60069431D01*
X190147265Y-60069432D01*
X189960858Y-60199954D01*
X189799954Y-60360858D01*
X189669432Y-60547265D01*
X189669431Y-60547267D01*
X189573261Y-60753502D01*
X189573258Y-60753511D01*
X189514366Y-60973302D01*
X189514364Y-60973313D01*
X189494532Y-61199998D01*
X184330499Y-61199998D01*
X184330499Y-60241964D01*
X184319886Y-60122582D01*
X184263909Y-59926951D01*
X184169698Y-59746593D01*
X184117684Y-59682803D01*
X184041109Y-59588890D01*
X183883409Y-59460304D01*
X183883410Y-59460304D01*
X183883407Y-59460302D01*
X183703049Y-59366091D01*
X183703048Y-59366090D01*
X183703045Y-59366089D01*
X183581278Y-59331248D01*
X183507418Y-59310114D01*
X183507415Y-59310113D01*
X183507413Y-59310113D01*
X183441102Y-59304217D01*
X183388037Y-59299500D01*
X183388032Y-59299500D01*
X181561971Y-59299500D01*
X181561965Y-59299500D01*
X181561964Y-59299501D01*
X181550316Y-59300536D01*
X181442584Y-59310113D01*
X181246952Y-59366090D01*
X181067386Y-59459887D01*
X180998851Y-59473478D01*
X180962522Y-59464539D01*
X180792709Y-59394200D01*
X180557765Y-59331247D01*
X180316626Y-59299501D01*
X180316621Y-59299500D01*
X180316616Y-59299500D01*
X180073384Y-59299500D01*
X180073378Y-59299500D01*
X180073373Y-59299501D01*
X179832234Y-59331247D01*
X179597290Y-59394200D01*
X179372576Y-59487280D01*
X179372565Y-59487285D01*
X179161923Y-59608901D01*
X178968960Y-59756966D01*
X178968953Y-59756972D01*
X178796976Y-59928950D01*
X178796972Y-59928954D01*
X178774422Y-59958341D01*
X178717993Y-59999542D01*
X178648247Y-60003695D01*
X178619753Y-59993337D01*
X178435139Y-59899272D01*
X178435136Y-59899270D01*
X178232299Y-59833365D01*
X178165000Y-59822705D01*
X178165000Y-60766988D01*
X178107993Y-60734075D01*
X177980826Y-60700000D01*
X177849174Y-60700000D01*
X177722007Y-60734075D01*
X177665000Y-60766988D01*
X177665000Y-59822705D01*
X177597701Y-59833365D01*
X177597698Y-59833365D01*
X177394863Y-59899270D01*
X177394860Y-59899271D01*
X177204824Y-59996100D01*
X177032275Y-60121466D01*
X177032274Y-60121466D01*
X176881466Y-60272274D01*
X176881466Y-60272275D01*
X176756100Y-60444824D01*
X176659271Y-60634860D01*
X176659270Y-60634863D01*
X176593365Y-60837701D01*
X176575579Y-60950000D01*
X171750500Y-60950000D01*
X171750500Y-46119998D01*
X173144773Y-46119998D01*
X173144773Y-46120001D01*
X173163657Y-46384027D01*
X173163658Y-46384034D01*
X173219921Y-46642673D01*
X173312426Y-46890690D01*
X173312428Y-46890694D01*
X173439280Y-47123005D01*
X173439285Y-47123013D01*
X173583520Y-47315690D01*
X173607937Y-47381155D01*
X173593085Y-47449427D01*
X173583520Y-47464310D01*
X173439285Y-47656986D01*
X173439280Y-47656994D01*
X173312428Y-47889305D01*
X173312426Y-47889309D01*
X173219921Y-48137326D01*
X173163658Y-48395965D01*
X173163657Y-48395972D01*
X173144773Y-48659998D01*
X173144773Y-48660001D01*
X173163657Y-48924027D01*
X173163658Y-48924034D01*
X173219921Y-49182673D01*
X173312426Y-49430690D01*
X173312428Y-49430694D01*
X173391282Y-49575102D01*
X173406134Y-49643374D01*
X173381718Y-49708839D01*
X173378552Y-49712889D01*
X173310305Y-49796587D01*
X173216089Y-49976954D01*
X173160114Y-50172583D01*
X173160113Y-50172586D01*
X173149500Y-50291966D01*
X173149500Y-52108028D01*
X173149500Y-52108033D01*
X173149501Y-52108036D01*
X173151571Y-52131330D01*
X173160113Y-52227415D01*
X173216089Y-52423045D01*
X173216090Y-52423048D01*
X173216091Y-52423049D01*
X173310302Y-52603407D01*
X173310304Y-52603409D01*
X173438890Y-52761109D01*
X173532803Y-52837684D01*
X173596593Y-52889698D01*
X173776951Y-52983909D01*
X173972582Y-53039886D01*
X174091963Y-53050500D01*
X175908036Y-53050499D01*
X176027418Y-53039886D01*
X176166820Y-52999998D01*
X197894532Y-52999998D01*
X197894532Y-53000001D01*
X197914364Y-53226686D01*
X197914366Y-53226697D01*
X197973258Y-53446488D01*
X197973261Y-53446497D01*
X198069431Y-53652732D01*
X198069432Y-53652734D01*
X198199954Y-53839141D01*
X198360858Y-54000045D01*
X198360861Y-54000047D01*
X198547266Y-54130568D01*
X198753504Y-54226739D01*
X198973308Y-54285635D01*
X199135230Y-54299801D01*
X199199998Y-54305468D01*
X199200000Y-54305468D01*
X199200002Y-54305468D01*
X199256673Y-54300509D01*
X199426692Y-54285635D01*
X199542050Y-54254724D01*
X199574143Y-54250500D01*
X215225857Y-54250500D01*
X215257949Y-54254724D01*
X215373308Y-54285635D01*
X215535230Y-54299801D01*
X215599998Y-54305468D01*
X215600000Y-54305468D01*
X215600002Y-54305468D01*
X215656673Y-54300509D01*
X215826692Y-54285635D01*
X216046496Y-54226739D01*
X216252734Y-54130568D01*
X216439139Y-54000047D01*
X216600047Y-53839139D01*
X216730568Y-53652734D01*
X216826739Y-53446496D01*
X216885635Y-53226692D01*
X216905468Y-53000000D01*
X216885635Y-52773308D01*
X216826739Y-52553504D01*
X216730568Y-52347266D01*
X216600047Y-52160861D01*
X216600045Y-52160858D01*
X216439141Y-51999954D01*
X216252734Y-51869432D01*
X216252732Y-51869431D01*
X216046497Y-51773261D01*
X216046488Y-51773258D01*
X215826697Y-51714366D01*
X215826693Y-51714365D01*
X215826692Y-51714365D01*
X215826691Y-51714364D01*
X215826686Y-51714364D01*
X215600002Y-51694532D01*
X215599998Y-51694532D01*
X215373313Y-51714364D01*
X215373302Y-51714366D01*
X215257950Y-51745275D01*
X215225857Y-51749500D01*
X199574143Y-51749500D01*
X199542050Y-51745275D01*
X199426697Y-51714366D01*
X199426693Y-51714365D01*
X199426692Y-51714365D01*
X199426691Y-51714364D01*
X199426686Y-51714364D01*
X199200002Y-51694532D01*
X199199998Y-51694532D01*
X198973313Y-51714364D01*
X198973302Y-51714366D01*
X198753511Y-51773258D01*
X198753502Y-51773261D01*
X198547267Y-51869431D01*
X198547265Y-51869432D01*
X198360858Y-51999954D01*
X198199954Y-52160858D01*
X198069432Y-52347265D01*
X198069431Y-52347267D01*
X197973261Y-52553502D01*
X197973258Y-52553511D01*
X197914366Y-52773302D01*
X197914364Y-52773313D01*
X197894532Y-52999998D01*
X176166820Y-52999998D01*
X176223049Y-52983909D01*
X176403407Y-52889698D01*
X176561109Y-52761109D01*
X176689698Y-52603407D01*
X176715766Y-52553502D01*
X176734788Y-52517088D01*
X176783275Y-52466781D01*
X176844696Y-52450500D01*
X178098422Y-52450500D01*
X178292826Y-52419709D01*
X178480026Y-52358884D01*
X178655405Y-52269524D01*
X178814646Y-52153828D01*
X185881655Y-45086819D01*
X185942978Y-45053334D01*
X185969336Y-45050500D01*
X197010951Y-45050500D01*
X197077990Y-45070185D01*
X197123745Y-45122989D01*
X197133689Y-45192147D01*
X197104664Y-45255703D01*
X197098632Y-45262181D01*
X196999954Y-45360858D01*
X196869432Y-45547265D01*
X196869431Y-45547267D01*
X196773261Y-45753502D01*
X196773258Y-45753511D01*
X196714366Y-45973302D01*
X196714364Y-45973313D01*
X196694532Y-46199998D01*
X196694532Y-46200001D01*
X196714364Y-46426686D01*
X196714366Y-46426697D01*
X196773258Y-46646488D01*
X196773261Y-46646497D01*
X196869431Y-46852732D01*
X196869432Y-46852734D01*
X196999954Y-47039141D01*
X197160858Y-47200045D01*
X197160861Y-47200047D01*
X197347266Y-47330568D01*
X197553504Y-47426739D01*
X197773308Y-47485635D01*
X197935230Y-47499801D01*
X197999998Y-47505468D01*
X198000000Y-47505468D01*
X198000002Y-47505468D01*
X198056673Y-47500509D01*
X198226692Y-47485635D01*
X198342050Y-47454724D01*
X198374143Y-47450500D01*
X214025857Y-47450500D01*
X214057949Y-47454724D01*
X214173308Y-47485635D01*
X214335230Y-47499801D01*
X214399998Y-47505468D01*
X214400000Y-47505468D01*
X214400002Y-47505468D01*
X214456673Y-47500509D01*
X214626692Y-47485635D01*
X214846496Y-47426739D01*
X215052734Y-47330568D01*
X215239139Y-47200047D01*
X215400047Y-47039139D01*
X215530568Y-46852734D01*
X215626739Y-46646496D01*
X215685635Y-46426692D01*
X215691147Y-46363692D01*
X215716600Y-46298623D01*
X215773191Y-46257645D01*
X215814675Y-46250500D01*
X223025857Y-46250500D01*
X223057949Y-46254724D01*
X223173308Y-46285635D01*
X223335230Y-46299801D01*
X223399998Y-46305468D01*
X223400000Y-46305468D01*
X223400002Y-46305468D01*
X223456673Y-46300509D01*
X223626692Y-46285635D01*
X223846496Y-46226739D01*
X224052734Y-46130568D01*
X224239139Y-46000047D01*
X224400047Y-45839139D01*
X224530568Y-45652734D01*
X224626739Y-45446496D01*
X224685635Y-45226692D01*
X224691147Y-45163692D01*
X224716600Y-45098623D01*
X224773191Y-45057645D01*
X224814675Y-45050500D01*
X230575857Y-45050500D01*
X230607949Y-45054724D01*
X230723308Y-45085635D01*
X230885230Y-45099801D01*
X230949998Y-45105468D01*
X230950000Y-45105468D01*
X230950002Y-45105468D01*
X231006673Y-45100509D01*
X231176692Y-45085635D01*
X231396496Y-45026739D01*
X231602734Y-44930568D01*
X231789139Y-44800047D01*
X231950047Y-44639139D01*
X232080568Y-44452734D01*
X232176739Y-44246496D01*
X232235635Y-44026692D01*
X232238120Y-43998280D01*
X232263571Y-43933213D01*
X232320162Y-43892234D01*
X232372456Y-43885560D01*
X232373305Y-43885634D01*
X232373308Y-43885635D01*
X232563609Y-43902284D01*
X232599999Y-43905468D01*
X232600000Y-43905468D01*
X232600002Y-43905468D01*
X232656673Y-43900509D01*
X232826692Y-43885635D01*
X233046496Y-43826739D01*
X233252734Y-43730568D01*
X233439139Y-43600047D01*
X233600047Y-43439139D01*
X233730568Y-43252734D01*
X233826739Y-43046496D01*
X233858372Y-42928436D01*
X233894736Y-42868778D01*
X233957583Y-42838248D01*
X233988947Y-42837003D01*
X234181967Y-42853890D01*
X234199999Y-42855468D01*
X234200000Y-42855468D01*
X234200002Y-42855468D01*
X234256673Y-42850509D01*
X234378878Y-42839818D01*
X261650000Y-42839818D01*
X261650000Y-43500000D01*
X262550000Y-43500000D01*
X262550000Y-44000000D01*
X261650000Y-44000000D01*
X261650000Y-44660181D01*
X261684473Y-44877835D01*
X261752567Y-45087410D01*
X261852613Y-45283760D01*
X261982142Y-45462041D01*
X262137958Y-45617857D01*
X262316239Y-45747386D01*
X262512589Y-45847432D01*
X262722163Y-45915526D01*
X262799999Y-45927854D01*
X262800000Y-45927854D01*
X262800000Y-44983012D01*
X262857007Y-45015925D01*
X262984174Y-45050000D01*
X263115826Y-45050000D01*
X263242993Y-45015925D01*
X263300000Y-44983012D01*
X263300000Y-45927854D01*
X263377834Y-45915526D01*
X263377837Y-45915526D01*
X263587410Y-45847432D01*
X263783760Y-45747386D01*
X263962041Y-45617857D01*
X264117857Y-45462041D01*
X264247386Y-45283760D01*
X264347432Y-45087410D01*
X264415526Y-44877835D01*
X264450000Y-44660181D01*
X264450000Y-44000000D01*
X263550000Y-44000000D01*
X263550000Y-43500000D01*
X264450000Y-43500000D01*
X264450000Y-42839818D01*
X264415526Y-42622164D01*
X264347432Y-42412589D01*
X264247386Y-42216239D01*
X264117857Y-42037958D01*
X263962041Y-41882142D01*
X263783760Y-41752613D01*
X263587410Y-41652567D01*
X263377836Y-41584473D01*
X263300000Y-41572144D01*
X263300000Y-42516988D01*
X263242993Y-42484075D01*
X263115826Y-42450000D01*
X262984174Y-42450000D01*
X262857007Y-42484075D01*
X262800000Y-42516988D01*
X262800000Y-41572144D01*
X262722164Y-41584473D01*
X262722161Y-41584473D01*
X262512589Y-41652567D01*
X262316239Y-41752613D01*
X262137958Y-41882142D01*
X261982142Y-42037958D01*
X261852613Y-42216239D01*
X261752567Y-42412589D01*
X261684473Y-42622164D01*
X261650000Y-42839818D01*
X234378878Y-42839818D01*
X234426692Y-42835635D01*
X234646496Y-42776739D01*
X234852734Y-42680568D01*
X235039139Y-42550047D01*
X235200047Y-42389139D01*
X235330568Y-42202734D01*
X235426739Y-41996496D01*
X235485635Y-41776692D01*
X235505468Y-41550000D01*
X235485635Y-41323308D01*
X235426739Y-41103504D01*
X235330568Y-40897266D01*
X235200047Y-40710861D01*
X235200045Y-40710858D01*
X235039141Y-40549954D01*
X234852735Y-40419433D01*
X234852736Y-40419433D01*
X234852734Y-40419432D01*
X234794057Y-40392070D01*
X234773579Y-40380008D01*
X234705405Y-40330476D01*
X234693404Y-40324361D01*
X234530030Y-40241117D01*
X234342826Y-40180290D01*
X234148422Y-40149500D01*
X234148417Y-40149500D01*
X216827711Y-40149500D01*
X216760672Y-40129815D01*
X216714917Y-40077011D01*
X216704183Y-40014695D01*
X216705468Y-40000004D01*
X216705468Y-39999998D01*
X216685635Y-39773313D01*
X216685635Y-39773308D01*
X216626739Y-39553504D01*
X216530568Y-39347266D01*
X216400047Y-39160861D01*
X216400045Y-39160858D01*
X216239141Y-38999954D01*
X216052734Y-38869432D01*
X216052732Y-38869431D01*
X215846497Y-38773261D01*
X215846488Y-38773258D01*
X215626697Y-38714366D01*
X215626693Y-38714365D01*
X215626692Y-38714365D01*
X215626691Y-38714364D01*
X215626686Y-38714364D01*
X215400002Y-38694532D01*
X215399998Y-38694532D01*
X215173313Y-38714364D01*
X215173302Y-38714366D01*
X215057950Y-38745275D01*
X215025857Y-38749500D01*
X188974143Y-38749500D01*
X188942050Y-38745275D01*
X188826697Y-38714366D01*
X188826693Y-38714365D01*
X188826692Y-38714365D01*
X188826691Y-38714364D01*
X188826686Y-38714364D01*
X188600002Y-38694532D01*
X188599998Y-38694532D01*
X188373313Y-38714364D01*
X188373302Y-38714366D01*
X188153511Y-38773258D01*
X188153502Y-38773261D01*
X187947267Y-38869431D01*
X187947265Y-38869432D01*
X187760858Y-38999954D01*
X187599954Y-39160858D01*
X187469432Y-39347265D01*
X187469431Y-39347267D01*
X187373261Y-39553502D01*
X187373258Y-39553511D01*
X187314366Y-39773302D01*
X187314364Y-39773313D01*
X187294532Y-39999998D01*
X187294532Y-40000004D01*
X187295817Y-40014695D01*
X187282050Y-40083194D01*
X187233434Y-40133377D01*
X187172289Y-40149500D01*
X184101578Y-40149500D01*
X183907172Y-40180291D01*
X183846348Y-40200053D01*
X183846348Y-40200054D01*
X183803103Y-40214105D01*
X183719970Y-40241117D01*
X183586799Y-40308972D01*
X183544595Y-40330476D01*
X183544594Y-40330477D01*
X183536696Y-40336215D01*
X183536691Y-40336217D01*
X183385352Y-40446173D01*
X183385351Y-40446174D01*
X179118345Y-44713181D01*
X179057022Y-44746666D01*
X179030664Y-44749500D01*
X176297618Y-44749500D01*
X176230579Y-44729815D01*
X176216415Y-44719212D01*
X176214917Y-44717914D01*
X176072495Y-44611299D01*
X176030623Y-44555366D01*
X176025639Y-44485674D01*
X176045230Y-44440908D01*
X176173600Y-44257578D01*
X176273429Y-44043492D01*
X176273432Y-44043486D01*
X176330636Y-43830000D01*
X175433012Y-43830000D01*
X175465925Y-43772993D01*
X175500000Y-43645826D01*
X175500000Y-43514174D01*
X175465925Y-43387007D01*
X175433012Y-43330000D01*
X176330636Y-43330000D01*
X176330635Y-43329999D01*
X176273432Y-43116513D01*
X176273429Y-43116507D01*
X176173600Y-42902422D01*
X176173599Y-42902420D01*
X176038113Y-42708926D01*
X176038108Y-42708920D01*
X175871082Y-42541894D01*
X175677578Y-42406399D01*
X175463492Y-42306570D01*
X175463486Y-42306567D01*
X175250000Y-42249364D01*
X175250000Y-43146988D01*
X175192993Y-43114075D01*
X175065826Y-43080000D01*
X174934174Y-43080000D01*
X174807007Y-43114075D01*
X174750000Y-43146988D01*
X174750000Y-42249364D01*
X174749999Y-42249364D01*
X174536513Y-42306567D01*
X174536507Y-42306570D01*
X174322422Y-42406399D01*
X174322420Y-42406400D01*
X174128926Y-42541886D01*
X174128920Y-42541891D01*
X173961891Y-42708920D01*
X173961886Y-42708926D01*
X173826400Y-42902420D01*
X173826399Y-42902422D01*
X173726570Y-43116507D01*
X173726567Y-43116513D01*
X173669364Y-43329999D01*
X173669364Y-43330000D01*
X174566988Y-43330000D01*
X174534075Y-43387007D01*
X174500000Y-43514174D01*
X174500000Y-43645826D01*
X174534075Y-43772993D01*
X174566988Y-43830000D01*
X173669364Y-43830000D01*
X173726567Y-44043486D01*
X173726570Y-44043492D01*
X173826399Y-44257578D01*
X173954769Y-44440907D01*
X173977096Y-44507113D01*
X173960086Y-44574881D01*
X173927505Y-44611298D01*
X173785086Y-44717912D01*
X173785074Y-44717922D01*
X173597922Y-44905074D01*
X173597906Y-44905092D01*
X173439285Y-45116986D01*
X173439280Y-45116994D01*
X173312428Y-45349305D01*
X173312426Y-45349309D01*
X173219921Y-45597326D01*
X173163658Y-45855965D01*
X173163657Y-45855972D01*
X173144773Y-46119998D01*
X171750500Y-46119998D01*
X171750500Y-33378711D01*
X172899500Y-33378711D01*
X172899500Y-33621288D01*
X172931161Y-33861785D01*
X172993947Y-34096104D01*
X173086773Y-34320205D01*
X173086776Y-34320212D01*
X173208064Y-34530289D01*
X173208066Y-34530292D01*
X173208067Y-34530293D01*
X173355733Y-34722736D01*
X173355739Y-34722743D01*
X173527256Y-34894260D01*
X173527262Y-34894265D01*
X173719711Y-35041936D01*
X173929788Y-35163224D01*
X174153900Y-35256054D01*
X174388211Y-35318838D01*
X174568586Y-35342584D01*
X174628711Y-35350500D01*
X174628712Y-35350500D01*
X174871289Y-35350500D01*
X174919388Y-35344167D01*
X175111789Y-35318838D01*
X175346100Y-35256054D01*
X175570212Y-35163224D01*
X175780289Y-35041936D01*
X175972738Y-34894265D01*
X176144265Y-34722738D01*
X176252332Y-34581902D01*
X190499500Y-34581902D01*
X190499500Y-34818097D01*
X190536446Y-35051368D01*
X190609433Y-35275996D01*
X190716657Y-35486433D01*
X190855483Y-35677510D01*
X191022490Y-35844517D01*
X191213567Y-35983343D01*
X191312991Y-36034002D01*
X191424003Y-36090566D01*
X191424005Y-36090566D01*
X191424008Y-36090568D01*
X191544412Y-36129689D01*
X191648631Y-36163553D01*
X191881903Y-36200500D01*
X191881908Y-36200500D01*
X192118097Y-36200500D01*
X192351368Y-36163553D01*
X192575992Y-36090568D01*
X192786433Y-35983343D01*
X192977510Y-35844517D01*
X193144517Y-35677510D01*
X193283343Y-35486433D01*
X193390568Y-35275992D01*
X193463553Y-35051368D01*
X193465048Y-35041932D01*
X193500500Y-34818097D01*
X193500500Y-34581902D01*
X255499500Y-34581902D01*
X255499500Y-34818097D01*
X255536446Y-35051368D01*
X255609433Y-35275996D01*
X255716657Y-35486433D01*
X255855483Y-35677510D01*
X256022490Y-35844517D01*
X256213567Y-35983343D01*
X256312991Y-36034002D01*
X256424003Y-36090566D01*
X256424005Y-36090566D01*
X256424008Y-36090568D01*
X256544412Y-36129689D01*
X256648631Y-36163553D01*
X256881903Y-36200500D01*
X256881908Y-36200500D01*
X257118097Y-36200500D01*
X257351368Y-36163553D01*
X257575992Y-36090568D01*
X257786433Y-35983343D01*
X257977510Y-35844517D01*
X258144517Y-35677510D01*
X258283343Y-35486433D01*
X258390568Y-35275992D01*
X258463553Y-35051368D01*
X258465048Y-35041932D01*
X258500500Y-34818097D01*
X258500500Y-34581902D01*
X258463553Y-34348631D01*
X258390566Y-34124003D01*
X258283342Y-33913566D01*
X258144517Y-33722490D01*
X257977510Y-33555483D01*
X257786433Y-33416657D01*
X257711960Y-33378711D01*
X262149500Y-33378711D01*
X262149500Y-33621288D01*
X262181161Y-33861785D01*
X262243947Y-34096104D01*
X262336773Y-34320205D01*
X262336776Y-34320212D01*
X262458064Y-34530289D01*
X262458066Y-34530292D01*
X262458067Y-34530293D01*
X262605733Y-34722736D01*
X262605739Y-34722743D01*
X262777256Y-34894260D01*
X262777262Y-34894265D01*
X262969711Y-35041936D01*
X263179788Y-35163224D01*
X263403900Y-35256054D01*
X263638211Y-35318838D01*
X263818586Y-35342584D01*
X263878711Y-35350500D01*
X263878712Y-35350500D01*
X264121289Y-35350500D01*
X264169388Y-35344167D01*
X264361789Y-35318838D01*
X264596100Y-35256054D01*
X264820212Y-35163224D01*
X265030289Y-35041936D01*
X265222738Y-34894265D01*
X265394265Y-34722738D01*
X265541936Y-34530289D01*
X265663224Y-34320212D01*
X265756054Y-34096100D01*
X265818838Y-33861789D01*
X265850500Y-33621288D01*
X265850500Y-33378712D01*
X265818838Y-33138211D01*
X265756054Y-32903900D01*
X265663224Y-32679788D01*
X265541936Y-32469711D01*
X265394265Y-32277262D01*
X265394260Y-32277256D01*
X265222743Y-32105739D01*
X265222736Y-32105733D01*
X265030293Y-31958067D01*
X265030292Y-31958066D01*
X265030289Y-31958064D01*
X264820212Y-31836776D01*
X264820205Y-31836773D01*
X264596104Y-31743947D01*
X264361785Y-31681161D01*
X264121289Y-31649500D01*
X264121288Y-31649500D01*
X263878712Y-31649500D01*
X263878711Y-31649500D01*
X263638214Y-31681161D01*
X263403895Y-31743947D01*
X263179794Y-31836773D01*
X263179785Y-31836777D01*
X262969706Y-31958067D01*
X262777263Y-32105733D01*
X262777256Y-32105739D01*
X262605739Y-32277256D01*
X262605733Y-32277263D01*
X262458067Y-32469706D01*
X262336777Y-32679785D01*
X262336773Y-32679794D01*
X262243947Y-32903895D01*
X262181161Y-33138214D01*
X262149500Y-33378711D01*
X257711960Y-33378711D01*
X257575996Y-33309433D01*
X257351368Y-33236446D01*
X257118097Y-33199500D01*
X257118092Y-33199500D01*
X256881908Y-33199500D01*
X256881903Y-33199500D01*
X256648631Y-33236446D01*
X256424003Y-33309433D01*
X256213566Y-33416657D01*
X256104550Y-33495862D01*
X256022490Y-33555483D01*
X256022488Y-33555485D01*
X256022487Y-33555485D01*
X255855485Y-33722487D01*
X255855485Y-33722488D01*
X255855483Y-33722490D01*
X255795862Y-33804550D01*
X255716657Y-33913566D01*
X255609433Y-34124003D01*
X255536446Y-34348631D01*
X255499500Y-34581902D01*
X193500500Y-34581902D01*
X193463553Y-34348631D01*
X193390566Y-34124003D01*
X193283342Y-33913566D01*
X193144517Y-33722490D01*
X192977510Y-33555483D01*
X192786433Y-33416657D01*
X192711960Y-33378711D01*
X192575996Y-33309433D01*
X192351368Y-33236446D01*
X192118097Y-33199500D01*
X192118092Y-33199500D01*
X191881908Y-33199500D01*
X191881903Y-33199500D01*
X191648631Y-33236446D01*
X191424003Y-33309433D01*
X191213566Y-33416657D01*
X191104550Y-33495862D01*
X191022490Y-33555483D01*
X191022488Y-33555485D01*
X191022487Y-33555485D01*
X190855485Y-33722487D01*
X190855485Y-33722488D01*
X190855483Y-33722490D01*
X190795862Y-33804550D01*
X190716657Y-33913566D01*
X190609433Y-34124003D01*
X190536446Y-34348631D01*
X190499500Y-34581902D01*
X176252332Y-34581902D01*
X176291936Y-34530289D01*
X176413224Y-34320212D01*
X176506054Y-34096100D01*
X176568838Y-33861789D01*
X176600500Y-33621288D01*
X176600500Y-33378712D01*
X176568838Y-33138211D01*
X176506054Y-32903900D01*
X176413224Y-32679788D01*
X176291936Y-32469711D01*
X176144265Y-32277262D01*
X176144260Y-32277256D01*
X175972743Y-32105739D01*
X175972736Y-32105733D01*
X175780293Y-31958067D01*
X175780292Y-31958066D01*
X175780289Y-31958064D01*
X175570212Y-31836776D01*
X175570205Y-31836773D01*
X175346104Y-31743947D01*
X175111785Y-31681161D01*
X174871289Y-31649500D01*
X174871288Y-31649500D01*
X174628712Y-31649500D01*
X174628711Y-31649500D01*
X174388214Y-31681161D01*
X174153895Y-31743947D01*
X173929794Y-31836773D01*
X173929785Y-31836777D01*
X173719706Y-31958067D01*
X173527263Y-32105733D01*
X173527256Y-32105739D01*
X173355739Y-32277256D01*
X173355733Y-32277263D01*
X173208067Y-32469706D01*
X173086777Y-32679785D01*
X173086773Y-32679794D01*
X172993947Y-32903895D01*
X172931161Y-33138214D01*
X172899500Y-33378711D01*
X171750500Y-33378711D01*
X171750500Y-30624500D01*
X171770185Y-30557461D01*
X171822989Y-30511706D01*
X171874500Y-30500500D01*
X266875500Y-30500500D01*
X266942539Y-30520185D01*
G37*
%TD.AperFunction*%
%TD*%
M02*
