%TF.GenerationSoftware,KiCad,Pcbnew,8.0.9-8.0.9-0~ubuntu24.04.1*%
%TF.CreationDate,2025-02-24T19:57:28+02:00*%
%TF.ProjectId,LRL5,4c524c35-2e6b-4696-9361-645f70636258,rev?*%
%TF.SameCoordinates,Original*%
%TF.FileFunction,Copper,L1,Top*%
%TF.FilePolarity,Positive*%
%FSLAX46Y46*%
G04 Gerber Fmt 4.6, Leading zero omitted, Abs format (unit mm)*
G04 Created by KiCad (PCBNEW 8.0.9-8.0.9-0~ubuntu24.04.1) date 2025-02-24 19:57:28*
%MOMM*%
%LPD*%
G01*
G04 APERTURE LIST*
G04 Aperture macros list*
%AMRoundRect*
0 Rectangle with rounded corners*
0 $1 Rounding radius*
0 $2 $3 $4 $5 $6 $7 $8 $9 X,Y pos of 4 corners*
0 Add a 4 corners polygon primitive as box body*
4,1,4,$2,$3,$4,$5,$6,$7,$8,$9,$2,$3,0*
0 Add four circle primitives for the rounded corners*
1,1,$1+$1,$2,$3*
1,1,$1+$1,$4,$5*
1,1,$1+$1,$6,$7*
1,1,$1+$1,$8,$9*
0 Add four rect primitives between the rounded corners*
20,1,$1+$1,$2,$3,$4,$5,0*
20,1,$1+$1,$4,$5,$6,$7,0*
20,1,$1+$1,$6,$7,$8,$9,0*
20,1,$1+$1,$8,$9,$2,$3,0*%
G04 Aperture macros list end*
%TA.AperFunction,SMDPad,CuDef*%
%ADD10RoundRect,0.250000X-1.500000X-0.650000X1.500000X-0.650000X1.500000X0.650000X-1.500000X0.650000X0*%
%TD*%
%TA.AperFunction,SMDPad,CuDef*%
%ADD11RoundRect,0.250000X1.500000X0.650000X-1.500000X0.650000X-1.500000X-0.650000X1.500000X-0.650000X0*%
%TD*%
%TA.AperFunction,SMDPad,CuDef*%
%ADD12RoundRect,0.250000X-0.450000X0.350000X-0.450000X-0.350000X0.450000X-0.350000X0.450000X0.350000X0*%
%TD*%
%TA.AperFunction,ComponentPad*%
%ADD13R,1.700000X1.700000*%
%TD*%
%TA.AperFunction,ComponentPad*%
%ADD14O,1.700000X1.700000*%
%TD*%
%TA.AperFunction,SMDPad,CuDef*%
%ADD15R,2.510000X1.000000*%
%TD*%
%TA.AperFunction,SMDPad,CuDef*%
%ADD16RoundRect,0.250000X0.475000X-0.337500X0.475000X0.337500X-0.475000X0.337500X-0.475000X-0.337500X0*%
%TD*%
%TA.AperFunction,ComponentPad*%
%ADD17R,2.000000X2.000000*%
%TD*%
%TA.AperFunction,ComponentPad*%
%ADD18R,2.000000X1.905000*%
%TD*%
%TA.AperFunction,ComponentPad*%
%ADD19O,2.000000X1.905000*%
%TD*%
%TA.AperFunction,SMDPad,CuDef*%
%ADD20R,1.000000X2.510000*%
%TD*%
%TA.AperFunction,SMDPad,CuDef*%
%ADD21RoundRect,0.250000X0.337500X0.475000X-0.337500X0.475000X-0.337500X-0.475000X0.337500X-0.475000X0*%
%TD*%
%TA.AperFunction,ComponentPad*%
%ADD22R,1.600000X1.600000*%
%TD*%
%TA.AperFunction,ComponentPad*%
%ADD23C,1.600000*%
%TD*%
%TA.AperFunction,SMDPad,CuDef*%
%ADD24RoundRect,0.250000X-0.337500X-0.475000X0.337500X-0.475000X0.337500X0.475000X-0.337500X0.475000X0*%
%TD*%
%TA.AperFunction,SMDPad,CuDef*%
%ADD25RoundRect,0.250000X-0.350000X-0.450000X0.350000X-0.450000X0.350000X0.450000X-0.350000X0.450000X0*%
%TD*%
%TA.AperFunction,ComponentPad*%
%ADD26R,1.710000X1.800000*%
%TD*%
%TA.AperFunction,ComponentPad*%
%ADD27O,1.710000X1.800000*%
%TD*%
%TA.AperFunction,SMDPad,CuDef*%
%ADD28RoundRect,0.250000X0.450000X-0.350000X0.450000X0.350000X-0.450000X0.350000X-0.450000X-0.350000X0*%
%TD*%
%TA.AperFunction,ComponentPad*%
%ADD29O,1.800000X3.400000*%
%TD*%
%TA.AperFunction,ViaPad*%
%ADD30C,0.600000*%
%TD*%
%TA.AperFunction,Conductor*%
%ADD31C,0.500000*%
%TD*%
G04 APERTURE END LIST*
D10*
%TO.P,D1,1,K*%
%TO.N,+BATT*%
X237400000Y-64600000D03*
%TO.P,D1,2,A*%
%TO.N,Net-(D1-A)*%
X242400000Y-64600000D03*
%TD*%
D11*
%TO.P,D2,1,K*%
%TO.N,Net-(D2-K)*%
X185200000Y-55000000D03*
%TO.P,D2,2,A*%
%TO.N,Net-(D2-A)*%
X180200000Y-55000000D03*
%TD*%
D12*
%TO.P,R6,1*%
%TO.N,+3.3V*%
X215500000Y-58750000D03*
%TO.P,R6,2*%
%TO.N,I2C1_SCL*%
X215500000Y-60750000D03*
%TD*%
D13*
%TO.P,J1,1,Pin_1*%
%TO.N,Net-(J1-Pin_1)*%
X237000000Y-77300000D03*
D14*
%TO.P,J1,2,Pin_2*%
%TO.N,BATT{slash}2*%
X239540000Y-77300000D03*
%TO.P,J1,3,Pin_3*%
%TO.N,GND*%
X242080000Y-77300000D03*
%TD*%
D15*
%TO.P,J5,1,Pin_1*%
%TO.N,Net-(D2-K)*%
X250095000Y-71710000D03*
%TO.P,J5,2,Pin_2*%
%TO.N,BATT{slash}2*%
X253405000Y-74250000D03*
%TO.P,J5,3,Pin_3*%
%TO.N,GND*%
X250095000Y-76790000D03*
%TD*%
D16*
%TO.P,C3,1*%
%TO.N,+3.3V*%
X204500000Y-76000000D03*
%TO.P,C3,2*%
%TO.N,GND*%
X204500000Y-73925000D03*
%TD*%
D12*
%TO.P,R2,1*%
%TO.N,VBAT*%
X197800000Y-66000000D03*
%TO.P,R2,2*%
%TO.N,GND*%
X197800000Y-68000000D03*
%TD*%
%TO.P,R3,1*%
%TO.N,FOUT*%
X190400000Y-42800000D03*
%TO.P,R3,2*%
%TO.N,Net-(D2-A)*%
X190400000Y-44800000D03*
%TD*%
D17*
%TO.P,TP1,1,1*%
%TO.N,+3.3V*%
X191400000Y-76400000D03*
%TD*%
D18*
%TO.P,U1,1,IN*%
%TO.N,+BATT*%
X211250000Y-70920000D03*
D19*
%TO.P,U1,2,GND*%
%TO.N,GND*%
X211250000Y-73460000D03*
%TO.P,U1,3,OUT*%
%TO.N,+3.3V*%
X211250000Y-76000000D03*
%TD*%
D20*
%TO.P,J3,1,Pin_1*%
%TO.N,+3.3V*%
X251020000Y-49690000D03*
%TO.P,J3,2,Pin_2*%
%TO.N,GND*%
X248480000Y-53000000D03*
%TO.P,J3,3,Pin_3*%
%TO.N,unconnected-(J3-Pin_3-Pad3)*%
X245940000Y-49690000D03*
%TO.P,J3,4,Pin_4*%
%TO.N,I2C1_SDA*%
X243400000Y-53000000D03*
%TO.P,J3,5,Pin_5*%
%TO.N,I2C1_SCL*%
X240860000Y-49690000D03*
%TO.P,J3,6,Pin_6*%
%TO.N,MODE_SW1*%
X238320000Y-53000000D03*
%TO.P,J3,7,Pin_7*%
%TO.N,MODE_B*%
X235780000Y-49690000D03*
%TO.P,J3,8,Pin_8*%
%TO.N,MODE_A*%
X233240000Y-53000000D03*
%TO.P,J3,9,Pin_9*%
%TO.N,unconnected-(J3-Pin_9-Pad9)*%
X230700000Y-49690000D03*
%TO.P,J3,10,Pin_10*%
%TO.N,unconnected-(J3-Pin_10-Pad10)*%
X228160000Y-53000000D03*
%TO.P,J3,11,Pin_11*%
%TO.N,unconnected-(J3-Pin_11-Pad11)*%
X225620000Y-49690000D03*
%TO.P,J3,12,Pin_12*%
%TO.N,unconnected-(J3-Pin_12-Pad12)*%
X223080000Y-53000000D03*
%TO.P,J3,13,Pin_13*%
%TO.N,unconnected-(J3-Pin_13-Pad13)*%
X220540000Y-49690000D03*
%TO.P,J3,14,Pin_14*%
%TO.N,UART1_RX*%
X218000000Y-53000000D03*
%TO.P,J3,15,Pin_15*%
%TO.N,UART1_TX*%
X215460000Y-49690000D03*
%TO.P,J3,16,Pin_16*%
%TO.N,FIN*%
X212920000Y-53000000D03*
%TO.P,J3,17,Pin_17*%
%TO.N,unconnected-(J3-Pin_17-Pad17)*%
X210380000Y-49690000D03*
%TO.P,J3,18,Pin_18*%
%TO.N,unconnected-(J3-Pin_18-Pad18)*%
X207840000Y-53000000D03*
%TO.P,J3,19,Pin_19*%
%TO.N,unconnected-(J3-Pin_19-Pad19)*%
X205300000Y-49690000D03*
%TO.P,J3,20,Pin_20*%
%TO.N,LCD_RESET*%
X202760000Y-53000000D03*
%TD*%
D21*
%TO.P,C1,1*%
%TO.N,+BATT*%
X206437500Y-69400000D03*
%TO.P,C1,2*%
%TO.N,GND*%
X204362500Y-69400000D03*
%TD*%
D20*
%TO.P,J4,1,Pin_1*%
%TO.N,unconnected-(J4-Pin_1-Pad1)*%
X251020000Y-34690000D03*
%TO.P,J4,2,Pin_2*%
%TO.N,unconnected-(J4-Pin_2-Pad2)*%
X248480000Y-38000000D03*
%TO.P,J4,3,Pin_3*%
%TO.N,unconnected-(J4-Pin_3-Pad3)*%
X245940000Y-34690000D03*
%TO.P,J4,4,Pin_4*%
%TO.N,unconnected-(J4-Pin_4-Pad4)*%
X243400000Y-38000000D03*
%TO.P,J4,5,Pin_5*%
%TO.N,VBAT*%
X240860000Y-34690000D03*
%TO.P,J4,6,Pin_6*%
%TO.N,unconnected-(J4-Pin_6-Pad6)*%
X238320000Y-38000000D03*
%TO.P,J4,7,Pin_7*%
%TO.N,unconnected-(J4-Pin_7-Pad7)*%
X235780000Y-34690000D03*
%TO.P,J4,8,Pin_8*%
%TO.N,unconnected-(J4-Pin_8-Pad8)*%
X233240000Y-38000000D03*
%TO.P,J4,9,Pin_9*%
%TO.N,unconnected-(J4-Pin_9-Pad9)*%
X230700000Y-34690000D03*
%TO.P,J4,10,Pin_10*%
%TO.N,unconnected-(J4-Pin_10-Pad10)*%
X228160000Y-38000000D03*
%TO.P,J4,11,Pin_11*%
%TO.N,unconnected-(J4-Pin_11-Pad11)*%
X225620000Y-34690000D03*
%TO.P,J4,12,Pin_12*%
%TO.N,unconnected-(J4-Pin_12-Pad12)*%
X223080000Y-38000000D03*
%TO.P,J4,13,Pin_13*%
%TO.N,unconnected-(J4-Pin_13-Pad13)*%
X220540000Y-34690000D03*
%TO.P,J4,14,Pin_14*%
%TO.N,unconnected-(J4-Pin_14-Pad14)*%
X218000000Y-38000000D03*
%TO.P,J4,15,Pin_15*%
%TO.N,USER_BTN*%
X215460000Y-34690000D03*
%TO.P,J4,16,Pin_16*%
%TO.N,FOUT*%
X212920000Y-38000000D03*
%TO.P,J4,17,Pin_17*%
%TO.N,unconnected-(J4-Pin_17-Pad17)*%
X210380000Y-34690000D03*
%TO.P,J4,18,Pin_18*%
%TO.N,unconnected-(J4-Pin_18-Pad18)*%
X207840000Y-38000000D03*
%TO.P,J4,19,Pin_19*%
%TO.N,unconnected-(J4-Pin_19-Pad19)*%
X205300000Y-34690000D03*
%TO.P,J4,20,Pin_20*%
%TO.N,unconnected-(J4-Pin_20-Pad20)*%
X202760000Y-38000000D03*
%TD*%
D22*
%TO.P,C2,1*%
%TO.N,+3.3V*%
X199250000Y-76000000D03*
D23*
%TO.P,C2,2*%
%TO.N,GND*%
X199250000Y-73500000D03*
%TD*%
D24*
%TO.P,C4,1*%
%TO.N,Net-(U2-C1+)*%
X229462500Y-60000000D03*
%TO.P,C4,2*%
%TO.N,Net-(U2-C1-)*%
X231537500Y-60000000D03*
%TD*%
D15*
%TO.P,J2,1,Pin_1*%
%TO.N,Net-(D1-A)*%
X261095000Y-58980000D03*
%TO.P,J2,2,Pin_2*%
%TO.N,Net-(J1-Pin_1)*%
X264405000Y-61520000D03*
%TD*%
D25*
%TO.P,R4,1*%
%TO.N,GND*%
X178200000Y-67200000D03*
%TO.P,R4,2*%
%TO.N,Net-(D2-A)*%
X180200000Y-67200000D03*
%TD*%
%TO.P,R1,1*%
%TO.N,+BATT*%
X192800000Y-63200000D03*
%TO.P,R1,2*%
%TO.N,VBAT*%
X194800000Y-63200000D03*
%TD*%
D17*
%TO.P,TP2,1,1*%
%TO.N,GND*%
X185000000Y-76400000D03*
%TD*%
D24*
%TO.P,C5,1*%
%TO.N,GND*%
X223462500Y-60000000D03*
%TO.P,C5,2*%
%TO.N,Net-(U2-VOUT)*%
X225537500Y-60000000D03*
%TD*%
D26*
%TO.P,Q1,1,C*%
%TO.N,Net-(D2-K)*%
X182475000Y-61200000D03*
D27*
%TO.P,Q1,2,B*%
%TO.N,Net-(D2-A)*%
X180195000Y-61200000D03*
%TO.P,Q1,3,E*%
%TO.N,GND*%
X177915000Y-61200000D03*
%TD*%
D13*
%TO.P,J6,1,Pin_1*%
%TO.N,MODE_A*%
X175000000Y-51200000D03*
D14*
%TO.P,J6,2,Pin_2*%
%TO.N,MODE_B*%
X175000000Y-48660000D03*
%TO.P,J6,3,Pin_3*%
%TO.N,MODE_SW1*%
X175000000Y-46120000D03*
%TO.P,J6,4,Pin_4*%
%TO.N,GND*%
X175000000Y-43580000D03*
%TD*%
D28*
%TO.P,R5,1*%
%TO.N,+BATT*%
X188400000Y-63200000D03*
%TO.P,R5,2*%
%TO.N,Net-(D2-K)*%
X188400000Y-61200000D03*
%TD*%
D15*
%TO.P,J7,1,Pin_1*%
%TO.N,UART1_TX*%
X192945000Y-51060000D03*
%TO.P,J7,2,Pin_2*%
%TO.N,UART1_RX*%
X196255000Y-53600000D03*
%TO.P,J7,3,Pin_3*%
%TO.N,GND*%
X192945000Y-56140000D03*
%TD*%
%TO.P,J8,1,Pin_1*%
%TO.N,USER_BTN*%
X185255000Y-39470000D03*
%TO.P,J8,2,Pin_2*%
%TO.N,GND*%
X181945000Y-36930000D03*
%TD*%
D12*
%TO.P,R7,1*%
%TO.N,+3.3V*%
X220000000Y-58750000D03*
%TO.P,R7,2*%
%TO.N,I2C1_SDA*%
X220000000Y-60750000D03*
%TD*%
%TO.P,R8,1*%
%TO.N,FOUT*%
X196750000Y-41400000D03*
%TO.P,R8,2*%
%TO.N,FIN*%
X196750000Y-43400000D03*
%TD*%
D22*
%TO.P,U2,1,~{RST}*%
%TO.N,LCD_RESET*%
X217500000Y-63900000D03*
D23*
%TO.P,U2,2,SCL*%
%TO.N,I2C1_SCL*%
X219500000Y-63900000D03*
%TO.P,U2,3,SDA*%
%TO.N,I2C1_SDA*%
X221500000Y-63900000D03*
%TO.P,U2,4,VSS*%
%TO.N,GND*%
X223500000Y-63900000D03*
%TO.P,U2,5,VDD*%
%TO.N,+3.3V*%
X225500000Y-63900000D03*
%TO.P,U2,6,VOUT*%
%TO.N,Net-(U2-VOUT)*%
X227500000Y-63900000D03*
%TO.P,U2,7,C1+*%
%TO.N,Net-(U2-C1+)*%
X229500000Y-63900000D03*
%TO.P,U2,8,C1-*%
%TO.N,Net-(U2-C1-)*%
X231500000Y-63900000D03*
D29*
%TO.P,U2,9,A*%
%TO.N,GND*%
X263050000Y-52250000D03*
%TO.P,U2,10,K*%
X263050000Y-43750000D03*
%TD*%
D30*
%TO.N,+BATT*%
X232680000Y-70920000D03*
X190800000Y-63200000D03*
%TO.N,GND*%
X200500000Y-68000000D03*
X248400000Y-49400000D03*
X181800000Y-39400000D03*
X191200000Y-59200000D03*
%TO.N,+3.3V*%
X250000000Y-55600000D03*
X228600000Y-57200000D03*
%TO.N,Net-(D2-K)*%
X246200000Y-69800000D03*
X190800000Y-61200000D03*
%TO.N,I2C1_SDA*%
X240800000Y-54200000D03*
%TO.N,I2C1_SCL*%
X240800000Y-52000000D03*
%TO.N,MODE_A*%
X230950000Y-43800000D03*
%TO.N,UART1_TX*%
X214400000Y-46200000D03*
X198000000Y-46200000D03*
%TO.N,UART1_RX*%
X199200000Y-53000000D03*
X215600000Y-53000000D03*
%TO.N,MODE_B*%
X232600000Y-42600000D03*
%TO.N,VBAT*%
X200400000Y-45000000D03*
X223400000Y-45000000D03*
%TO.N,MODE_SW1*%
X234200000Y-41550000D03*
%TO.N,USER_BTN*%
X215400000Y-40000000D03*
X188600000Y-40000000D03*
%TD*%
D31*
%TO.N,+BATT*%
X207937500Y-69400000D02*
X206437500Y-69400000D01*
X209457500Y-70920000D02*
X207937500Y-69400000D01*
X211250000Y-70920000D02*
X209457500Y-70920000D01*
X190800000Y-63200000D02*
X188400000Y-63200000D01*
X232680000Y-70920000D02*
X237400000Y-66200000D01*
X206437500Y-69400000D02*
X206537500Y-69300000D01*
X192800000Y-63200000D02*
X190800000Y-63200000D01*
X237400000Y-66200000D02*
X237400000Y-64600000D01*
%TO.N,GND*%
X177915000Y-64115000D02*
X178200000Y-64400000D01*
X192945000Y-57455000D02*
X191200000Y-59200000D01*
X245700000Y-77300000D02*
X246210000Y-76790000D01*
X218340000Y-73460000D02*
X223500000Y-68300000D01*
X248400000Y-52920000D02*
X248480000Y-53000000D01*
X223500000Y-60037500D02*
X223462500Y-60000000D01*
X201750000Y-73500000D02*
X199250000Y-73500000D01*
X177915000Y-61200000D02*
X177915000Y-64115000D01*
X181800000Y-39400000D02*
X181800000Y-37075000D01*
X204362500Y-69400000D02*
X202962500Y-68000000D01*
X204500000Y-73925000D02*
X202175000Y-73925000D01*
X248400000Y-49400000D02*
X248400000Y-52920000D01*
X202175000Y-73925000D02*
X201750000Y-73500000D01*
X202962500Y-68000000D02*
X200500000Y-68000000D01*
X223500000Y-63900000D02*
X223500000Y-60037500D01*
X192945000Y-56140000D02*
X192945000Y-57455000D01*
X178200000Y-67200000D02*
X178200000Y-64400000D01*
X250095000Y-76790000D02*
X246210000Y-76790000D01*
X223500000Y-68300000D02*
X223500000Y-63900000D01*
X200500000Y-68000000D02*
X197800000Y-68000000D01*
X242080000Y-77300000D02*
X245700000Y-77300000D01*
X211250000Y-73460000D02*
X218340000Y-73460000D01*
%TO.N,+3.3V*%
X251020000Y-54580000D02*
X251020000Y-49690000D01*
X228600000Y-57200000D02*
X221550000Y-57200000D01*
X195200000Y-76400000D02*
X191400000Y-76400000D01*
X221550000Y-57200000D02*
X220000000Y-58750000D01*
X199250000Y-76000000D02*
X195600000Y-76000000D01*
X225500000Y-68900000D02*
X218400000Y-76000000D01*
X199250000Y-76000000D02*
X198750000Y-76500000D01*
X250000000Y-55600000D02*
X251020000Y-54580000D01*
X218400000Y-76000000D02*
X211250000Y-76000000D01*
X207400000Y-76000000D02*
X211250000Y-76000000D01*
X215500000Y-58750000D02*
X220000000Y-58750000D01*
X195600000Y-76000000D02*
X195200000Y-76400000D01*
X199250000Y-76000000D02*
X204500000Y-76000000D01*
X204500000Y-76000000D02*
X207400000Y-76000000D01*
X225500000Y-63900000D02*
X225500000Y-68900000D01*
%TO.N,Net-(U2-C1-)*%
X231500000Y-63900000D02*
X231500000Y-60037500D01*
X231500000Y-60037500D02*
X231537500Y-60000000D01*
%TO.N,Net-(U2-C1+)*%
X229500000Y-63900000D02*
X229500000Y-60037500D01*
X229500000Y-60037500D02*
X229462500Y-60000000D01*
%TO.N,Net-(U2-VOUT)*%
X227500000Y-63900000D02*
X227500000Y-61962500D01*
X227500000Y-61962500D02*
X225537500Y-60000000D01*
%TO.N,Net-(D1-A)*%
X261095000Y-58980000D02*
X251020000Y-58980000D01*
X245400000Y-64600000D02*
X242400000Y-64600000D01*
X251020000Y-58980000D02*
X245400000Y-64600000D01*
%TO.N,Net-(D2-K)*%
X182475000Y-57725000D02*
X182475000Y-61200000D01*
X188400000Y-61200000D02*
X190800000Y-61200000D01*
X188400000Y-61200000D02*
X182475000Y-61200000D01*
X247400000Y-69800000D02*
X249310000Y-71710000D01*
X246200000Y-69800000D02*
X247400000Y-69800000D01*
X185200000Y-55000000D02*
X182475000Y-57725000D01*
X249310000Y-71710000D02*
X250095000Y-71710000D01*
%TO.N,Net-(D2-A)*%
X180200000Y-67200000D02*
X180200000Y-61205000D01*
X180200000Y-52400000D02*
X180200000Y-55000000D01*
X180200000Y-61205000D02*
X180195000Y-61200000D01*
X180200000Y-55000000D02*
X180200000Y-61080000D01*
X190400000Y-44800000D02*
X187800000Y-44800000D01*
X187800000Y-44800000D02*
X180200000Y-52400000D01*
%TO.N,Net-(J1-Pin_1)*%
X237000000Y-77300000D02*
X237000000Y-75775000D01*
X237000000Y-75775000D02*
X251255000Y-61520000D01*
X251255000Y-61520000D02*
X264405000Y-61520000D01*
%TO.N,BATT{slash}2*%
X241000000Y-74250000D02*
X239540000Y-75710000D01*
X253405000Y-74250000D02*
X241000000Y-74250000D01*
X239540000Y-75710000D02*
X239540000Y-77300000D01*
%TO.N,I2C1_SDA*%
X240800000Y-54200000D02*
X242000000Y-53000000D01*
X242000000Y-53000000D02*
X243400000Y-53000000D01*
X221500000Y-63900000D02*
X221500000Y-62250000D01*
X221500000Y-62250000D02*
X220000000Y-60750000D01*
%TO.N,FOUT*%
X191800000Y-41400000D02*
X190400000Y-42800000D01*
X211940000Y-41400000D02*
X212920000Y-40420000D01*
X196750000Y-41400000D02*
X211940000Y-41400000D01*
X212920000Y-40420000D02*
X212920000Y-38000000D01*
X196750000Y-41400000D02*
X191800000Y-41400000D01*
%TO.N,I2C1_SCL*%
X240860000Y-51940000D02*
X240860000Y-49690000D01*
X240800000Y-52000000D02*
X240860000Y-51940000D01*
X219500000Y-62768630D02*
X217490685Y-60759315D01*
X217490685Y-60759315D02*
X217481370Y-60750000D01*
X217481370Y-60750000D02*
X215500000Y-60750000D01*
X219500000Y-63900000D02*
X219500000Y-62768630D01*
%TO.N,FIN*%
X212920000Y-48080000D02*
X208240000Y-43400000D01*
X212920000Y-53000000D02*
X212920000Y-48080000D01*
X208240000Y-43400000D02*
X196750000Y-43400000D01*
%TO.N,MODE_A*%
X233240000Y-46090000D02*
X233240000Y-53000000D01*
X230950000Y-43800000D02*
X233240000Y-46090000D01*
%TO.N,LCD_RESET*%
X204000000Y-53000000D02*
X214900000Y-63900000D01*
X202760000Y-53160000D02*
X202760000Y-53000000D01*
X202760000Y-53000000D02*
X204000000Y-53000000D01*
X214900000Y-63900000D02*
X217500000Y-63900000D01*
%TO.N,UART1_TX*%
X215460000Y-49690000D02*
X215460000Y-47260000D01*
X192945000Y-51060000D02*
X192945000Y-50055000D01*
X196800000Y-46200000D02*
X198000000Y-46200000D01*
X192945000Y-50055000D02*
X196800000Y-46200000D01*
X215460000Y-47260000D02*
X214400000Y-46200000D01*
%TO.N,UART1_RX*%
X198600000Y-53600000D02*
X199200000Y-53000000D01*
X218000000Y-53000000D02*
X215600000Y-53000000D01*
X196255000Y-53600000D02*
X198600000Y-53600000D01*
%TO.N,MODE_B*%
X235780000Y-45780000D02*
X235780000Y-49690000D01*
X232600000Y-42600000D02*
X235780000Y-45780000D01*
%TO.N,VBAT*%
X239200000Y-40800000D02*
X240860000Y-39140000D01*
X197800000Y-64400000D02*
X196600000Y-63200000D01*
X196600000Y-63200000D02*
X194800000Y-63200000D01*
X200400000Y-45000000D02*
X200400000Y-59400000D01*
X200400000Y-59400000D02*
X196600000Y-63200000D01*
X197800000Y-66000000D02*
X197800000Y-64400000D01*
X223400000Y-45000000D02*
X227600000Y-40800000D01*
X227600000Y-40800000D02*
X239200000Y-40800000D01*
X240860000Y-39140000D02*
X240860000Y-34690000D01*
%TO.N,MODE_SW1*%
X234200000Y-41550000D02*
X234350000Y-41550000D01*
X238320000Y-45520000D02*
X238320000Y-53000000D01*
X234350000Y-41550000D02*
X238320000Y-45520000D01*
%TO.N,USER_BTN*%
X215460000Y-39940000D02*
X215460000Y-34690000D01*
X188000000Y-39400000D02*
X185325000Y-39400000D01*
X215400000Y-40000000D02*
X215460000Y-39940000D01*
X185325000Y-39400000D02*
X185255000Y-39470000D01*
X188600000Y-40000000D02*
X188000000Y-39400000D01*
%TD*%
M02*
